G04 This is an RS-274x file exported by *
G04 gerbv version 2.4.0 *
G04 More information is available about gerbv at *
G04 http://gerbv.gpleda.org/ *
G04 --End of header info--*
%MOIN*%
%FSLAX23Y23*%
%IPPOS*%
G04 --Define apertures--*
%ADD10C,0.0080*%
%ADD11R,0.0680X0.0680*%
%ADD12C,0.0680*%
%ADD13C,0.0474*%
%ADD14O,0.0474X0.0946*%
%ADD15C,0.0740*%
%ADD16R,0.4929X0.3158*%
%ADD17R,2.3630X0.3158*%
%ADD18R,0.0430X0.0630*%
%ADD19R,0.0630X0.0430*%
%ADD20C,0.0592*%
%ADD21R,0.0513X0.0867*%
%ADD22R,0.0867X0.0867*%
%ADD23R,0.0867X0.0474*%
%ADD24C,0.0298*%
%ADD25C,0.0430*%
%ADD26C,0.0237*%
G04 --Start main section--*
G54D11*
G01X03850Y-3850D03*
G54D12*
G01X03850Y-3750D03*
G54D13*
G01X05014Y-2386D03*
G01X05045Y-2434D03*
G01X05077Y-2386D03*
G01X05108Y-2434D03*
G01X04982Y-2434D03*
G54D14*
G01X04901Y-2233D03*
G01X05189Y-2233D03*
G54D11*
G01X03850Y-3950D03*
G54D12*
G01X03850Y-4050D03*
G01X04400Y-4080D03*
G01X04450Y-3020D03*
G01X04350Y-3020D03*
G54D15*
G01X07130Y-2425D03*
G01X07230Y-2425D03*
G01X07353Y-2425D03*
G01X07453Y-2425D03*
G54D11*
G01X03952Y-3599D03*
G54D12*
G01X03852Y-3599D03*
G01X03952Y-3499D03*
G01X03852Y-3499D03*
G01X03952Y-3399D03*
G01X03852Y-3399D03*
G01X03952Y-3299D03*
G01X03852Y-3299D03*
G01X03952Y-3199D03*
G01X03852Y-3199D03*
G01X03952Y-3099D03*
G01X03852Y-3099D03*
G01X03952Y-2999D03*
G01X03852Y-2999D03*
G54D15*
G01X06908Y-2425D03*
G01X07008Y-2425D03*
G54D16*
G01X07236Y-5279D03*
G01X04184Y-5279D03*
G54D17*
G01X05710Y-5279D03*
G54D18*
G01X05884Y-3437D03*
G01X05959Y-3437D03*
G01X05050Y-2602D03*
G01X05125Y-2602D03*
G01X07258Y-3360D03*
G01X07183Y-3360D03*
G01X07183Y-2970D03*
G01X07258Y-2970D03*
G54D19*
G01X06398Y-4602D03*
G01X06398Y-4527D03*
G01X05830Y-4727D03*
G01X05830Y-4652D03*
G01X05248Y-4727D03*
G01X05248Y-4652D03*
G01X06398Y-4367D03*
G01X06398Y-4442D03*
G01X05830Y-4492D03*
G01X05830Y-4567D03*
G01X05248Y-4492D03*
G01X05248Y-4567D03*
G54D18*
G01X06973Y-3310D03*
G01X07048Y-3310D03*
G01X06728Y-3480D03*
G01X06653Y-3480D03*
G54D19*
G01X06270Y-3987D03*
G01X06270Y-3912D03*
G54D18*
G01X05746Y-3512D03*
G01X05821Y-3512D03*
G54D19*
G01X06000Y-3987D03*
G01X06000Y-3912D03*
G01X06520Y-3987D03*
G01X06520Y-3912D03*
G54D18*
G01X06728Y-3740D03*
G01X06653Y-3740D03*
G01X06728Y-3250D03*
G01X06653Y-3250D03*
G54D19*
G01X06555Y-3005D03*
G01X06555Y-3080D03*
G54D18*
G01X05753Y-3740D03*
G01X05828Y-3740D03*
G54D19*
G01X07383Y-4937D03*
G01X07383Y-4862D03*
G54D18*
G01X05475Y-3682D03*
G01X05400Y-3682D03*
G01X06973Y-3660D03*
G01X07048Y-3660D03*
G01X05884Y-3512D03*
G01X05959Y-3512D03*
G01X04763Y-3345D03*
G01X04838Y-3345D03*
G54D19*
G01X04780Y-3142D03*
G01X04780Y-3217D03*
G54D18*
G01X04998Y-3345D03*
G01X04923Y-3345D03*
G54D19*
G01X04798Y-3512D03*
G01X04798Y-3437D03*
G01X05563Y-4492D03*
G01X05563Y-4567D03*
G01X06145Y-4492D03*
G01X06145Y-4567D03*
G01X06713Y-4367D03*
G01X06713Y-4442D03*
G01X06713Y-4602D03*
G01X06713Y-4527D03*
G01X06145Y-4727D03*
G01X06145Y-4652D03*
G01X05563Y-4727D03*
G01X05563Y-4652D03*
G54D20*
G01X05431Y-3205D03*
G01X06313Y-3205D03*
G54D21*
G01X06139Y-3291D03*
G01X06041Y-3291D03*
G01X05942Y-3291D03*
G01X05844Y-3291D03*
G01X05745Y-3291D03*
G01X05647Y-3291D03*
G01X05552Y-3291D03*
G01X05485Y-3291D03*
G01X06238Y-3291D03*
G54D22*
G01X06471Y-3026D03*
G01X06471Y-2291D03*
G01X05329Y-3026D03*
G01X05329Y-2291D03*
G54D23*
G01X05345Y-2843D03*
G01X05345Y-2490D03*
G01X05345Y-2388D03*
G54D18*
G01X06805Y-3825D03*
G01X06880Y-3825D03*
G01X06785Y-2950D03*
G01X06710Y-2950D03*
G01X06805Y-3895D03*
G01X06880Y-3895D03*
G54D19*
G01X05058Y-2665D03*
G01X05058Y-2740D03*
G01X04988Y-2517D03*
G01X04988Y-2592D03*
G54D25*
G01X06996Y-4032D03*
G54D24*
G01X05535Y-3692D03*
G01X06938Y-3307D03*
G01X06938Y-3662D03*
G01X07541Y-3360D03*
G01X07230Y-3413D03*
G54D25*
G01X06400Y-3791D03*
G54D24*
G01X06015Y-2757D03*
G01X05750Y-3469D03*
G01X06724Y-3663D03*
G01X06137Y-3116D03*
G01X05754Y-3650D03*
G01X06751Y-3336D03*
G01X06228Y-2707D03*
G01X06433Y-3987D03*
G01X06215Y-3987D03*
G01X06683Y-4020D03*
G01X05843Y-3155D03*
G01X06614Y-2984D03*
G01X05695Y-2785D03*
G01X07409Y-2929D03*
G01X04347Y-4189D03*
G54D25*
G01X04745Y-3677D03*
G54D24*
G01X05695Y-2686D03*
G01X05705Y-3387D03*
G54D25*
G01X07503Y-4137D03*
G01X07505Y-4090D03*
G01X07505Y-4043D03*
G54D24*
G01X04648Y-3300D03*
G01X05807Y-2686D03*
G01X07184Y-2906D03*
G01X06309Y-2973D03*
G01X06132Y-2973D03*
G01X05799Y-2980D03*
G01X06760Y-3146D03*
G01X06728Y-3307D03*
G01X06756Y-3653D03*
G01X06768Y-3740D03*
G01X05713Y-3602D03*
G01X06428Y-4022D03*
G01X06160Y-4015D03*
G01X05838Y-4022D03*
G01X05715Y-3855D03*
G54D25*
G01X04745Y-4385D03*
G01X04695Y-4385D03*
G01X04645Y-4385D03*
G54D24*
G01X05295Y-4510D03*
G01X05515Y-4510D03*
G01X06095Y-4510D03*
G01X05875Y-4510D03*
G01X06665Y-4385D03*
G01X06445Y-4385D03*
G01X06928Y-4512D03*
G01X04308Y-4485D03*
G54D25*
G01X04658Y-4965D03*
G54D24*
G01X05051Y-4601D03*
G54D25*
G01X07540Y-4435D03*
G01X07265Y-4505D03*
G54D24*
G01X05298Y-4720D03*
G01X06665Y-4587D03*
G01X06448Y-4587D03*
G01X06095Y-4720D03*
G01X05878Y-4720D03*
G01X05513Y-4720D03*
G54D25*
G01X04620Y-5052D03*
G01X04620Y-5002D03*
G54D24*
G01X05404Y-2324D03*
G01X05564Y-2324D03*
G01X04450Y-2790D03*
G01X04483Y-3440D03*
G01X06518Y-2469D03*
G01X06187Y-2581D03*
G01X04435Y-3400D03*
G01X04153Y-3445D03*
G01X05670Y-4945D03*
G01X06630Y-4745D03*
G01X06668Y-4737D03*
G01X07085Y-4970D03*
G01X05635Y-5005D03*
G01X05775Y-5025D03*
G01X05845Y-5025D03*
G01X06595Y-5025D03*
G01X06695Y-5025D03*
G01X05915Y-5025D03*
G01X05985Y-5025D03*
G01X06060Y-5025D03*
G01X06130Y-5025D03*
G01X06205Y-5025D03*
G01X06355Y-5025D03*
G01X06430Y-5025D03*
G01X06495Y-5025D03*
G01X04770Y-5020D03*
G01X05180Y-5005D03*
G01X05570Y-5030D03*
G01X05435Y-5030D03*
G01X05335Y-5030D03*
G01X05215Y-5030D03*
G01X05233Y-4875D03*
G01X04360Y-5000D03*
G01X05215Y-4897D03*
G01X05235Y-4830D03*
G01X04260Y-5000D03*
G01X05213Y-4852D03*
G01X05148Y-4805D03*
G01X05215Y-4807D03*
G01X04165Y-5000D03*
G01X06708Y-4737D03*
G01X07185Y-4970D03*
G01X06753Y-4737D03*
G01X06783Y-4732D03*
G01X07285Y-4970D03*
G01X06813Y-4715D03*
G01X04035Y-5020D03*
G01X05265Y-4060D03*
G01X05580Y-4060D03*
G01X04880Y-4437D03*
G01X04960Y-4470D03*
G01X04858Y-4460D03*
G01X04950Y-4497D03*
G01X04895Y-5030D03*
G01X04825Y-5030D03*
G01X04795Y-3823D03*
G01X04146Y-3854D03*
G01X05310Y-3509D03*
G01X05243Y-3640D03*
G01X05038Y-3800D03*
G01X04128Y-3825D03*
G01X04108Y-3802D03*
G01X05018Y-3777D03*
G01X05240Y-3610D03*
G01X05283Y-3475D03*
G01X05333Y-3528D03*
G01X05243Y-3670D03*
G01X05058Y-3822D03*
G01X04165Y-3882D03*
G01X05535Y-3750D03*
G01X05150Y-3339D03*
G01X05555Y-4032D03*
G01X05265Y-3977D03*
G01X05265Y-3582D03*
G01X05245Y-3472D03*
G01X06773Y-3982D03*
G01X05448Y-2825D03*
G01X03900Y-2815D03*
G54D25*
G01X04180Y-4890D03*
G01X04180Y-4680D03*
G01X03840Y-4880D03*
G01X03840Y-4970D03*
G01X04073Y-4970D03*
G01X04313Y-4602D03*
G01X06650Y-3840D03*
G54D24*
G01X05706Y-3564D03*
G01X05705Y-3484D03*
G54D25*
G01X05800Y-3600D03*
G01X05770Y-3100D03*
G54D24*
G01X06618Y-3426D03*
G54D25*
G01X06811Y-4071D03*
G01X06650Y-3992D03*
G54D24*
G01X06572Y-3910D03*
G54D25*
G01X06976Y-4209D03*
G01X06976Y-4157D03*
G01X06858Y-4216D03*
G54D24*
G01X07016Y-3846D03*
G54D25*
G01X07500Y-4551D03*
G01X07299Y-4701D03*
G01X07299Y-4866D03*
G54D24*
G01X05290Y-3087D03*
G01X05224Y-3102D03*
G01X05795Y-3247D03*
G54D25*
G01X06113Y-3152D03*
G54D24*
G01X06032Y-3060D03*
G01X05803Y-3126D03*
G54D25*
G01X06530Y-2414D03*
G01X05224Y-3213D03*
G01X07626Y-4138D03*
G01X07650Y-3950D03*
G01X07650Y-3800D03*
G01X07650Y-3650D03*
G01X07650Y-3500D03*
G01X07500Y-3500D03*
G01X07350Y-3650D03*
G01X07200Y-3800D03*
G01X04860Y-4685D03*
G01X07626Y-4445D03*
G01X07500Y-4700D03*
G01X07500Y-4900D03*
G01X07650Y-4700D03*
G01X07650Y-4550D03*
G01X07429Y-4028D03*
G01X07276Y-4028D03*
G01X07126Y-4028D03*
G01X07110Y-4140D03*
G01X07348Y-4140D03*
G01X07228Y-4197D03*
G54D24*
G01X07408Y-2990D03*
G54D25*
G01X07626Y-4291D03*
G01X05690Y-4180D03*
G01X05580Y-4270D03*
G01X06680Y-2610D03*
G01X06680Y-2414D03*
G01X06000Y-3600D03*
G01X06400Y-3650D03*
G01X06200Y-3600D03*
G01X06400Y-3200D03*
G01X06000Y-3700D03*
G01X06200Y-3700D03*
G01X05230Y-3570D03*
G54D24*
G01X05265Y-3302D03*
G54D25*
G01X05070Y-3570D03*
G01X05070Y-3740D03*
G01X05230Y-3740D03*
G01X04878Y-4320D03*
G01X04878Y-3677D03*
G01X05250Y-4100D03*
G01X05000Y-4100D03*
G01X05000Y-4287D03*
G01X05030Y-4020D03*
G01X05248Y-4244D03*
G01X05580Y-4100D03*
G01X05300Y-3710D03*
G01X05230Y-3870D03*
G01X05070Y-3870D03*
G54D24*
G01X05868Y-2684D03*
G54D25*
G01X03850Y-4470D03*
G01X04403Y-4512D03*
G01X04890Y-3470D03*
G01X04890Y-3250D03*
G54D24*
G01X05215Y-3402D03*
G01X06486Y-3113D03*
G54D25*
G01X04770Y-4320D03*
G01X04640Y-4320D03*
G01X04480Y-4430D03*
G01X04480Y-4320D03*
G01X04570Y-4680D03*
G01X04660Y-4450D03*
G01X04770Y-4450D03*
G01X06578Y-4027D03*
G01X06730Y-3082D03*
G01X06928Y-2962D03*
G01X06888Y-2887D03*
G01X06865Y-4592D03*
G01X06865Y-4550D03*
G01X06840Y-4510D03*
G01X06000Y-2270D03*
G01X06300Y-2270D03*
G01X05850Y-2270D03*
G01X05550Y-2270D03*
G01X05700Y-2400D03*
G54D24*
G01X06018Y-2392D03*
G01X07332Y-3414D03*
G01X05786Y-2450D03*
G54D25*
G01X04250Y-2400D03*
G01X04550Y-2400D03*
G01X04160Y-3590D03*
G01X04480Y-4770D03*
G01X05650Y-2700D03*
G01X05420Y-2400D03*
G01X05550Y-2400D03*
G01X05550Y-2750D03*
G01X05400Y-2550D03*
G01X05300Y-2800D03*
G01X05145Y-2550D03*
G01X05145Y-2800D03*
G01X04900Y-2400D03*
G01X04600Y-2700D03*
G01X04750Y-2550D03*
G01X04900Y-2550D03*
G01X04750Y-2800D03*
G01X04500Y-2800D03*
G01X04900Y-2800D03*
G01X04280Y-3030D03*
G01X04020Y-3030D03*
G01X04400Y-2800D03*
G01X04100Y-2800D03*
G01X04250Y-2700D03*
G01X03950Y-2700D03*
G01X04400Y-2550D03*
G01X04100Y-2550D03*
G01X05250Y-4020D03*
G01X06420Y-2730D03*
G01X06310Y-2600D03*
G01X06550Y-3700D03*
G01X06550Y-3600D03*
G01X06550Y-3200D03*
G01X06550Y-3400D03*
G01X06450Y-3750D03*
G01X06350Y-3940D03*
G01X06350Y-3750D03*
G01X06660Y-3160D03*
G01X05800Y-3980D03*
G01X05730Y-3910D03*
G01X06450Y-3940D03*
G01X06650Y-3600D03*
G01X07510Y-3050D03*
G01X07140Y-2740D03*
G01X06784Y-2414D03*
G01X07005Y-2635D03*
G01X07340Y-2800D03*
G01X04020Y-3710D03*
G01X04590Y-3730D03*
G01X04770Y-4130D03*
G01X04770Y-3920D03*
G01X04640Y-4130D03*
G01X04640Y-3990D03*
G01X05400Y-3612D03*
G01X04660Y-4770D03*
G01X05013Y-4775D03*
G01X05000Y-4460D03*
G01X05130Y-4460D03*
G01X05120Y-4775D03*
G01X04700Y-3500D03*
G01X04700Y-3250D03*
G01X04160Y-3210D03*
G01X04300Y-3210D03*
G01X04010Y-3500D03*
G54D24*
G01X05759Y-4560D03*
G01X07038Y-3032D03*
G01X07038Y-3092D03*
G01X07174Y-3865D03*
G01X07160Y-3414D03*
G01X07258Y-2906D03*
G01X04697Y-3438D03*
G01X04923Y-3302D03*
G01X04730Y-3217D03*
G01X06617Y-3249D03*
G01X06615Y-3095D03*
G01X06171Y-3051D03*
G01X05831Y-3860D03*
G01X05994Y-3868D03*
G01X06328Y-3911D03*
G01X06482Y-3845D03*
G01X06652Y-3693D03*
G01X05978Y-2570D03*
G01X06000Y-2514D03*
G54D25*
G01X05578Y-4610D03*
G54D24*
G01X05760Y-4660D03*
G54D25*
G01X05245Y-4610D03*
G01X05910Y-4610D03*
G54D24*
G01X05215Y-3485D03*
G01X04525Y-3557D03*
G01X04460Y-3467D03*
G54D25*
G01X06803Y-4980D03*
G01X06803Y-4930D03*
G01X06803Y-4880D03*
G54D24*
G01X04955Y-3535D03*
G01X05535Y-3582D03*
G01X05483Y-3532D03*
G01X05448Y-2915D03*
G01X04635Y-2977D03*
G01X04533Y-3117D03*
G01X06723Y-3937D03*
G01X06835Y-2962D03*
G01X06745Y-3962D03*
G01X05413Y-3157D03*
G01X05500Y-2972D03*
G01X05190Y-3242D03*
G01X04055Y-3992D03*
G01X04063Y-3803D03*
G01X04697Y-3756D03*
G01X04638Y-3655D03*
G01X04656Y-3688D03*
G01X05455Y-2972D03*
G01X04586Y-3478D03*
G01X05478Y-2992D03*
G01X05165Y-3262D03*
G01X05443Y-2945D03*
G01X06778Y-3012D03*
G54D26*
G01X06921Y-3945D03*
G01X06709Y-4035D03*
G01X07018Y-3171D03*
G01X07004Y-3113D03*
G54D24*
G01X05268Y-3205D03*
G01X05268Y-2905D03*
G01X05504Y-3508D03*
G01X06218Y-3225D03*
G01X05555Y-3232D03*
G01X05993Y-3282D03*
G01X05740Y-3225D03*
G01X06125Y-3225D03*
G01X04725Y-5020D03*
G01X06933Y-3547D03*
G01X06772Y-4071D03*
G01X03778Y-3300D03*
G01X05448Y-2855D03*
G01X05448Y-2885D03*
G01X03778Y-3200D03*
M02*
