G04 (created by PCBNEW-RS274X (20100409 SVN-R2518)-unstable) date Wed 04 Aug 2010 09:41:30 PM CEST*
G01*
G70*
G90*
%MOIN*%
G04 Gerber Fmt 3.4, Leading zero omitted, Abs format*
%FSLAX34Y34*%
G04 APERTURE LIST*
%ADD10C,0.008000*%
%ADD11C,0.007000*%
%ADD12C,0.007000*%
%ADD13C,0.007000*%
%ADD14C,0.012000*%
%ADD15C,0.007500*%
%ADD16C,0.007000*%
G04 APERTURE END LIST*
G54D10*
G54D11*
X40592Y-35871D02*
X40592Y-36096D01*
X40592Y-35983D02*
X40198Y-35983D01*
X40255Y-36021D01*
X40292Y-36058D01*
X40311Y-36096D01*
G54D12*
X49313Y-41145D02*
X49141Y-41145D01*
X49227Y-41145D02*
X49227Y-40845D01*
X49198Y-40888D01*
X49170Y-40917D01*
X49141Y-40931D01*
X49570Y-40945D02*
X49570Y-41145D01*
X49499Y-40831D02*
X49427Y-41045D01*
X49613Y-41045D01*
X53053Y-41145D02*
X52881Y-41145D01*
X52967Y-41145D02*
X52967Y-40845D01*
X52938Y-40888D01*
X52910Y-40917D01*
X52881Y-40931D01*
X53153Y-40845D02*
X53339Y-40845D01*
X53239Y-40960D01*
X53281Y-40960D01*
X53310Y-40974D01*
X53324Y-40988D01*
X53339Y-41017D01*
X53339Y-41088D01*
X53324Y-41117D01*
X53310Y-41131D01*
X53281Y-41145D01*
X53196Y-41145D01*
X53167Y-41131D01*
X53153Y-41117D01*
X49402Y-43748D02*
X49416Y-43734D01*
X49445Y-43719D01*
X49516Y-43719D01*
X49545Y-43734D01*
X49559Y-43748D01*
X49574Y-43777D01*
X49574Y-43805D01*
X49559Y-43848D01*
X49388Y-44019D01*
X49574Y-44019D01*
X53078Y-44019D02*
X52906Y-44019D01*
X52992Y-44019D02*
X52992Y-43719D01*
X52963Y-43762D01*
X52935Y-43791D01*
X52906Y-43805D01*
G54D13*
X52795Y-41260D02*
X49685Y-41260D01*
X49685Y-41732D02*
X52795Y-41732D01*
X52795Y-42205D02*
X49685Y-42205D01*
X49685Y-42677D02*
X52795Y-42677D01*
X52795Y-43150D02*
X49685Y-43150D01*
X49685Y-43622D02*
X52795Y-43622D01*
X51220Y-44134D02*
X51220Y-40748D01*
X49685Y-44134D02*
X49685Y-40748D01*
X52795Y-44134D02*
X49685Y-44134D01*
X52795Y-40748D02*
X52795Y-44134D01*
X49685Y-40748D02*
X52795Y-40748D01*
G54D12*
X50998Y-40672D02*
X50998Y-40372D01*
X51113Y-40372D01*
X51141Y-40387D01*
X51156Y-40401D01*
X51170Y-40430D01*
X51170Y-40472D01*
X51156Y-40501D01*
X51141Y-40515D01*
X51113Y-40530D01*
X50998Y-40530D01*
X51456Y-40672D02*
X51284Y-40672D01*
X51370Y-40672D02*
X51370Y-40372D01*
X51341Y-40415D01*
X51313Y-40444D01*
X51284Y-40458D01*
X51368Y-43718D02*
X51554Y-43718D01*
X51454Y-43833D01*
X51496Y-43833D01*
X51525Y-43847D01*
X51539Y-43861D01*
X51554Y-43890D01*
X51554Y-43961D01*
X51539Y-43990D01*
X51525Y-44004D01*
X51496Y-44018D01*
X51411Y-44018D01*
X51382Y-44004D01*
X51368Y-43990D01*
X51682Y-43990D02*
X51697Y-44004D01*
X51682Y-44018D01*
X51668Y-44004D01*
X51682Y-43990D01*
X51682Y-44018D01*
X51797Y-43718D02*
X51983Y-43718D01*
X51883Y-43833D01*
X51925Y-43833D01*
X51954Y-43847D01*
X51968Y-43861D01*
X51983Y-43890D01*
X51983Y-43961D01*
X51968Y-43990D01*
X51954Y-44004D01*
X51925Y-44018D01*
X51840Y-44018D01*
X51811Y-44004D01*
X51797Y-43990D01*
X52069Y-43718D02*
X52169Y-44018D01*
X52269Y-43718D01*
X51544Y-43260D02*
X51515Y-43245D01*
X51472Y-43245D01*
X51429Y-43260D01*
X51401Y-43288D01*
X51386Y-43317D01*
X51372Y-43374D01*
X51372Y-43417D01*
X51386Y-43474D01*
X51401Y-43503D01*
X51429Y-43531D01*
X51472Y-43545D01*
X51501Y-43545D01*
X51544Y-43531D01*
X51558Y-43517D01*
X51558Y-43417D01*
X51501Y-43417D01*
X51686Y-43545D02*
X51686Y-43245D01*
X51858Y-43545D01*
X51858Y-43245D01*
X52000Y-43545D02*
X52000Y-43245D01*
X52072Y-43245D01*
X52115Y-43260D01*
X52143Y-43288D01*
X52158Y-43317D01*
X52172Y-43374D01*
X52172Y-43417D01*
X52158Y-43474D01*
X52143Y-43503D01*
X52115Y-43531D01*
X52072Y-43545D01*
X52000Y-43545D01*
X51612Y-42759D02*
X51355Y-43145D01*
X51883Y-43073D02*
X51783Y-42931D01*
X51711Y-43073D02*
X51711Y-42773D01*
X51826Y-42773D01*
X51854Y-42788D01*
X51869Y-42802D01*
X51883Y-42831D01*
X51883Y-42873D01*
X51869Y-42902D01*
X51854Y-42916D01*
X51826Y-42931D01*
X51711Y-42931D01*
X51997Y-43059D02*
X52040Y-43073D01*
X52111Y-43073D01*
X52140Y-43059D01*
X52154Y-43045D01*
X52169Y-43016D01*
X52169Y-42988D01*
X52154Y-42959D01*
X52140Y-42945D01*
X52111Y-42931D01*
X52054Y-42916D01*
X52026Y-42902D01*
X52011Y-42888D01*
X51997Y-42859D01*
X51997Y-42831D01*
X52011Y-42802D01*
X52026Y-42788D01*
X52054Y-42773D01*
X52126Y-42773D01*
X52169Y-42788D01*
X52255Y-42773D02*
X52426Y-42773D01*
X52340Y-43073D02*
X52340Y-42773D01*
X51539Y-42601D02*
X51439Y-42459D01*
X51367Y-42601D02*
X51367Y-42301D01*
X51482Y-42301D01*
X51510Y-42316D01*
X51525Y-42330D01*
X51539Y-42359D01*
X51539Y-42401D01*
X51525Y-42430D01*
X51510Y-42444D01*
X51482Y-42459D01*
X51367Y-42459D01*
X51639Y-42301D02*
X51839Y-42601D01*
X51839Y-42301D02*
X51639Y-42601D01*
X51925Y-42301D02*
X52111Y-42301D01*
X52011Y-42416D01*
X52053Y-42416D01*
X52082Y-42430D01*
X52096Y-42444D01*
X52111Y-42473D01*
X52111Y-42544D01*
X52096Y-42573D01*
X52082Y-42587D01*
X52053Y-42601D01*
X51968Y-42601D01*
X51939Y-42587D01*
X51925Y-42573D01*
X51615Y-41814D02*
X51358Y-42200D01*
X51672Y-41828D02*
X51843Y-41828D01*
X51757Y-42128D02*
X51757Y-41828D01*
X52115Y-42128D02*
X52015Y-41986D01*
X51943Y-42128D02*
X51943Y-41828D01*
X52058Y-41828D01*
X52086Y-41843D01*
X52101Y-41857D01*
X52115Y-41886D01*
X52115Y-41928D01*
X52101Y-41957D01*
X52086Y-41971D01*
X52058Y-41986D01*
X51943Y-41986D01*
X52229Y-42114D02*
X52272Y-42128D01*
X52343Y-42128D01*
X52372Y-42114D01*
X52386Y-42100D01*
X52401Y-42071D01*
X52401Y-42043D01*
X52386Y-42014D01*
X52372Y-42000D01*
X52343Y-41986D01*
X52286Y-41971D01*
X52258Y-41957D01*
X52243Y-41943D01*
X52229Y-41914D01*
X52229Y-41886D01*
X52243Y-41857D01*
X52258Y-41843D01*
X52286Y-41828D01*
X52358Y-41828D01*
X52401Y-41843D01*
X52487Y-41828D02*
X52658Y-41828D01*
X52572Y-42128D02*
X52572Y-41828D01*
X51347Y-41356D02*
X51518Y-41356D01*
X51432Y-41656D02*
X51432Y-41356D01*
X51618Y-41656D02*
X51618Y-41356D01*
X51690Y-41356D01*
X51733Y-41371D01*
X51761Y-41399D01*
X51776Y-41428D01*
X51790Y-41485D01*
X51790Y-41528D01*
X51776Y-41585D01*
X51761Y-41614D01*
X51733Y-41642D01*
X51690Y-41656D01*
X51618Y-41656D01*
X51918Y-41656D02*
X51918Y-41356D01*
X51539Y-41183D02*
X51439Y-41041D01*
X51367Y-41183D02*
X51367Y-40883D01*
X51482Y-40883D01*
X51510Y-40898D01*
X51525Y-40912D01*
X51539Y-40941D01*
X51539Y-40983D01*
X51525Y-41012D01*
X51510Y-41026D01*
X51482Y-41041D01*
X51367Y-41041D01*
X51639Y-40883D02*
X51839Y-41183D01*
X51839Y-40883D02*
X51639Y-41183D01*
X52011Y-40883D02*
X52039Y-40883D01*
X52068Y-40898D01*
X52082Y-40912D01*
X52096Y-40941D01*
X52111Y-40998D01*
X52111Y-41069D01*
X52096Y-41126D01*
X52082Y-41155D01*
X52068Y-41169D01*
X52039Y-41183D01*
X52011Y-41183D01*
X51982Y-41169D01*
X51968Y-41155D01*
X51953Y-41126D01*
X51939Y-41069D01*
X51939Y-40998D01*
X51953Y-40941D01*
X51968Y-40912D01*
X51982Y-40898D01*
X52011Y-40883D01*
X50770Y-43718D02*
X50627Y-43718D01*
X50613Y-43861D01*
X50627Y-43847D01*
X50656Y-43833D01*
X50727Y-43833D01*
X50756Y-43847D01*
X50770Y-43861D01*
X50785Y-43890D01*
X50785Y-43961D01*
X50770Y-43990D01*
X50756Y-44004D01*
X50727Y-44018D01*
X50656Y-44018D01*
X50627Y-44004D01*
X50613Y-43990D01*
X50871Y-43718D02*
X50971Y-44018D01*
X51071Y-43718D01*
X49893Y-43545D02*
X49893Y-43245D01*
X50008Y-43245D01*
X50036Y-43260D01*
X50051Y-43274D01*
X50065Y-43303D01*
X50065Y-43345D01*
X50051Y-43374D01*
X50036Y-43388D01*
X50008Y-43403D01*
X49893Y-43403D01*
X50179Y-43274D02*
X50193Y-43260D01*
X50222Y-43245D01*
X50293Y-43245D01*
X50322Y-43260D01*
X50336Y-43274D01*
X50351Y-43303D01*
X50351Y-43331D01*
X50336Y-43374D01*
X50165Y-43545D01*
X50351Y-43545D01*
X50479Y-43517D02*
X50494Y-43531D01*
X50479Y-43545D01*
X50465Y-43531D01*
X50479Y-43517D01*
X50479Y-43545D01*
X50780Y-43545D02*
X50608Y-43545D01*
X50694Y-43545D02*
X50694Y-43245D01*
X50665Y-43288D01*
X50637Y-43317D01*
X50608Y-43331D01*
X50966Y-43245D02*
X50994Y-43245D01*
X51023Y-43260D01*
X51037Y-43274D01*
X51051Y-43303D01*
X51066Y-43360D01*
X51066Y-43431D01*
X51051Y-43488D01*
X51037Y-43517D01*
X51023Y-43531D01*
X50994Y-43545D01*
X50966Y-43545D01*
X50937Y-43531D01*
X50923Y-43517D01*
X50908Y-43488D01*
X50894Y-43431D01*
X50894Y-43360D01*
X50908Y-43303D01*
X50923Y-43274D01*
X50937Y-43260D01*
X50966Y-43245D01*
X50298Y-42773D02*
X50469Y-42773D01*
X50383Y-43073D02*
X50383Y-42773D01*
X50541Y-42773D02*
X50741Y-43073D01*
X50741Y-42773D02*
X50541Y-43073D01*
X50827Y-42773D02*
X51013Y-42773D01*
X50913Y-42888D01*
X50955Y-42888D01*
X50984Y-42902D01*
X50998Y-42916D01*
X51013Y-42945D01*
X51013Y-43016D01*
X50998Y-43045D01*
X50984Y-43059D01*
X50955Y-43073D01*
X50870Y-43073D01*
X50841Y-43059D01*
X50827Y-43045D01*
X50284Y-42301D02*
X50455Y-42301D01*
X50369Y-42601D02*
X50369Y-42301D01*
X50727Y-42573D02*
X50713Y-42587D01*
X50670Y-42601D01*
X50641Y-42601D01*
X50598Y-42587D01*
X50570Y-42559D01*
X50555Y-42530D01*
X50541Y-42473D01*
X50541Y-42430D01*
X50555Y-42373D01*
X50570Y-42344D01*
X50598Y-42316D01*
X50641Y-42301D01*
X50670Y-42301D01*
X50713Y-42316D01*
X50727Y-42330D01*
X50855Y-42601D02*
X50855Y-42301D01*
X51027Y-42601D02*
X50898Y-42430D01*
X51027Y-42301D02*
X50855Y-42473D01*
X50269Y-41828D02*
X50440Y-41828D01*
X50354Y-42128D02*
X50354Y-41828D01*
X50540Y-42128D02*
X50540Y-41828D01*
X50640Y-42043D01*
X50740Y-41828D01*
X50740Y-42128D01*
X50869Y-42114D02*
X50912Y-42128D01*
X50983Y-42128D01*
X51012Y-42114D01*
X51026Y-42100D01*
X51041Y-42071D01*
X51041Y-42043D01*
X51026Y-42014D01*
X51012Y-42000D01*
X50983Y-41986D01*
X50926Y-41971D01*
X50898Y-41957D01*
X50883Y-41943D01*
X50869Y-41914D01*
X50869Y-41886D01*
X50883Y-41857D01*
X50898Y-41843D01*
X50926Y-41828D01*
X50998Y-41828D01*
X51041Y-41843D01*
X50277Y-41356D02*
X50448Y-41356D01*
X50362Y-41656D02*
X50362Y-41356D01*
X50548Y-41656D02*
X50548Y-41356D01*
X50620Y-41356D01*
X50663Y-41371D01*
X50691Y-41399D01*
X50706Y-41428D01*
X50720Y-41485D01*
X50720Y-41528D01*
X50706Y-41585D01*
X50691Y-41614D01*
X50663Y-41642D01*
X50620Y-41656D01*
X50548Y-41656D01*
X50906Y-41356D02*
X50963Y-41356D01*
X50991Y-41371D01*
X51020Y-41399D01*
X51034Y-41456D01*
X51034Y-41556D01*
X51020Y-41614D01*
X50991Y-41642D01*
X50963Y-41656D01*
X50906Y-41656D01*
X50877Y-41642D01*
X50848Y-41614D01*
X50834Y-41556D01*
X50834Y-41456D01*
X50848Y-41399D01*
X50877Y-41371D01*
X50906Y-41356D01*
X50298Y-40883D02*
X50469Y-40883D01*
X50383Y-41183D02*
X50383Y-40883D01*
X50541Y-40883D02*
X50741Y-41183D01*
X50741Y-40883D02*
X50541Y-41183D01*
X50913Y-40883D02*
X50941Y-40883D01*
X50970Y-40898D01*
X50984Y-40912D01*
X50998Y-40941D01*
X51013Y-40998D01*
X51013Y-41069D01*
X50998Y-41126D01*
X50984Y-41155D01*
X50970Y-41169D01*
X50941Y-41183D01*
X50913Y-41183D01*
X50884Y-41169D01*
X50870Y-41155D01*
X50855Y-41126D01*
X50841Y-41069D01*
X50841Y-40998D01*
X50855Y-40941D01*
X50870Y-40912D01*
X50884Y-40898D01*
X50913Y-40883D01*
G54D14*
X38625Y-26568D02*
X38664Y-26606D01*
X38625Y-26644D01*
X38587Y-26606D01*
X38625Y-26568D01*
X38625Y-26644D01*
X38625Y-26339D02*
X38587Y-25882D01*
X38625Y-25844D01*
X38664Y-25882D01*
X38625Y-26339D01*
X38625Y-25844D01*
X39006Y-26568D02*
X39045Y-26606D01*
X39006Y-26644D01*
X38968Y-26606D01*
X39006Y-26568D01*
X39006Y-26644D01*
X39006Y-26339D02*
X38968Y-25882D01*
X39006Y-25844D01*
X39045Y-25882D01*
X39006Y-26339D01*
X39006Y-25844D01*
X39883Y-25844D02*
X40340Y-25844D01*
X40112Y-26644D02*
X40112Y-25844D01*
X40607Y-26644D02*
X40607Y-25844D01*
X40950Y-26644D02*
X40950Y-26225D01*
X40912Y-26149D01*
X40836Y-26110D01*
X40722Y-26110D01*
X40646Y-26149D01*
X40607Y-26187D01*
X41331Y-26644D02*
X41331Y-26110D01*
X41331Y-25844D02*
X41293Y-25882D01*
X41331Y-25920D01*
X41370Y-25882D01*
X41331Y-25844D01*
X41331Y-25920D01*
X41674Y-26606D02*
X41751Y-26644D01*
X41903Y-26644D01*
X41979Y-26606D01*
X42017Y-26530D01*
X42017Y-26491D01*
X41979Y-26415D01*
X41903Y-26377D01*
X41789Y-26377D01*
X41712Y-26339D01*
X41674Y-26263D01*
X41674Y-26225D01*
X41712Y-26149D01*
X41789Y-26110D01*
X41903Y-26110D01*
X41979Y-26149D01*
X42932Y-26606D02*
X43009Y-26644D01*
X43161Y-26644D01*
X43237Y-26606D01*
X43275Y-26530D01*
X43275Y-26491D01*
X43237Y-26415D01*
X43161Y-26377D01*
X43047Y-26377D01*
X42970Y-26339D01*
X42932Y-26263D01*
X42932Y-26225D01*
X42970Y-26149D01*
X43047Y-26110D01*
X43161Y-26110D01*
X43237Y-26149D01*
X43618Y-26644D02*
X43618Y-26110D01*
X43618Y-25844D02*
X43580Y-25882D01*
X43618Y-25920D01*
X43657Y-25882D01*
X43618Y-25844D01*
X43618Y-25920D01*
X44342Y-26644D02*
X44342Y-25844D01*
X44342Y-26606D02*
X44266Y-26644D01*
X44114Y-26644D01*
X44038Y-26606D01*
X43999Y-26568D01*
X43961Y-26491D01*
X43961Y-26263D01*
X43999Y-26187D01*
X44038Y-26149D01*
X44114Y-26110D01*
X44266Y-26110D01*
X44342Y-26149D01*
X45028Y-26606D02*
X44952Y-26644D01*
X44800Y-26644D01*
X44723Y-26606D01*
X44685Y-26530D01*
X44685Y-26225D01*
X44723Y-26149D01*
X44800Y-26110D01*
X44952Y-26110D01*
X45028Y-26149D01*
X45066Y-26225D01*
X45066Y-26301D01*
X44685Y-26377D01*
X45905Y-26110D02*
X46210Y-26110D01*
X46019Y-25844D02*
X46019Y-26530D01*
X46058Y-26606D01*
X46134Y-26644D01*
X46210Y-26644D01*
X46591Y-26644D02*
X46515Y-26606D01*
X46476Y-26568D01*
X46438Y-26491D01*
X46438Y-26263D01*
X46476Y-26187D01*
X46515Y-26149D01*
X46591Y-26110D01*
X46705Y-26110D01*
X46781Y-26149D01*
X46819Y-26187D01*
X46857Y-26263D01*
X46857Y-26491D01*
X46819Y-26568D01*
X46781Y-26606D01*
X46705Y-26644D01*
X46591Y-26644D01*
X48077Y-26225D02*
X48191Y-26263D01*
X48230Y-26301D01*
X48268Y-26377D01*
X48268Y-26491D01*
X48230Y-26568D01*
X48191Y-26606D01*
X48115Y-26644D01*
X47810Y-26644D01*
X47810Y-25844D01*
X48077Y-25844D01*
X48153Y-25882D01*
X48191Y-25920D01*
X48230Y-25996D01*
X48230Y-26072D01*
X48191Y-26149D01*
X48153Y-26187D01*
X48077Y-26225D01*
X47810Y-26225D01*
X48572Y-26415D02*
X48953Y-26415D01*
X48496Y-26644D02*
X48763Y-25844D01*
X49030Y-26644D01*
X49754Y-26568D02*
X49716Y-26606D01*
X49601Y-26644D01*
X49525Y-26644D01*
X49411Y-26606D01*
X49335Y-26530D01*
X49296Y-26453D01*
X49258Y-26301D01*
X49258Y-26187D01*
X49296Y-26034D01*
X49335Y-25958D01*
X49411Y-25882D01*
X49525Y-25844D01*
X49601Y-25844D01*
X49716Y-25882D01*
X49754Y-25920D01*
X50096Y-26644D02*
X50096Y-25844D01*
X50554Y-26644D02*
X50211Y-26187D01*
X50554Y-25844D02*
X50096Y-26301D01*
X51621Y-26644D02*
X51545Y-26606D01*
X51506Y-26568D01*
X51468Y-26491D01*
X51468Y-26263D01*
X51506Y-26187D01*
X51545Y-26149D01*
X51621Y-26110D01*
X51735Y-26110D01*
X51811Y-26149D01*
X51849Y-26187D01*
X51887Y-26263D01*
X51887Y-26491D01*
X51849Y-26568D01*
X51811Y-26606D01*
X51735Y-26644D01*
X51621Y-26644D01*
X52116Y-26110D02*
X52421Y-26110D01*
X52230Y-26644D02*
X52230Y-25958D01*
X52269Y-25882D01*
X52345Y-25844D01*
X52421Y-25844D01*
X53259Y-26606D02*
X53374Y-26644D01*
X53564Y-26644D01*
X53640Y-26606D01*
X53678Y-26568D01*
X53717Y-26491D01*
X53717Y-26415D01*
X53678Y-26339D01*
X53640Y-26301D01*
X53564Y-26263D01*
X53412Y-26225D01*
X53336Y-26187D01*
X53297Y-26149D01*
X53259Y-26072D01*
X53259Y-25996D01*
X53297Y-25920D01*
X53336Y-25882D01*
X53412Y-25844D01*
X53602Y-25844D01*
X53717Y-25882D01*
X54059Y-26644D02*
X54059Y-25844D01*
X54517Y-26644D01*
X54517Y-25844D01*
X54897Y-26225D02*
X55164Y-26225D01*
X55278Y-26644D02*
X54897Y-26644D01*
X54897Y-25844D01*
X55278Y-25844D01*
X55583Y-26606D02*
X55698Y-26644D01*
X55888Y-26644D01*
X55964Y-26606D01*
X56002Y-26568D01*
X56041Y-26491D01*
X56041Y-26415D01*
X56002Y-26339D01*
X55964Y-26301D01*
X55888Y-26263D01*
X55736Y-26225D01*
X55660Y-26187D01*
X55621Y-26149D01*
X55583Y-26072D01*
X55583Y-25996D01*
X55621Y-25920D01*
X55660Y-25882D01*
X55736Y-25844D01*
X55926Y-25844D01*
X56041Y-25882D01*
X56993Y-26568D02*
X57032Y-26606D01*
X56993Y-26644D01*
X56955Y-26606D01*
X56993Y-26568D01*
X56993Y-26644D01*
X56993Y-26339D02*
X56955Y-25882D01*
X56993Y-25844D01*
X57032Y-25882D01*
X56993Y-26339D01*
X56993Y-25844D01*
X57374Y-26568D02*
X57413Y-26606D01*
X57374Y-26644D01*
X57336Y-26606D01*
X57374Y-26568D01*
X57374Y-26644D01*
X57374Y-26339D02*
X57336Y-25882D01*
X57374Y-25844D01*
X57413Y-25882D01*
X57374Y-26339D01*
X57374Y-25844D01*
G54D10*
X39000Y-35500D02*
X39900Y-35500D01*
X39000Y-36400D02*
X39000Y-35500D01*
G54D15*
X51963Y-47045D02*
X51960Y-47067D01*
X51954Y-47089D01*
X51943Y-47110D01*
X51928Y-47128D01*
X51910Y-47142D01*
X51890Y-47153D01*
X51868Y-47160D01*
X51845Y-47162D01*
X51823Y-47160D01*
X51801Y-47154D01*
X51781Y-47143D01*
X51763Y-47129D01*
X51748Y-47111D01*
X51737Y-47091D01*
X51730Y-47069D01*
X51728Y-47046D01*
X51729Y-47024D01*
X51736Y-47002D01*
X51746Y-46982D01*
X51761Y-46964D01*
X51778Y-46949D01*
X51798Y-46937D01*
X51820Y-46930D01*
X51843Y-46928D01*
X51865Y-46929D01*
X51887Y-46935D01*
X51908Y-46946D01*
X51926Y-46960D01*
X51941Y-46977D01*
X51952Y-46998D01*
X51960Y-47019D01*
X51962Y-47042D01*
X51963Y-47045D01*
X51590Y-44900D02*
X56510Y-44900D01*
X56510Y-44900D02*
X56510Y-47300D01*
X51590Y-47300D02*
X56510Y-47300D01*
X51590Y-44900D02*
X51590Y-47300D01*
X63463Y-45795D02*
X63460Y-45817D01*
X63454Y-45839D01*
X63443Y-45860D01*
X63428Y-45878D01*
X63410Y-45892D01*
X63390Y-45903D01*
X63368Y-45910D01*
X63345Y-45912D01*
X63323Y-45910D01*
X63301Y-45904D01*
X63281Y-45893D01*
X63263Y-45879D01*
X63248Y-45861D01*
X63237Y-45841D01*
X63230Y-45819D01*
X63228Y-45796D01*
X63229Y-45774D01*
X63236Y-45752D01*
X63246Y-45732D01*
X63261Y-45714D01*
X63278Y-45699D01*
X63298Y-45687D01*
X63320Y-45680D01*
X63343Y-45678D01*
X63365Y-45679D01*
X63387Y-45685D01*
X63408Y-45696D01*
X63426Y-45710D01*
X63441Y-45727D01*
X63452Y-45748D01*
X63460Y-45769D01*
X63462Y-45792D01*
X63463Y-45795D01*
X63090Y-43650D02*
X68010Y-43650D01*
X68010Y-43650D02*
X68010Y-46050D01*
X63090Y-46050D02*
X68010Y-46050D01*
X63090Y-43650D02*
X63090Y-46050D01*
X57763Y-47045D02*
X57760Y-47067D01*
X57754Y-47089D01*
X57743Y-47110D01*
X57728Y-47128D01*
X57710Y-47142D01*
X57690Y-47153D01*
X57668Y-47160D01*
X57645Y-47162D01*
X57623Y-47160D01*
X57601Y-47154D01*
X57581Y-47143D01*
X57563Y-47129D01*
X57548Y-47111D01*
X57537Y-47091D01*
X57530Y-47069D01*
X57528Y-47046D01*
X57529Y-47024D01*
X57536Y-47002D01*
X57546Y-46982D01*
X57561Y-46964D01*
X57578Y-46949D01*
X57598Y-46937D01*
X57620Y-46930D01*
X57643Y-46928D01*
X57665Y-46929D01*
X57687Y-46935D01*
X57708Y-46946D01*
X57726Y-46960D01*
X57741Y-46977D01*
X57752Y-46998D01*
X57760Y-47019D01*
X57762Y-47042D01*
X57763Y-47045D01*
X57390Y-44900D02*
X62310Y-44900D01*
X62310Y-44900D02*
X62310Y-47300D01*
X57390Y-47300D02*
X62310Y-47300D01*
X57390Y-44900D02*
X57390Y-47300D01*
X73295Y-38758D02*
X73995Y-38758D01*
X73995Y-38758D02*
X73995Y-39958D01*
X73995Y-39958D02*
X73295Y-39958D01*
X73295Y-39958D02*
X73295Y-38758D01*
X75580Y-27785D02*
X75580Y-28485D01*
X75580Y-28485D02*
X74380Y-28485D01*
X74380Y-28485D02*
X74380Y-27785D01*
X74380Y-27785D02*
X75580Y-27785D01*
X46152Y-31253D02*
X46149Y-31277D01*
X46142Y-31300D01*
X46131Y-31321D01*
X46115Y-31340D01*
X46097Y-31355D01*
X46076Y-31367D01*
X46052Y-31374D01*
X46028Y-31376D01*
X46005Y-31374D01*
X45982Y-31367D01*
X45961Y-31356D01*
X45942Y-31341D01*
X45926Y-31323D01*
X45915Y-31301D01*
X45907Y-31278D01*
X45905Y-31254D01*
X45907Y-31231D01*
X45913Y-31208D01*
X45924Y-31186D01*
X45939Y-31167D01*
X45958Y-31152D01*
X45979Y-31140D01*
X46002Y-31132D01*
X46026Y-31130D01*
X46049Y-31131D01*
X46072Y-31138D01*
X46094Y-31149D01*
X46113Y-31164D01*
X46129Y-31182D01*
X46141Y-31203D01*
X46148Y-31226D01*
X46151Y-31250D01*
X46152Y-31253D01*
X50338Y-31037D02*
X50338Y-35563D01*
X50338Y-35563D02*
X45812Y-35563D01*
X45812Y-31037D02*
X45812Y-35563D01*
X50338Y-31037D02*
X45812Y-31037D01*
X62400Y-29438D02*
X56888Y-29438D01*
X56888Y-29438D02*
X56888Y-34950D01*
X56888Y-34950D02*
X56888Y-40462D01*
X56888Y-40462D02*
X62400Y-40462D01*
X62400Y-40462D02*
X67912Y-40462D01*
X67912Y-40462D02*
X67912Y-34950D01*
X67912Y-34950D02*
X67912Y-29438D01*
X67912Y-29438D02*
X62400Y-29438D01*
X67500Y-30250D02*
X67493Y-30317D01*
X67473Y-30383D01*
X67441Y-30443D01*
X67398Y-30496D01*
X67345Y-30540D01*
X67285Y-30572D01*
X67220Y-30592D01*
X67152Y-30599D01*
X67085Y-30593D01*
X67019Y-30574D01*
X66959Y-30542D01*
X66906Y-30500D01*
X66862Y-30447D01*
X66829Y-30387D01*
X66808Y-30322D01*
X66801Y-30254D01*
X66806Y-30187D01*
X66825Y-30122D01*
X66856Y-30061D01*
X66899Y-30007D01*
X66951Y-29963D01*
X67010Y-29930D01*
X67075Y-29909D01*
X67143Y-29901D01*
X67210Y-29906D01*
X67276Y-29924D01*
X67337Y-29955D01*
X67391Y-29997D01*
X67436Y-30049D01*
X67469Y-30108D01*
X67491Y-30173D01*
X67499Y-30241D01*
X67500Y-30250D01*
X50000Y-47700D02*
X48000Y-47700D01*
X48000Y-47700D02*
X48000Y-45900D01*
X48000Y-45900D02*
X50000Y-45900D01*
X50000Y-45900D02*
X50000Y-47700D01*
X50000Y-47100D02*
X49800Y-47100D01*
X49800Y-47100D02*
X49800Y-46600D01*
X49800Y-46600D02*
X50000Y-46600D01*
X59378Y-23907D02*
X59378Y-22707D01*
X59378Y-22707D02*
X59678Y-22707D01*
X59678Y-22707D02*
X59678Y-23907D01*
X59678Y-23907D02*
X59378Y-23907D01*
X44141Y-33130D02*
X44141Y-35570D01*
X44141Y-35570D02*
X42959Y-35570D01*
X42959Y-35570D02*
X42959Y-33130D01*
X42959Y-33130D02*
X44141Y-33130D01*
X42190Y-35923D02*
X44710Y-35923D01*
X44710Y-35923D02*
X44710Y-37577D01*
X44710Y-37577D02*
X42190Y-37577D01*
X42190Y-37577D02*
X42190Y-35923D01*
X39000Y-39000D02*
X38000Y-39000D01*
X38000Y-39000D02*
X38000Y-37000D01*
X38000Y-37000D02*
X39000Y-37000D01*
X39000Y-37000D02*
X39000Y-39000D01*
X66450Y-24500D02*
X66450Y-25700D01*
X66450Y-25700D02*
X66150Y-25700D01*
X66150Y-25700D02*
X66150Y-24500D01*
X66150Y-24500D02*
X66450Y-24500D01*
X38000Y-39000D02*
X39000Y-39000D01*
X39000Y-39000D02*
X39000Y-41000D01*
X39000Y-41000D02*
X38000Y-41000D01*
X38000Y-41000D02*
X38000Y-39000D01*
X73930Y-30371D02*
X73926Y-30401D01*
X73918Y-30431D01*
X73903Y-30458D01*
X73884Y-30482D01*
X73860Y-30501D01*
X73833Y-30516D01*
X73803Y-30525D01*
X73773Y-30528D01*
X73743Y-30526D01*
X73713Y-30517D01*
X73686Y-30503D01*
X73662Y-30483D01*
X73642Y-30460D01*
X73627Y-30433D01*
X73618Y-30403D01*
X73615Y-30373D01*
X73617Y-30343D01*
X73626Y-30313D01*
X73640Y-30286D01*
X73659Y-30262D01*
X73682Y-30242D01*
X73709Y-30227D01*
X73739Y-30217D01*
X73769Y-30214D01*
X73799Y-30216D01*
X73829Y-30224D01*
X73856Y-30238D01*
X73880Y-30257D01*
X73901Y-30280D01*
X73916Y-30307D01*
X73926Y-30336D01*
X73929Y-30367D01*
X73930Y-30371D01*
X74047Y-33244D02*
X70111Y-33244D01*
X70111Y-33244D02*
X70111Y-30096D01*
X74047Y-30096D02*
X70111Y-30096D01*
X74047Y-33244D02*
X74047Y-30096D01*
X58583Y-26434D02*
X58580Y-26455D01*
X58574Y-26476D01*
X58564Y-26495D01*
X58550Y-26512D01*
X58534Y-26526D01*
X58515Y-26536D01*
X58494Y-26542D01*
X58472Y-26544D01*
X58452Y-26543D01*
X58431Y-26536D01*
X58412Y-26526D01*
X58395Y-26513D01*
X58381Y-26496D01*
X58370Y-26477D01*
X58364Y-26457D01*
X58362Y-26435D01*
X58363Y-26414D01*
X58369Y-26394D01*
X58379Y-26374D01*
X58393Y-26357D01*
X58409Y-26343D01*
X58428Y-26333D01*
X58449Y-26326D01*
X58470Y-26324D01*
X58491Y-26325D01*
X58512Y-26331D01*
X58531Y-26341D01*
X58548Y-26354D01*
X58562Y-26371D01*
X58573Y-26389D01*
X58580Y-26410D01*
X58582Y-26431D01*
X58583Y-26434D01*
X58276Y-24269D02*
X61424Y-24269D01*
X61424Y-24269D02*
X61424Y-26631D01*
X58276Y-26631D02*
X61424Y-26631D01*
X58276Y-24269D02*
X58276Y-26631D01*
X41523Y-41106D02*
X41521Y-41121D01*
X41517Y-41136D01*
X41509Y-41149D01*
X41500Y-41161D01*
X41488Y-41171D01*
X41474Y-41178D01*
X41459Y-41183D01*
X41444Y-41184D01*
X41430Y-41183D01*
X41415Y-41179D01*
X41401Y-41172D01*
X41389Y-41162D01*
X41379Y-41150D01*
X41372Y-41137D01*
X41367Y-41122D01*
X41366Y-41107D01*
X41367Y-41092D01*
X41371Y-41077D01*
X41378Y-41064D01*
X41388Y-41052D01*
X41399Y-41042D01*
X41413Y-41034D01*
X41428Y-41029D01*
X41443Y-41028D01*
X41457Y-41029D01*
X41472Y-41033D01*
X41486Y-41040D01*
X41498Y-41049D01*
X41508Y-41061D01*
X41516Y-41074D01*
X41521Y-41089D01*
X41522Y-41104D01*
X41523Y-41106D01*
X41640Y-42090D02*
X40460Y-42090D01*
X40460Y-42090D02*
X40460Y-40910D01*
X41640Y-40910D02*
X40460Y-40910D01*
X41640Y-42090D02*
X41640Y-40910D01*
X57304Y-45628D02*
X57501Y-45431D01*
X57304Y-46572D02*
X56596Y-46572D01*
X56596Y-46572D02*
X56596Y-45628D01*
X57304Y-45628D02*
X56596Y-45628D01*
X57304Y-46572D02*
X57304Y-45628D01*
G54D14*
X38016Y-36592D02*
X38016Y-36692D01*
X38016Y-36692D02*
X40016Y-36692D01*
X40016Y-36692D02*
X40016Y-36617D01*
X39016Y-36542D02*
X39016Y-35492D01*
X39016Y-35492D02*
X40016Y-35492D01*
X38016Y-36492D02*
X38016Y-36592D01*
X38016Y-36592D02*
X40016Y-36592D01*
X40016Y-36592D02*
X40016Y-36492D01*
X40016Y-36492D02*
X40016Y-29492D01*
X38016Y-36492D02*
X38016Y-29492D01*
X38016Y-29492D02*
X40016Y-29492D01*
X40016Y-36492D02*
X38016Y-36492D01*
G54D15*
X55091Y-35353D02*
X55076Y-35505D01*
X55031Y-35652D01*
X54959Y-35788D01*
X54862Y-35907D01*
X54744Y-36005D01*
X54608Y-36078D01*
X54462Y-36123D01*
X54309Y-36139D01*
X54157Y-36126D01*
X54010Y-36082D01*
X53874Y-36011D01*
X53754Y-35915D01*
X53655Y-35797D01*
X53581Y-35663D01*
X53535Y-35516D01*
X53518Y-35363D01*
X53530Y-35211D01*
X53573Y-35064D01*
X53643Y-34927D01*
X53738Y-34807D01*
X53855Y-34707D01*
X53989Y-34632D01*
X54136Y-34585D01*
X54288Y-34567D01*
X54440Y-34578D01*
X54588Y-34620D01*
X54725Y-34689D01*
X54846Y-34784D01*
X54947Y-34900D01*
X55022Y-35033D01*
X55071Y-35179D01*
X55090Y-35332D01*
X55091Y-35353D01*
X69625Y-43875D02*
X69625Y-44625D01*
X69625Y-44625D02*
X70825Y-44625D01*
X70825Y-44625D02*
X70825Y-43875D01*
X70825Y-43225D02*
X70825Y-42425D01*
X70825Y-42425D02*
X69625Y-42425D01*
X69625Y-42425D02*
X69625Y-43225D01*
X74925Y-43175D02*
X74925Y-42425D01*
X74925Y-42425D02*
X73725Y-42425D01*
X73725Y-42425D02*
X73725Y-43175D01*
X73725Y-43825D02*
X73725Y-44625D01*
X73725Y-44625D02*
X74925Y-44625D01*
X74925Y-44625D02*
X74925Y-43825D01*
X47200Y-47000D02*
X47200Y-47450D01*
X47200Y-46150D02*
X47200Y-46600D01*
X47900Y-47450D02*
X47900Y-47000D01*
X47900Y-46150D02*
X47900Y-46600D01*
X47900Y-47450D02*
X47200Y-47450D01*
X47200Y-46150D02*
X47900Y-46150D01*
X43263Y-41335D02*
X43263Y-40885D01*
X43263Y-42185D02*
X43263Y-41735D01*
X42563Y-40885D02*
X42563Y-41335D01*
X42563Y-42185D02*
X42563Y-41735D01*
X42563Y-40885D02*
X43263Y-40885D01*
X43263Y-42185D02*
X42563Y-42185D01*
X70425Y-25225D02*
X70425Y-24775D01*
X70425Y-26075D02*
X70425Y-25625D01*
X69725Y-24775D02*
X69725Y-25225D01*
X69725Y-26075D02*
X69725Y-25625D01*
X69725Y-24775D02*
X70425Y-24775D01*
X70425Y-26075D02*
X69725Y-26075D01*
X39125Y-39175D02*
X39125Y-39625D01*
X39125Y-38325D02*
X39125Y-38775D01*
X39825Y-39625D02*
X39825Y-39175D01*
X39825Y-38325D02*
X39825Y-38775D01*
X39825Y-39625D02*
X39125Y-39625D01*
X39125Y-38325D02*
X39825Y-38325D01*
X39838Y-37320D02*
X39838Y-36870D01*
X39838Y-38170D02*
X39838Y-37720D01*
X39138Y-36870D02*
X39138Y-37320D01*
X39138Y-38170D02*
X39138Y-37720D01*
X39138Y-36870D02*
X39838Y-36870D01*
X39838Y-38170D02*
X39138Y-38170D01*
X72075Y-44100D02*
X71625Y-44100D01*
X72925Y-44100D02*
X72475Y-44100D01*
X71625Y-44800D02*
X72075Y-44800D01*
X72925Y-44800D02*
X72475Y-44800D01*
X71625Y-44800D02*
X71625Y-44100D01*
X72925Y-44100D02*
X72925Y-44800D01*
X71750Y-42925D02*
X72200Y-42925D01*
X70900Y-42925D02*
X71350Y-42925D01*
X72200Y-42225D02*
X71750Y-42225D01*
X70900Y-42225D02*
X71350Y-42225D01*
X72200Y-42225D02*
X72200Y-42925D01*
X70900Y-42925D02*
X70900Y-42225D01*
X75750Y-43400D02*
X75750Y-42950D01*
X75750Y-44250D02*
X75750Y-43800D01*
X75050Y-42950D02*
X75050Y-43400D01*
X75050Y-44250D02*
X75050Y-43800D01*
X75050Y-42950D02*
X75750Y-42950D01*
X75750Y-44250D02*
X75050Y-44250D01*
X72800Y-42225D02*
X72350Y-42225D01*
X73650Y-42225D02*
X73200Y-42225D01*
X72350Y-42925D02*
X72800Y-42925D01*
X73650Y-42925D02*
X73200Y-42925D01*
X72350Y-42925D02*
X72350Y-42225D01*
X73650Y-42225D02*
X73650Y-42925D01*
X72595Y-39108D02*
X72595Y-38658D01*
X72595Y-39958D02*
X72595Y-39508D01*
X71895Y-38658D02*
X71895Y-39108D01*
X71895Y-39958D02*
X71895Y-39508D01*
X71895Y-38658D02*
X72595Y-38658D01*
X72595Y-39958D02*
X71895Y-39958D01*
X75180Y-27335D02*
X75630Y-27335D01*
X74330Y-27335D02*
X74780Y-27335D01*
X75630Y-26635D02*
X75180Y-26635D01*
X74330Y-26635D02*
X74780Y-26635D01*
X75630Y-26635D02*
X75630Y-27335D01*
X74330Y-27335D02*
X74330Y-26635D01*
X75401Y-39160D02*
X75401Y-38710D01*
X75401Y-40010D02*
X75401Y-39560D01*
X74701Y-38710D02*
X74701Y-39160D01*
X74701Y-40010D02*
X74701Y-39560D01*
X74701Y-38710D02*
X75401Y-38710D01*
X75401Y-40010D02*
X74701Y-40010D01*
X75170Y-29645D02*
X75620Y-29645D01*
X74320Y-29645D02*
X74770Y-29645D01*
X75620Y-28945D02*
X75170Y-28945D01*
X74320Y-28945D02*
X74770Y-28945D01*
X75620Y-28945D02*
X75620Y-29645D01*
X74320Y-29645D02*
X74320Y-28945D01*
X61250Y-23650D02*
X61700Y-23650D01*
X60400Y-23650D02*
X60850Y-23650D01*
X61700Y-22950D02*
X61250Y-22950D01*
X60400Y-22950D02*
X60850Y-22950D01*
X61700Y-22950D02*
X61700Y-23650D01*
X60400Y-23650D02*
X60400Y-22950D01*
X42476Y-41335D02*
X42476Y-40885D01*
X42476Y-42185D02*
X42476Y-41735D01*
X41776Y-40885D02*
X41776Y-41335D01*
X41776Y-42185D02*
X41776Y-41735D01*
X41776Y-40885D02*
X42476Y-40885D01*
X42476Y-42185D02*
X41776Y-42185D01*
X50175Y-47000D02*
X50175Y-47450D01*
X50175Y-46150D02*
X50175Y-46600D01*
X50875Y-47450D02*
X50875Y-47000D01*
X50875Y-46150D02*
X50875Y-46600D01*
X50875Y-47450D02*
X50175Y-47450D01*
X50175Y-46150D02*
X50875Y-46150D01*
X54180Y-32765D02*
X53730Y-32765D01*
X55030Y-32765D02*
X54580Y-32765D01*
X53730Y-33465D02*
X54180Y-33465D01*
X55030Y-33465D02*
X54580Y-33465D01*
X53730Y-33465D02*
X53730Y-32765D01*
X55030Y-32765D02*
X55030Y-33465D01*
X61700Y-27250D02*
X61250Y-27250D01*
X62550Y-27250D02*
X62100Y-27250D01*
X61250Y-27950D02*
X61700Y-27950D01*
X62550Y-27950D02*
X62100Y-27950D01*
X61250Y-27950D02*
X61250Y-27250D01*
X62550Y-27250D02*
X62550Y-27950D01*
X58669Y-27727D02*
X59119Y-27727D01*
X57819Y-27727D02*
X58269Y-27727D01*
X59119Y-27027D02*
X58669Y-27027D01*
X57819Y-27027D02*
X58269Y-27027D01*
X59119Y-27027D02*
X59119Y-27727D01*
X57819Y-27727D02*
X57819Y-27027D01*
X52990Y-33750D02*
X52540Y-33750D01*
X53840Y-33750D02*
X53390Y-33750D01*
X52540Y-34450D02*
X52990Y-34450D01*
X53840Y-34450D02*
X53390Y-34450D01*
X52540Y-34450D02*
X52540Y-33750D01*
X53840Y-33750D02*
X53840Y-34450D01*
X42200Y-33850D02*
X42200Y-34300D01*
X42200Y-33000D02*
X42200Y-33450D01*
X42900Y-34300D02*
X42900Y-33850D01*
X42900Y-33000D02*
X42900Y-33450D01*
X42900Y-34300D02*
X42200Y-34300D01*
X42200Y-33000D02*
X42900Y-33000D01*
X44773Y-36881D02*
X44773Y-37331D01*
X44773Y-36031D02*
X44773Y-36481D01*
X45473Y-37331D02*
X45473Y-36881D01*
X45473Y-36031D02*
X45473Y-36481D01*
X45473Y-37331D02*
X44773Y-37331D01*
X44773Y-36031D02*
X45473Y-36031D01*
X41250Y-36850D02*
X40800Y-36850D01*
X42100Y-36850D02*
X41650Y-36850D01*
X40800Y-37550D02*
X41250Y-37550D01*
X42100Y-37550D02*
X41650Y-37550D01*
X40800Y-37550D02*
X40800Y-36850D01*
X42100Y-36850D02*
X42100Y-37550D01*
X67950Y-26550D02*
X68400Y-26550D01*
X67100Y-26550D02*
X67550Y-26550D01*
X68400Y-25850D02*
X67950Y-25850D01*
X67100Y-25850D02*
X67550Y-25850D01*
X68400Y-25850D02*
X68400Y-26550D01*
X67100Y-26550D02*
X67100Y-25850D01*
X67750Y-24900D02*
X67750Y-24450D01*
X67750Y-25750D02*
X67750Y-25300D01*
X67050Y-24450D02*
X67050Y-24900D01*
X67050Y-25750D02*
X67050Y-25300D01*
X67050Y-24450D02*
X67750Y-24450D01*
X67750Y-25750D02*
X67050Y-25750D01*
X65000Y-25500D02*
X65450Y-25500D01*
X64150Y-25500D02*
X64600Y-25500D01*
X65450Y-24800D02*
X65000Y-24800D01*
X64150Y-24800D02*
X64600Y-24800D01*
X65450Y-24800D02*
X65450Y-25500D01*
X64150Y-25500D02*
X64150Y-24800D01*
X74875Y-25225D02*
X74875Y-24775D01*
X74875Y-26075D02*
X74875Y-25625D01*
X74175Y-24775D02*
X74175Y-25225D01*
X74175Y-26075D02*
X74175Y-25625D01*
X74175Y-24775D02*
X74875Y-24775D01*
X74875Y-26075D02*
X74175Y-26075D01*
X72650Y-25225D02*
X72650Y-24775D01*
X72650Y-26075D02*
X72650Y-25625D01*
X71950Y-24775D02*
X71950Y-25225D01*
X71950Y-26075D02*
X71950Y-25625D01*
X71950Y-24775D02*
X72650Y-24775D01*
X72650Y-26075D02*
X71950Y-26075D01*
X48389Y-29917D02*
X48839Y-29917D01*
X47539Y-29917D02*
X47989Y-29917D01*
X48839Y-29217D02*
X48389Y-29217D01*
X47539Y-29217D02*
X47989Y-29217D01*
X48839Y-29217D02*
X48839Y-29917D01*
X47539Y-29917D02*
X47539Y-29217D01*
X50350Y-39100D02*
X50350Y-38650D01*
X50350Y-39950D02*
X50350Y-39500D01*
X49650Y-38650D02*
X49650Y-39100D01*
X49650Y-39950D02*
X49650Y-39500D01*
X49650Y-38650D02*
X50350Y-38650D01*
X50350Y-39950D02*
X49650Y-39950D01*
X39250Y-41100D02*
X38800Y-41100D01*
X40100Y-41100D02*
X39650Y-41100D01*
X38800Y-41800D02*
X39250Y-41800D01*
X40100Y-41800D02*
X39650Y-41800D01*
X38800Y-41800D02*
X38800Y-41100D01*
X40100Y-41100D02*
X40100Y-41800D01*
X39250Y-41850D02*
X38800Y-41850D01*
X40100Y-41850D02*
X39650Y-41850D01*
X38800Y-42550D02*
X39250Y-42550D01*
X40100Y-42550D02*
X39650Y-42550D01*
X38800Y-42550D02*
X38800Y-41850D01*
X40100Y-41850D02*
X40100Y-42550D01*
X39250Y-42600D02*
X38800Y-42600D01*
X40100Y-42600D02*
X39650Y-42600D01*
X38800Y-43300D02*
X39250Y-43300D01*
X40100Y-43300D02*
X39650Y-43300D01*
X38800Y-43300D02*
X38800Y-42600D01*
X40100Y-42600D02*
X40100Y-43300D01*
X42150Y-46275D02*
X42600Y-46275D01*
X41300Y-46275D02*
X41750Y-46275D01*
X42600Y-45575D02*
X42150Y-45575D01*
X41300Y-45575D02*
X41750Y-45575D01*
X42600Y-45575D02*
X42600Y-46275D01*
X41300Y-46275D02*
X41300Y-45575D01*
X40125Y-44875D02*
X39675Y-44875D01*
X40975Y-44875D02*
X40525Y-44875D01*
X39675Y-45575D02*
X40125Y-45575D01*
X40975Y-45575D02*
X40525Y-45575D01*
X39675Y-45575D02*
X39675Y-44875D01*
X40975Y-44875D02*
X40975Y-45575D01*
X40525Y-44875D02*
X40975Y-44875D01*
X39675Y-44875D02*
X40125Y-44875D01*
X40975Y-44175D02*
X40525Y-44175D01*
X39675Y-44175D02*
X40125Y-44175D01*
X40975Y-44175D02*
X40975Y-44875D01*
X39675Y-44875D02*
X39675Y-44175D01*
X40525Y-44175D02*
X40975Y-44175D01*
X39675Y-44175D02*
X40125Y-44175D01*
X40975Y-43475D02*
X40525Y-43475D01*
X39675Y-43475D02*
X40125Y-43475D01*
X40975Y-43475D02*
X40975Y-44175D01*
X39675Y-44175D02*
X39675Y-43475D01*
X41750Y-43475D02*
X41300Y-43475D01*
X42600Y-43475D02*
X42150Y-43475D01*
X41300Y-44175D02*
X41750Y-44175D01*
X42600Y-44175D02*
X42150Y-44175D01*
X41300Y-44175D02*
X41300Y-43475D01*
X42600Y-43475D02*
X42600Y-44175D01*
X40125Y-45575D02*
X39675Y-45575D01*
X40975Y-45575D02*
X40525Y-45575D01*
X39675Y-46275D02*
X40125Y-46275D01*
X40975Y-46275D02*
X40525Y-46275D01*
X39675Y-46275D02*
X39675Y-45575D01*
X40975Y-45575D02*
X40975Y-46275D01*
X41750Y-44175D02*
X41300Y-44175D01*
X42600Y-44175D02*
X42150Y-44175D01*
X41300Y-44875D02*
X41750Y-44875D01*
X42600Y-44875D02*
X42150Y-44875D01*
X41300Y-44875D02*
X41300Y-44175D01*
X42600Y-44175D02*
X42600Y-44875D01*
X42150Y-45575D02*
X42600Y-45575D01*
X41300Y-45575D02*
X41750Y-45575D01*
X42600Y-44875D02*
X42150Y-44875D01*
X41300Y-44875D02*
X41750Y-44875D01*
X42600Y-44875D02*
X42600Y-45575D01*
X41300Y-45575D02*
X41300Y-44875D01*
X42900Y-34850D02*
X42900Y-34400D01*
X42900Y-35700D02*
X42900Y-35250D01*
X42200Y-34400D02*
X42200Y-34850D01*
X42200Y-35700D02*
X42200Y-35250D01*
X42200Y-34400D02*
X42900Y-34400D01*
X42900Y-35700D02*
X42200Y-35700D01*
X71763Y-43013D02*
X71645Y-42895D01*
X72776Y-43024D02*
X72776Y-44026D01*
X72776Y-44026D02*
X71774Y-44026D01*
X71774Y-43024D02*
X71774Y-44026D01*
X72776Y-43024D02*
X71774Y-43024D01*
G54D16*
X55301Y-48160D02*
X55301Y-48419D01*
X55316Y-48449D01*
X55332Y-48464D01*
X55362Y-48480D01*
X55423Y-48480D01*
X55454Y-48464D01*
X55469Y-48449D01*
X55484Y-48419D01*
X55484Y-48160D01*
X55804Y-48480D02*
X55621Y-48480D01*
X55712Y-48480D02*
X55712Y-48160D01*
X55682Y-48205D01*
X55651Y-48236D01*
X55621Y-48251D01*
X56002Y-48160D02*
X56033Y-48160D01*
X56063Y-48175D01*
X56078Y-48190D01*
X56094Y-48220D01*
X56109Y-48281D01*
X56109Y-48358D01*
X56094Y-48419D01*
X56078Y-48449D01*
X56063Y-48464D01*
X56033Y-48480D01*
X56002Y-48480D01*
X55972Y-48464D01*
X55956Y-48449D01*
X55941Y-48419D01*
X55926Y-48358D01*
X55926Y-48281D01*
X55941Y-48220D01*
X55956Y-48190D01*
X55972Y-48175D01*
X56002Y-48160D01*
X56414Y-48480D02*
X56231Y-48480D01*
X56322Y-48480D02*
X56322Y-48160D01*
X56292Y-48205D01*
X56261Y-48236D01*
X56231Y-48251D01*
X68126Y-46435D02*
X68126Y-46694D01*
X68141Y-46724D01*
X68157Y-46739D01*
X68187Y-46755D01*
X68248Y-46755D01*
X68279Y-46739D01*
X68294Y-46724D01*
X68309Y-46694D01*
X68309Y-46435D01*
X68629Y-46755D02*
X68446Y-46755D01*
X68537Y-46755D02*
X68537Y-46435D01*
X68507Y-46480D01*
X68476Y-46511D01*
X68446Y-46526D01*
X68827Y-46435D02*
X68858Y-46435D01*
X68888Y-46450D01*
X68903Y-46465D01*
X68919Y-46495D01*
X68934Y-46556D01*
X68934Y-46633D01*
X68919Y-46694D01*
X68903Y-46724D01*
X68888Y-46739D01*
X68858Y-46755D01*
X68827Y-46755D01*
X68797Y-46739D01*
X68781Y-46724D01*
X68766Y-46694D01*
X68751Y-46633D01*
X68751Y-46556D01*
X68766Y-46495D01*
X68781Y-46465D01*
X68797Y-46450D01*
X68827Y-46435D01*
X69041Y-46435D02*
X69239Y-46435D01*
X69132Y-46556D01*
X69178Y-46556D01*
X69208Y-46572D01*
X69224Y-46587D01*
X69239Y-46617D01*
X69239Y-46694D01*
X69224Y-46724D01*
X69208Y-46739D01*
X69178Y-46755D01*
X69086Y-46755D01*
X69056Y-46739D01*
X69041Y-46724D01*
X61126Y-48160D02*
X61126Y-48419D01*
X61141Y-48449D01*
X61157Y-48464D01*
X61187Y-48480D01*
X61248Y-48480D01*
X61279Y-48464D01*
X61294Y-48449D01*
X61309Y-48419D01*
X61309Y-48160D01*
X61629Y-48480D02*
X61446Y-48480D01*
X61537Y-48480D02*
X61537Y-48160D01*
X61507Y-48205D01*
X61476Y-48236D01*
X61446Y-48251D01*
X61827Y-48160D02*
X61858Y-48160D01*
X61888Y-48175D01*
X61903Y-48190D01*
X61919Y-48220D01*
X61934Y-48281D01*
X61934Y-48358D01*
X61919Y-48419D01*
X61903Y-48449D01*
X61888Y-48464D01*
X61858Y-48480D01*
X61827Y-48480D01*
X61797Y-48464D01*
X61781Y-48449D01*
X61766Y-48419D01*
X61751Y-48358D01*
X61751Y-48281D01*
X61766Y-48220D01*
X61781Y-48190D01*
X61797Y-48175D01*
X61827Y-48160D01*
X62056Y-48190D02*
X62071Y-48175D01*
X62102Y-48160D01*
X62178Y-48160D01*
X62208Y-48175D01*
X62224Y-48190D01*
X62239Y-48220D01*
X62239Y-48251D01*
X62224Y-48297D01*
X62041Y-48480D01*
X62239Y-48480D01*
X73001Y-40185D02*
X73001Y-40444D01*
X73016Y-40474D01*
X73032Y-40489D01*
X73062Y-40505D01*
X73123Y-40505D01*
X73154Y-40489D01*
X73169Y-40474D01*
X73184Y-40444D01*
X73184Y-40185D01*
X73306Y-40185D02*
X73504Y-40185D01*
X73397Y-40306D01*
X73443Y-40306D01*
X73473Y-40322D01*
X73489Y-40337D01*
X73504Y-40367D01*
X73504Y-40444D01*
X73489Y-40474D01*
X73473Y-40489D01*
X73443Y-40505D01*
X73351Y-40505D01*
X73321Y-40489D01*
X73306Y-40474D01*
X73626Y-40215D02*
X73641Y-40200D01*
X73672Y-40185D01*
X73748Y-40185D01*
X73778Y-40200D01*
X73794Y-40215D01*
X73809Y-40245D01*
X73809Y-40276D01*
X73794Y-40322D01*
X73611Y-40505D01*
X73809Y-40505D01*
X74114Y-40505D02*
X73931Y-40505D01*
X74022Y-40505D02*
X74022Y-40185D01*
X73992Y-40230D01*
X73961Y-40261D01*
X73931Y-40276D01*
X75760Y-28699D02*
X76019Y-28699D01*
X76049Y-28684D01*
X76064Y-28668D01*
X76080Y-28638D01*
X76080Y-28577D01*
X76064Y-28546D01*
X76049Y-28531D01*
X76019Y-28516D01*
X75760Y-28516D01*
X75760Y-28394D02*
X75760Y-28196D01*
X75881Y-28303D01*
X75881Y-28257D01*
X75897Y-28227D01*
X75912Y-28211D01*
X75942Y-28196D01*
X76019Y-28196D01*
X76049Y-28211D01*
X76064Y-28227D01*
X76080Y-28257D01*
X76080Y-28349D01*
X76064Y-28379D01*
X76049Y-28394D01*
X76080Y-27891D02*
X76080Y-28074D01*
X76080Y-27983D02*
X75760Y-27983D01*
X75805Y-28013D01*
X75836Y-28044D01*
X75851Y-28074D01*
X76080Y-27586D02*
X76080Y-27769D01*
X76080Y-27678D02*
X75760Y-27678D01*
X75805Y-27708D01*
X75836Y-27739D01*
X75851Y-27769D01*
X50226Y-36060D02*
X50226Y-36319D01*
X50241Y-36349D01*
X50257Y-36364D01*
X50287Y-36380D01*
X50348Y-36380D01*
X50379Y-36364D01*
X50394Y-36349D01*
X50409Y-36319D01*
X50409Y-36060D01*
X50698Y-36166D02*
X50698Y-36380D01*
X50622Y-36044D02*
X50546Y-36273D01*
X50744Y-36273D01*
X50927Y-36060D02*
X50958Y-36060D01*
X50988Y-36075D01*
X51003Y-36090D01*
X51019Y-36120D01*
X51034Y-36181D01*
X51034Y-36258D01*
X51019Y-36319D01*
X51003Y-36349D01*
X50988Y-36364D01*
X50958Y-36380D01*
X50927Y-36380D01*
X50897Y-36364D01*
X50881Y-36349D01*
X50866Y-36319D01*
X50851Y-36258D01*
X50851Y-36181D01*
X50866Y-36120D01*
X50881Y-36090D01*
X50897Y-36075D01*
X50927Y-36060D01*
X51339Y-36380D02*
X51156Y-36380D01*
X51247Y-36380D02*
X51247Y-36060D01*
X51217Y-36105D01*
X51186Y-36136D01*
X51156Y-36151D01*
X67451Y-41010D02*
X67451Y-41269D01*
X67466Y-41299D01*
X67482Y-41314D01*
X67512Y-41330D01*
X67573Y-41330D01*
X67604Y-41314D01*
X67619Y-41299D01*
X67634Y-41269D01*
X67634Y-41010D01*
X67771Y-41040D02*
X67786Y-41025D01*
X67817Y-41010D01*
X67893Y-41010D01*
X67923Y-41025D01*
X67939Y-41040D01*
X67954Y-41070D01*
X67954Y-41101D01*
X67939Y-41147D01*
X67756Y-41330D01*
X67954Y-41330D01*
X68152Y-41010D02*
X68183Y-41010D01*
X68213Y-41025D01*
X68228Y-41040D01*
X68244Y-41070D01*
X68259Y-41131D01*
X68259Y-41208D01*
X68244Y-41269D01*
X68228Y-41299D01*
X68213Y-41314D01*
X68183Y-41330D01*
X68152Y-41330D01*
X68122Y-41314D01*
X68106Y-41299D01*
X68091Y-41269D01*
X68076Y-41208D01*
X68076Y-41131D01*
X68091Y-41070D01*
X68106Y-41040D01*
X68122Y-41025D01*
X68152Y-41010D01*
X68564Y-41330D02*
X68381Y-41330D01*
X68472Y-41330D02*
X68472Y-41010D01*
X68442Y-41055D01*
X68411Y-41086D01*
X68381Y-41101D01*
X48826Y-48510D02*
X48826Y-48769D01*
X48841Y-48799D01*
X48857Y-48814D01*
X48887Y-48830D01*
X48948Y-48830D01*
X48979Y-48814D01*
X48994Y-48799D01*
X49009Y-48769D01*
X49009Y-48510D01*
X49131Y-48510D02*
X49329Y-48510D01*
X49222Y-48631D01*
X49268Y-48631D01*
X49298Y-48647D01*
X49314Y-48662D01*
X49329Y-48692D01*
X49329Y-48769D01*
X49314Y-48799D01*
X49298Y-48814D01*
X49268Y-48830D01*
X49176Y-48830D01*
X49146Y-48814D01*
X49131Y-48799D01*
X49436Y-48510D02*
X49634Y-48510D01*
X49527Y-48631D01*
X49573Y-48631D01*
X49603Y-48647D01*
X49619Y-48662D01*
X49634Y-48692D01*
X49634Y-48769D01*
X49619Y-48799D01*
X49603Y-48814D01*
X49573Y-48830D01*
X49481Y-48830D01*
X49451Y-48814D01*
X49436Y-48799D01*
X49939Y-48830D02*
X49756Y-48830D01*
X49847Y-48830D02*
X49847Y-48510D01*
X49817Y-48555D01*
X49786Y-48586D01*
X49756Y-48601D01*
X58709Y-22455D02*
X58709Y-22135D01*
X58785Y-22135D01*
X58831Y-22150D01*
X58862Y-22180D01*
X58877Y-22211D01*
X58892Y-22272D01*
X58892Y-22317D01*
X58877Y-22378D01*
X58862Y-22409D01*
X58831Y-22439D01*
X58785Y-22455D01*
X58709Y-22455D01*
X59182Y-22135D02*
X59029Y-22135D01*
X59014Y-22287D01*
X59029Y-22272D01*
X59060Y-22256D01*
X59136Y-22256D01*
X59166Y-22272D01*
X59182Y-22287D01*
X59197Y-22317D01*
X59197Y-22394D01*
X59182Y-22424D01*
X59166Y-22439D01*
X59136Y-22455D01*
X59060Y-22455D01*
X59029Y-22439D01*
X59014Y-22424D01*
X59502Y-22455D02*
X59319Y-22455D01*
X59410Y-22455D02*
X59410Y-22135D01*
X59380Y-22180D01*
X59349Y-22211D01*
X59319Y-22226D01*
X59807Y-22455D02*
X59624Y-22455D01*
X59715Y-22455D02*
X59715Y-22135D01*
X59685Y-22180D01*
X59654Y-22211D01*
X59624Y-22226D01*
X44310Y-33739D02*
X44630Y-33526D01*
X44310Y-33526D02*
X44630Y-33739D01*
X44416Y-33267D02*
X44630Y-33267D01*
X44294Y-33343D02*
X44523Y-33419D01*
X44523Y-33221D01*
X44310Y-33038D02*
X44310Y-33007D01*
X44325Y-32977D01*
X44340Y-32962D01*
X44370Y-32946D01*
X44431Y-32931D01*
X44508Y-32931D01*
X44569Y-32946D01*
X44599Y-32962D01*
X44614Y-32977D01*
X44630Y-33007D01*
X44630Y-33038D01*
X44614Y-33068D01*
X44599Y-33084D01*
X44569Y-33099D01*
X44508Y-33114D01*
X44431Y-33114D01*
X44370Y-33099D01*
X44340Y-33084D01*
X44325Y-33068D01*
X44310Y-33038D01*
X44340Y-32809D02*
X44325Y-32794D01*
X44310Y-32763D01*
X44310Y-32687D01*
X44325Y-32657D01*
X44340Y-32641D01*
X44370Y-32626D01*
X44401Y-32626D01*
X44447Y-32641D01*
X44630Y-32824D01*
X44630Y-32626D01*
X42886Y-37710D02*
X43099Y-38030D01*
X43099Y-37710D02*
X42886Y-38030D01*
X43358Y-37816D02*
X43358Y-38030D01*
X43282Y-37694D02*
X43206Y-37923D01*
X43404Y-37923D01*
X43587Y-37710D02*
X43618Y-37710D01*
X43648Y-37725D01*
X43663Y-37740D01*
X43679Y-37770D01*
X43694Y-37831D01*
X43694Y-37908D01*
X43679Y-37969D01*
X43663Y-37999D01*
X43648Y-38014D01*
X43618Y-38030D01*
X43587Y-38030D01*
X43557Y-38014D01*
X43541Y-37999D01*
X43526Y-37969D01*
X43511Y-37908D01*
X43511Y-37831D01*
X43526Y-37770D01*
X43541Y-37740D01*
X43557Y-37725D01*
X43587Y-37710D01*
X43999Y-38030D02*
X43816Y-38030D01*
X43907Y-38030D02*
X43907Y-37710D01*
X43877Y-37755D01*
X43846Y-37786D01*
X43816Y-37801D01*
X37880Y-38541D02*
X37560Y-38541D01*
X37560Y-38419D01*
X37575Y-38388D01*
X37590Y-38373D01*
X37620Y-38358D01*
X37666Y-38358D01*
X37697Y-38373D01*
X37712Y-38388D01*
X37727Y-38419D01*
X37727Y-38541D01*
X37666Y-38084D02*
X37880Y-38084D01*
X37544Y-38160D02*
X37773Y-38236D01*
X37773Y-38038D01*
X37560Y-37855D02*
X37560Y-37824D01*
X37575Y-37794D01*
X37590Y-37779D01*
X37620Y-37763D01*
X37681Y-37748D01*
X37758Y-37748D01*
X37819Y-37763D01*
X37849Y-37779D01*
X37864Y-37794D01*
X37880Y-37824D01*
X37880Y-37855D01*
X37864Y-37885D01*
X37849Y-37901D01*
X37819Y-37916D01*
X37758Y-37931D01*
X37681Y-37931D01*
X37620Y-37916D01*
X37590Y-37901D01*
X37575Y-37885D01*
X37560Y-37855D01*
X37590Y-37626D02*
X37575Y-37611D01*
X37560Y-37580D01*
X37560Y-37504D01*
X37575Y-37474D01*
X37590Y-37458D01*
X37620Y-37443D01*
X37651Y-37443D01*
X37697Y-37458D01*
X37880Y-37641D01*
X37880Y-37443D01*
X65515Y-26235D02*
X65484Y-26220D01*
X65454Y-26189D01*
X65408Y-26144D01*
X65377Y-26128D01*
X65347Y-26128D01*
X65362Y-26205D02*
X65332Y-26189D01*
X65301Y-26159D01*
X65286Y-26098D01*
X65286Y-25991D01*
X65301Y-25930D01*
X65332Y-25900D01*
X65362Y-25885D01*
X65423Y-25885D01*
X65454Y-25900D01*
X65484Y-25930D01*
X65499Y-25991D01*
X65499Y-26098D01*
X65484Y-26159D01*
X65454Y-26189D01*
X65423Y-26205D01*
X65362Y-26205D01*
X65789Y-25885D02*
X65636Y-25885D01*
X65621Y-26037D01*
X65636Y-26022D01*
X65667Y-26006D01*
X65743Y-26006D01*
X65773Y-26022D01*
X65789Y-26037D01*
X65804Y-26067D01*
X65804Y-26144D01*
X65789Y-26174D01*
X65773Y-26189D01*
X65743Y-26205D01*
X65667Y-26205D01*
X65636Y-26189D01*
X65621Y-26174D01*
X66109Y-26205D02*
X65926Y-26205D01*
X66017Y-26205D02*
X66017Y-25885D01*
X65987Y-25930D01*
X65956Y-25961D01*
X65926Y-25976D01*
X66414Y-26205D02*
X66231Y-26205D01*
X66322Y-26205D02*
X66322Y-25885D01*
X66292Y-25930D01*
X66261Y-25961D01*
X66231Y-25976D01*
X37880Y-40541D02*
X37560Y-40541D01*
X37560Y-40419D01*
X37575Y-40388D01*
X37590Y-40373D01*
X37620Y-40358D01*
X37666Y-40358D01*
X37697Y-40373D01*
X37712Y-40388D01*
X37727Y-40419D01*
X37727Y-40541D01*
X37666Y-40084D02*
X37880Y-40084D01*
X37544Y-40160D02*
X37773Y-40236D01*
X37773Y-40038D01*
X37560Y-39855D02*
X37560Y-39824D01*
X37575Y-39794D01*
X37590Y-39779D01*
X37620Y-39763D01*
X37681Y-39748D01*
X37758Y-39748D01*
X37819Y-39763D01*
X37849Y-39779D01*
X37864Y-39794D01*
X37880Y-39824D01*
X37880Y-39855D01*
X37864Y-39885D01*
X37849Y-39901D01*
X37819Y-39916D01*
X37758Y-39931D01*
X37681Y-39931D01*
X37620Y-39916D01*
X37590Y-39901D01*
X37575Y-39885D01*
X37560Y-39855D01*
X37560Y-39641D02*
X37560Y-39443D01*
X37681Y-39550D01*
X37681Y-39504D01*
X37697Y-39474D01*
X37712Y-39458D01*
X37742Y-39443D01*
X37819Y-39443D01*
X37849Y-39458D01*
X37864Y-39474D01*
X37880Y-39504D01*
X37880Y-39596D01*
X37864Y-39626D01*
X37849Y-39641D01*
X70011Y-29570D02*
X70011Y-29829D01*
X70026Y-29859D01*
X70042Y-29874D01*
X70072Y-29890D01*
X70133Y-29890D01*
X70164Y-29874D01*
X70179Y-29859D01*
X70194Y-29829D01*
X70194Y-29570D01*
X70499Y-29570D02*
X70346Y-29570D01*
X70331Y-29722D01*
X70346Y-29707D01*
X70377Y-29691D01*
X70453Y-29691D01*
X70483Y-29707D01*
X70499Y-29722D01*
X70514Y-29752D01*
X70514Y-29829D01*
X70499Y-29859D01*
X70483Y-29874D01*
X70453Y-29890D01*
X70377Y-29890D01*
X70346Y-29874D01*
X70331Y-29859D01*
X70712Y-29570D02*
X70743Y-29570D01*
X70773Y-29585D01*
X70788Y-29600D01*
X70804Y-29630D01*
X70819Y-29691D01*
X70819Y-29768D01*
X70804Y-29829D01*
X70788Y-29859D01*
X70773Y-29874D01*
X70743Y-29890D01*
X70712Y-29890D01*
X70682Y-29874D01*
X70666Y-29859D01*
X70651Y-29829D01*
X70636Y-29768D01*
X70636Y-29691D01*
X70651Y-29630D01*
X70666Y-29600D01*
X70682Y-29585D01*
X70712Y-29570D01*
X71124Y-29890D02*
X70941Y-29890D01*
X71032Y-29890D02*
X71032Y-29570D01*
X71002Y-29615D01*
X70971Y-29646D01*
X70941Y-29661D01*
X60451Y-26760D02*
X60451Y-27019D01*
X60466Y-27049D01*
X60482Y-27064D01*
X60512Y-27080D01*
X60573Y-27080D01*
X60604Y-27064D01*
X60619Y-27049D01*
X60634Y-27019D01*
X60634Y-26760D01*
X60939Y-26760D02*
X60786Y-26760D01*
X60771Y-26912D01*
X60786Y-26897D01*
X60817Y-26881D01*
X60893Y-26881D01*
X60923Y-26897D01*
X60939Y-26912D01*
X60954Y-26942D01*
X60954Y-27019D01*
X60939Y-27049D01*
X60923Y-27064D01*
X60893Y-27080D01*
X60817Y-27080D01*
X60786Y-27064D01*
X60771Y-27049D01*
X61259Y-27080D02*
X61076Y-27080D01*
X61167Y-27080D02*
X61167Y-26760D01*
X61137Y-26805D01*
X61106Y-26836D01*
X61076Y-26851D01*
X61564Y-27080D02*
X61381Y-27080D01*
X61472Y-27080D02*
X61472Y-26760D01*
X61442Y-26805D01*
X61411Y-26836D01*
X61381Y-26851D01*
X40501Y-42785D02*
X40501Y-43044D01*
X40516Y-43074D01*
X40532Y-43089D01*
X40562Y-43105D01*
X40623Y-43105D01*
X40654Y-43089D01*
X40669Y-43074D01*
X40684Y-43044D01*
X40684Y-42785D01*
X40806Y-42785D02*
X41004Y-42785D01*
X40897Y-42906D01*
X40943Y-42906D01*
X40973Y-42922D01*
X40989Y-42937D01*
X41004Y-42967D01*
X41004Y-43044D01*
X40989Y-43074D01*
X40973Y-43089D01*
X40943Y-43105D01*
X40851Y-43105D01*
X40821Y-43089D01*
X40806Y-43074D01*
X41278Y-42891D02*
X41278Y-43105D01*
X41202Y-42769D02*
X41126Y-42998D01*
X41324Y-42998D01*
X41614Y-43105D02*
X41431Y-43105D01*
X41522Y-43105D02*
X41522Y-42785D01*
X41492Y-42830D01*
X41461Y-42861D01*
X41431Y-42876D01*
X56760Y-47824D02*
X57019Y-47824D01*
X57049Y-47809D01*
X57064Y-47793D01*
X57080Y-47763D01*
X57080Y-47702D01*
X57064Y-47671D01*
X57049Y-47656D01*
X57019Y-47641D01*
X56760Y-47641D01*
X57080Y-47321D02*
X57080Y-47504D01*
X57080Y-47413D02*
X56760Y-47413D01*
X56805Y-47443D01*
X56836Y-47474D01*
X56851Y-47504D01*
X56760Y-47123D02*
X56760Y-47092D01*
X56775Y-47062D01*
X56790Y-47047D01*
X56820Y-47031D01*
X56881Y-47016D01*
X56958Y-47016D01*
X57019Y-47031D01*
X57049Y-47047D01*
X57064Y-47062D01*
X57080Y-47092D01*
X57080Y-47123D01*
X57064Y-47153D01*
X57049Y-47169D01*
X57019Y-47184D01*
X56958Y-47199D01*
X56881Y-47199D01*
X56820Y-47184D01*
X56790Y-47169D01*
X56775Y-47153D01*
X56760Y-47123D01*
X56866Y-46742D02*
X57080Y-46742D01*
X56744Y-46818D02*
X56973Y-46894D01*
X56973Y-46696D01*
X38514Y-29106D02*
X38514Y-28786D01*
X38636Y-28786D01*
X38667Y-28801D01*
X38682Y-28816D01*
X38697Y-28846D01*
X38697Y-28892D01*
X38682Y-28923D01*
X38667Y-28938D01*
X38636Y-28953D01*
X38514Y-28953D01*
X38971Y-28892D02*
X38971Y-29106D01*
X38895Y-28770D02*
X38819Y-28999D01*
X39017Y-28999D01*
X39200Y-28786D02*
X39231Y-28786D01*
X39261Y-28801D01*
X39276Y-28816D01*
X39292Y-28846D01*
X39307Y-28907D01*
X39307Y-28984D01*
X39292Y-29045D01*
X39276Y-29075D01*
X39261Y-29090D01*
X39231Y-29106D01*
X39200Y-29106D01*
X39170Y-29090D01*
X39154Y-29075D01*
X39139Y-29045D01*
X39124Y-28984D01*
X39124Y-28907D01*
X39139Y-28846D01*
X39154Y-28816D01*
X39170Y-28801D01*
X39200Y-28786D01*
X39612Y-29106D02*
X39429Y-29106D01*
X39520Y-29106D02*
X39520Y-28786D01*
X39490Y-28831D01*
X39459Y-28862D01*
X39429Y-28877D01*
X70355Y-42083D02*
X70355Y-42236D01*
X70035Y-42236D01*
X70035Y-42007D02*
X70035Y-41809D01*
X70156Y-41916D01*
X70156Y-41870D01*
X70172Y-41840D01*
X70187Y-41824D01*
X70217Y-41809D01*
X70294Y-41809D01*
X70324Y-41824D01*
X70339Y-41840D01*
X70355Y-41870D01*
X70355Y-41962D01*
X70339Y-41992D01*
X70324Y-42007D01*
X70035Y-41611D02*
X70035Y-41580D01*
X70050Y-41550D01*
X70065Y-41535D01*
X70095Y-41519D01*
X70156Y-41504D01*
X70233Y-41504D01*
X70294Y-41519D01*
X70324Y-41535D01*
X70339Y-41550D01*
X70355Y-41580D01*
X70355Y-41611D01*
X70339Y-41641D01*
X70324Y-41657D01*
X70294Y-41672D01*
X70233Y-41687D01*
X70156Y-41687D01*
X70095Y-41672D01*
X70065Y-41657D01*
X70050Y-41641D01*
X70035Y-41611D01*
X70355Y-41199D02*
X70355Y-41382D01*
X70355Y-41291D02*
X70035Y-41291D01*
X70080Y-41321D01*
X70111Y-41352D01*
X70126Y-41382D01*
X74455Y-42083D02*
X74455Y-42236D01*
X74135Y-42236D01*
X74135Y-42007D02*
X74135Y-41809D01*
X74256Y-41916D01*
X74256Y-41870D01*
X74272Y-41840D01*
X74287Y-41824D01*
X74317Y-41809D01*
X74394Y-41809D01*
X74424Y-41824D01*
X74439Y-41840D01*
X74455Y-41870D01*
X74455Y-41962D01*
X74439Y-41992D01*
X74424Y-42007D01*
X74135Y-41611D02*
X74135Y-41580D01*
X74150Y-41550D01*
X74165Y-41535D01*
X74195Y-41519D01*
X74256Y-41504D01*
X74333Y-41504D01*
X74394Y-41519D01*
X74424Y-41535D01*
X74439Y-41550D01*
X74455Y-41580D01*
X74455Y-41611D01*
X74439Y-41641D01*
X74424Y-41657D01*
X74394Y-41672D01*
X74333Y-41687D01*
X74256Y-41687D01*
X74195Y-41672D01*
X74165Y-41657D01*
X74150Y-41641D01*
X74135Y-41611D01*
X74165Y-41382D02*
X74150Y-41367D01*
X74135Y-41336D01*
X74135Y-41260D01*
X74150Y-41230D01*
X74165Y-41214D01*
X74195Y-41199D01*
X74226Y-41199D01*
X74272Y-41214D01*
X74455Y-41397D01*
X74455Y-41199D01*
X47680Y-45833D02*
X47527Y-45940D01*
X47680Y-46016D02*
X47360Y-46016D01*
X47360Y-45894D01*
X47375Y-45863D01*
X47390Y-45848D01*
X47420Y-45833D01*
X47466Y-45833D01*
X47497Y-45848D01*
X47512Y-45863D01*
X47527Y-45894D01*
X47527Y-46016D01*
X47360Y-45726D02*
X47360Y-45528D01*
X47481Y-45635D01*
X47481Y-45589D01*
X47497Y-45559D01*
X47512Y-45543D01*
X47542Y-45528D01*
X47619Y-45528D01*
X47649Y-45543D01*
X47664Y-45559D01*
X47680Y-45589D01*
X47680Y-45681D01*
X47664Y-45711D01*
X47649Y-45726D01*
X47360Y-45421D02*
X47360Y-45223D01*
X47481Y-45330D01*
X47481Y-45284D01*
X47497Y-45254D01*
X47512Y-45238D01*
X47542Y-45223D01*
X47619Y-45223D01*
X47649Y-45238D01*
X47664Y-45254D01*
X47680Y-45284D01*
X47680Y-45376D01*
X47664Y-45406D01*
X47649Y-45421D01*
X47680Y-44918D02*
X47680Y-45101D01*
X47680Y-45010D02*
X47360Y-45010D01*
X47405Y-45040D01*
X47436Y-45071D01*
X47451Y-45101D01*
X42999Y-40558D02*
X43014Y-40573D01*
X43030Y-40619D01*
X43030Y-40649D01*
X43014Y-40695D01*
X42984Y-40726D01*
X42953Y-40741D01*
X42892Y-40756D01*
X42847Y-40756D01*
X42786Y-40741D01*
X42755Y-40726D01*
X42725Y-40695D01*
X42710Y-40649D01*
X42710Y-40619D01*
X42725Y-40573D01*
X42740Y-40558D01*
X42710Y-40451D02*
X42710Y-40253D01*
X42831Y-40360D01*
X42831Y-40314D01*
X42847Y-40284D01*
X42862Y-40268D01*
X42892Y-40253D01*
X42969Y-40253D01*
X42999Y-40268D01*
X43014Y-40284D01*
X43030Y-40314D01*
X43030Y-40406D01*
X43014Y-40436D01*
X42999Y-40451D01*
X42816Y-39979D02*
X43030Y-39979D01*
X42694Y-40055D02*
X42923Y-40131D01*
X42923Y-39933D01*
X42740Y-39826D02*
X42725Y-39811D01*
X42710Y-39780D01*
X42710Y-39704D01*
X42725Y-39674D01*
X42740Y-39658D01*
X42770Y-39643D01*
X42801Y-39643D01*
X42847Y-39658D01*
X43030Y-39841D01*
X43030Y-39643D01*
X69580Y-25783D02*
X69427Y-25890D01*
X69580Y-25966D02*
X69260Y-25966D01*
X69260Y-25844D01*
X69275Y-25813D01*
X69290Y-25798D01*
X69320Y-25783D01*
X69366Y-25783D01*
X69397Y-25798D01*
X69412Y-25813D01*
X69427Y-25844D01*
X69427Y-25966D01*
X69366Y-25509D02*
X69580Y-25509D01*
X69244Y-25585D02*
X69473Y-25661D01*
X69473Y-25463D01*
X69260Y-25280D02*
X69260Y-25249D01*
X69275Y-25219D01*
X69290Y-25204D01*
X69320Y-25188D01*
X69381Y-25173D01*
X69458Y-25173D01*
X69519Y-25188D01*
X69549Y-25204D01*
X69564Y-25219D01*
X69580Y-25249D01*
X69580Y-25280D01*
X69564Y-25310D01*
X69549Y-25326D01*
X69519Y-25341D01*
X69458Y-25356D01*
X69381Y-25356D01*
X69320Y-25341D01*
X69290Y-25326D01*
X69275Y-25310D01*
X69260Y-25280D01*
X69260Y-25066D02*
X69260Y-24868D01*
X69381Y-24975D01*
X69381Y-24929D01*
X69397Y-24899D01*
X69412Y-24883D01*
X69442Y-24868D01*
X69519Y-24868D01*
X69549Y-24883D01*
X69564Y-24899D01*
X69580Y-24929D01*
X69580Y-25021D01*
X69564Y-25051D01*
X69549Y-25066D01*
X39599Y-40658D02*
X39614Y-40673D01*
X39630Y-40719D01*
X39630Y-40749D01*
X39614Y-40795D01*
X39584Y-40826D01*
X39553Y-40841D01*
X39492Y-40856D01*
X39447Y-40856D01*
X39386Y-40841D01*
X39355Y-40826D01*
X39325Y-40795D01*
X39310Y-40749D01*
X39310Y-40719D01*
X39325Y-40673D01*
X39340Y-40658D01*
X39416Y-40384D02*
X39630Y-40384D01*
X39294Y-40460D02*
X39523Y-40536D01*
X39523Y-40338D01*
X39310Y-40155D02*
X39310Y-40124D01*
X39325Y-40094D01*
X39340Y-40079D01*
X39370Y-40063D01*
X39431Y-40048D01*
X39508Y-40048D01*
X39569Y-40063D01*
X39599Y-40079D01*
X39614Y-40094D01*
X39630Y-40124D01*
X39630Y-40155D01*
X39614Y-40185D01*
X39599Y-40201D01*
X39569Y-40216D01*
X39508Y-40231D01*
X39431Y-40231D01*
X39370Y-40216D01*
X39340Y-40201D01*
X39325Y-40185D01*
X39310Y-40155D01*
X39310Y-39758D02*
X39310Y-39911D01*
X39462Y-39926D01*
X39447Y-39911D01*
X39431Y-39880D01*
X39431Y-39804D01*
X39447Y-39774D01*
X39462Y-39758D01*
X39492Y-39743D01*
X39569Y-39743D01*
X39599Y-39758D01*
X39614Y-39774D01*
X39630Y-39804D01*
X39630Y-39880D01*
X39614Y-39911D01*
X39599Y-39926D01*
X40330Y-38333D02*
X40177Y-38440D01*
X40330Y-38516D02*
X40010Y-38516D01*
X40010Y-38394D01*
X40025Y-38363D01*
X40040Y-38348D01*
X40070Y-38333D01*
X40116Y-38333D01*
X40147Y-38348D01*
X40162Y-38363D01*
X40177Y-38394D01*
X40177Y-38516D01*
X40116Y-38059D02*
X40330Y-38059D01*
X39994Y-38135D02*
X40223Y-38211D01*
X40223Y-38013D01*
X40010Y-37830D02*
X40010Y-37799D01*
X40025Y-37769D01*
X40040Y-37754D01*
X40070Y-37738D01*
X40131Y-37723D01*
X40208Y-37723D01*
X40269Y-37738D01*
X40299Y-37754D01*
X40314Y-37769D01*
X40330Y-37799D01*
X40330Y-37830D01*
X40314Y-37860D01*
X40299Y-37876D01*
X40269Y-37891D01*
X40208Y-37906D01*
X40131Y-37906D01*
X40070Y-37891D01*
X40040Y-37876D01*
X40025Y-37860D01*
X40010Y-37830D01*
X40116Y-37449D02*
X40330Y-37449D01*
X39994Y-37525D02*
X40223Y-37601D01*
X40223Y-37403D01*
X71542Y-45249D02*
X71527Y-45264D01*
X71481Y-45280D01*
X71451Y-45280D01*
X71405Y-45264D01*
X71374Y-45234D01*
X71359Y-45203D01*
X71344Y-45142D01*
X71344Y-45097D01*
X71359Y-45036D01*
X71374Y-45005D01*
X71405Y-44975D01*
X71451Y-44960D01*
X71481Y-44960D01*
X71527Y-44975D01*
X71542Y-44990D01*
X71649Y-44960D02*
X71847Y-44960D01*
X71740Y-45081D01*
X71786Y-45081D01*
X71816Y-45097D01*
X71832Y-45112D01*
X71847Y-45142D01*
X71847Y-45219D01*
X71832Y-45249D01*
X71816Y-45264D01*
X71786Y-45280D01*
X71694Y-45280D01*
X71664Y-45264D01*
X71649Y-45249D01*
X72045Y-44960D02*
X72076Y-44960D01*
X72106Y-44975D01*
X72121Y-44990D01*
X72137Y-45020D01*
X72152Y-45081D01*
X72152Y-45158D01*
X72137Y-45219D01*
X72121Y-45249D01*
X72106Y-45264D01*
X72076Y-45280D01*
X72045Y-45280D01*
X72015Y-45264D01*
X71999Y-45249D01*
X71984Y-45219D01*
X71969Y-45158D01*
X71969Y-45081D01*
X71984Y-45020D01*
X71999Y-44990D01*
X72015Y-44975D01*
X72045Y-44960D01*
X72457Y-45280D02*
X72274Y-45280D01*
X72365Y-45280D02*
X72365Y-44960D01*
X72335Y-45005D01*
X72304Y-45036D01*
X72274Y-45051D01*
X71067Y-42099D02*
X71052Y-42114D01*
X71006Y-42130D01*
X70976Y-42130D01*
X70930Y-42114D01*
X70899Y-42084D01*
X70884Y-42053D01*
X70869Y-41992D01*
X70869Y-41947D01*
X70884Y-41886D01*
X70899Y-41855D01*
X70930Y-41825D01*
X70976Y-41810D01*
X71006Y-41810D01*
X71052Y-41825D01*
X71067Y-41840D01*
X71174Y-41810D02*
X71372Y-41810D01*
X71265Y-41931D01*
X71311Y-41931D01*
X71341Y-41947D01*
X71357Y-41962D01*
X71372Y-41992D01*
X71372Y-42069D01*
X71357Y-42099D01*
X71341Y-42114D01*
X71311Y-42130D01*
X71219Y-42130D01*
X71189Y-42114D01*
X71174Y-42099D01*
X71570Y-41810D02*
X71601Y-41810D01*
X71631Y-41825D01*
X71646Y-41840D01*
X71662Y-41870D01*
X71677Y-41931D01*
X71677Y-42008D01*
X71662Y-42069D01*
X71646Y-42099D01*
X71631Y-42114D01*
X71601Y-42130D01*
X71570Y-42130D01*
X71540Y-42114D01*
X71524Y-42099D01*
X71509Y-42069D01*
X71494Y-42008D01*
X71494Y-41931D01*
X71509Y-41870D01*
X71524Y-41840D01*
X71540Y-41825D01*
X71570Y-41810D01*
X71784Y-41810D02*
X71982Y-41810D01*
X71875Y-41931D01*
X71921Y-41931D01*
X71951Y-41947D01*
X71967Y-41962D01*
X71982Y-41992D01*
X71982Y-42069D01*
X71967Y-42099D01*
X71951Y-42114D01*
X71921Y-42130D01*
X71829Y-42130D01*
X71799Y-42114D01*
X71784Y-42099D01*
X75499Y-42633D02*
X75514Y-42648D01*
X75530Y-42694D01*
X75530Y-42724D01*
X75514Y-42770D01*
X75484Y-42801D01*
X75453Y-42816D01*
X75392Y-42831D01*
X75347Y-42831D01*
X75286Y-42816D01*
X75255Y-42801D01*
X75225Y-42770D01*
X75210Y-42724D01*
X75210Y-42694D01*
X75225Y-42648D01*
X75240Y-42633D01*
X75210Y-42526D02*
X75210Y-42328D01*
X75331Y-42435D01*
X75331Y-42389D01*
X75347Y-42359D01*
X75362Y-42343D01*
X75392Y-42328D01*
X75469Y-42328D01*
X75499Y-42343D01*
X75514Y-42359D01*
X75530Y-42389D01*
X75530Y-42481D01*
X75514Y-42511D01*
X75499Y-42526D01*
X75210Y-42130D02*
X75210Y-42099D01*
X75225Y-42069D01*
X75240Y-42054D01*
X75270Y-42038D01*
X75331Y-42023D01*
X75408Y-42023D01*
X75469Y-42038D01*
X75499Y-42054D01*
X75514Y-42069D01*
X75530Y-42099D01*
X75530Y-42130D01*
X75514Y-42160D01*
X75499Y-42176D01*
X75469Y-42191D01*
X75408Y-42206D01*
X75331Y-42206D01*
X75270Y-42191D01*
X75240Y-42176D01*
X75225Y-42160D01*
X75210Y-42130D01*
X75240Y-41901D02*
X75225Y-41886D01*
X75210Y-41855D01*
X75210Y-41779D01*
X75225Y-41749D01*
X75240Y-41733D01*
X75270Y-41718D01*
X75301Y-41718D01*
X75347Y-41733D01*
X75530Y-41916D01*
X75530Y-41718D01*
X72742Y-42099D02*
X72727Y-42114D01*
X72681Y-42130D01*
X72651Y-42130D01*
X72605Y-42114D01*
X72574Y-42084D01*
X72559Y-42053D01*
X72544Y-41992D01*
X72544Y-41947D01*
X72559Y-41886D01*
X72574Y-41855D01*
X72605Y-41825D01*
X72651Y-41810D01*
X72681Y-41810D01*
X72727Y-41825D01*
X72742Y-41840D01*
X72849Y-41810D02*
X73047Y-41810D01*
X72940Y-41931D01*
X72986Y-41931D01*
X73016Y-41947D01*
X73032Y-41962D01*
X73047Y-41992D01*
X73047Y-42069D01*
X73032Y-42099D01*
X73016Y-42114D01*
X72986Y-42130D01*
X72894Y-42130D01*
X72864Y-42114D01*
X72849Y-42099D01*
X73245Y-41810D02*
X73276Y-41810D01*
X73306Y-41825D01*
X73321Y-41840D01*
X73337Y-41870D01*
X73352Y-41931D01*
X73352Y-42008D01*
X73337Y-42069D01*
X73321Y-42099D01*
X73306Y-42114D01*
X73276Y-42130D01*
X73245Y-42130D01*
X73215Y-42114D01*
X73199Y-42099D01*
X73184Y-42069D01*
X73169Y-42008D01*
X73169Y-41931D01*
X73184Y-41870D01*
X73199Y-41840D01*
X73215Y-41825D01*
X73245Y-41810D01*
X73626Y-41916D02*
X73626Y-42130D01*
X73550Y-41794D02*
X73474Y-42023D01*
X73672Y-42023D01*
X71674Y-39858D02*
X71689Y-39873D01*
X71705Y-39919D01*
X71705Y-39949D01*
X71689Y-39995D01*
X71659Y-40026D01*
X71628Y-40041D01*
X71567Y-40056D01*
X71522Y-40056D01*
X71461Y-40041D01*
X71430Y-40026D01*
X71400Y-39995D01*
X71385Y-39949D01*
X71385Y-39919D01*
X71400Y-39873D01*
X71415Y-39858D01*
X71385Y-39751D02*
X71385Y-39553D01*
X71506Y-39660D01*
X71506Y-39614D01*
X71522Y-39584D01*
X71537Y-39568D01*
X71567Y-39553D01*
X71644Y-39553D01*
X71674Y-39568D01*
X71689Y-39584D01*
X71705Y-39614D01*
X71705Y-39706D01*
X71689Y-39736D01*
X71674Y-39751D01*
X71415Y-39431D02*
X71400Y-39416D01*
X71385Y-39385D01*
X71385Y-39309D01*
X71400Y-39279D01*
X71415Y-39263D01*
X71445Y-39248D01*
X71476Y-39248D01*
X71522Y-39263D01*
X71705Y-39446D01*
X71705Y-39248D01*
X71415Y-39126D02*
X71400Y-39111D01*
X71385Y-39080D01*
X71385Y-39004D01*
X71400Y-38974D01*
X71415Y-38958D01*
X71445Y-38943D01*
X71476Y-38943D01*
X71522Y-38958D01*
X71705Y-39141D01*
X71705Y-38943D01*
X73267Y-27099D02*
X73252Y-27114D01*
X73206Y-27130D01*
X73176Y-27130D01*
X73130Y-27114D01*
X73099Y-27084D01*
X73084Y-27053D01*
X73069Y-26992D01*
X73069Y-26947D01*
X73084Y-26886D01*
X73099Y-26855D01*
X73130Y-26825D01*
X73176Y-26810D01*
X73206Y-26810D01*
X73252Y-26825D01*
X73267Y-26840D01*
X73374Y-26810D02*
X73572Y-26810D01*
X73465Y-26931D01*
X73511Y-26931D01*
X73541Y-26947D01*
X73557Y-26962D01*
X73572Y-26992D01*
X73572Y-27069D01*
X73557Y-27099D01*
X73541Y-27114D01*
X73511Y-27130D01*
X73419Y-27130D01*
X73389Y-27114D01*
X73374Y-27099D01*
X73877Y-27130D02*
X73694Y-27130D01*
X73785Y-27130D02*
X73785Y-26810D01*
X73755Y-26855D01*
X73724Y-26886D01*
X73694Y-26901D01*
X73999Y-26840D02*
X74014Y-26825D01*
X74045Y-26810D01*
X74121Y-26810D01*
X74151Y-26825D01*
X74167Y-26840D01*
X74182Y-26870D01*
X74182Y-26901D01*
X74167Y-26947D01*
X73984Y-27130D01*
X74182Y-27130D01*
X75849Y-39708D02*
X75864Y-39723D01*
X75880Y-39769D01*
X75880Y-39799D01*
X75864Y-39845D01*
X75834Y-39876D01*
X75803Y-39891D01*
X75742Y-39906D01*
X75697Y-39906D01*
X75636Y-39891D01*
X75605Y-39876D01*
X75575Y-39845D01*
X75560Y-39799D01*
X75560Y-39769D01*
X75575Y-39723D01*
X75590Y-39708D01*
X75560Y-39601D02*
X75560Y-39403D01*
X75681Y-39510D01*
X75681Y-39464D01*
X75697Y-39434D01*
X75712Y-39418D01*
X75742Y-39403D01*
X75819Y-39403D01*
X75849Y-39418D01*
X75864Y-39434D01*
X75880Y-39464D01*
X75880Y-39556D01*
X75864Y-39586D01*
X75849Y-39601D01*
X75590Y-39281D02*
X75575Y-39266D01*
X75560Y-39235D01*
X75560Y-39159D01*
X75575Y-39129D01*
X75590Y-39113D01*
X75620Y-39098D01*
X75651Y-39098D01*
X75697Y-39113D01*
X75880Y-39296D01*
X75880Y-39098D01*
X75880Y-38793D02*
X75880Y-38976D01*
X75880Y-38885D02*
X75560Y-38885D01*
X75605Y-38915D01*
X75636Y-38946D01*
X75651Y-38976D01*
X75942Y-29399D02*
X75927Y-29414D01*
X75881Y-29430D01*
X75851Y-29430D01*
X75805Y-29414D01*
X75774Y-29384D01*
X75759Y-29353D01*
X75744Y-29292D01*
X75744Y-29247D01*
X75759Y-29186D01*
X75774Y-29155D01*
X75805Y-29125D01*
X75851Y-29110D01*
X75881Y-29110D01*
X75927Y-29125D01*
X75942Y-29140D01*
X76049Y-29110D02*
X76247Y-29110D01*
X76140Y-29231D01*
X76186Y-29231D01*
X76216Y-29247D01*
X76232Y-29262D01*
X76247Y-29292D01*
X76247Y-29369D01*
X76232Y-29399D01*
X76216Y-29414D01*
X76186Y-29430D01*
X76094Y-29430D01*
X76064Y-29414D01*
X76049Y-29399D01*
X76552Y-29430D02*
X76369Y-29430D01*
X76460Y-29430D02*
X76460Y-29110D01*
X76430Y-29155D01*
X76399Y-29186D01*
X76369Y-29201D01*
X76857Y-29430D02*
X76674Y-29430D01*
X76765Y-29430D02*
X76765Y-29110D01*
X76735Y-29155D01*
X76704Y-29186D01*
X76674Y-29201D01*
X61992Y-23449D02*
X61977Y-23464D01*
X61931Y-23480D01*
X61901Y-23480D01*
X61855Y-23464D01*
X61824Y-23434D01*
X61809Y-23403D01*
X61794Y-23342D01*
X61794Y-23297D01*
X61809Y-23236D01*
X61824Y-23205D01*
X61855Y-23175D01*
X61901Y-23160D01*
X61931Y-23160D01*
X61977Y-23175D01*
X61992Y-23190D01*
X62282Y-23160D02*
X62129Y-23160D01*
X62114Y-23312D01*
X62129Y-23297D01*
X62160Y-23281D01*
X62236Y-23281D01*
X62266Y-23297D01*
X62282Y-23312D01*
X62297Y-23342D01*
X62297Y-23419D01*
X62282Y-23449D01*
X62266Y-23464D01*
X62236Y-23480D01*
X62160Y-23480D01*
X62129Y-23464D01*
X62114Y-23449D01*
X62602Y-23480D02*
X62419Y-23480D01*
X62510Y-23480D02*
X62510Y-23160D01*
X62480Y-23205D01*
X62449Y-23236D01*
X62419Y-23251D01*
X62907Y-23480D02*
X62724Y-23480D01*
X62815Y-23480D02*
X62815Y-23160D01*
X62785Y-23205D01*
X62754Y-23236D01*
X62724Y-23251D01*
X42249Y-40558D02*
X42264Y-40573D01*
X42280Y-40619D01*
X42280Y-40649D01*
X42264Y-40695D01*
X42234Y-40726D01*
X42203Y-40741D01*
X42142Y-40756D01*
X42097Y-40756D01*
X42036Y-40741D01*
X42005Y-40726D01*
X41975Y-40695D01*
X41960Y-40649D01*
X41960Y-40619D01*
X41975Y-40573D01*
X41990Y-40558D01*
X41960Y-40451D02*
X41960Y-40253D01*
X42081Y-40360D01*
X42081Y-40314D01*
X42097Y-40284D01*
X42112Y-40268D01*
X42142Y-40253D01*
X42219Y-40253D01*
X42249Y-40268D01*
X42264Y-40284D01*
X42280Y-40314D01*
X42280Y-40406D01*
X42264Y-40436D01*
X42249Y-40451D01*
X42066Y-39979D02*
X42280Y-39979D01*
X41944Y-40055D02*
X42173Y-40131D01*
X42173Y-39933D01*
X42280Y-39643D02*
X42280Y-39826D01*
X42280Y-39735D02*
X41960Y-39735D01*
X42005Y-39765D01*
X42036Y-39796D01*
X42051Y-39826D01*
X50624Y-45583D02*
X50639Y-45598D01*
X50655Y-45644D01*
X50655Y-45674D01*
X50639Y-45720D01*
X50609Y-45751D01*
X50578Y-45766D01*
X50517Y-45781D01*
X50472Y-45781D01*
X50411Y-45766D01*
X50380Y-45751D01*
X50350Y-45720D01*
X50335Y-45674D01*
X50335Y-45644D01*
X50350Y-45598D01*
X50365Y-45583D01*
X50335Y-45476D02*
X50335Y-45278D01*
X50456Y-45385D01*
X50456Y-45339D01*
X50472Y-45309D01*
X50487Y-45293D01*
X50517Y-45278D01*
X50594Y-45278D01*
X50624Y-45293D01*
X50639Y-45309D01*
X50655Y-45339D01*
X50655Y-45431D01*
X50639Y-45461D01*
X50624Y-45476D01*
X50335Y-45171D02*
X50335Y-44973D01*
X50456Y-45080D01*
X50456Y-45034D01*
X50472Y-45004D01*
X50487Y-44988D01*
X50517Y-44973D01*
X50594Y-44973D01*
X50624Y-44988D01*
X50639Y-45004D01*
X50655Y-45034D01*
X50655Y-45126D01*
X50639Y-45156D01*
X50624Y-45171D01*
X50655Y-44668D02*
X50655Y-44851D01*
X50655Y-44760D02*
X50335Y-44760D01*
X50380Y-44790D01*
X50411Y-44821D01*
X50426Y-44851D01*
X54217Y-33899D02*
X54202Y-33914D01*
X54156Y-33930D01*
X54126Y-33930D01*
X54080Y-33914D01*
X54049Y-33884D01*
X54034Y-33853D01*
X54019Y-33792D01*
X54019Y-33747D01*
X54034Y-33686D01*
X54049Y-33655D01*
X54080Y-33625D01*
X54126Y-33610D01*
X54156Y-33610D01*
X54202Y-33625D01*
X54217Y-33640D01*
X54339Y-33640D02*
X54354Y-33625D01*
X54385Y-33610D01*
X54461Y-33610D01*
X54491Y-33625D01*
X54507Y-33640D01*
X54522Y-33670D01*
X54522Y-33701D01*
X54507Y-33747D01*
X54324Y-33930D01*
X54522Y-33930D01*
X54644Y-33640D02*
X54659Y-33625D01*
X54690Y-33610D01*
X54766Y-33610D01*
X54796Y-33625D01*
X54812Y-33640D01*
X54827Y-33670D01*
X54827Y-33701D01*
X54812Y-33747D01*
X54629Y-33930D01*
X54827Y-33930D01*
X55132Y-33930D02*
X54949Y-33930D01*
X55040Y-33930D02*
X55040Y-33610D01*
X55010Y-33655D01*
X54979Y-33686D01*
X54949Y-33701D01*
X62842Y-27699D02*
X62827Y-27714D01*
X62781Y-27730D01*
X62751Y-27730D01*
X62705Y-27714D01*
X62674Y-27684D01*
X62659Y-27653D01*
X62644Y-27592D01*
X62644Y-27547D01*
X62659Y-27486D01*
X62674Y-27455D01*
X62705Y-27425D01*
X62751Y-27410D01*
X62781Y-27410D01*
X62827Y-27425D01*
X62842Y-27440D01*
X62964Y-27440D02*
X62979Y-27425D01*
X63010Y-27410D01*
X63086Y-27410D01*
X63116Y-27425D01*
X63132Y-27440D01*
X63147Y-27470D01*
X63147Y-27501D01*
X63132Y-27547D01*
X62949Y-27730D01*
X63147Y-27730D01*
X63452Y-27730D02*
X63269Y-27730D01*
X63360Y-27730D02*
X63360Y-27410D01*
X63330Y-27455D01*
X63299Y-27486D01*
X63269Y-27501D01*
X63559Y-27410D02*
X63757Y-27410D01*
X63650Y-27531D01*
X63696Y-27531D01*
X63726Y-27547D01*
X63742Y-27562D01*
X63757Y-27592D01*
X63757Y-27669D01*
X63742Y-27699D01*
X63726Y-27714D01*
X63696Y-27730D01*
X63604Y-27730D01*
X63574Y-27714D01*
X63559Y-27699D01*
X59367Y-28099D02*
X59352Y-28114D01*
X59306Y-28130D01*
X59276Y-28130D01*
X59230Y-28114D01*
X59199Y-28084D01*
X59184Y-28053D01*
X59169Y-27992D01*
X59169Y-27947D01*
X59184Y-27886D01*
X59199Y-27855D01*
X59230Y-27825D01*
X59276Y-27810D01*
X59306Y-27810D01*
X59352Y-27825D01*
X59367Y-27840D01*
X59489Y-27840D02*
X59504Y-27825D01*
X59535Y-27810D01*
X59611Y-27810D01*
X59641Y-27825D01*
X59657Y-27840D01*
X59672Y-27870D01*
X59672Y-27901D01*
X59657Y-27947D01*
X59474Y-28130D01*
X59672Y-28130D01*
X59870Y-27810D02*
X59901Y-27810D01*
X59931Y-27825D01*
X59946Y-27840D01*
X59962Y-27870D01*
X59977Y-27931D01*
X59977Y-28008D01*
X59962Y-28069D01*
X59946Y-28099D01*
X59931Y-28114D01*
X59901Y-28130D01*
X59870Y-28130D01*
X59840Y-28114D01*
X59824Y-28099D01*
X59809Y-28069D01*
X59794Y-28008D01*
X59794Y-27931D01*
X59809Y-27870D01*
X59824Y-27840D01*
X59840Y-27825D01*
X59870Y-27810D01*
X60084Y-27810D02*
X60282Y-27810D01*
X60175Y-27931D01*
X60221Y-27931D01*
X60251Y-27947D01*
X60267Y-27962D01*
X60282Y-27992D01*
X60282Y-28069D01*
X60267Y-28099D01*
X60251Y-28114D01*
X60221Y-28130D01*
X60129Y-28130D01*
X60099Y-28114D01*
X60084Y-28099D01*
X51442Y-34549D02*
X51427Y-34564D01*
X51381Y-34580D01*
X51351Y-34580D01*
X51305Y-34564D01*
X51274Y-34534D01*
X51259Y-34503D01*
X51244Y-34442D01*
X51244Y-34397D01*
X51259Y-34336D01*
X51274Y-34305D01*
X51305Y-34275D01*
X51351Y-34260D01*
X51381Y-34260D01*
X51427Y-34275D01*
X51442Y-34290D01*
X51564Y-34290D02*
X51579Y-34275D01*
X51610Y-34260D01*
X51686Y-34260D01*
X51716Y-34275D01*
X51732Y-34290D01*
X51747Y-34320D01*
X51747Y-34351D01*
X51732Y-34397D01*
X51549Y-34580D01*
X51747Y-34580D01*
X51945Y-34260D02*
X51976Y-34260D01*
X52006Y-34275D01*
X52021Y-34290D01*
X52037Y-34320D01*
X52052Y-34381D01*
X52052Y-34458D01*
X52037Y-34519D01*
X52021Y-34549D01*
X52006Y-34564D01*
X51976Y-34580D01*
X51945Y-34580D01*
X51915Y-34564D01*
X51899Y-34549D01*
X51884Y-34519D01*
X51869Y-34458D01*
X51869Y-34381D01*
X51884Y-34320D01*
X51899Y-34290D01*
X51915Y-34275D01*
X51945Y-34260D01*
X52174Y-34290D02*
X52189Y-34275D01*
X52220Y-34260D01*
X52296Y-34260D01*
X52326Y-34275D01*
X52342Y-34290D01*
X52357Y-34320D01*
X52357Y-34351D01*
X52342Y-34397D01*
X52159Y-34580D01*
X52357Y-34580D01*
X42049Y-34008D02*
X42064Y-34023D01*
X42080Y-34069D01*
X42080Y-34099D01*
X42064Y-34145D01*
X42034Y-34176D01*
X42003Y-34191D01*
X41942Y-34206D01*
X41897Y-34206D01*
X41836Y-34191D01*
X41805Y-34176D01*
X41775Y-34145D01*
X41760Y-34099D01*
X41760Y-34069D01*
X41775Y-34023D01*
X41790Y-34008D01*
X41866Y-33734D02*
X42080Y-33734D01*
X41744Y-33810D02*
X41973Y-33886D01*
X41973Y-33688D01*
X41760Y-33505D02*
X41760Y-33474D01*
X41775Y-33444D01*
X41790Y-33429D01*
X41820Y-33413D01*
X41881Y-33398D01*
X41958Y-33398D01*
X42019Y-33413D01*
X42049Y-33429D01*
X42064Y-33444D01*
X42080Y-33474D01*
X42080Y-33505D01*
X42064Y-33535D01*
X42049Y-33551D01*
X42019Y-33566D01*
X41958Y-33581D01*
X41881Y-33581D01*
X41820Y-33566D01*
X41790Y-33551D01*
X41775Y-33535D01*
X41760Y-33505D01*
X41897Y-33215D02*
X41881Y-33246D01*
X41866Y-33261D01*
X41836Y-33276D01*
X41820Y-33276D01*
X41790Y-33261D01*
X41775Y-33246D01*
X41760Y-33215D01*
X41760Y-33154D01*
X41775Y-33124D01*
X41790Y-33108D01*
X41820Y-33093D01*
X41836Y-33093D01*
X41866Y-33108D01*
X41881Y-33124D01*
X41897Y-33154D01*
X41897Y-33215D01*
X41912Y-33246D01*
X41927Y-33261D01*
X41958Y-33276D01*
X42019Y-33276D01*
X42049Y-33261D01*
X42064Y-33246D01*
X42080Y-33215D01*
X42080Y-33154D01*
X42064Y-33124D01*
X42049Y-33108D01*
X42019Y-33093D01*
X41958Y-33093D01*
X41927Y-33108D01*
X41912Y-33124D01*
X41897Y-33154D01*
X45249Y-38383D02*
X45264Y-38398D01*
X45280Y-38444D01*
X45280Y-38474D01*
X45264Y-38520D01*
X45234Y-38551D01*
X45203Y-38566D01*
X45142Y-38581D01*
X45097Y-38581D01*
X45036Y-38566D01*
X45005Y-38551D01*
X44975Y-38520D01*
X44960Y-38474D01*
X44960Y-38444D01*
X44975Y-38398D01*
X44990Y-38383D01*
X45066Y-38109D02*
X45280Y-38109D01*
X44944Y-38185D02*
X45173Y-38261D01*
X45173Y-38063D01*
X44960Y-37880D02*
X44960Y-37849D01*
X44975Y-37819D01*
X44990Y-37804D01*
X45020Y-37788D01*
X45081Y-37773D01*
X45158Y-37773D01*
X45219Y-37788D01*
X45249Y-37804D01*
X45264Y-37819D01*
X45280Y-37849D01*
X45280Y-37880D01*
X45264Y-37910D01*
X45249Y-37926D01*
X45219Y-37941D01*
X45158Y-37956D01*
X45081Y-37956D01*
X45020Y-37941D01*
X44990Y-37926D01*
X44975Y-37910D01*
X44960Y-37880D01*
X44960Y-37666D02*
X44960Y-37453D01*
X45280Y-37590D01*
X41092Y-36649D02*
X41077Y-36664D01*
X41031Y-36680D01*
X41001Y-36680D01*
X40955Y-36664D01*
X40924Y-36634D01*
X40909Y-36603D01*
X40894Y-36542D01*
X40894Y-36497D01*
X40909Y-36436D01*
X40924Y-36405D01*
X40955Y-36375D01*
X41001Y-36360D01*
X41031Y-36360D01*
X41077Y-36375D01*
X41092Y-36390D01*
X41366Y-36466D02*
X41366Y-36680D01*
X41290Y-36344D02*
X41214Y-36573D01*
X41412Y-36573D01*
X41595Y-36360D02*
X41626Y-36360D01*
X41656Y-36375D01*
X41671Y-36390D01*
X41687Y-36420D01*
X41702Y-36481D01*
X41702Y-36558D01*
X41687Y-36619D01*
X41671Y-36649D01*
X41656Y-36664D01*
X41626Y-36680D01*
X41595Y-36680D01*
X41565Y-36664D01*
X41549Y-36649D01*
X41534Y-36619D01*
X41519Y-36558D01*
X41519Y-36481D01*
X41534Y-36420D01*
X41549Y-36390D01*
X41565Y-36375D01*
X41595Y-36360D01*
X41976Y-36360D02*
X41915Y-36360D01*
X41885Y-36375D01*
X41870Y-36390D01*
X41839Y-36436D01*
X41824Y-36497D01*
X41824Y-36619D01*
X41839Y-36649D01*
X41854Y-36664D01*
X41885Y-36680D01*
X41946Y-36680D01*
X41976Y-36664D01*
X41992Y-36649D01*
X42007Y-36619D01*
X42007Y-36542D01*
X41992Y-36512D01*
X41976Y-36497D01*
X41946Y-36481D01*
X41885Y-36481D01*
X41854Y-36497D01*
X41839Y-36512D01*
X41824Y-36542D01*
X67392Y-27030D02*
X67285Y-26877D01*
X67209Y-27030D02*
X67209Y-26710D01*
X67331Y-26710D01*
X67362Y-26725D01*
X67377Y-26740D01*
X67392Y-26770D01*
X67392Y-26816D01*
X67377Y-26847D01*
X67362Y-26862D01*
X67331Y-26877D01*
X67209Y-26877D01*
X67682Y-26710D02*
X67529Y-26710D01*
X67514Y-26862D01*
X67529Y-26847D01*
X67560Y-26831D01*
X67636Y-26831D01*
X67666Y-26847D01*
X67682Y-26862D01*
X67697Y-26892D01*
X67697Y-26969D01*
X67682Y-26999D01*
X67666Y-27014D01*
X67636Y-27030D01*
X67560Y-27030D01*
X67529Y-27014D01*
X67514Y-26999D01*
X68002Y-27030D02*
X67819Y-27030D01*
X67910Y-27030D02*
X67910Y-26710D01*
X67880Y-26755D01*
X67849Y-26786D01*
X67819Y-26801D01*
X68124Y-26740D02*
X68139Y-26725D01*
X68170Y-26710D01*
X68246Y-26710D01*
X68276Y-26725D01*
X68292Y-26740D01*
X68307Y-26770D01*
X68307Y-26801D01*
X68292Y-26847D01*
X68109Y-27030D01*
X68307Y-27030D01*
X68205Y-25458D02*
X68052Y-25565D01*
X68205Y-25641D02*
X67885Y-25641D01*
X67885Y-25519D01*
X67900Y-25488D01*
X67915Y-25473D01*
X67945Y-25458D01*
X67991Y-25458D01*
X68022Y-25473D01*
X68037Y-25488D01*
X68052Y-25519D01*
X68052Y-25641D01*
X67885Y-25168D02*
X67885Y-25321D01*
X68037Y-25336D01*
X68022Y-25321D01*
X68006Y-25290D01*
X68006Y-25214D01*
X68022Y-25184D01*
X68037Y-25168D01*
X68067Y-25153D01*
X68144Y-25153D01*
X68174Y-25168D01*
X68189Y-25184D01*
X68205Y-25214D01*
X68205Y-25290D01*
X68189Y-25321D01*
X68174Y-25336D01*
X68205Y-24848D02*
X68205Y-25031D01*
X68205Y-24940D02*
X67885Y-24940D01*
X67930Y-24970D01*
X67961Y-25001D01*
X67976Y-25031D01*
X67885Y-24741D02*
X67885Y-24543D01*
X68006Y-24650D01*
X68006Y-24604D01*
X68022Y-24574D01*
X68037Y-24558D01*
X68067Y-24543D01*
X68144Y-24543D01*
X68174Y-24558D01*
X68189Y-24574D01*
X68205Y-24604D01*
X68205Y-24696D01*
X68189Y-24726D01*
X68174Y-24741D01*
X63142Y-25280D02*
X63035Y-25127D01*
X62959Y-25280D02*
X62959Y-24960D01*
X63081Y-24960D01*
X63112Y-24975D01*
X63127Y-24990D01*
X63142Y-25020D01*
X63142Y-25066D01*
X63127Y-25097D01*
X63112Y-25112D01*
X63081Y-25127D01*
X62959Y-25127D01*
X63432Y-24960D02*
X63279Y-24960D01*
X63264Y-25112D01*
X63279Y-25097D01*
X63310Y-25081D01*
X63386Y-25081D01*
X63416Y-25097D01*
X63432Y-25112D01*
X63447Y-25142D01*
X63447Y-25219D01*
X63432Y-25249D01*
X63416Y-25264D01*
X63386Y-25280D01*
X63310Y-25280D01*
X63279Y-25264D01*
X63264Y-25249D01*
X63752Y-25280D02*
X63569Y-25280D01*
X63660Y-25280D02*
X63660Y-24960D01*
X63630Y-25005D01*
X63599Y-25036D01*
X63569Y-25051D01*
X64057Y-25280D02*
X63874Y-25280D01*
X63965Y-25280D02*
X63965Y-24960D01*
X63935Y-25005D01*
X63904Y-25036D01*
X63874Y-25051D01*
X74055Y-25783D02*
X73902Y-25890D01*
X74055Y-25966D02*
X73735Y-25966D01*
X73735Y-25844D01*
X73750Y-25813D01*
X73765Y-25798D01*
X73795Y-25783D01*
X73841Y-25783D01*
X73872Y-25798D01*
X73887Y-25813D01*
X73902Y-25844D01*
X73902Y-25966D01*
X73841Y-25509D02*
X74055Y-25509D01*
X73719Y-25585D02*
X73948Y-25661D01*
X73948Y-25463D01*
X73735Y-25280D02*
X73735Y-25249D01*
X73750Y-25219D01*
X73765Y-25204D01*
X73795Y-25188D01*
X73856Y-25173D01*
X73933Y-25173D01*
X73994Y-25188D01*
X74024Y-25204D01*
X74039Y-25219D01*
X74055Y-25249D01*
X74055Y-25280D01*
X74039Y-25310D01*
X74024Y-25326D01*
X73994Y-25341D01*
X73933Y-25356D01*
X73856Y-25356D01*
X73795Y-25341D01*
X73765Y-25326D01*
X73750Y-25310D01*
X73735Y-25280D01*
X74055Y-24868D02*
X74055Y-25051D01*
X74055Y-24960D02*
X73735Y-24960D01*
X73780Y-24990D01*
X73811Y-25021D01*
X73826Y-25051D01*
X71805Y-25783D02*
X71652Y-25890D01*
X71805Y-25966D02*
X71485Y-25966D01*
X71485Y-25844D01*
X71500Y-25813D01*
X71515Y-25798D01*
X71545Y-25783D01*
X71591Y-25783D01*
X71622Y-25798D01*
X71637Y-25813D01*
X71652Y-25844D01*
X71652Y-25966D01*
X71591Y-25509D02*
X71805Y-25509D01*
X71469Y-25585D02*
X71698Y-25661D01*
X71698Y-25463D01*
X71485Y-25280D02*
X71485Y-25249D01*
X71500Y-25219D01*
X71515Y-25204D01*
X71545Y-25188D01*
X71606Y-25173D01*
X71683Y-25173D01*
X71744Y-25188D01*
X71774Y-25204D01*
X71789Y-25219D01*
X71805Y-25249D01*
X71805Y-25280D01*
X71789Y-25310D01*
X71774Y-25326D01*
X71744Y-25341D01*
X71683Y-25356D01*
X71606Y-25356D01*
X71545Y-25341D01*
X71515Y-25326D01*
X71500Y-25310D01*
X71485Y-25280D01*
X71515Y-25051D02*
X71500Y-25036D01*
X71485Y-25005D01*
X71485Y-24929D01*
X71500Y-24899D01*
X71515Y-24883D01*
X71545Y-24868D01*
X71576Y-24868D01*
X71622Y-24883D01*
X71805Y-25066D01*
X71805Y-24868D01*
X49142Y-29705D02*
X49035Y-29552D01*
X48959Y-29705D02*
X48959Y-29385D01*
X49081Y-29385D01*
X49112Y-29400D01*
X49127Y-29415D01*
X49142Y-29445D01*
X49142Y-29491D01*
X49127Y-29522D01*
X49112Y-29537D01*
X49081Y-29552D01*
X48959Y-29552D01*
X49416Y-29491D02*
X49416Y-29705D01*
X49340Y-29369D02*
X49264Y-29598D01*
X49462Y-29598D01*
X49645Y-29385D02*
X49676Y-29385D01*
X49706Y-29400D01*
X49721Y-29415D01*
X49737Y-29445D01*
X49752Y-29506D01*
X49752Y-29583D01*
X49737Y-29644D01*
X49721Y-29674D01*
X49706Y-29689D01*
X49676Y-29705D01*
X49645Y-29705D01*
X49615Y-29689D01*
X49599Y-29674D01*
X49584Y-29644D01*
X49569Y-29583D01*
X49569Y-29506D01*
X49584Y-29445D01*
X49599Y-29415D01*
X49615Y-29400D01*
X49645Y-29385D01*
X50026Y-29385D02*
X49965Y-29385D01*
X49935Y-29400D01*
X49920Y-29415D01*
X49889Y-29461D01*
X49874Y-29522D01*
X49874Y-29644D01*
X49889Y-29674D01*
X49904Y-29689D01*
X49935Y-29705D01*
X49996Y-29705D01*
X50026Y-29689D01*
X50042Y-29674D01*
X50057Y-29644D01*
X50057Y-29567D01*
X50042Y-29537D01*
X50026Y-29522D01*
X49996Y-29506D01*
X49935Y-29506D01*
X49904Y-29522D01*
X49889Y-29537D01*
X49874Y-29567D01*
X49530Y-39658D02*
X49377Y-39765D01*
X49530Y-39841D02*
X49210Y-39841D01*
X49210Y-39719D01*
X49225Y-39688D01*
X49240Y-39673D01*
X49270Y-39658D01*
X49316Y-39658D01*
X49347Y-39673D01*
X49362Y-39688D01*
X49377Y-39719D01*
X49377Y-39841D01*
X49316Y-39384D02*
X49530Y-39384D01*
X49194Y-39460D02*
X49423Y-39536D01*
X49423Y-39338D01*
X49210Y-39155D02*
X49210Y-39124D01*
X49225Y-39094D01*
X49240Y-39079D01*
X49270Y-39063D01*
X49331Y-39048D01*
X49408Y-39048D01*
X49469Y-39063D01*
X49499Y-39079D01*
X49514Y-39094D01*
X49530Y-39124D01*
X49530Y-39155D01*
X49514Y-39185D01*
X49499Y-39201D01*
X49469Y-39216D01*
X49408Y-39231D01*
X49331Y-39231D01*
X49270Y-39216D01*
X49240Y-39201D01*
X49225Y-39185D01*
X49210Y-39155D01*
X49210Y-38758D02*
X49210Y-38911D01*
X49362Y-38926D01*
X49347Y-38911D01*
X49331Y-38880D01*
X49331Y-38804D01*
X49347Y-38774D01*
X49362Y-38758D01*
X49392Y-38743D01*
X49469Y-38743D01*
X49499Y-38758D01*
X49514Y-38774D01*
X49530Y-38804D01*
X49530Y-38880D01*
X49514Y-38911D01*
X49499Y-38926D01*
X37742Y-41549D02*
X37727Y-41564D01*
X37681Y-41580D01*
X37651Y-41580D01*
X37605Y-41564D01*
X37574Y-41534D01*
X37559Y-41503D01*
X37544Y-41442D01*
X37544Y-41397D01*
X37559Y-41336D01*
X37574Y-41305D01*
X37605Y-41275D01*
X37651Y-41260D01*
X37681Y-41260D01*
X37727Y-41275D01*
X37742Y-41290D01*
X37849Y-41260D02*
X38047Y-41260D01*
X37940Y-41381D01*
X37986Y-41381D01*
X38016Y-41397D01*
X38032Y-41412D01*
X38047Y-41442D01*
X38047Y-41519D01*
X38032Y-41549D01*
X38016Y-41564D01*
X37986Y-41580D01*
X37894Y-41580D01*
X37864Y-41564D01*
X37849Y-41549D01*
X38321Y-41366D02*
X38321Y-41580D01*
X38245Y-41244D02*
X38169Y-41473D01*
X38367Y-41473D01*
X38459Y-41260D02*
X38657Y-41260D01*
X38550Y-41381D01*
X38596Y-41381D01*
X38626Y-41397D01*
X38642Y-41412D01*
X38657Y-41442D01*
X38657Y-41519D01*
X38642Y-41549D01*
X38626Y-41564D01*
X38596Y-41580D01*
X38504Y-41580D01*
X38474Y-41564D01*
X38459Y-41549D01*
X37742Y-42299D02*
X37727Y-42314D01*
X37681Y-42330D01*
X37651Y-42330D01*
X37605Y-42314D01*
X37574Y-42284D01*
X37559Y-42253D01*
X37544Y-42192D01*
X37544Y-42147D01*
X37559Y-42086D01*
X37574Y-42055D01*
X37605Y-42025D01*
X37651Y-42010D01*
X37681Y-42010D01*
X37727Y-42025D01*
X37742Y-42040D01*
X37849Y-42010D02*
X38047Y-42010D01*
X37940Y-42131D01*
X37986Y-42131D01*
X38016Y-42147D01*
X38032Y-42162D01*
X38047Y-42192D01*
X38047Y-42269D01*
X38032Y-42299D01*
X38016Y-42314D01*
X37986Y-42330D01*
X37894Y-42330D01*
X37864Y-42314D01*
X37849Y-42299D01*
X38321Y-42116D02*
X38321Y-42330D01*
X38245Y-41994D02*
X38169Y-42223D01*
X38367Y-42223D01*
X38626Y-42116D02*
X38626Y-42330D01*
X38550Y-41994D02*
X38474Y-42223D01*
X38672Y-42223D01*
X37767Y-43049D02*
X37752Y-43064D01*
X37706Y-43080D01*
X37676Y-43080D01*
X37630Y-43064D01*
X37599Y-43034D01*
X37584Y-43003D01*
X37569Y-42942D01*
X37569Y-42897D01*
X37584Y-42836D01*
X37599Y-42805D01*
X37630Y-42775D01*
X37676Y-42760D01*
X37706Y-42760D01*
X37752Y-42775D01*
X37767Y-42790D01*
X37874Y-42760D02*
X38072Y-42760D01*
X37965Y-42881D01*
X38011Y-42881D01*
X38041Y-42897D01*
X38057Y-42912D01*
X38072Y-42942D01*
X38072Y-43019D01*
X38057Y-43049D01*
X38041Y-43064D01*
X38011Y-43080D01*
X37919Y-43080D01*
X37889Y-43064D01*
X37874Y-43049D01*
X38346Y-42866D02*
X38346Y-43080D01*
X38270Y-42744D02*
X38194Y-42973D01*
X38392Y-42973D01*
X38667Y-42760D02*
X38514Y-42760D01*
X38499Y-42912D01*
X38514Y-42897D01*
X38545Y-42881D01*
X38621Y-42881D01*
X38651Y-42897D01*
X38667Y-42912D01*
X38682Y-42942D01*
X38682Y-43019D01*
X38667Y-43049D01*
X38651Y-43064D01*
X38621Y-43080D01*
X38545Y-43080D01*
X38514Y-43064D01*
X38499Y-43049D01*
X42267Y-46699D02*
X42252Y-46714D01*
X42206Y-46730D01*
X42176Y-46730D01*
X42130Y-46714D01*
X42099Y-46684D01*
X42084Y-46653D01*
X42069Y-46592D01*
X42069Y-46547D01*
X42084Y-46486D01*
X42099Y-46455D01*
X42130Y-46425D01*
X42176Y-46410D01*
X42206Y-46410D01*
X42252Y-46425D01*
X42267Y-46440D01*
X42374Y-46410D02*
X42572Y-46410D01*
X42465Y-46531D01*
X42511Y-46531D01*
X42541Y-46547D01*
X42557Y-46562D01*
X42572Y-46592D01*
X42572Y-46669D01*
X42557Y-46699D01*
X42541Y-46714D01*
X42511Y-46730D01*
X42419Y-46730D01*
X42389Y-46714D01*
X42374Y-46699D01*
X42846Y-46516D02*
X42846Y-46730D01*
X42770Y-46394D02*
X42694Y-46623D01*
X42892Y-46623D01*
X42984Y-46410D02*
X43197Y-46410D01*
X43060Y-46730D01*
X38617Y-45305D02*
X38510Y-45152D01*
X38434Y-45305D02*
X38434Y-44985D01*
X38556Y-44985D01*
X38587Y-45000D01*
X38602Y-45015D01*
X38617Y-45045D01*
X38617Y-45091D01*
X38602Y-45122D01*
X38587Y-45137D01*
X38556Y-45152D01*
X38434Y-45152D01*
X38724Y-44985D02*
X38922Y-44985D01*
X38815Y-45106D01*
X38861Y-45106D01*
X38891Y-45122D01*
X38907Y-45137D01*
X38922Y-45167D01*
X38922Y-45244D01*
X38907Y-45274D01*
X38891Y-45289D01*
X38861Y-45305D01*
X38769Y-45305D01*
X38739Y-45289D01*
X38724Y-45274D01*
X39196Y-45091D02*
X39196Y-45305D01*
X39120Y-44969D02*
X39044Y-45198D01*
X39242Y-45198D01*
X39334Y-44985D02*
X39532Y-44985D01*
X39425Y-45106D01*
X39471Y-45106D01*
X39501Y-45122D01*
X39517Y-45137D01*
X39532Y-45167D01*
X39532Y-45244D01*
X39517Y-45274D01*
X39501Y-45289D01*
X39471Y-45305D01*
X39379Y-45305D01*
X39349Y-45289D01*
X39334Y-45274D01*
X38617Y-44430D02*
X38510Y-44277D01*
X38434Y-44430D02*
X38434Y-44110D01*
X38556Y-44110D01*
X38587Y-44125D01*
X38602Y-44140D01*
X38617Y-44170D01*
X38617Y-44216D01*
X38602Y-44247D01*
X38587Y-44262D01*
X38556Y-44277D01*
X38434Y-44277D01*
X38724Y-44110D02*
X38922Y-44110D01*
X38815Y-44231D01*
X38861Y-44231D01*
X38891Y-44247D01*
X38907Y-44262D01*
X38922Y-44292D01*
X38922Y-44369D01*
X38907Y-44399D01*
X38891Y-44414D01*
X38861Y-44430D01*
X38769Y-44430D01*
X38739Y-44414D01*
X38724Y-44399D01*
X39196Y-44216D02*
X39196Y-44430D01*
X39120Y-44094D02*
X39044Y-44323D01*
X39242Y-44323D01*
X39501Y-44216D02*
X39501Y-44430D01*
X39425Y-44094D02*
X39349Y-44323D01*
X39547Y-44323D01*
X38617Y-43824D02*
X38602Y-43839D01*
X38556Y-43855D01*
X38526Y-43855D01*
X38480Y-43839D01*
X38449Y-43809D01*
X38434Y-43778D01*
X38419Y-43717D01*
X38419Y-43672D01*
X38434Y-43611D01*
X38449Y-43580D01*
X38480Y-43550D01*
X38526Y-43535D01*
X38556Y-43535D01*
X38602Y-43550D01*
X38617Y-43565D01*
X38724Y-43535D02*
X38922Y-43535D01*
X38815Y-43656D01*
X38861Y-43656D01*
X38891Y-43672D01*
X38907Y-43687D01*
X38922Y-43717D01*
X38922Y-43794D01*
X38907Y-43824D01*
X38891Y-43839D01*
X38861Y-43855D01*
X38769Y-43855D01*
X38739Y-43839D01*
X38724Y-43824D01*
X39196Y-43641D02*
X39196Y-43855D01*
X39120Y-43519D02*
X39044Y-43748D01*
X39242Y-43748D01*
X39410Y-43672D02*
X39379Y-43656D01*
X39364Y-43641D01*
X39349Y-43611D01*
X39349Y-43595D01*
X39364Y-43565D01*
X39379Y-43550D01*
X39410Y-43535D01*
X39471Y-43535D01*
X39501Y-43550D01*
X39517Y-43565D01*
X39532Y-43595D01*
X39532Y-43611D01*
X39517Y-43641D01*
X39501Y-43656D01*
X39471Y-43672D01*
X39410Y-43672D01*
X39379Y-43687D01*
X39364Y-43702D01*
X39349Y-43733D01*
X39349Y-43794D01*
X39364Y-43824D01*
X39379Y-43839D01*
X39410Y-43855D01*
X39471Y-43855D01*
X39501Y-43839D01*
X39517Y-43824D01*
X39532Y-43794D01*
X39532Y-43733D01*
X39517Y-43702D01*
X39501Y-43687D01*
X39471Y-43672D01*
X42942Y-43924D02*
X42927Y-43939D01*
X42881Y-43955D01*
X42851Y-43955D01*
X42805Y-43939D01*
X42774Y-43909D01*
X42759Y-43878D01*
X42744Y-43817D01*
X42744Y-43772D01*
X42759Y-43711D01*
X42774Y-43680D01*
X42805Y-43650D01*
X42851Y-43635D01*
X42881Y-43635D01*
X42927Y-43650D01*
X42942Y-43665D01*
X43049Y-43635D02*
X43247Y-43635D01*
X43140Y-43756D01*
X43186Y-43756D01*
X43216Y-43772D01*
X43232Y-43787D01*
X43247Y-43817D01*
X43247Y-43894D01*
X43232Y-43924D01*
X43216Y-43939D01*
X43186Y-43955D01*
X43094Y-43955D01*
X43064Y-43939D01*
X43049Y-43924D01*
X43521Y-43741D02*
X43521Y-43955D01*
X43445Y-43619D02*
X43369Y-43848D01*
X43567Y-43848D01*
X43826Y-43635D02*
X43765Y-43635D01*
X43735Y-43650D01*
X43720Y-43665D01*
X43689Y-43711D01*
X43674Y-43772D01*
X43674Y-43894D01*
X43689Y-43924D01*
X43704Y-43939D01*
X43735Y-43955D01*
X43796Y-43955D01*
X43826Y-43939D01*
X43842Y-43924D01*
X43857Y-43894D01*
X43857Y-43817D01*
X43842Y-43787D01*
X43826Y-43772D01*
X43796Y-43756D01*
X43735Y-43756D01*
X43704Y-43772D01*
X43689Y-43787D01*
X43674Y-43817D01*
X39942Y-46699D02*
X39927Y-46714D01*
X39881Y-46730D01*
X39851Y-46730D01*
X39805Y-46714D01*
X39774Y-46684D01*
X39759Y-46653D01*
X39744Y-46592D01*
X39744Y-46547D01*
X39759Y-46486D01*
X39774Y-46455D01*
X39805Y-46425D01*
X39851Y-46410D01*
X39881Y-46410D01*
X39927Y-46425D01*
X39942Y-46440D01*
X40049Y-46410D02*
X40247Y-46410D01*
X40140Y-46531D01*
X40186Y-46531D01*
X40216Y-46547D01*
X40232Y-46562D01*
X40247Y-46592D01*
X40247Y-46669D01*
X40232Y-46699D01*
X40216Y-46714D01*
X40186Y-46730D01*
X40094Y-46730D01*
X40064Y-46714D01*
X40049Y-46699D01*
X40521Y-46516D02*
X40521Y-46730D01*
X40445Y-46394D02*
X40369Y-46623D01*
X40567Y-46623D01*
X40704Y-46730D02*
X40765Y-46730D01*
X40796Y-46714D01*
X40811Y-46699D01*
X40842Y-46653D01*
X40857Y-46592D01*
X40857Y-46470D01*
X40842Y-46440D01*
X40826Y-46425D01*
X40796Y-46410D01*
X40735Y-46410D01*
X40704Y-46425D01*
X40689Y-46440D01*
X40674Y-46470D01*
X40674Y-46547D01*
X40689Y-46577D01*
X40704Y-46592D01*
X40735Y-46608D01*
X40796Y-46608D01*
X40826Y-46592D01*
X40842Y-46577D01*
X40857Y-46547D01*
X42942Y-44655D02*
X42835Y-44502D01*
X42759Y-44655D02*
X42759Y-44335D01*
X42881Y-44335D01*
X42912Y-44350D01*
X42927Y-44365D01*
X42942Y-44395D01*
X42942Y-44441D01*
X42927Y-44472D01*
X42912Y-44487D01*
X42881Y-44502D01*
X42759Y-44502D01*
X43049Y-44335D02*
X43247Y-44335D01*
X43140Y-44456D01*
X43186Y-44456D01*
X43216Y-44472D01*
X43232Y-44487D01*
X43247Y-44517D01*
X43247Y-44594D01*
X43232Y-44624D01*
X43216Y-44639D01*
X43186Y-44655D01*
X43094Y-44655D01*
X43064Y-44639D01*
X43049Y-44624D01*
X43521Y-44441D02*
X43521Y-44655D01*
X43445Y-44319D02*
X43369Y-44548D01*
X43567Y-44548D01*
X43674Y-44365D02*
X43689Y-44350D01*
X43720Y-44335D01*
X43796Y-44335D01*
X43826Y-44350D01*
X43842Y-44365D01*
X43857Y-44395D01*
X43857Y-44426D01*
X43842Y-44472D01*
X43659Y-44655D01*
X43857Y-44655D01*
X42942Y-45355D02*
X42835Y-45202D01*
X42759Y-45355D02*
X42759Y-45035D01*
X42881Y-45035D01*
X42912Y-45050D01*
X42927Y-45065D01*
X42942Y-45095D01*
X42942Y-45141D01*
X42927Y-45172D01*
X42912Y-45187D01*
X42881Y-45202D01*
X42759Y-45202D01*
X43049Y-45035D02*
X43247Y-45035D01*
X43140Y-45156D01*
X43186Y-45156D01*
X43216Y-45172D01*
X43232Y-45187D01*
X43247Y-45217D01*
X43247Y-45294D01*
X43232Y-45324D01*
X43216Y-45339D01*
X43186Y-45355D01*
X43094Y-45355D01*
X43064Y-45339D01*
X43049Y-45324D01*
X43521Y-45141D02*
X43521Y-45355D01*
X43445Y-45019D02*
X43369Y-45248D01*
X43567Y-45248D01*
X43857Y-45355D02*
X43674Y-45355D01*
X43765Y-45355D02*
X43765Y-45035D01*
X43735Y-45080D01*
X43704Y-45111D01*
X43674Y-45126D01*
X42049Y-35433D02*
X42064Y-35448D01*
X42080Y-35494D01*
X42080Y-35524D01*
X42064Y-35570D01*
X42034Y-35601D01*
X42003Y-35616D01*
X41942Y-35631D01*
X41897Y-35631D01*
X41836Y-35616D01*
X41805Y-35601D01*
X41775Y-35570D01*
X41760Y-35524D01*
X41760Y-35494D01*
X41775Y-35448D01*
X41790Y-35433D01*
X41866Y-35159D02*
X42080Y-35159D01*
X41744Y-35235D02*
X41973Y-35311D01*
X41973Y-35113D01*
X41760Y-34930D02*
X41760Y-34899D01*
X41775Y-34869D01*
X41790Y-34854D01*
X41820Y-34838D01*
X41881Y-34823D01*
X41958Y-34823D01*
X42019Y-34838D01*
X42049Y-34854D01*
X42064Y-34869D01*
X42080Y-34899D01*
X42080Y-34930D01*
X42064Y-34960D01*
X42049Y-34976D01*
X42019Y-34991D01*
X41958Y-35006D01*
X41881Y-35006D01*
X41820Y-34991D01*
X41790Y-34976D01*
X41775Y-34960D01*
X41760Y-34930D01*
X42080Y-34671D02*
X42080Y-34610D01*
X42064Y-34579D01*
X42049Y-34564D01*
X42003Y-34533D01*
X41942Y-34518D01*
X41820Y-34518D01*
X41790Y-34533D01*
X41775Y-34549D01*
X41760Y-34579D01*
X41760Y-34640D01*
X41775Y-34671D01*
X41790Y-34686D01*
X41820Y-34701D01*
X41897Y-34701D01*
X41927Y-34686D01*
X41942Y-34671D01*
X41958Y-34640D01*
X41958Y-34579D01*
X41942Y-34549D01*
X41927Y-34533D01*
X41897Y-34518D01*
X73110Y-44224D02*
X73369Y-44224D01*
X73399Y-44209D01*
X73414Y-44193D01*
X73430Y-44163D01*
X73430Y-44102D01*
X73414Y-44071D01*
X73399Y-44056D01*
X73369Y-44041D01*
X73110Y-44041D01*
X73110Y-43919D02*
X73110Y-43721D01*
X73231Y-43828D01*
X73231Y-43782D01*
X73247Y-43752D01*
X73262Y-43736D01*
X73292Y-43721D01*
X73369Y-43721D01*
X73399Y-43736D01*
X73414Y-43752D01*
X73430Y-43782D01*
X73430Y-43874D01*
X73414Y-43904D01*
X73399Y-43919D01*
X73110Y-43523D02*
X73110Y-43492D01*
X73125Y-43462D01*
X73140Y-43447D01*
X73170Y-43431D01*
X73231Y-43416D01*
X73308Y-43416D01*
X73369Y-43431D01*
X73399Y-43447D01*
X73414Y-43462D01*
X73430Y-43492D01*
X73430Y-43523D01*
X73414Y-43553D01*
X73399Y-43569D01*
X73369Y-43584D01*
X73308Y-43599D01*
X73231Y-43599D01*
X73170Y-43584D01*
X73140Y-43569D01*
X73125Y-43553D01*
X73110Y-43523D01*
X73430Y-43111D02*
X73430Y-43294D01*
X73430Y-43203D02*
X73110Y-43203D01*
X73155Y-43233D01*
X73186Y-43264D01*
X73201Y-43294D01*
M02*
