M48
METRIC,TZ
T1C0.201
T2C0.300
T3C0.599
T4C0.701
T5C0.813
T6C1.016
%
G90
G05
T1
X170.401Y-102.499
X175.801Y-100.200
X177.899Y-79.080
X178.262Y-80.554
X183.449Y-80.437
X183.449Y-81.186
T2
X102.489Y-127.508
X103.000Y-101.399
X103.200Y-96.599
X104.331Y-96.584
X104.839Y-97.155
X105.301Y-97.899
X105.474Y-87.503
X105.791Y-127.000
X105.801Y-98.600
X108.204Y-127.000
X109.411Y-113.919
X110.401Y-106.401
X110.744Y-127.000
X112.649Y-86.360
X113.030Y-70.866
X113.284Y-88.075
X113.856Y-87.376
X114.935Y-90.361
X116.484Y-88.341
X117.805Y-92.837
X118.054Y-83.815
X118.262Y-93.675
X118.999Y-95.123
X119.304Y-87.325
X120.015Y-127.508
X120.129Y-81.722
X121.158Y-127.508
X121.285Y-94.869
X121.476Y-80.709
X121.801Y-97.099
X121.859Y-88.318
X122.365Y-128.778
X123.317Y-127.826
X124.778Y-76.136
X125.032Y-83.884
X126.111Y-84.963
X126.683Y-127.127
X127.064Y-89.535
X127.445Y-95.949
X127.572Y-75.248
X127.572Y-76.454
X127.953Y-96.520
X128.460Y-97.092
X129.350Y-121.984
X130.365Y-82.868
X130.683Y-85.217
X130.746Y-89.154
X131.001Y-73.851
X131.127Y-82.868
X131.445Y-84.582
X131.763Y-73.851
X132.398Y-123.254
X132.461Y-86.424
X132.461Y-88.392
X132.461Y-122.111
X132.461Y-124.397
X132.461Y-127.762
X132.525Y-73.851
X132.700Y-78.801
X132.842Y-90.869
X132.906Y-123.825
X132.969Y-122.682
X133.096Y-91.694
X133.160Y-92.456
X133.160Y-93.218
X133.223Y-88.202
X133.731Y-83.884
X133.731Y-90.996
X133.731Y-101.029
X133.731Y-103.124
X134.175Y-88.265
X134.366Y-78.422
X134.556Y-114.618
X134.556Y-119.571
X134.874Y-88.710
X135.128Y-128.143
X135.446Y-89.154
X136.525Y-80.455
X136.589Y-119.571
X137.160Y-79.312
X137.262Y-59.030
X137.287Y-80.455
X137.986Y-119.571
X138.049Y-127.762
X138.176Y-84.074
X138.240Y-74.803
X138.938Y-89.916
X139.319Y-82.106
X139.799Y-89.101
X140.018Y-114.618
X140.018Y-119.571
X140.272Y-79.883
X140.589Y-93.790
X140.589Y-95.263
X140.780Y-80.836
X141.034Y-90.615
X141.097Y-102.425
X141.100Y-82.100
X141.326Y-59.030
X141.478Y-127.762
X141.732Y-103.124
X143.129Y-127.127
X143.891Y-120.714
X144.335Y-118.364
X144.526Y-125.286
X144.590Y-127.635
X144.653Y-68.224
X144.653Y-70.739
X144.899Y-88.501
X144.907Y-86.043
X144.937Y-90.526
X145.097Y-91.504
X145.161Y-97.917
X145.733Y-119.317
X145.796Y-81.915
X146.053Y-88.102
X146.152Y-92.723
X146.268Y-115.832
X146.431Y-119.507
X146.685Y-127.635
X146.964Y-62.230
X147.193Y-82.487
X147.193Y-119.507
X147.297Y-75.700
X147.399Y-79.400
X147.498Y-68.224
X148.097Y-98.057
X148.273Y-102.172
X148.273Y-123.952
X148.400Y-80.137
X148.463Y-127.635
X149.057Y-68.169
X149.288Y-114.618
X149.288Y-119.571
X150.241Y-127.635
X151.836Y-65.283
X152.019Y-127.635
X152.210Y-83.376
X152.245Y-98.252
X152.395Y-63.863
X152.781Y-70.041
X152.857Y-60.757
X153.223Y-77.734
X153.924Y-127.635
X154.750Y-114.618
X154.750Y-119.571
X155.639Y-81.915
X155.702Y-127.635
X155.745Y-75.517
X155.890Y-79.139
X156.337Y-68.008
X156.464Y-101.981
X156.738Y-77.495
X157.140Y-65.555
X157.607Y-127.635
X157.861Y-101.283
X157.925Y-81.915
X158.179Y-68.758
X160.249Y-75.517
X160.726Y-99.337
X161.417Y-127.635
X163.251Y-79.068
X163.258Y-102.172
X163.322Y-70.612
X163.322Y-127.635
X163.386Y-101.283
X163.767Y-111.443
X163.767Y-116.396
X164.638Y-97.666
X164.752Y-79.060
X164.973Y-127.635
X165.544Y-62.715
X166.931Y-99.319
X167.259Y-124.524
X167.513Y-127.635
X168.001Y-75.799
X168.016Y-78.623
X168.069Y-82.517
X168.087Y-87.015
X168.212Y-121.095
X168.968Y-93.805
X169.228Y-111.443
X169.228Y-116.396
X169.736Y-102.108
X170.053Y-127.635
X170.371Y-120.333
X170.797Y-93.050
X170.899Y-84.000
X171.514Y-120.333
X171.577Y-84.645
X171.600Y-92.799
X171.699Y-79.901
X171.900Y-95.001
X172.001Y-103.401
X172.149Y-76.517
X172.276Y-120.142
X173.038Y-119.761
X175.641Y-73.724
X175.959Y-114.618
X176.101Y-90.099
X176.213Y-84.011
X176.213Y-93.028
X177.800Y-120.460
X178.199Y-97.701
X178.752Y-77.026
X178.752Y-78.547
X179.959Y-126.238
X181.874Y-86.718
X182.222Y-98.163
X182.499Y-126.238
X182.880Y-74.740
X183.634Y-86.703
X184.351Y-73.817
X186.233Y-86.716
X188.151Y-75.951
X188.199Y-74.399
X191.546Y-85.344
T3
X97.536Y-123.952
X97.536Y-126.238
X97.790Y-113.538
X100.330Y-68.580
X101.854Y-88.900
X101.918Y-94.297
X102.108Y-76.962
X103.442Y-126.238
X104.140Y-64.770
X104.140Y-71.120
X105.664Y-81.534
X106.172Y-118.872
X106.172Y-124.206
X107.823Y-91.948
X107.950Y-60.960
X107.950Y-68.580
X108.712Y-76.962
X109.220Y-81.534
X109.538Y-116.904
X111.760Y-64.770
X111.760Y-71.120
X111.824Y-114.618
X113.792Y-109.728
X113.792Y-112.522
X113.792Y-121.158
X114.300Y-71.120
X115.570Y-60.960
X116.840Y-68.580
X117.348Y-127.064
X117.348Y-128.334
X117.856Y-101.346
X117.856Y-104.902
X117.856Y-109.728
X117.983Y-111.379
X118.301Y-126.101
X118.364Y-113.030
X118.364Y-121.158
X119.253Y-111.379
X119.380Y-82.550
X119.380Y-88.900
X120.269Y-93.409
X120.523Y-111.379
X120.650Y-64.770
X120.650Y-71.120
X120.904Y-109.728
X121.158Y-99.568
X121.158Y-104.902
X123.825Y-109.728
X123.889Y-93.409
X124.206Y-82.550
X124.206Y-88.138
X124.460Y-60.960
X124.460Y-64.770
X124.460Y-71.120
X127.000Y-79.566
X127.000Y-104.140
X127.000Y-108.903
X127.762Y-102.108
X128.778Y-90.869
X128.778Y-94.996
X128.778Y-98.298
X130.302Y-113.284
X130.683Y-64.770
X130.683Y-71.120
X132.700Y-81.600
X132.842Y-94.996
X132.842Y-98.298
X133.223Y-117.094
X133.299Y-107.800
X133.350Y-102.108
X133.350Y-104.140
X134.620Y-71.120
X134.620Y-94.234
X137.160Y-64.770
X137.160Y-91.948
X137.668Y-60.960
X140.970Y-57.658
X140.970Y-60.960
X140.970Y-69.850
X141.732Y-104.140
X141.732Y-108.458
X141.796Y-117.094
X143.510Y-68.580
X144.526Y-106.172
X144.780Y-60.960
X145.542Y-99.314
X146.558Y-78.740
X146.812Y-117.094
X147.320Y-91.440
X147.320Y-101.092
X148.590Y-57.658
X152.400Y-57.658
X152.400Y-91.440
X152.400Y-93.980
X155.258Y-80.074
X157.480Y-91.440
X157.480Y-93.980
X160.020Y-57.658
X160.274Y-66.040
X161.290Y-95.250
X161.290Y-100.076
X162.560Y-81.280
X162.560Y-86.360
X162.568Y-96.286
X163.068Y-69.342
X163.830Y-95.250
X163.830Y-100.076
X165.862Y-61.316
X166.370Y-80.137
X166.370Y-86.360
X166.370Y-90.170
X166.370Y-93.980
X167.069Y-102.299
X168.593Y-101.092
X168.910Y-90.170
X168.910Y-97.536
X169.164Y-80.264
X169.672Y-61.316
X169.672Y-66.294
X170.942Y-78.296
X172.314Y-61.316
X172.784Y-123.952
X172.784Y-125.222
X172.784Y-126.492
X172.911Y-103.505
X173.736Y-114.554
X174.201Y-107.099
X174.371Y-115.570
X174.371Y-116.650
X177.201Y-105.601
X177.201Y-106.901
X177.701Y-102.400
X177.927Y-66.929
X180.594Y-105.156
X181.000Y-102.301
X181.356Y-69.596
X182.880Y-96.520
X183.198Y-123.952
X183.579Y-106.617
X184.531Y-114.427
X184.800Y-102.301
X185.400Y-119.400
X186.436Y-71.120
X186.627Y-105.156
X186.690Y-92.710
X188.699Y-102.301
X190.500Y-88.900
X190.500Y-115.600
X190.500Y-119.380
X190.500Y-124.460
X190.564Y-105.093
X190.627Y-102.680
X190.627Y-103.886
X190.754Y-77.470
X191.516Y-112.649
X193.700Y-105.100
X193.700Y-108.999
X193.700Y-112.900
X194.310Y-88.900
X194.310Y-92.710
X194.310Y-96.520
X194.310Y-100.330
X194.310Y-115.570
X194.310Y-119.380
T4
X126.543Y-61.813
X127.343Y-60.615
X128.143Y-61.813
X128.943Y-60.615
X129.743Y-61.813
T5
X120.777Y-113.221
X120.777Y-120.841
X123.317Y-113.221
X123.317Y-120.841
X125.857Y-113.221
X125.857Y-120.841
X128.397Y-113.221
X128.397Y-120.841
T6
X97.790Y-95.250
X97.790Y-97.790
X97.790Y-100.330
X97.790Y-102.870
X97.831Y-76.180
X97.831Y-78.720
X97.831Y-81.260
X97.831Y-83.800
X97.831Y-86.340
X97.831Y-88.880
X97.831Y-91.420
X100.371Y-76.180
X100.371Y-78.720
X100.371Y-81.260
X100.371Y-83.800
X100.371Y-86.340
X100.371Y-88.880
X100.371Y-91.420
X110.490Y-76.708
X111.760Y-103.632
X113.030Y-76.708
X175.451Y-61.595
X177.990Y-61.595
X181.102Y-61.595
X183.642Y-61.595
X186.754Y-61.595
X189.294Y-61.595
T4
X124.493Y-56.114G85X124.493Y-57.313
G05
X131.793Y-56.114G85X131.793Y-57.313
G05
T0
M30
