G04 This is an RS-274x file exported by *
G04 gerbv version 2.4.0 *
G04 More information is available about gerbv at *
G04 http://gerbv.gpleda.org/ *
G04 --End of header info--*
%MOIN*%
%FSLAX23Y23*%
%IPPOS*%
G04 --Define apertures--*
%ADD10C,0.0080*%
%ADD11C,0.0075*%
%ADD12C,0.0120*%
%ADD13C,0.0070*%
%ADD14R,0.0680X0.0680*%
%ADD15C,0.0680*%
%ADD16C,0.0474*%
%ADD17O,0.0474X0.0946*%
%ADD18R,0.0430X0.0630*%
%ADD19R,0.0630X0.0430*%
%ADD20C,0.0592*%
%ADD21R,0.0513X0.0867*%
%ADD22R,0.0867X0.0867*%
%ADD23R,0.0867X0.0474*%
%ADD24R,0.0440X0.0440*%
%ADD25R,0.0630X0.0630*%
%ADD26C,0.0630*%
%ADD27R,0.4929X0.3158*%
%ADD28R,2.3630X0.3158*%
%ADD29C,0.0740*%
G04 --Start main section--*
G54D11*
G01X04220Y-4107D02*
G01X04221Y-4109D01*
G01X04221Y-4109D02*
G01X04226Y-4110D01*
G01X04226Y-4110D02*
G01X04229Y-4110D01*
G01X04229Y-4110D02*
G01X04233Y-4109D01*
G01X04233Y-4109D02*
G01X04236Y-4106D01*
G01X04236Y-4106D02*
G01X04238Y-4103D01*
G01X04238Y-4103D02*
G01X04239Y-4097D01*
G01X04239Y-4097D02*
G01X04239Y-4092D01*
G01X04239Y-4092D02*
G01X04238Y-4086D01*
G01X04238Y-4086D02*
G01X04236Y-4083D01*
G01X04236Y-4083D02*
G01X04233Y-4080D01*
G01X04233Y-4080D02*
G01X04229Y-4078D01*
G01X04229Y-4078D02*
G01X04226Y-4078D01*
G01X04226Y-4078D02*
G01X04221Y-4080D01*
G01X04221Y-4080D02*
G01X04220Y-4081D01*
G01X04188Y-4110D02*
G01X04198Y-4095D01*
G01X04206Y-4110D02*
G01X04206Y-4078D01*
G01X04206Y-4078D02*
G01X04194Y-4078D01*
G01X04194Y-4078D02*
G01X04191Y-4080D01*
G01X04191Y-4080D02*
G01X04189Y-4081D01*
G01X04189Y-4081D02*
G01X04188Y-4085D01*
G01X04188Y-4085D02*
G01X04188Y-4089D01*
G01X04188Y-4089D02*
G01X04189Y-4092D01*
G01X04189Y-4092D02*
G01X04191Y-4094D01*
G01X04191Y-4094D02*
G01X04194Y-4095D01*
G01X04194Y-4095D02*
G01X04206Y-4095D01*
G01X04175Y-4081D02*
G01X04174Y-4080D01*
G01X04174Y-4080D02*
G01X04171Y-4078D01*
G01X04171Y-4078D02*
G01X04163Y-4078D01*
G01X04163Y-4078D02*
G01X04160Y-4080D01*
G01X04160Y-4080D02*
G01X04159Y-4081D01*
G01X04159Y-4081D02*
G01X04157Y-4085D01*
G01X04157Y-4085D02*
G01X04157Y-4088D01*
G01X04157Y-4088D02*
G01X04159Y-4092D01*
G01X04159Y-4092D02*
G01X04177Y-4110D01*
G01X04177Y-4110D02*
G01X04157Y-4110D01*
G01X04137Y-4078D02*
G01X04134Y-4078D01*
G01X04134Y-4078D02*
G01X04131Y-4080D01*
G01X04131Y-4080D02*
G01X04130Y-4081D01*
G01X04130Y-4081D02*
G01X04128Y-4085D01*
G01X04128Y-4085D02*
G01X04127Y-4091D01*
G01X04127Y-4091D02*
G01X04127Y-4098D01*
G01X04127Y-4098D02*
G01X04128Y-4104D01*
G01X04128Y-4104D02*
G01X04130Y-4107D01*
G01X04130Y-4107D02*
G01X04131Y-4109D01*
G01X04131Y-4109D02*
G01X04134Y-4110D01*
G01X04134Y-4110D02*
G01X04137Y-4110D01*
G01X04137Y-4110D02*
G01X04140Y-4109D01*
G01X04140Y-4109D02*
G01X04142Y-4107D01*
G01X04142Y-4107D02*
G01X04143Y-4104D01*
G01X04143Y-4104D02*
G01X04145Y-4098D01*
G01X04145Y-4098D02*
G01X04145Y-4091D01*
G01X04145Y-4091D02*
G01X04143Y-4085D01*
G01X04143Y-4085D02*
G01X04142Y-4081D01*
G01X04142Y-4081D02*
G01X04140Y-4080D01*
G01X04140Y-4080D02*
G01X04137Y-4078D01*
G01X04116Y-4078D02*
G01X04096Y-4078D01*
G01X04096Y-4078D02*
G01X04107Y-4091D01*
G01X04107Y-4091D02*
G01X04102Y-4091D01*
G01X04102Y-4091D02*
G01X04099Y-4092D01*
G01X04099Y-4092D02*
G01X04098Y-4094D01*
G01X04098Y-4094D02*
G01X04096Y-4097D01*
G01X04096Y-4097D02*
G01X04096Y-4104D01*
G01X04096Y-4104D02*
G01X04098Y-4107D01*
G01X04098Y-4107D02*
G01X04099Y-4109D01*
G01X04099Y-4109D02*
G01X04102Y-4110D01*
G01X04102Y-4110D02*
G01X04111Y-4110D01*
G01X04111Y-4110D02*
G01X04114Y-4109D01*
G01X04114Y-4109D02*
G01X04116Y-4107D01*
G01X04084Y-4081D02*
G01X04082Y-4080D01*
G01X04082Y-4080D02*
G01X04079Y-4078D01*
G01X04079Y-4078D02*
G01X04072Y-4078D01*
G01X04072Y-4078D02*
G01X04069Y-4080D01*
G01X04069Y-4080D02*
G01X04067Y-4081D01*
G01X04067Y-4081D02*
G01X04066Y-4085D01*
G01X04066Y-4085D02*
G01X04066Y-4088D01*
G01X04066Y-4088D02*
G01X04067Y-4092D01*
G01X04067Y-4092D02*
G01X04085Y-4110D01*
G01X04085Y-4110D02*
G01X04066Y-4110D01*
G01X05445Y-3406D02*
G01X05440Y-3408D01*
G01X05440Y-3408D02*
G01X05433Y-3408D01*
G01X05433Y-3408D02*
G01X05430Y-3406D01*
G01X05430Y-3406D02*
G01X05428Y-3405D01*
G01X05428Y-3405D02*
G01X05426Y-3402D01*
G01X05426Y-3402D02*
G01X05426Y-3399D01*
G01X05426Y-3399D02*
G01X05428Y-3396D01*
G01X05428Y-3396D02*
G01X05430Y-3394D01*
G01X05430Y-3394D02*
G01X05433Y-3393D01*
G01X05433Y-3393D02*
G01X05439Y-3391D01*
G01X05439Y-3391D02*
G01X05442Y-3390D01*
G01X05442Y-3390D02*
G01X05443Y-3388D01*
G01X05443Y-3388D02*
G01X05445Y-3385D01*
G01X05445Y-3385D02*
G01X05445Y-3382D01*
G01X05445Y-3382D02*
G01X05443Y-3379D01*
G01X05443Y-3379D02*
G01X05442Y-3377D01*
G01X05442Y-3377D02*
G01X05439Y-3376D01*
G01X05439Y-3376D02*
G01X05431Y-3376D01*
G01X05431Y-3376D02*
G01X05426Y-3377D01*
G01X05413Y-3408D02*
G01X05413Y-3376D01*
G01X05413Y-3376D02*
G01X05405Y-3376D01*
G01X05405Y-3376D02*
G01X05401Y-3377D01*
G01X05401Y-3377D02*
G01X05397Y-3380D01*
G01X05397Y-3380D02*
G01X05396Y-3384D01*
G01X05396Y-3384D02*
G01X05394Y-3390D01*
G01X05394Y-3390D02*
G01X05394Y-3394D01*
G01X05394Y-3394D02*
G01X05396Y-3400D01*
G01X05396Y-3400D02*
G01X05397Y-3403D01*
G01X05397Y-3403D02*
G01X05401Y-3406D01*
G01X05401Y-3406D02*
G01X05405Y-3408D01*
G01X05405Y-3408D02*
G01X05413Y-3408D01*
G01X05338Y-3405D02*
G01X05340Y-3406D01*
G01X05340Y-3406D02*
G01X05344Y-3408D01*
G01X05344Y-3408D02*
G01X05347Y-3408D01*
G01X05347Y-3408D02*
G01X05352Y-3406D01*
G01X05352Y-3406D02*
G01X05355Y-3403D01*
G01X05355Y-3403D02*
G01X05356Y-3400D01*
G01X05356Y-3400D02*
G01X05358Y-3394D01*
G01X05358Y-3394D02*
G01X05358Y-3390D01*
G01X05358Y-3390D02*
G01X05356Y-3384D01*
G01X05356Y-3384D02*
G01X05355Y-3380D01*
G01X05355Y-3380D02*
G01X05352Y-3377D01*
G01X05352Y-3377D02*
G01X05347Y-3376D01*
G01X05347Y-3376D02*
G01X05344Y-3376D01*
G01X05344Y-3376D02*
G01X05340Y-3377D01*
G01X05340Y-3377D02*
G01X05338Y-3379D01*
G01X05311Y-3408D02*
G01X05311Y-3391D01*
G01X05311Y-3391D02*
G01X05312Y-3388D01*
G01X05312Y-3388D02*
G01X05315Y-3387D01*
G01X05315Y-3387D02*
G01X05321Y-3387D01*
G01X05321Y-3387D02*
G01X05324Y-3388D01*
G01X05311Y-3406D02*
G01X05314Y-3408D01*
G01X05314Y-3408D02*
G01X05321Y-3408D01*
G01X05321Y-3408D02*
G01X05324Y-3406D01*
G01X05324Y-3406D02*
G01X05326Y-3403D01*
G01X05326Y-3403D02*
G01X05326Y-3400D01*
G01X05326Y-3400D02*
G01X05324Y-3397D01*
G01X05324Y-3397D02*
G01X05321Y-3396D01*
G01X05321Y-3396D02*
G01X05314Y-3396D01*
G01X05314Y-3396D02*
G01X05311Y-3394D01*
G01X05295Y-3408D02*
G01X05295Y-3387D01*
G01X05295Y-3393D02*
G01X05294Y-3390D01*
G01X05294Y-3390D02*
G01X05292Y-3388D01*
G01X05292Y-3388D02*
G01X05289Y-3387D01*
G01X05289Y-3387D02*
G01X05286Y-3387D01*
G01X05262Y-3408D02*
G01X05262Y-3376D01*
G01X05262Y-3406D02*
G01X05265Y-3408D01*
G01X05265Y-3408D02*
G01X05271Y-3408D01*
G01X05271Y-3408D02*
G01X05274Y-3406D01*
G01X05274Y-3406D02*
G01X05276Y-3405D01*
G01X05276Y-3405D02*
G01X05277Y-3402D01*
G01X05277Y-3402D02*
G01X05277Y-3393D01*
G01X05277Y-3393D02*
G01X05276Y-3390D01*
G01X05276Y-3390D02*
G01X05274Y-3388D01*
G01X05274Y-3388D02*
G01X05271Y-3387D01*
G01X05271Y-3387D02*
G01X05265Y-3387D01*
G01X05265Y-3387D02*
G01X05262Y-3388D01*
G01X04713Y-2396D02*
G01X04713Y-2422D01*
G01X04713Y-2422D02*
G01X04711Y-2425D01*
G01X04711Y-2425D02*
G01X04710Y-2426D01*
G01X04710Y-2426D02*
G01X04707Y-2428D01*
G01X04707Y-2428D02*
G01X04701Y-2428D01*
G01X04701Y-2428D02*
G01X04698Y-2426D01*
G01X04698Y-2426D02*
G01X04696Y-2425D01*
G01X04696Y-2425D02*
G01X04695Y-2422D01*
G01X04695Y-2422D02*
G01X04695Y-2396D01*
G01X04681Y-2426D02*
G01X04676Y-2428D01*
G01X04676Y-2428D02*
G01X04669Y-2428D01*
G01X04669Y-2428D02*
G01X04666Y-2426D01*
G01X04666Y-2426D02*
G01X04664Y-2425D01*
G01X04664Y-2425D02*
G01X04663Y-2422D01*
G01X04663Y-2422D02*
G01X04663Y-2419D01*
G01X04663Y-2419D02*
G01X04664Y-2416D01*
G01X04664Y-2416D02*
G01X04666Y-2414D01*
G01X04666Y-2414D02*
G01X04669Y-2413D01*
G01X04669Y-2413D02*
G01X04675Y-2411D01*
G01X04675Y-2411D02*
G01X04678Y-2410D01*
G01X04678Y-2410D02*
G01X04679Y-2408D01*
G01X04679Y-2408D02*
G01X04681Y-2405D01*
G01X04681Y-2405D02*
G01X04681Y-2402D01*
G01X04681Y-2402D02*
G01X04679Y-2399D01*
G01X04679Y-2399D02*
G01X04678Y-2397D01*
G01X04678Y-2397D02*
G01X04675Y-2396D01*
G01X04675Y-2396D02*
G01X04667Y-2396D01*
G01X04667Y-2396D02*
G01X04663Y-2397D01*
G01X04638Y-2411D02*
G01X04634Y-2413D01*
G01X04634Y-2413D02*
G01X04632Y-2414D01*
G01X04632Y-2414D02*
G01X04631Y-2417D01*
G01X04631Y-2417D02*
G01X04631Y-2422D01*
G01X04631Y-2422D02*
G01X04632Y-2425D01*
G01X04632Y-2425D02*
G01X04634Y-2426D01*
G01X04634Y-2426D02*
G01X04637Y-2428D01*
G01X04637Y-2428D02*
G01X04649Y-2428D01*
G01X04649Y-2428D02*
G01X04649Y-2396D01*
G01X04649Y-2396D02*
G01X04638Y-2396D01*
G01X04638Y-2396D02*
G01X04635Y-2397D01*
G01X04635Y-2397D02*
G01X04634Y-2399D01*
G01X04634Y-2399D02*
G01X04632Y-2402D01*
G01X04632Y-2402D02*
G01X04632Y-2405D01*
G01X04632Y-2405D02*
G01X04634Y-2408D01*
G01X04634Y-2408D02*
G01X04635Y-2410D01*
G01X04635Y-2410D02*
G01X04638Y-2411D01*
G01X04638Y-2411D02*
G01X04649Y-2411D01*
G01X07042Y-2555D02*
G01X07030Y-2605D01*
G01X07030Y-2605D02*
G01X07021Y-2569D01*
G01X07021Y-2569D02*
G01X07011Y-2605D01*
G01X07011Y-2605D02*
G01X06999Y-2555D01*
G01X06980Y-2605D02*
G01X06980Y-2572D01*
G01X06980Y-2581D02*
G01X06978Y-2577D01*
G01X06978Y-2577D02*
G01X06975Y-2574D01*
G01X06975Y-2574D02*
G01X06971Y-2572D01*
G01X06971Y-2572D02*
G01X06966Y-2572D01*
G01X06949Y-2605D02*
G01X06949Y-2572D01*
G01X06949Y-2555D02*
G01X06952Y-2558D01*
G01X06952Y-2558D02*
G01X06949Y-2560D01*
G01X06949Y-2560D02*
G01X06947Y-2558D01*
G01X06947Y-2558D02*
G01X06949Y-2555D01*
G01X06949Y-2555D02*
G01X06949Y-2560D01*
G01X06933Y-2572D02*
G01X06914Y-2572D01*
G01X06925Y-2555D02*
G01X06925Y-2598D01*
G01X06925Y-2598D02*
G01X06923Y-2603D01*
G01X06923Y-2603D02*
G01X06918Y-2605D01*
G01X06918Y-2605D02*
G01X06914Y-2605D01*
G01X06878Y-2603D02*
G01X06883Y-2605D01*
G01X06883Y-2605D02*
G01X06892Y-2605D01*
G01X06892Y-2605D02*
G01X06897Y-2603D01*
G01X06897Y-2603D02*
G01X06899Y-2598D01*
G01X06899Y-2598D02*
G01X06899Y-2579D01*
G01X06899Y-2579D02*
G01X06897Y-2574D01*
G01X06897Y-2574D02*
G01X06892Y-2572D01*
G01X06892Y-2572D02*
G01X06883Y-2572D01*
G01X06883Y-2572D02*
G01X06878Y-2574D01*
G01X06878Y-2574D02*
G01X06875Y-2579D01*
G01X06875Y-2579D02*
G01X06875Y-2584D01*
G01X06875Y-2584D02*
G01X06899Y-2589D01*
G01X03788Y-3758D02*
G01X03773Y-3747D01*
G01X03788Y-3740D02*
G01X03756Y-3740D01*
G01X03756Y-3740D02*
G01X03756Y-3752D01*
G01X03756Y-3752D02*
G01X03758Y-3755D01*
G01X03758Y-3755D02*
G01X03759Y-3756D01*
G01X03759Y-3756D02*
G01X03762Y-3758D01*
G01X03762Y-3758D02*
G01X03767Y-3758D01*
G01X03767Y-3758D02*
G01X03770Y-3756D01*
G01X03770Y-3756D02*
G01X03771Y-3755D01*
G01X03771Y-3755D02*
G01X03773Y-3752D01*
G01X03773Y-3752D02*
G01X03773Y-3740D01*
G01X03786Y-3784D02*
G01X03788Y-3781D01*
G01X03788Y-3781D02*
G01X03788Y-3775D01*
G01X03788Y-3775D02*
G01X03786Y-3772D01*
G01X03786Y-3772D02*
G01X03783Y-3770D01*
G01X03783Y-3770D02*
G01X03771Y-3770D01*
G01X03771Y-3770D02*
G01X03768Y-3772D01*
G01X03768Y-3772D02*
G01X03767Y-3775D01*
G01X03767Y-3775D02*
G01X03767Y-3781D01*
G01X03767Y-3781D02*
G01X03768Y-3784D01*
G01X03768Y-3784D02*
G01X03771Y-3785D01*
G01X03771Y-3785D02*
G01X03774Y-3785D01*
G01X03774Y-3785D02*
G01X03777Y-3770D01*
G01X03786Y-3797D02*
G01X03788Y-3800D01*
G01X03788Y-3800D02*
G01X03788Y-3807D01*
G01X03788Y-3807D02*
G01X03786Y-3810D01*
G01X03786Y-3810D02*
G01X03783Y-3811D01*
G01X03783Y-3811D02*
G01X03782Y-3811D01*
G01X03782Y-3811D02*
G01X03779Y-3810D01*
G01X03779Y-3810D02*
G01X03777Y-3807D01*
G01X03777Y-3807D02*
G01X03777Y-3802D01*
G01X03777Y-3802D02*
G01X03776Y-3799D01*
G01X03776Y-3799D02*
G01X03773Y-3797D01*
G01X03773Y-3797D02*
G01X03771Y-3797D01*
G01X03771Y-3797D02*
G01X03768Y-3799D01*
G01X03768Y-3799D02*
G01X03767Y-3802D01*
G01X03767Y-3802D02*
G01X03767Y-3807D01*
G01X03767Y-3807D02*
G01X03768Y-3810D01*
G01X03786Y-3837D02*
G01X03788Y-3834D01*
G01X03788Y-3834D02*
G01X03788Y-3828D01*
G01X03788Y-3828D02*
G01X03786Y-3825D01*
G01X03786Y-3825D02*
G01X03783Y-3823D01*
G01X03783Y-3823D02*
G01X03771Y-3823D01*
G01X03771Y-3823D02*
G01X03768Y-3825D01*
G01X03768Y-3825D02*
G01X03767Y-3828D01*
G01X03767Y-3828D02*
G01X03767Y-3834D01*
G01X03767Y-3834D02*
G01X03768Y-3837D01*
G01X03768Y-3837D02*
G01X03771Y-3839D01*
G01X03771Y-3839D02*
G01X03774Y-3839D01*
G01X03774Y-3839D02*
G01X03777Y-3823D01*
G01X03767Y-3848D02*
G01X03767Y-3860D01*
G01X03756Y-3852D02*
G01X03783Y-3852D01*
G01X03783Y-3852D02*
G01X03786Y-3854D01*
G01X03786Y-3854D02*
G01X03788Y-3857D01*
G01X03788Y-3857D02*
G01X03788Y-3860D01*
G01X03771Y-3941D02*
G01X03771Y-3930D01*
G01X03788Y-3930D02*
G01X03756Y-3930D01*
G01X03756Y-3930D02*
G01X03756Y-3945D01*
G01X03788Y-3957D02*
G01X03767Y-3957D01*
G01X03773Y-3957D02*
G01X03770Y-3959D01*
G01X03770Y-3959D02*
G01X03768Y-3960D01*
G01X03768Y-3960D02*
G01X03767Y-3963D01*
G01X03767Y-3963D02*
G01X03767Y-3967D01*
G01X03786Y-3989D02*
G01X03788Y-3986D01*
G01X03788Y-3986D02*
G01X03788Y-3980D01*
G01X03788Y-3980D02*
G01X03786Y-3977D01*
G01X03786Y-3977D02*
G01X03783Y-3976D01*
G01X03783Y-3976D02*
G01X03771Y-3976D01*
G01X03771Y-3976D02*
G01X03768Y-3977D01*
G01X03768Y-3977D02*
G01X03767Y-3980D01*
G01X03767Y-3980D02*
G01X03767Y-3986D01*
G01X03767Y-3986D02*
G01X03768Y-3989D01*
G01X03768Y-3989D02*
G01X03771Y-3991D01*
G01X03771Y-3991D02*
G01X03774Y-3991D01*
G01X03774Y-3991D02*
G01X03777Y-3976D01*
G01X03786Y-4017D02*
G01X03788Y-4014D01*
G01X03788Y-4014D02*
G01X03788Y-4008D01*
G01X03788Y-4008D02*
G01X03786Y-4005D01*
G01X03786Y-4005D02*
G01X03783Y-4003D01*
G01X03783Y-4003D02*
G01X03771Y-4003D01*
G01X03771Y-4003D02*
G01X03768Y-4005D01*
G01X03768Y-4005D02*
G01X03767Y-4008D01*
G01X03767Y-4008D02*
G01X03767Y-4014D01*
G01X03767Y-4014D02*
G01X03768Y-4017D01*
G01X03768Y-4017D02*
G01X03771Y-4018D01*
G01X03771Y-4018D02*
G01X03774Y-4018D01*
G01X03774Y-4018D02*
G01X03777Y-4003D01*
G01X03767Y-4029D02*
G01X03767Y-4046D01*
G01X03767Y-4046D02*
G01X03788Y-4029D01*
G01X03788Y-4029D02*
G01X03788Y-4046D01*
G01X03786Y-4070D02*
G01X03788Y-4067D01*
G01X03788Y-4067D02*
G01X03788Y-4061D01*
G01X03788Y-4061D02*
G01X03786Y-4058D01*
G01X03786Y-4058D02*
G01X03783Y-4056D01*
G01X03783Y-4056D02*
G01X03771Y-4056D01*
G01X03771Y-4056D02*
G01X03768Y-4058D01*
G01X03768Y-4058D02*
G01X03767Y-4061D01*
G01X03767Y-4061D02*
G01X03767Y-4067D01*
G01X03767Y-4067D02*
G01X03768Y-4070D01*
G01X03768Y-4070D02*
G01X03771Y-4072D01*
G01X03771Y-4072D02*
G01X03774Y-4072D01*
G01X03774Y-4072D02*
G01X03777Y-4056D01*
G54D12*
G01X04878Y-2504D02*
G01X04871Y-2506D01*
G01X04871Y-2506D02*
G01X04859Y-2506D01*
G01X04859Y-2506D02*
G01X04854Y-2504D01*
G01X04854Y-2504D02*
G01X04852Y-2501D01*
G01X04852Y-2501D02*
G01X04850Y-2497D01*
G01X04850Y-2497D02*
G01X04850Y-2492D01*
G01X04850Y-2492D02*
G01X04852Y-2487D01*
G01X04852Y-2487D02*
G01X04854Y-2485D01*
G01X04854Y-2485D02*
G01X04859Y-2482D01*
G01X04859Y-2482D02*
G01X04869Y-2480D01*
G01X04869Y-2480D02*
G01X04873Y-2478D01*
G01X04873Y-2478D02*
G01X04876Y-2475D01*
G01X04876Y-2475D02*
G01X04878Y-2470D01*
G01X04878Y-2470D02*
G01X04878Y-2466D01*
G01X04878Y-2466D02*
G01X04876Y-2461D01*
G01X04876Y-2461D02*
G01X04873Y-2459D01*
G01X04873Y-2459D02*
G01X04869Y-2456D01*
G01X04869Y-2456D02*
G01X04857Y-2456D01*
G01X04857Y-2456D02*
G01X04850Y-2459D01*
G01X04828Y-2506D02*
G01X04828Y-2456D01*
G01X04828Y-2456D02*
G01X04816Y-2456D01*
G01X04816Y-2456D02*
G01X04809Y-2459D01*
G01X04809Y-2459D02*
G01X04804Y-2463D01*
G01X04804Y-2463D02*
G01X04802Y-2468D01*
G01X04802Y-2468D02*
G01X04800Y-2478D01*
G01X04800Y-2478D02*
G01X04800Y-2485D01*
G01X04800Y-2485D02*
G01X04802Y-2494D01*
G01X04802Y-2494D02*
G01X04804Y-2499D01*
G01X04804Y-2499D02*
G01X04809Y-2504D01*
G01X04809Y-2504D02*
G01X04816Y-2506D01*
G01X04816Y-2506D02*
G01X04828Y-2506D01*
G01X04781Y-2461D02*
G01X04778Y-2459D01*
G01X04778Y-2459D02*
G01X04773Y-2456D01*
G01X04773Y-2456D02*
G01X04761Y-2456D01*
G01X04761Y-2456D02*
G01X04757Y-2459D01*
G01X04757Y-2459D02*
G01X04754Y-2461D01*
G01X04754Y-2461D02*
G01X04752Y-2466D01*
G01X04752Y-2466D02*
G01X04752Y-2470D01*
G01X04752Y-2470D02*
G01X04754Y-2478D01*
G01X04754Y-2478D02*
G01X04783Y-2506D01*
G01X04783Y-2506D02*
G01X04752Y-2506D01*
G01X04733Y-2504D02*
G01X04726Y-2506D01*
G01X04726Y-2506D02*
G01X04714Y-2506D01*
G01X04714Y-2506D02*
G01X04709Y-2504D01*
G01X04709Y-2504D02*
G01X04707Y-2501D01*
G01X04707Y-2501D02*
G01X04704Y-2497D01*
G01X04704Y-2497D02*
G01X04704Y-2492D01*
G01X04704Y-2492D02*
G01X04707Y-2487D01*
G01X04707Y-2487D02*
G01X04709Y-2485D01*
G01X04709Y-2485D02*
G01X04714Y-2482D01*
G01X04714Y-2482D02*
G01X04723Y-2480D01*
G01X04723Y-2480D02*
G01X04728Y-2478D01*
G01X04728Y-2478D02*
G01X04731Y-2475D01*
G01X04731Y-2475D02*
G01X04733Y-2470D01*
G01X04733Y-2470D02*
G01X04733Y-2466D01*
G01X04733Y-2466D02*
G01X04731Y-2461D01*
G01X04731Y-2461D02*
G01X04728Y-2459D01*
G01X04728Y-2459D02*
G01X04723Y-2456D01*
G01X04723Y-2456D02*
G01X04711Y-2456D01*
G01X04711Y-2456D02*
G01X04704Y-2459D01*
G01X04683Y-2506D02*
G01X04683Y-2456D01*
G01X04683Y-2456D02*
G01X04654Y-2506D01*
G01X04654Y-2506D02*
G01X04654Y-2456D01*
G01X04631Y-2480D02*
G01X04614Y-2480D01*
G01X04607Y-2506D02*
G01X04631Y-2506D01*
G01X04631Y-2506D02*
G01X04631Y-2456D01*
G01X04631Y-2456D02*
G01X04607Y-2456D01*
G01X04588Y-2504D02*
G01X04581Y-2506D01*
G01X04581Y-2506D02*
G01X04569Y-2506D01*
G01X04569Y-2506D02*
G01X04564Y-2504D01*
G01X04564Y-2504D02*
G01X04562Y-2501D01*
G01X04562Y-2501D02*
G01X04559Y-2497D01*
G01X04559Y-2497D02*
G01X04559Y-2492D01*
G01X04559Y-2492D02*
G01X04562Y-2487D01*
G01X04562Y-2487D02*
G01X04564Y-2485D01*
G01X04564Y-2485D02*
G01X04569Y-2482D01*
G01X04569Y-2482D02*
G01X04578Y-2480D01*
G01X04578Y-2480D02*
G01X04583Y-2478D01*
G01X04583Y-2478D02*
G01X04585Y-2475D01*
G01X04585Y-2475D02*
G01X04588Y-2470D01*
G01X04588Y-2470D02*
G01X04588Y-2466D01*
G01X04588Y-2466D02*
G01X04585Y-2461D01*
G01X04585Y-2461D02*
G01X04583Y-2459D01*
G01X04583Y-2459D02*
G01X04578Y-2456D01*
G01X04578Y-2456D02*
G01X04566Y-2456D01*
G01X04566Y-2456D02*
G01X04559Y-2459D01*
G01X04500Y-2506D02*
G01X04500Y-2456D01*
G01X04500Y-2456D02*
G01X04483Y-2492D01*
G01X04483Y-2492D02*
G01X04466Y-2456D01*
G01X04466Y-2456D02*
G01X04466Y-2506D01*
G01X04443Y-2506D02*
G01X04443Y-2456D01*
G01X04438Y-2487D02*
G01X04423Y-2506D01*
G01X04423Y-2473D02*
G01X04443Y-2492D01*
G01X04402Y-2501D02*
G01X04400Y-2504D01*
G01X04400Y-2504D02*
G01X04402Y-2506D01*
G01X04402Y-2506D02*
G01X04404Y-2504D01*
G01X04404Y-2504D02*
G01X04402Y-2501D01*
G01X04402Y-2501D02*
G01X04402Y-2506D01*
G01X04340Y-2506D02*
G01X04340Y-2456D01*
G01X04316Y-2506D02*
G01X04316Y-2456D01*
G54D11*
G01X04877Y-2736D02*
G01X04882Y-2734D01*
G01X04882Y-2734D02*
G01X04892Y-2734D01*
G01X04892Y-2734D02*
G01X04896Y-2736D01*
G01X04896Y-2736D02*
G01X04901Y-2741D01*
G01X04901Y-2741D02*
G01X04903Y-2746D01*
G01X04903Y-2746D02*
G01X04903Y-2755D01*
G01X04903Y-2755D02*
G01X04901Y-2760D01*
G01X04901Y-2760D02*
G01X04896Y-2765D01*
G01X04896Y-2765D02*
G01X04892Y-2767D01*
G01X04892Y-2767D02*
G01X04882Y-2767D01*
G01X04882Y-2767D02*
G01X04877Y-2765D01*
G01X04887Y-2717D02*
G01X04899Y-2719D01*
G01X04899Y-2719D02*
G01X04911Y-2727D01*
G01X04911Y-2727D02*
G01X04918Y-2738D01*
G01X04918Y-2738D02*
G01X04920Y-2750D01*
G01X04920Y-2750D02*
G01X04918Y-2762D01*
G01X04918Y-2762D02*
G01X04911Y-2774D01*
G01X04911Y-2774D02*
G01X04899Y-2781D01*
G01X04899Y-2781D02*
G01X04887Y-2784D01*
G01X04887Y-2784D02*
G01X04875Y-2781D01*
G01X04875Y-2781D02*
G01X04863Y-2774D01*
G01X04863Y-2774D02*
G01X04856Y-2762D01*
G01X04856Y-2762D02*
G01X04853Y-2750D01*
G01X04853Y-2750D02*
G01X04856Y-2738D01*
G01X04856Y-2738D02*
G01X04863Y-2727D01*
G01X04863Y-2727D02*
G01X04875Y-2719D01*
G01X04875Y-2719D02*
G01X04887Y-2717D01*
G01X04834Y-2729D02*
G01X04832Y-2727D01*
G01X04832Y-2727D02*
G01X04827Y-2724D01*
G01X04827Y-2724D02*
G01X04815Y-2724D01*
G01X04815Y-2724D02*
G01X04811Y-2727D01*
G01X04811Y-2727D02*
G01X04808Y-2729D01*
G01X04808Y-2729D02*
G01X04806Y-2734D01*
G01X04806Y-2734D02*
G01X04806Y-2738D01*
G01X04806Y-2738D02*
G01X04808Y-2746D01*
G01X04808Y-2746D02*
G01X04837Y-2774D01*
G01X04837Y-2774D02*
G01X04806Y-2774D01*
G01X04775Y-2724D02*
G01X04770Y-2724D01*
G01X04770Y-2724D02*
G01X04765Y-2727D01*
G01X04765Y-2727D02*
G01X04763Y-2729D01*
G01X04763Y-2729D02*
G01X04761Y-2734D01*
G01X04761Y-2734D02*
G01X04758Y-2743D01*
G01X04758Y-2743D02*
G01X04758Y-2755D01*
G01X04758Y-2755D02*
G01X04761Y-2765D01*
G01X04761Y-2765D02*
G01X04763Y-2769D01*
G01X04763Y-2769D02*
G01X04765Y-2772D01*
G01X04765Y-2772D02*
G01X04770Y-2774D01*
G01X04770Y-2774D02*
G01X04775Y-2774D01*
G01X04775Y-2774D02*
G01X04780Y-2772D01*
G01X04780Y-2772D02*
G01X04782Y-2769D01*
G01X04782Y-2769D02*
G01X04784Y-2765D01*
G01X04784Y-2765D02*
G01X04787Y-2755D01*
G01X04787Y-2755D02*
G01X04787Y-2743D01*
G01X04787Y-2743D02*
G01X04784Y-2734D01*
G01X04784Y-2734D02*
G01X04782Y-2729D01*
G01X04782Y-2729D02*
G01X04780Y-2727D01*
G01X04780Y-2727D02*
G01X04775Y-2724D01*
G01X04727Y-2724D02*
G01X04723Y-2724D01*
G01X04723Y-2724D02*
G01X04718Y-2727D01*
G01X04718Y-2727D02*
G01X04715Y-2729D01*
G01X04715Y-2729D02*
G01X04713Y-2734D01*
G01X04713Y-2734D02*
G01X04711Y-2743D01*
G01X04711Y-2743D02*
G01X04711Y-2755D01*
G01X04711Y-2755D02*
G01X04713Y-2765D01*
G01X04713Y-2765D02*
G01X04715Y-2769D01*
G01X04715Y-2769D02*
G01X04718Y-2772D01*
G01X04718Y-2772D02*
G01X04723Y-2774D01*
G01X04723Y-2774D02*
G01X04727Y-2774D01*
G01X04727Y-2774D02*
G01X04732Y-2772D01*
G01X04732Y-2772D02*
G01X04734Y-2769D01*
G01X04734Y-2769D02*
G01X04737Y-2765D01*
G01X04737Y-2765D02*
G01X04739Y-2755D01*
G01X04739Y-2755D02*
G01X04739Y-2743D01*
G01X04739Y-2743D02*
G01X04737Y-2734D01*
G01X04737Y-2734D02*
G01X04734Y-2729D01*
G01X04734Y-2729D02*
G01X04732Y-2727D01*
G01X04732Y-2727D02*
G01X04727Y-2724D01*
G01X04687Y-2774D02*
G01X04677Y-2774D01*
G01X04677Y-2774D02*
G01X04673Y-2772D01*
G01X04673Y-2772D02*
G01X04670Y-2769D01*
G01X04670Y-2769D02*
G01X04665Y-2762D01*
G01X04665Y-2762D02*
G01X04663Y-2753D01*
G01X04663Y-2753D02*
G01X04663Y-2734D01*
G01X04663Y-2734D02*
G01X04665Y-2729D01*
G01X04665Y-2729D02*
G01X04668Y-2727D01*
G01X04668Y-2727D02*
G01X04673Y-2724D01*
G01X04673Y-2724D02*
G01X04682Y-2724D01*
G01X04682Y-2724D02*
G01X04687Y-2727D01*
G01X04687Y-2727D02*
G01X04689Y-2729D01*
G01X04689Y-2729D02*
G01X04692Y-2734D01*
G01X04692Y-2734D02*
G01X04692Y-2746D01*
G01X04692Y-2746D02*
G01X04689Y-2750D01*
G01X04689Y-2750D02*
G01X04687Y-2753D01*
G01X04687Y-2753D02*
G01X04682Y-2755D01*
G01X04682Y-2755D02*
G01X04673Y-2755D01*
G01X04673Y-2755D02*
G01X04668Y-2753D01*
G01X04668Y-2753D02*
G01X04665Y-2750D01*
G01X04665Y-2750D02*
G01X04663Y-2746D01*
G01X04604Y-2755D02*
G01X04565Y-2755D01*
G01X04506Y-2729D02*
G01X04504Y-2727D01*
G01X04504Y-2727D02*
G01X04499Y-2724D01*
G01X04499Y-2724D02*
G01X04487Y-2724D01*
G01X04487Y-2724D02*
G01X04482Y-2727D01*
G01X04482Y-2727D02*
G01X04480Y-2729D01*
G01X04480Y-2729D02*
G01X04477Y-2734D01*
G01X04477Y-2734D02*
G01X04477Y-2738D01*
G01X04477Y-2738D02*
G01X04480Y-2746D01*
G01X04480Y-2746D02*
G01X04508Y-2774D01*
G01X04508Y-2774D02*
G01X04477Y-2774D01*
G01X04446Y-2724D02*
G01X04442Y-2724D01*
G01X04442Y-2724D02*
G01X04437Y-2727D01*
G01X04437Y-2727D02*
G01X04435Y-2729D01*
G01X04435Y-2729D02*
G01X04432Y-2734D01*
G01X04432Y-2734D02*
G01X04430Y-2743D01*
G01X04430Y-2743D02*
G01X04430Y-2755D01*
G01X04430Y-2755D02*
G01X04432Y-2765D01*
G01X04432Y-2765D02*
G01X04435Y-2769D01*
G01X04435Y-2769D02*
G01X04437Y-2772D01*
G01X04437Y-2772D02*
G01X04442Y-2774D01*
G01X04442Y-2774D02*
G01X04446Y-2774D01*
G01X04446Y-2774D02*
G01X04451Y-2772D01*
G01X04451Y-2772D02*
G01X04454Y-2769D01*
G01X04454Y-2769D02*
G01X04456Y-2765D01*
G01X04456Y-2765D02*
G01X04458Y-2755D01*
G01X04458Y-2755D02*
G01X04458Y-2743D01*
G01X04458Y-2743D02*
G01X04456Y-2734D01*
G01X04456Y-2734D02*
G01X04454Y-2729D01*
G01X04454Y-2729D02*
G01X04451Y-2727D01*
G01X04451Y-2727D02*
G01X04446Y-2724D01*
G01X04382Y-2774D02*
G01X04411Y-2774D01*
G01X04396Y-2774D02*
G01X04396Y-2724D01*
G01X04396Y-2724D02*
G01X04401Y-2731D01*
G01X04401Y-2731D02*
G01X04406Y-2736D01*
G01X04406Y-2736D02*
G01X04411Y-2738D01*
G01X04335Y-2774D02*
G01X04363Y-2774D01*
G01X04349Y-2774D02*
G01X04349Y-2724D01*
G01X04349Y-2724D02*
G01X04354Y-2731D01*
G01X04354Y-2731D02*
G01X04358Y-2736D01*
G01X04358Y-2736D02*
G01X04363Y-2738D01*
G01X04275Y-2774D02*
G01X04275Y-2724D01*
G01X04275Y-2724D02*
G01X04258Y-2760D01*
G01X04258Y-2760D02*
G01X04242Y-2724D01*
G01X04242Y-2724D02*
G01X04242Y-2774D01*
G01X04218Y-2769D02*
G01X04216Y-2772D01*
G01X04216Y-2772D02*
G01X04218Y-2774D01*
G01X04218Y-2774D02*
G01X04220Y-2772D01*
G01X04220Y-2772D02*
G01X04218Y-2769D01*
G01X04218Y-2769D02*
G01X04218Y-2774D01*
G01X04127Y-2774D02*
G01X04144Y-2750D01*
G01X04156Y-2774D02*
G01X04156Y-2724D01*
G01X04156Y-2724D02*
G01X04137Y-2724D01*
G01X04137Y-2724D02*
G01X04132Y-2727D01*
G01X04132Y-2727D02*
G01X04130Y-2729D01*
G01X04130Y-2729D02*
G01X04127Y-2734D01*
G01X04127Y-2734D02*
G01X04127Y-2741D01*
G01X04127Y-2741D02*
G01X04130Y-2746D01*
G01X04130Y-2746D02*
G01X04132Y-2748D01*
G01X04132Y-2748D02*
G01X04137Y-2750D01*
G01X04137Y-2750D02*
G01X04156Y-2750D01*
G01X04087Y-2772D02*
G01X04092Y-2774D01*
G01X04092Y-2774D02*
G01X04101Y-2774D01*
G01X04101Y-2774D02*
G01X04106Y-2772D01*
G01X04106Y-2772D02*
G01X04108Y-2767D01*
G01X04108Y-2767D02*
G01X04108Y-2748D01*
G01X04108Y-2748D02*
G01X04106Y-2743D01*
G01X04106Y-2743D02*
G01X04101Y-2741D01*
G01X04101Y-2741D02*
G01X04092Y-2741D01*
G01X04092Y-2741D02*
G01X04087Y-2743D01*
G01X04087Y-2743D02*
G01X04085Y-2748D01*
G01X04085Y-2748D02*
G01X04085Y-2753D01*
G01X04085Y-2753D02*
G01X04108Y-2758D01*
G01X04063Y-2774D02*
G01X04063Y-2724D01*
G01X04042Y-2774D02*
G01X04042Y-2748D01*
G01X04042Y-2748D02*
G01X04044Y-2743D01*
G01X04044Y-2743D02*
G01X04049Y-2741D01*
G01X04049Y-2741D02*
G01X04056Y-2741D01*
G01X04056Y-2741D02*
G01X04061Y-2743D01*
G01X04061Y-2743D02*
G01X04063Y-2746D01*
G01X04018Y-2774D02*
G01X04018Y-2724D01*
G01X04013Y-2755D02*
G01X03999Y-2774D01*
G01X03999Y-2741D02*
G01X04018Y-2760D01*
G01X03970Y-2774D02*
G01X03975Y-2772D01*
G01X03975Y-2772D02*
G01X03977Y-2769D01*
G01X03977Y-2769D02*
G01X03980Y-2765D01*
G01X03980Y-2765D02*
G01X03980Y-2750D01*
G01X03980Y-2750D02*
G01X03977Y-2746D01*
G01X03977Y-2746D02*
G01X03975Y-2743D01*
G01X03975Y-2743D02*
G01X03970Y-2741D01*
G01X03970Y-2741D02*
G01X03963Y-2741D01*
G01X03963Y-2741D02*
G01X03958Y-2743D01*
G01X03958Y-2743D02*
G01X03956Y-2746D01*
G01X03956Y-2746D02*
G01X03954Y-2750D01*
G01X03954Y-2750D02*
G01X03954Y-2765D01*
G01X03954Y-2765D02*
G01X03956Y-2769D01*
G01X03956Y-2769D02*
G01X03958Y-2772D01*
G01X03958Y-2772D02*
G01X03963Y-2774D01*
G01X03963Y-2774D02*
G01X03970Y-2774D01*
G01X03932Y-2741D02*
G01X03932Y-2791D01*
G01X03932Y-2743D02*
G01X03927Y-2741D01*
G01X03927Y-2741D02*
G01X03918Y-2741D01*
G01X03918Y-2741D02*
G01X03913Y-2743D01*
G01X03913Y-2743D02*
G01X03911Y-2746D01*
G01X03911Y-2746D02*
G01X03908Y-2750D01*
G01X03908Y-2750D02*
G01X03908Y-2765D01*
G01X03908Y-2765D02*
G01X03911Y-2769D01*
G01X03911Y-2769D02*
G01X03913Y-2772D01*
G01X03913Y-2772D02*
G01X03918Y-2774D01*
G01X03918Y-2774D02*
G01X03927Y-2774D01*
G01X03927Y-2774D02*
G01X03932Y-2772D01*
G01X03894Y-2741D02*
G01X03875Y-2741D01*
G01X03887Y-2774D02*
G01X03887Y-2731D01*
G01X03887Y-2731D02*
G01X03885Y-2727D01*
G01X03885Y-2727D02*
G01X03880Y-2724D01*
G01X03880Y-2724D02*
G01X03875Y-2724D01*
G01X04851Y-2670D02*
G01X04867Y-2646D01*
G01X04879Y-2670D02*
G01X04879Y-2620D01*
G01X04879Y-2620D02*
G01X04860Y-2620D01*
G01X04860Y-2620D02*
G01X04855Y-2623D01*
G01X04855Y-2623D02*
G01X04853Y-2625D01*
G01X04853Y-2625D02*
G01X04851Y-2630D01*
G01X04851Y-2630D02*
G01X04851Y-2637D01*
G01X04851Y-2637D02*
G01X04853Y-2642D01*
G01X04853Y-2642D02*
G01X04855Y-2644D01*
G01X04855Y-2644D02*
G01X04860Y-2646D01*
G01X04860Y-2646D02*
G01X04879Y-2646D01*
G01X04810Y-2668D02*
G01X04815Y-2670D01*
G01X04815Y-2670D02*
G01X04824Y-2670D01*
G01X04824Y-2670D02*
G01X04829Y-2668D01*
G01X04829Y-2668D02*
G01X04832Y-2663D01*
G01X04832Y-2663D02*
G01X04832Y-2644D01*
G01X04832Y-2644D02*
G01X04829Y-2639D01*
G01X04829Y-2639D02*
G01X04824Y-2637D01*
G01X04824Y-2637D02*
G01X04815Y-2637D01*
G01X04815Y-2637D02*
G01X04810Y-2639D01*
G01X04810Y-2639D02*
G01X04808Y-2644D01*
G01X04808Y-2644D02*
G01X04808Y-2649D01*
G01X04808Y-2649D02*
G01X04832Y-2654D01*
G01X04791Y-2637D02*
G01X04779Y-2670D01*
G01X04779Y-2670D02*
G01X04767Y-2637D01*
G01X04748Y-2665D02*
G01X04746Y-2668D01*
G01X04746Y-2668D02*
G01X04748Y-2670D01*
G01X04748Y-2670D02*
G01X04751Y-2668D01*
G01X04751Y-2668D02*
G01X04748Y-2665D01*
G01X04748Y-2665D02*
G01X04748Y-2670D01*
G01X04708Y-2644D02*
G01X04701Y-2646D01*
G01X04701Y-2646D02*
G01X04698Y-2649D01*
G01X04698Y-2649D02*
G01X04696Y-2654D01*
G01X04696Y-2654D02*
G01X04696Y-2661D01*
G01X04696Y-2661D02*
G01X04698Y-2665D01*
G01X04698Y-2665D02*
G01X04701Y-2668D01*
G01X04701Y-2668D02*
G01X04705Y-2670D01*
G01X04705Y-2670D02*
G01X04724Y-2670D01*
G01X04724Y-2670D02*
G01X04724Y-2620D01*
G01X04724Y-2620D02*
G01X04708Y-2620D01*
G01X04708Y-2620D02*
G01X04703Y-2623D01*
G01X04703Y-2623D02*
G01X04701Y-2625D01*
G01X04701Y-2625D02*
G01X04698Y-2630D01*
G01X04698Y-2630D02*
G01X04698Y-2634D01*
G01X04698Y-2634D02*
G01X04701Y-2639D01*
G01X04701Y-2639D02*
G01X04703Y-2642D01*
G01X04703Y-2642D02*
G01X04708Y-2644D01*
G01X04708Y-2644D02*
G01X04724Y-2644D01*
G01X04601Y-2618D02*
G01X04643Y-2682D01*
G01X04548Y-2625D02*
G01X04546Y-2623D01*
G01X04546Y-2623D02*
G01X04541Y-2620D01*
G01X04541Y-2620D02*
G01X04529Y-2620D01*
G01X04529Y-2620D02*
G01X04524Y-2623D01*
G01X04524Y-2623D02*
G01X04522Y-2625D01*
G01X04522Y-2625D02*
G01X04520Y-2630D01*
G01X04520Y-2630D02*
G01X04520Y-2634D01*
G01X04520Y-2634D02*
G01X04522Y-2642D01*
G01X04522Y-2642D02*
G01X04551Y-2670D01*
G01X04551Y-2670D02*
G01X04520Y-2670D01*
G01X04489Y-2620D02*
G01X04484Y-2620D01*
G01X04484Y-2620D02*
G01X04479Y-2623D01*
G01X04479Y-2623D02*
G01X04477Y-2625D01*
G01X04477Y-2625D02*
G01X04474Y-2630D01*
G01X04474Y-2630D02*
G01X04472Y-2639D01*
G01X04472Y-2639D02*
G01X04472Y-2651D01*
G01X04472Y-2651D02*
G01X04474Y-2661D01*
G01X04474Y-2661D02*
G01X04477Y-2665D01*
G01X04477Y-2665D02*
G01X04479Y-2668D01*
G01X04479Y-2668D02*
G01X04484Y-2670D01*
G01X04484Y-2670D02*
G01X04489Y-2670D01*
G01X04489Y-2670D02*
G01X04493Y-2668D01*
G01X04493Y-2668D02*
G01X04496Y-2665D01*
G01X04496Y-2665D02*
G01X04498Y-2661D01*
G01X04498Y-2661D02*
G01X04501Y-2651D01*
G01X04501Y-2651D02*
G01X04501Y-2639D01*
G01X04501Y-2639D02*
G01X04498Y-2630D01*
G01X04498Y-2630D02*
G01X04496Y-2625D01*
G01X04496Y-2625D02*
G01X04493Y-2623D01*
G01X04493Y-2623D02*
G01X04489Y-2620D01*
G01X04424Y-2670D02*
G01X04453Y-2670D01*
G01X04439Y-2670D02*
G01X04439Y-2620D01*
G01X04439Y-2620D02*
G01X04443Y-2627D01*
G01X04443Y-2627D02*
G01X04448Y-2632D01*
G01X04448Y-2632D02*
G01X04453Y-2634D01*
G01X04377Y-2670D02*
G01X04405Y-2670D01*
G01X04391Y-2670D02*
G01X04391Y-2620D01*
G01X04391Y-2620D02*
G01X04396Y-2627D01*
G01X04396Y-2627D02*
G01X04401Y-2632D01*
G01X04401Y-2632D02*
G01X04405Y-2634D01*
G01X04355Y-2651D02*
G01X04317Y-2651D01*
G01X04284Y-2620D02*
G01X04279Y-2620D01*
G01X04279Y-2620D02*
G01X04274Y-2623D01*
G01X04274Y-2623D02*
G01X04272Y-2625D01*
G01X04272Y-2625D02*
G01X04270Y-2630D01*
G01X04270Y-2630D02*
G01X04267Y-2639D01*
G01X04267Y-2639D02*
G01X04267Y-2651D01*
G01X04267Y-2651D02*
G01X04270Y-2661D01*
G01X04270Y-2661D02*
G01X04272Y-2665D01*
G01X04272Y-2665D02*
G01X04274Y-2668D01*
G01X04274Y-2668D02*
G01X04279Y-2670D01*
G01X04279Y-2670D02*
G01X04284Y-2670D01*
G01X04284Y-2670D02*
G01X04289Y-2668D01*
G01X04289Y-2668D02*
G01X04291Y-2665D01*
G01X04291Y-2665D02*
G01X04293Y-2661D01*
G01X04293Y-2661D02*
G01X04296Y-2651D01*
G01X04296Y-2651D02*
G01X04296Y-2639D01*
G01X04296Y-2639D02*
G01X04293Y-2630D01*
G01X04293Y-2630D02*
G01X04291Y-2625D01*
G01X04291Y-2625D02*
G01X04289Y-2623D01*
G01X04289Y-2623D02*
G01X04284Y-2620D01*
G01X04220Y-2670D02*
G01X04248Y-2670D01*
G01X04234Y-2670D02*
G01X04234Y-2620D01*
G01X04234Y-2620D02*
G01X04239Y-2627D01*
G01X04239Y-2627D02*
G01X04243Y-2632D01*
G01X04243Y-2632D02*
G01X04248Y-2634D01*
G01X04198Y-2651D02*
G01X04160Y-2651D01*
G01X04127Y-2620D02*
G01X04122Y-2620D01*
G01X04122Y-2620D02*
G01X04117Y-2623D01*
G01X04117Y-2623D02*
G01X04115Y-2625D01*
G01X04115Y-2625D02*
G01X04113Y-2630D01*
G01X04113Y-2630D02*
G01X04110Y-2639D01*
G01X04110Y-2639D02*
G01X04110Y-2651D01*
G01X04110Y-2651D02*
G01X04113Y-2661D01*
G01X04113Y-2661D02*
G01X04115Y-2665D01*
G01X04115Y-2665D02*
G01X04117Y-2668D01*
G01X04117Y-2668D02*
G01X04122Y-2670D01*
G01X04122Y-2670D02*
G01X04127Y-2670D01*
G01X04127Y-2670D02*
G01X04132Y-2668D01*
G01X04132Y-2668D02*
G01X04134Y-2665D01*
G01X04134Y-2665D02*
G01X04136Y-2661D01*
G01X04136Y-2661D02*
G01X04139Y-2651D01*
G01X04139Y-2651D02*
G01X04139Y-2639D01*
G01X04139Y-2639D02*
G01X04136Y-2630D01*
G01X04136Y-2630D02*
G01X04134Y-2625D01*
G01X04134Y-2625D02*
G01X04132Y-2623D01*
G01X04132Y-2623D02*
G01X04127Y-2620D01*
G01X04067Y-2620D02*
G01X04077Y-2620D01*
G01X04077Y-2620D02*
G01X04082Y-2623D01*
G01X04082Y-2623D02*
G01X04084Y-2625D01*
G01X04084Y-2625D02*
G01X04089Y-2632D01*
G01X04089Y-2632D02*
G01X04091Y-2642D01*
G01X04091Y-2642D02*
G01X04091Y-2661D01*
G01X04091Y-2661D02*
G01X04089Y-2665D01*
G01X04089Y-2665D02*
G01X04086Y-2668D01*
G01X04086Y-2668D02*
G01X04082Y-2670D01*
G01X04082Y-2670D02*
G01X04072Y-2670D01*
G01X04072Y-2670D02*
G01X04067Y-2668D01*
G01X04067Y-2668D02*
G01X04065Y-2665D01*
G01X04065Y-2665D02*
G01X04063Y-2661D01*
G01X04063Y-2661D02*
G01X04063Y-2649D01*
G01X04063Y-2649D02*
G01X04065Y-2644D01*
G01X04065Y-2644D02*
G01X04067Y-2642D01*
G01X04067Y-2642D02*
G01X04072Y-2639D01*
G01X04072Y-2639D02*
G01X04082Y-2639D01*
G01X04082Y-2639D02*
G01X04086Y-2642D01*
G01X04086Y-2642D02*
G01X04089Y-2644D01*
G01X04089Y-2644D02*
G01X04091Y-2649D01*
G01X07231Y-2605D02*
G01X07248Y-2581D01*
G01X07260Y-2605D02*
G01X07260Y-2555D01*
G01X07260Y-2555D02*
G01X07241Y-2555D01*
G01X07241Y-2555D02*
G01X07236Y-2558D01*
G01X07236Y-2558D02*
G01X07234Y-2560D01*
G01X07234Y-2560D02*
G01X07231Y-2565D01*
G01X07231Y-2565D02*
G01X07231Y-2572D01*
G01X07231Y-2572D02*
G01X07234Y-2577D01*
G01X07234Y-2577D02*
G01X07236Y-2579D01*
G01X07236Y-2579D02*
G01X07241Y-2581D01*
G01X07241Y-2581D02*
G01X07260Y-2581D01*
G01X07191Y-2603D02*
G01X07195Y-2605D01*
G01X07195Y-2605D02*
G01X07205Y-2605D01*
G01X07205Y-2605D02*
G01X07210Y-2603D01*
G01X07210Y-2603D02*
G01X07212Y-2598D01*
G01X07212Y-2598D02*
G01X07212Y-2579D01*
G01X07212Y-2579D02*
G01X07210Y-2574D01*
G01X07210Y-2574D02*
G01X07205Y-2572D01*
G01X07205Y-2572D02*
G01X07195Y-2572D01*
G01X07195Y-2572D02*
G01X07191Y-2574D01*
G01X07191Y-2574D02*
G01X07188Y-2579D01*
G01X07188Y-2579D02*
G01X07188Y-2584D01*
G01X07188Y-2584D02*
G01X07212Y-2589D01*
G01X07145Y-2605D02*
G01X07145Y-2579D01*
G01X07145Y-2579D02*
G01X07148Y-2574D01*
G01X07148Y-2574D02*
G01X07153Y-2572D01*
G01X07153Y-2572D02*
G01X07162Y-2572D01*
G01X07162Y-2572D02*
G01X07167Y-2574D01*
G01X07145Y-2603D02*
G01X07150Y-2605D01*
G01X07150Y-2605D02*
G01X07162Y-2605D01*
G01X07162Y-2605D02*
G01X07167Y-2603D01*
G01X07167Y-2603D02*
G01X07169Y-2598D01*
G01X07169Y-2598D02*
G01X07169Y-2593D01*
G01X07169Y-2593D02*
G01X07167Y-2589D01*
G01X07167Y-2589D02*
G01X07162Y-2586D01*
G01X07162Y-2586D02*
G01X07150Y-2586D01*
G01X07150Y-2586D02*
G01X07145Y-2584D01*
G01X07100Y-2605D02*
G01X07100Y-2555D01*
G01X07100Y-2603D02*
G01X07105Y-2605D01*
G01X07105Y-2605D02*
G01X07115Y-2605D01*
G01X07115Y-2605D02*
G01X07119Y-2603D01*
G01X07119Y-2603D02*
G01X07122Y-2600D01*
G01X07122Y-2600D02*
G01X07124Y-2596D01*
G01X07124Y-2596D02*
G01X07124Y-2581D01*
G01X07124Y-2581D02*
G01X07122Y-2577D01*
G01X07122Y-2577D02*
G01X07119Y-2574D01*
G01X07119Y-2574D02*
G01X07115Y-2572D01*
G01X07115Y-2572D02*
G01X07105Y-2572D01*
G01X07105Y-2572D02*
G01X07100Y-2574D01*
G01X07473Y-2605D02*
G01X07489Y-2581D01*
G01X07501Y-2605D02*
G01X07501Y-2555D01*
G01X07501Y-2555D02*
G01X07482Y-2555D01*
G01X07482Y-2555D02*
G01X07478Y-2558D01*
G01X07478Y-2558D02*
G01X07475Y-2560D01*
G01X07475Y-2560D02*
G01X07473Y-2565D01*
G01X07473Y-2565D02*
G01X07473Y-2572D01*
G01X07473Y-2572D02*
G01X07475Y-2577D01*
G01X07475Y-2577D02*
G01X07478Y-2579D01*
G01X07478Y-2579D02*
G01X07482Y-2581D01*
G01X07482Y-2581D02*
G01X07501Y-2581D01*
G01X07432Y-2603D02*
G01X07437Y-2605D01*
G01X07437Y-2605D02*
G01X07447Y-2605D01*
G01X07447Y-2605D02*
G01X07451Y-2603D01*
G01X07451Y-2603D02*
G01X07454Y-2598D01*
G01X07454Y-2598D02*
G01X07454Y-2579D01*
G01X07454Y-2579D02*
G01X07451Y-2574D01*
G01X07451Y-2574D02*
G01X07447Y-2572D01*
G01X07447Y-2572D02*
G01X07437Y-2572D01*
G01X07437Y-2572D02*
G01X07432Y-2574D01*
G01X07432Y-2574D02*
G01X07430Y-2579D01*
G01X07430Y-2579D02*
G01X07430Y-2584D01*
G01X07430Y-2584D02*
G01X07454Y-2589D01*
G01X07387Y-2605D02*
G01X07387Y-2579D01*
G01X07387Y-2579D02*
G01X07389Y-2574D01*
G01X07389Y-2574D02*
G01X07394Y-2572D01*
G01X07394Y-2572D02*
G01X07404Y-2572D01*
G01X07404Y-2572D02*
G01X07408Y-2574D01*
G01X07387Y-2603D02*
G01X07392Y-2605D01*
G01X07392Y-2605D02*
G01X07404Y-2605D01*
G01X07404Y-2605D02*
G01X07408Y-2603D01*
G01X07408Y-2603D02*
G01X07411Y-2598D01*
G01X07411Y-2598D02*
G01X07411Y-2593D01*
G01X07411Y-2593D02*
G01X07408Y-2589D01*
G01X07408Y-2589D02*
G01X07404Y-2586D01*
G01X07404Y-2586D02*
G01X07392Y-2586D01*
G01X07392Y-2586D02*
G01X07387Y-2584D01*
G01X07342Y-2605D02*
G01X07342Y-2555D01*
G01X07342Y-2603D02*
G01X07347Y-2605D01*
G01X07347Y-2605D02*
G01X07356Y-2605D01*
G01X07356Y-2605D02*
G01X07361Y-2603D01*
G01X07361Y-2603D02*
G01X07363Y-2600D01*
G01X07363Y-2600D02*
G01X07366Y-2596D01*
G01X07366Y-2596D02*
G01X07366Y-2581D01*
G01X07366Y-2581D02*
G01X07363Y-2577D01*
G01X07363Y-2577D02*
G01X07361Y-2574D01*
G01X07361Y-2574D02*
G01X07356Y-2572D01*
G01X07356Y-2572D02*
G01X07347Y-2572D01*
G01X07347Y-2572D02*
G01X07342Y-2574D01*
G01X07323Y-2572D02*
G01X07311Y-2605D01*
G01X07299Y-2572D02*
G01X07311Y-2605D01*
G01X07311Y-2605D02*
G01X07316Y-2617D01*
G01X07316Y-2617D02*
G01X07318Y-2619D01*
G01X07318Y-2619D02*
G01X07323Y-2622D01*
G01X05167Y-2406D02*
G01X05126Y-2406D01*
G01X04923Y-2406D02*
G01X04964Y-2406D01*
G01X04892Y-2436D02*
G01X04892Y-2288D01*
G01X05199Y-2436D02*
G01X05199Y-2288D01*
G01X05187Y-2424D02*
G01X05187Y-2418D01*
G01X05187Y-2418D02*
G01X05167Y-2418D01*
G01X05167Y-2418D02*
G01X05167Y-2406D01*
G01X04923Y-2406D02*
G01X04923Y-2418D01*
G01X04923Y-2418D02*
G01X04905Y-2418D01*
G01X04905Y-2418D02*
G01X04903Y-2418D01*
G01X04903Y-2418D02*
G01X04903Y-2436D01*
G01X04903Y-2436D02*
G01X04892Y-2436D01*
G01X05199Y-2436D02*
G01X05187Y-2436D01*
G01X05187Y-2436D02*
G01X05187Y-2424D01*
G01X04132Y-3192D02*
G01X04132Y-3137D01*
G01X04160Y-3164D02*
G01X04105Y-3164D01*
G01X04695Y-3936D02*
G01X04640Y-3936D01*
G01X04171Y-3164D02*
G01X04171Y-3172D01*
G01X04171Y-3172D02*
G01X04168Y-3179D01*
G01X04168Y-3179D02*
G01X04165Y-3186D01*
G01X04165Y-3186D02*
G01X04160Y-3192D01*
G01X04160Y-3192D02*
G01X04154Y-3196D01*
G01X04154Y-3196D02*
G01X04147Y-3200D01*
G01X04147Y-3200D02*
G01X04140Y-3202D01*
G01X04140Y-3202D02*
G01X04133Y-3203D01*
G01X04133Y-3203D02*
G01X04125Y-3202D01*
G01X04125Y-3202D02*
G01X04118Y-3200D01*
G01X04118Y-3200D02*
G01X04111Y-3197D01*
G01X04111Y-3197D02*
G01X04105Y-3192D01*
G01X04105Y-3192D02*
G01X04100Y-3186D01*
G01X04100Y-3186D02*
G01X04097Y-3179D01*
G01X04097Y-3179D02*
G01X04094Y-3172D01*
G01X04094Y-3172D02*
G01X04093Y-3165D01*
G01X04093Y-3165D02*
G01X04094Y-3157D01*
G01X04094Y-3157D02*
G01X04096Y-3150D01*
G01X04096Y-3150D02*
G01X04100Y-3143D01*
G01X04100Y-3143D02*
G01X04104Y-3137D01*
G01X04104Y-3137D02*
G01X04110Y-3132D01*
G01X04110Y-3132D02*
G01X04117Y-3128D01*
G01X04117Y-3128D02*
G01X04124Y-3126D01*
G01X04124Y-3126D02*
G01X04132Y-3125D01*
G01X04132Y-3125D02*
G01X04139Y-3126D01*
G01X04139Y-3126D02*
G01X04146Y-3128D01*
G01X04146Y-3128D02*
G01X04153Y-3131D01*
G01X04153Y-3131D02*
G01X04159Y-3136D01*
G01X04159Y-3136D02*
G01X04164Y-3142D01*
G01X04164Y-3142D02*
G01X04168Y-3148D01*
G01X04168Y-3148D02*
G01X04170Y-3156D01*
G01X04170Y-3156D02*
G01X04171Y-3163D01*
G01X04171Y-3163D02*
G01X04171Y-3164D01*
G01X04707Y-3936D02*
G01X04706Y-3943D01*
G01X04706Y-3943D02*
G01X04704Y-3951D01*
G01X04704Y-3951D02*
G01X04700Y-3957D01*
G01X04700Y-3957D02*
G01X04696Y-3963D01*
G01X04696Y-3963D02*
G01X04690Y-3968D01*
G01X04690Y-3968D02*
G01X04683Y-3972D01*
G01X04683Y-3972D02*
G01X04676Y-3974D01*
G01X04676Y-3974D02*
G01X04668Y-3975D01*
G01X04668Y-3975D02*
G01X04660Y-3974D01*
G01X04660Y-3974D02*
G01X04653Y-3972D01*
G01X04653Y-3972D02*
G01X04646Y-3969D01*
G01X04646Y-3969D02*
G01X04640Y-3964D01*
G01X04640Y-3964D02*
G01X04635Y-3958D01*
G01X04635Y-3958D02*
G01X04632Y-3951D01*
G01X04632Y-3951D02*
G01X04629Y-3944D01*
G01X04629Y-3944D02*
G01X04629Y-3936D01*
G01X04629Y-3936D02*
G01X04629Y-3929D01*
G01X04629Y-3929D02*
G01X04631Y-3921D01*
G01X04631Y-3921D02*
G01X04635Y-3915D01*
G01X04635Y-3915D02*
G01X04640Y-3908D01*
G01X04640Y-3908D02*
G01X04645Y-3904D01*
G01X04645Y-3904D02*
G01X04652Y-3900D01*
G01X04652Y-3900D02*
G01X04659Y-3897D01*
G01X04659Y-3897D02*
G01X04667Y-3897D01*
G01X04667Y-3897D02*
G01X04675Y-3897D01*
G01X04675Y-3897D02*
G01X04682Y-3899D01*
G01X04682Y-3899D02*
G01X04689Y-3903D01*
G01X04689Y-3903D02*
G01X04695Y-3907D01*
G01X04695Y-3907D02*
G01X04700Y-3913D01*
G01X04700Y-3913D02*
G01X04704Y-3920D01*
G01X04704Y-3920D02*
G01X04706Y-3927D01*
G01X04706Y-3927D02*
G01X04707Y-3935D01*
G01X04707Y-3935D02*
G01X04707Y-3936D01*
G01X04798Y-3550D02*
G01X04790Y-3627D01*
G01X04790Y-3627D02*
G01X04768Y-3701D01*
G01X04768Y-3701D02*
G01X04731Y-3770D01*
G01X04731Y-3770D02*
G01X04682Y-3830D01*
G01X04682Y-3830D02*
G01X04622Y-3880D01*
G01X04622Y-3880D02*
G01X04554Y-3916D01*
G01X04554Y-3916D02*
G01X04480Y-3939D01*
G01X04480Y-3939D02*
G01X04403Y-3947D01*
G01X04403Y-3947D02*
G01X04326Y-3940D01*
G01X04326Y-3940D02*
G01X04251Y-3919D01*
G01X04251Y-3919D02*
G01X04182Y-3883D01*
G01X04182Y-3883D02*
G01X04122Y-3834D01*
G01X04122Y-3834D02*
G01X04072Y-3775D01*
G01X04072Y-3775D02*
G01X04035Y-3707D01*
G01X04035Y-3707D02*
G01X04011Y-3633D01*
G01X04011Y-3633D02*
G01X04003Y-3555D01*
G01X04003Y-3555D02*
G01X04009Y-3478D01*
G01X04009Y-3478D02*
G01X04030Y-3404D01*
G01X04030Y-3404D02*
G01X04066Y-3335D01*
G01X04066Y-3335D02*
G01X04114Y-3274D01*
G01X04114Y-3274D02*
G01X04173Y-3224D01*
G01X04173Y-3224D02*
G01X04241Y-3186D01*
G01X04241Y-3186D02*
G01X04315Y-3162D01*
G01X04315Y-3162D02*
G01X04392Y-3152D01*
G01X04392Y-3152D02*
G01X04469Y-3158D01*
G01X04469Y-3158D02*
G01X04544Y-3179D01*
G01X04544Y-3179D02*
G01X04613Y-3214D01*
G01X04613Y-3214D02*
G01X04674Y-3262D01*
G01X04674Y-3262D02*
G01X04725Y-3321D01*
G01X04725Y-3321D02*
G01X04763Y-3388D01*
G01X04763Y-3388D02*
G01X04788Y-3462D01*
G01X04788Y-3462D02*
G01X04797Y-3539D01*
G01X04797Y-3539D02*
G01X04798Y-3550D01*
G01X04266Y-4109D02*
G01X04266Y-3983D01*
G01X04266Y-3983D02*
G01X04085Y-3983D01*
G01X04085Y-3983D02*
G01X04085Y-3117D01*
G01X04085Y-3117D02*
G01X04266Y-3117D01*
G01X04266Y-3117D02*
G01X04266Y-2991D01*
G01X04266Y-2991D02*
G01X04534Y-2991D01*
G01X04534Y-2991D02*
G01X04534Y-3117D01*
G01X04534Y-3117D02*
G01X04676Y-3117D01*
G01X04676Y-3117D02*
G01X04715Y-3156D01*
G01X04715Y-3156D02*
G01X04715Y-3983D01*
G01X04715Y-3983D02*
G01X04534Y-3983D01*
G01X04534Y-3983D02*
G01X04534Y-4109D01*
G01X04534Y-4109D02*
G01X04266Y-4109D01*
G01X05941Y-3402D02*
G01X05986Y-3402D01*
G01X05856Y-3402D02*
G01X05901Y-3402D01*
G01X05986Y-3472D02*
G01X05941Y-3472D01*
G01X05856Y-3472D02*
G01X05901Y-3472D01*
G01X05986Y-3472D02*
G01X05986Y-3402D01*
G01X05856Y-3402D02*
G01X05856Y-3472D01*
G01X05108Y-2567D02*
G01X05153Y-2567D01*
G01X05023Y-2567D02*
G01X05068Y-2567D01*
G01X05153Y-2637D02*
G01X05108Y-2637D01*
G01X05023Y-2637D02*
G01X05068Y-2637D01*
G01X05153Y-2637D02*
G01X05153Y-2567D01*
G01X05023Y-2567D02*
G01X05023Y-2637D01*
G01X07200Y-3395D02*
G01X07155Y-3395D01*
G01X07285Y-3395D02*
G01X07240Y-3395D01*
G01X07155Y-3325D02*
G01X07200Y-3325D01*
G01X07285Y-3325D02*
G01X07240Y-3325D01*
G01X07155Y-3325D02*
G01X07155Y-3395D01*
G01X07285Y-3395D02*
G01X07285Y-3325D01*
G01X07225Y-2912D02*
G01X07270Y-2912D01*
G01X07140Y-2912D02*
G01X07185Y-2912D01*
G01X07270Y-2982D02*
G01X07225Y-2982D01*
G01X07140Y-2982D02*
G01X07185Y-2982D01*
G01X07270Y-2982D02*
G01X07270Y-2912D01*
G01X07140Y-2912D02*
G01X07140Y-2982D01*
G01X06413Y-4557D02*
G01X06413Y-4512D01*
G01X06413Y-4642D02*
G01X06413Y-4597D01*
G01X06483Y-4512D02*
G01X06483Y-4557D01*
G01X06483Y-4642D02*
G01X06483Y-4597D01*
G01X06483Y-4512D02*
G01X06413Y-4512D01*
G01X06413Y-4642D02*
G01X06483Y-4642D01*
G01X05843Y-4682D02*
G01X05843Y-4637D01*
G01X05843Y-4767D02*
G01X05843Y-4722D01*
G01X05913Y-4637D02*
G01X05913Y-4682D01*
G01X05913Y-4767D02*
G01X05913Y-4722D01*
G01X05913Y-4637D02*
G01X05843Y-4637D01*
G01X05843Y-4767D02*
G01X05913Y-4767D01*
G01X05263Y-4682D02*
G01X05263Y-4637D01*
G01X05263Y-4767D02*
G01X05263Y-4722D01*
G01X05333Y-4637D02*
G01X05333Y-4682D01*
G01X05333Y-4767D02*
G01X05333Y-4722D01*
G01X05333Y-4637D02*
G01X05263Y-4637D01*
G01X05263Y-4767D02*
G01X05333Y-4767D01*
G01X06483Y-4412D02*
G01X06483Y-4457D01*
G01X06483Y-4327D02*
G01X06483Y-4372D01*
G01X06413Y-4457D02*
G01X06413Y-4412D01*
G01X06413Y-4327D02*
G01X06413Y-4372D01*
G01X06413Y-4457D02*
G01X06483Y-4457D01*
G01X06483Y-4327D02*
G01X06413Y-4327D01*
G01X05913Y-4537D02*
G01X05913Y-4582D01*
G01X05913Y-4452D02*
G01X05913Y-4497D01*
G01X05843Y-4582D02*
G01X05843Y-4537D01*
G01X05843Y-4452D02*
G01X05843Y-4497D01*
G01X05843Y-4582D02*
G01X05913Y-4582D01*
G01X05913Y-4452D02*
G01X05843Y-4452D01*
G01X05333Y-4537D02*
G01X05333Y-4582D01*
G01X05333Y-4452D02*
G01X05333Y-4497D01*
G01X05263Y-4582D02*
G01X05263Y-4537D01*
G01X05263Y-4452D02*
G01X05263Y-4497D01*
G01X05263Y-4582D02*
G01X05333Y-4582D01*
G01X05333Y-4452D02*
G01X05263Y-4452D01*
G01X05090Y-4580D02*
G01X05090Y-4625D01*
G01X05090Y-4495D02*
G01X05090Y-4540D01*
G01X05020Y-4625D02*
G01X05020Y-4580D01*
G01X05020Y-4495D02*
G01X05020Y-4540D01*
G01X05020Y-4625D02*
G01X05090Y-4625D01*
G01X05090Y-4495D02*
G01X05020Y-4495D01*
G01X07030Y-3275D02*
G01X07075Y-3275D01*
G01X06945Y-3275D02*
G01X06990Y-3275D01*
G01X07075Y-3345D02*
G01X07030Y-3345D01*
G01X06945Y-3345D02*
G01X06990Y-3345D01*
G01X07075Y-3345D02*
G01X07075Y-3275D01*
G01X06945Y-3275D02*
G01X06945Y-3345D01*
G01X06670Y-3515D02*
G01X06625Y-3515D01*
G01X06755Y-3515D02*
G01X06710Y-3515D01*
G01X06625Y-3445D02*
G01X06670Y-3445D01*
G01X06755Y-3445D02*
G01X06710Y-3445D01*
G01X06625Y-3445D02*
G01X06625Y-3515D01*
G01X06755Y-3515D02*
G01X06755Y-3445D01*
G01X06235Y-3930D02*
G01X06235Y-3885D01*
G01X06235Y-4015D02*
G01X06235Y-3970D01*
G01X06305Y-3885D02*
G01X06305Y-3930D01*
G01X06305Y-4015D02*
G01X06305Y-3970D01*
G01X06305Y-3885D02*
G01X06235Y-3885D01*
G01X06235Y-4015D02*
G01X06305Y-4015D01*
G01X05804Y-3477D02*
G01X05849Y-3477D01*
G01X05719Y-3477D02*
G01X05764Y-3477D01*
G01X05849Y-3547D02*
G01X05804Y-3547D01*
G01X05719Y-3547D02*
G01X05764Y-3547D01*
G01X05849Y-3547D02*
G01X05849Y-3477D01*
G01X05719Y-3477D02*
G01X05719Y-3547D01*
G01X05965Y-3930D02*
G01X05965Y-3885D01*
G01X05965Y-4015D02*
G01X05965Y-3970D01*
G01X06035Y-3885D02*
G01X06035Y-3930D01*
G01X06035Y-4015D02*
G01X06035Y-3970D01*
G01X06035Y-3885D02*
G01X05965Y-3885D01*
G01X05965Y-4015D02*
G01X06035Y-4015D01*
G01X06485Y-3930D02*
G01X06485Y-3885D01*
G01X06485Y-4015D02*
G01X06485Y-3970D01*
G01X06555Y-3885D02*
G01X06555Y-3930D01*
G01X06555Y-4015D02*
G01X06555Y-3970D01*
G01X06555Y-3885D02*
G01X06485Y-3885D01*
G01X06485Y-4015D02*
G01X06555Y-4015D01*
G01X06670Y-3775D02*
G01X06625Y-3775D01*
G01X06755Y-3775D02*
G01X06710Y-3775D01*
G01X06625Y-3705D02*
G01X06670Y-3705D01*
G01X06755Y-3705D02*
G01X06710Y-3705D01*
G01X06625Y-3705D02*
G01X06625Y-3775D01*
G01X06755Y-3775D02*
G01X06755Y-3705D01*
G01X06670Y-3285D02*
G01X06625Y-3285D01*
G01X06755Y-3285D02*
G01X06710Y-3285D01*
G01X06625Y-3215D02*
G01X06670Y-3215D01*
G01X06755Y-3215D02*
G01X06710Y-3215D01*
G01X06625Y-3215D02*
G01X06625Y-3285D01*
G01X06755Y-3285D02*
G01X06755Y-3215D01*
G01X06590Y-3062D02*
G01X06590Y-3107D01*
G01X06590Y-2977D02*
G01X06590Y-3022D01*
G01X06520Y-3107D02*
G01X06520Y-3062D01*
G01X06520Y-2977D02*
G01X06520Y-3022D01*
G01X06520Y-3107D02*
G01X06590Y-3107D01*
G01X06590Y-2977D02*
G01X06520Y-2977D01*
G01X05810Y-3705D02*
G01X05855Y-3705D01*
G01X05725Y-3705D02*
G01X05770Y-3705D01*
G01X05855Y-3775D02*
G01X05810Y-3775D01*
G01X05725Y-3775D02*
G01X05770Y-3775D01*
G01X05855Y-3775D02*
G01X05855Y-3705D01*
G01X05725Y-3705D02*
G01X05725Y-3775D01*
G01X07418Y-4920D02*
G01X07418Y-4965D01*
G01X07418Y-4835D02*
G01X07418Y-4880D01*
G01X07348Y-4965D02*
G01X07348Y-4920D01*
G01X07348Y-4835D02*
G01X07348Y-4880D01*
G01X07348Y-4965D02*
G01X07418Y-4965D01*
G01X07418Y-4835D02*
G01X07348Y-4835D01*
G01X05418Y-3717D02*
G01X05373Y-3717D01*
G01X05503Y-3717D02*
G01X05458Y-3717D01*
G01X05373Y-3647D02*
G01X05418Y-3647D01*
G01X05503Y-3647D02*
G01X05458Y-3647D01*
G01X05373Y-3647D02*
G01X05373Y-3717D01*
G01X05503Y-3717D02*
G01X05503Y-3647D01*
G01X07030Y-3625D02*
G01X07075Y-3625D01*
G01X06945Y-3625D02*
G01X06990Y-3625D01*
G01X07075Y-3695D02*
G01X07030Y-3695D01*
G01X06945Y-3695D02*
G01X06990Y-3695D01*
G01X07075Y-3695D02*
G01X07075Y-3625D01*
G01X06945Y-3625D02*
G01X06945Y-3695D01*
G01X05941Y-3477D02*
G01X05986Y-3477D01*
G01X05856Y-3477D02*
G01X05901Y-3477D01*
G01X05986Y-3547D02*
G01X05941Y-3547D01*
G01X05856Y-3547D02*
G01X05901Y-3547D01*
G01X05986Y-3547D02*
G01X05986Y-3477D01*
G01X05856Y-3477D02*
G01X05856Y-3547D01*
G01X04820Y-3310D02*
G01X04865Y-3310D01*
G01X04735Y-3310D02*
G01X04780Y-3310D01*
G01X04865Y-3380D02*
G01X04820Y-3380D01*
G01X04735Y-3380D02*
G01X04780Y-3380D01*
G01X04865Y-3380D02*
G01X04865Y-3310D01*
G01X04735Y-3310D02*
G01X04735Y-3380D01*
G01X04815Y-3200D02*
G01X04815Y-3245D01*
G01X04815Y-3115D02*
G01X04815Y-3160D01*
G01X04745Y-3245D02*
G01X04745Y-3200D01*
G01X04745Y-3115D02*
G01X04745Y-3160D01*
G01X04745Y-3245D02*
G01X04815Y-3245D01*
G01X04815Y-3115D02*
G01X04745Y-3115D01*
G01X04940Y-3380D02*
G01X04895Y-3380D01*
G01X05025Y-3380D02*
G01X04980Y-3380D01*
G01X04895Y-3310D02*
G01X04940Y-3310D01*
G01X05025Y-3310D02*
G01X04980Y-3310D01*
G01X04895Y-3310D02*
G01X04895Y-3380D01*
G01X05025Y-3380D02*
G01X05025Y-3310D01*
G01X04763Y-3455D02*
G01X04763Y-3410D01*
G01X04763Y-3540D02*
G01X04763Y-3495D01*
G01X04833Y-3410D02*
G01X04833Y-3455D01*
G01X04833Y-3540D02*
G01X04833Y-3495D01*
G01X04833Y-3410D02*
G01X04763Y-3410D01*
G01X04763Y-3540D02*
G01X04833Y-3540D01*
G01X05548Y-4537D02*
G01X05548Y-4582D01*
G01X05548Y-4452D02*
G01X05548Y-4497D01*
G01X05478Y-4582D02*
G01X05478Y-4537D01*
G01X05478Y-4452D02*
G01X05478Y-4497D01*
G01X05478Y-4582D02*
G01X05548Y-4582D01*
G01X05548Y-4452D02*
G01X05478Y-4452D01*
G01X06128Y-4537D02*
G01X06128Y-4582D01*
G01X06128Y-4452D02*
G01X06128Y-4497D01*
G01X06058Y-4582D02*
G01X06058Y-4537D01*
G01X06058Y-4452D02*
G01X06058Y-4497D01*
G01X06058Y-4582D02*
G01X06128Y-4582D01*
G01X06128Y-4452D02*
G01X06058Y-4452D01*
G01X06698Y-4412D02*
G01X06698Y-4457D01*
G01X06698Y-4327D02*
G01X06698Y-4372D01*
G01X06628Y-4457D02*
G01X06628Y-4412D01*
G01X06628Y-4327D02*
G01X06628Y-4372D01*
G01X06628Y-4457D02*
G01X06698Y-4457D01*
G01X06698Y-4327D02*
G01X06628Y-4327D01*
G01X06628Y-4557D02*
G01X06628Y-4512D01*
G01X06628Y-4642D02*
G01X06628Y-4597D01*
G01X06698Y-4512D02*
G01X06698Y-4557D01*
G01X06698Y-4642D02*
G01X06698Y-4597D01*
G01X06698Y-4512D02*
G01X06628Y-4512D01*
G01X06628Y-4642D02*
G01X06698Y-4642D01*
G01X06058Y-4682D02*
G01X06058Y-4637D01*
G01X06058Y-4767D02*
G01X06058Y-4722D01*
G01X06128Y-4637D02*
G01X06128Y-4682D01*
G01X06128Y-4767D02*
G01X06128Y-4722D01*
G01X06128Y-4637D02*
G01X06058Y-4637D01*
G01X06058Y-4767D02*
G01X06128Y-4767D01*
G01X05478Y-4682D02*
G01X05478Y-4637D01*
G01X05478Y-4767D02*
G01X05478Y-4722D01*
G01X05548Y-4637D02*
G01X05548Y-4682D01*
G01X05548Y-4767D02*
G01X05548Y-4722D01*
G01X05548Y-4637D02*
G01X05478Y-4637D01*
G01X05478Y-4767D02*
G01X05548Y-4767D01*
G54D12*
G01X06313Y-3303D02*
G01X06451Y-3303D01*
G01X05349Y-3303D02*
G01X05432Y-3303D01*
G01X06451Y-2969D02*
G01X06451Y-2347D01*
G01X06451Y-3303D02*
G01X06451Y-3083D01*
G01X06313Y-3256D02*
G01X06278Y-3256D01*
G01X05431Y-3256D02*
G01X05447Y-3256D01*
G01X05349Y-2453D02*
G01X05349Y-2425D01*
G01X05349Y-2803D02*
G01X05349Y-2528D01*
G01X05349Y-2969D02*
G01X05349Y-2878D01*
G01X05349Y-3303D02*
G01X05349Y-3083D01*
G01X05431Y-3303D02*
G01X05431Y-3256D01*
G01X06313Y-3256D02*
G01X06313Y-3303D01*
G54D11*
G01X05093Y-2722D02*
G01X05093Y-2767D01*
G01X05093Y-2637D02*
G01X05093Y-2682D01*
G01X05023Y-2767D02*
G01X05023Y-2722D01*
G01X05023Y-2637D02*
G01X05023Y-2682D01*
G01X05023Y-2767D02*
G01X05093Y-2767D01*
G01X05093Y-2637D02*
G01X05023Y-2637D01*
G01X05023Y-2575D02*
G01X05023Y-2620D01*
G01X05023Y-2490D02*
G01X05023Y-2535D01*
G01X04953Y-2620D02*
G01X04953Y-2575D01*
G01X04953Y-2490D02*
G01X04953Y-2535D01*
G01X04953Y-2620D02*
G01X05023Y-2620D01*
G01X05023Y-2490D02*
G01X04953Y-2490D01*
G01X05668Y-4697D02*
G01X05548Y-4697D01*
G01X05548Y-4697D02*
G01X05548Y-4727D01*
G01X05548Y-4727D02*
G01X05668Y-4727D01*
G01X05668Y-4727D02*
G01X05668Y-4697D01*
G01X04918Y-3572D02*
G01X04918Y-3527D01*
G01X04918Y-3657D02*
G01X04918Y-3612D01*
G01X04988Y-3527D02*
G01X04988Y-3572D01*
G01X04988Y-3657D02*
G01X04988Y-3612D01*
G01X04988Y-3527D02*
G01X04918Y-3527D01*
G01X04918Y-3657D02*
G01X04988Y-3657D01*
G01X04820Y-4635D02*
G01X04820Y-4590D01*
G01X04820Y-4720D02*
G01X04820Y-4675D01*
G01X04890Y-4590D02*
G01X04890Y-4635D01*
G01X04890Y-4720D02*
G01X04890Y-4675D01*
G01X04890Y-4590D02*
G01X04820Y-4590D01*
G01X04820Y-4720D02*
G01X04890Y-4720D01*
G01X04920Y-4635D02*
G01X04920Y-4590D01*
G01X04920Y-4720D02*
G01X04920Y-4675D01*
G01X04990Y-4590D02*
G01X04990Y-4635D01*
G01X04990Y-4720D02*
G01X04990Y-4675D01*
G01X04990Y-4590D02*
G01X04920Y-4590D01*
G01X04920Y-4720D02*
G01X04990Y-4720D01*
G01X06728Y-4922D02*
G01X06728Y-4967D01*
G01X06728Y-4837D02*
G01X06728Y-4882D01*
G01X06658Y-4967D02*
G01X06658Y-4922D01*
G01X06658Y-4837D02*
G01X06658Y-4882D01*
G01X06658Y-4967D02*
G01X06728Y-4967D01*
G01X06728Y-4837D02*
G01X06658Y-4837D01*
G01X06588Y-4752D02*
G01X06588Y-4707D01*
G01X06588Y-4837D02*
G01X06588Y-4792D01*
G01X06658Y-4707D02*
G01X06658Y-4752D01*
G01X06658Y-4837D02*
G01X06658Y-4792D01*
G01X06658Y-4707D02*
G01X06588Y-4707D01*
G01X06588Y-4837D02*
G01X06658Y-4837D01*
G01X05545Y-4987D02*
G01X05500Y-4987D01*
G01X05630Y-4987D02*
G01X05585Y-4987D01*
G01X05500Y-4917D02*
G01X05545Y-4917D01*
G01X05630Y-4917D02*
G01X05585Y-4917D01*
G01X05500Y-4917D02*
G01X05500Y-4987D01*
G01X05630Y-4987D02*
G01X05630Y-4917D01*
G01X05715Y-4917D02*
G01X05760Y-4917D01*
G01X05630Y-4917D02*
G01X05675Y-4917D01*
G01X05760Y-4987D02*
G01X05715Y-4987D01*
G01X05630Y-4987D02*
G01X05675Y-4987D01*
G01X05760Y-4987D02*
G01X05760Y-4917D01*
G01X05630Y-4917D02*
G01X05630Y-4987D01*
G01X05830Y-4937D02*
G01X05830Y-4982D01*
G01X05830Y-4852D02*
G01X05830Y-4897D01*
G01X05760Y-4982D02*
G01X05760Y-4937D01*
G01X05760Y-4852D02*
G01X05760Y-4897D01*
G01X05760Y-4982D02*
G01X05830Y-4982D01*
G01X05830Y-4852D02*
G01X05760Y-4852D01*
G01X06588Y-4882D02*
G01X06588Y-4837D01*
G01X06588Y-4967D02*
G01X06588Y-4922D01*
G01X06658Y-4837D02*
G01X06658Y-4882D01*
G01X06658Y-4967D02*
G01X06658Y-4922D01*
G01X06658Y-4837D02*
G01X06588Y-4837D01*
G01X06588Y-4967D02*
G01X06658Y-4967D01*
G01X05703Y-4682D02*
G01X05703Y-4637D01*
G01X05703Y-4767D02*
G01X05703Y-4722D01*
G01X05773Y-4637D02*
G01X05773Y-4682D01*
G01X05773Y-4767D02*
G01X05773Y-4722D01*
G01X05773Y-4637D02*
G01X05703Y-4637D01*
G01X05703Y-4767D02*
G01X05773Y-4767D01*
G01X05335Y-4682D02*
G01X05335Y-4637D01*
G01X05335Y-4767D02*
G01X05335Y-4722D01*
G01X05405Y-4637D02*
G01X05405Y-4682D01*
G01X05405Y-4767D02*
G01X05405Y-4722D01*
G01X05405Y-4637D02*
G01X05335Y-4637D01*
G01X05335Y-4767D02*
G01X05405Y-4767D01*
G01X05715Y-4847D02*
G01X05760Y-4847D01*
G01X05630Y-4847D02*
G01X05675Y-4847D01*
G01X05760Y-4917D02*
G01X05715Y-4917D01*
G01X05630Y-4917D02*
G01X05675Y-4917D01*
G01X05760Y-4917D02*
G01X05760Y-4847D01*
G01X05630Y-4847D02*
G01X05630Y-4917D01*
G01X05773Y-4682D02*
G01X05773Y-4637D01*
G01X05773Y-4767D02*
G01X05773Y-4722D01*
G01X05843Y-4637D02*
G01X05843Y-4682D01*
G01X05843Y-4767D02*
G01X05843Y-4722D01*
G01X05843Y-4637D02*
G01X05773Y-4637D01*
G01X05773Y-4767D02*
G01X05843Y-4767D01*
G01X05408Y-4682D02*
G01X05408Y-4637D01*
G01X05408Y-4767D02*
G01X05408Y-4722D01*
G01X05478Y-4637D02*
G01X05478Y-4682D01*
G01X05478Y-4767D02*
G01X05478Y-4722D01*
G01X05478Y-4637D02*
G01X05408Y-4637D01*
G01X05408Y-4767D02*
G01X05478Y-4767D01*
G01X05509Y-3535D02*
G01X05508Y-3550D01*
G01X05508Y-3550D02*
G01X05503Y-3565D01*
G01X05503Y-3565D02*
G01X05496Y-3579D01*
G01X05496Y-3579D02*
G01X05486Y-3591D01*
G01X05486Y-3591D02*
G01X05475Y-3600D01*
G01X05475Y-3600D02*
G01X05461Y-3608D01*
G01X05461Y-3608D02*
G01X05446Y-3612D01*
G01X05446Y-3612D02*
G01X05431Y-3614D01*
G01X05431Y-3614D02*
G01X05416Y-3613D01*
G01X05416Y-3613D02*
G01X05401Y-3608D01*
G01X05401Y-3608D02*
G01X05388Y-3601D01*
G01X05388Y-3601D02*
G01X05376Y-3591D01*
G01X05376Y-3591D02*
G01X05366Y-3580D01*
G01X05366Y-3580D02*
G01X05358Y-3566D01*
G01X05358Y-3566D02*
G01X05354Y-3552D01*
G01X05354Y-3552D02*
G01X05352Y-3536D01*
G01X05352Y-3536D02*
G01X05353Y-3521D01*
G01X05353Y-3521D02*
G01X05357Y-3506D01*
G01X05357Y-3506D02*
G01X05364Y-3493D01*
G01X05364Y-3493D02*
G01X05374Y-3481D01*
G01X05374Y-3481D02*
G01X05386Y-3471D01*
G01X05386Y-3471D02*
G01X05399Y-3463D01*
G01X05399Y-3463D02*
G01X05414Y-3458D01*
G01X05414Y-3458D02*
G01X05429Y-3457D01*
G01X05429Y-3457D02*
G01X05444Y-3458D01*
G01X05444Y-3458D02*
G01X05459Y-3462D01*
G01X05459Y-3462D02*
G01X05473Y-3469D01*
G01X05473Y-3469D02*
G01X05485Y-3478D01*
G01X05485Y-3478D02*
G01X05495Y-3490D01*
G01X05495Y-3490D02*
G01X05502Y-3503D01*
G01X05502Y-3503D02*
G01X05507Y-3518D01*
G01X05507Y-3518D02*
G01X05509Y-3533D01*
G01X05509Y-3533D02*
G01X05509Y-3535D01*
G54D10*
G01X07247Y-2358D02*
G01X07247Y-2386D01*
G01X07247Y-2492D02*
G01X07247Y-2464D01*
G01X07247Y-2358D02*
G01X07241Y-2353D01*
G01X07241Y-2353D02*
G01X07234Y-2348D01*
G01X07234Y-2348D02*
G01X07227Y-2343D01*
G01X07227Y-2343D02*
G01X07220Y-2339D01*
G01X07220Y-2339D02*
G01X07212Y-2336D01*
G01X07212Y-2336D02*
G01X07204Y-2334D01*
G01X07204Y-2334D02*
G01X07196Y-2332D01*
G01X07196Y-2332D02*
G01X07188Y-2331D01*
G01X07188Y-2331D02*
G01X07180Y-2330D01*
G01X07180Y-2330D02*
G01X07172Y-2331D01*
G01X07172Y-2331D02*
G01X07164Y-2332D01*
G01X07164Y-2332D02*
G01X07156Y-2334D01*
G01X07156Y-2334D02*
G01X07148Y-2336D01*
G01X07148Y-2336D02*
G01X07140Y-2339D01*
G01X07140Y-2339D02*
G01X07133Y-2343D01*
G01X07133Y-2343D02*
G01X07126Y-2348D01*
G01X07126Y-2348D02*
G01X07119Y-2353D01*
G01X07119Y-2353D02*
G01X07113Y-2358D01*
G01X07113Y-2358D02*
G01X07108Y-2364D01*
G01X07108Y-2364D02*
G01X07103Y-2371D01*
G01X07103Y-2371D02*
G01X07098Y-2378D01*
G01X07098Y-2378D02*
G01X07094Y-2385D01*
G01X07094Y-2385D02*
G01X07091Y-2393D01*
G01X07091Y-2393D02*
G01X07089Y-2401D01*
G01X07089Y-2401D02*
G01X07087Y-2409D01*
G01X07087Y-2409D02*
G01X07086Y-2417D01*
G01X07086Y-2417D02*
G01X07085Y-2425D01*
G01X07085Y-2425D02*
G01X07086Y-2433D01*
G01X07086Y-2433D02*
G01X07087Y-2441D01*
G01X07087Y-2441D02*
G01X07089Y-2449D01*
G01X07089Y-2449D02*
G01X07091Y-2457D01*
G01X07091Y-2457D02*
G01X07094Y-2465D01*
G01X07094Y-2465D02*
G01X07098Y-2472D01*
G01X07098Y-2472D02*
G01X07103Y-2479D01*
G01X07103Y-2479D02*
G01X07108Y-2486D01*
G01X07108Y-2486D02*
G01X07113Y-2492D01*
G01X07113Y-2492D02*
G01X07119Y-2497D01*
G01X07119Y-2497D02*
G01X07126Y-2502D01*
G01X07126Y-2502D02*
G01X07133Y-2507D01*
G01X07133Y-2507D02*
G01X07140Y-2511D01*
G01X07140Y-2511D02*
G01X07148Y-2514D01*
G01X07148Y-2514D02*
G01X07156Y-2516D01*
G01X07156Y-2516D02*
G01X07164Y-2518D01*
G01X07164Y-2518D02*
G01X07172Y-2519D01*
G01X07172Y-2519D02*
G01X07180Y-2520D01*
G01X07180Y-2520D02*
G01X07188Y-2519D01*
G01X07188Y-2519D02*
G01X07196Y-2518D01*
G01X07196Y-2518D02*
G01X07204Y-2516D01*
G01X07204Y-2516D02*
G01X07212Y-2514D01*
G01X07212Y-2514D02*
G01X07220Y-2511D01*
G01X07220Y-2511D02*
G01X07227Y-2507D01*
G01X07227Y-2507D02*
G01X07234Y-2502D01*
G01X07234Y-2502D02*
G01X07241Y-2497D01*
G01X07241Y-2497D02*
G01X07247Y-2492D01*
G01X07469Y-2358D02*
G01X07469Y-2386D01*
G01X07469Y-2492D02*
G01X07469Y-2464D01*
G01X07469Y-2358D02*
G01X07463Y-2353D01*
G01X07463Y-2353D02*
G01X07457Y-2348D01*
G01X07457Y-2348D02*
G01X07450Y-2343D01*
G01X07450Y-2343D02*
G01X07442Y-2339D01*
G01X07442Y-2339D02*
G01X07435Y-2336D01*
G01X07435Y-2336D02*
G01X07427Y-2334D01*
G01X07427Y-2334D02*
G01X07419Y-2332D01*
G01X07419Y-2332D02*
G01X07411Y-2331D01*
G01X07411Y-2331D02*
G01X07403Y-2330D01*
G01X07403Y-2330D02*
G01X07394Y-2331D01*
G01X07394Y-2331D02*
G01X07386Y-2332D01*
G01X07386Y-2332D02*
G01X07378Y-2334D01*
G01X07378Y-2334D02*
G01X07370Y-2336D01*
G01X07370Y-2336D02*
G01X07363Y-2339D01*
G01X07363Y-2339D02*
G01X07355Y-2343D01*
G01X07355Y-2343D02*
G01X07348Y-2348D01*
G01X07348Y-2348D02*
G01X07342Y-2353D01*
G01X07342Y-2353D02*
G01X07336Y-2358D01*
G01X07336Y-2358D02*
G01X07330Y-2364D01*
G01X07330Y-2364D02*
G01X07325Y-2371D01*
G01X07325Y-2371D02*
G01X07321Y-2378D01*
G01X07321Y-2378D02*
G01X07317Y-2385D01*
G01X07317Y-2385D02*
G01X07314Y-2393D01*
G01X07314Y-2393D02*
G01X07311Y-2401D01*
G01X07311Y-2401D02*
G01X07309Y-2409D01*
G01X07309Y-2409D02*
G01X07308Y-2417D01*
G01X07308Y-2417D02*
G01X07308Y-2425D01*
G01X07308Y-2425D02*
G01X07308Y-2433D01*
G01X07308Y-2433D02*
G01X07309Y-2441D01*
G01X07309Y-2441D02*
G01X07311Y-2449D01*
G01X07311Y-2449D02*
G01X07314Y-2457D01*
G01X07314Y-2457D02*
G01X07317Y-2465D01*
G01X07317Y-2465D02*
G01X07321Y-2472D01*
G01X07321Y-2472D02*
G01X07325Y-2479D01*
G01X07325Y-2479D02*
G01X07330Y-2486D01*
G01X07330Y-2486D02*
G01X07336Y-2492D01*
G01X07336Y-2492D02*
G01X07342Y-2497D01*
G01X07342Y-2497D02*
G01X07348Y-2502D01*
G01X07348Y-2502D02*
G01X07355Y-2507D01*
G01X07355Y-2507D02*
G01X07363Y-2511D01*
G01X07363Y-2511D02*
G01X07370Y-2514D01*
G01X07370Y-2514D02*
G01X07378Y-2516D01*
G01X07378Y-2516D02*
G01X07386Y-2518D01*
G01X07386Y-2518D02*
G01X07394Y-2519D01*
G01X07394Y-2519D02*
G01X07403Y-2520D01*
G01X07403Y-2520D02*
G01X07411Y-2519D01*
G01X07411Y-2519D02*
G01X07419Y-2518D01*
G01X07419Y-2518D02*
G01X07427Y-2516D01*
G01X07427Y-2516D02*
G01X07435Y-2514D01*
G01X07435Y-2514D02*
G01X07442Y-2511D01*
G01X07442Y-2511D02*
G01X07450Y-2507D01*
G01X07450Y-2507D02*
G01X07457Y-2502D01*
G01X07457Y-2502D02*
G01X07463Y-2497D01*
G01X07463Y-2497D02*
G01X07469Y-2492D01*
G01X07024Y-2358D02*
G01X07024Y-2386D01*
G01X07024Y-2492D02*
G01X07024Y-2464D01*
G01X07024Y-2358D02*
G01X07018Y-2353D01*
G01X07018Y-2353D02*
G01X07012Y-2348D01*
G01X07012Y-2348D02*
G01X07005Y-2343D01*
G01X07005Y-2343D02*
G01X06997Y-2339D01*
G01X06997Y-2339D02*
G01X06990Y-2336D01*
G01X06990Y-2336D02*
G01X06982Y-2334D01*
G01X06982Y-2334D02*
G01X06974Y-2332D01*
G01X06974Y-2332D02*
G01X06966Y-2331D01*
G01X06966Y-2331D02*
G01X06958Y-2330D01*
G01X06958Y-2330D02*
G01X06949Y-2331D01*
G01X06949Y-2331D02*
G01X06941Y-2332D01*
G01X06941Y-2332D02*
G01X06933Y-2334D01*
G01X06933Y-2334D02*
G01X06925Y-2336D01*
G01X06925Y-2336D02*
G01X06918Y-2339D01*
G01X06918Y-2339D02*
G01X06910Y-2343D01*
G01X06910Y-2343D02*
G01X06903Y-2348D01*
G01X06903Y-2348D02*
G01X06897Y-2353D01*
G01X06897Y-2353D02*
G01X06891Y-2358D01*
G01X06891Y-2358D02*
G01X06885Y-2364D01*
G01X06885Y-2364D02*
G01X06880Y-2371D01*
G01X06880Y-2371D02*
G01X06876Y-2378D01*
G01X06876Y-2378D02*
G01X06872Y-2385D01*
G01X06872Y-2385D02*
G01X06869Y-2393D01*
G01X06869Y-2393D02*
G01X06866Y-2401D01*
G01X06866Y-2401D02*
G01X06864Y-2409D01*
G01X06864Y-2409D02*
G01X06863Y-2417D01*
G01X06863Y-2417D02*
G01X06863Y-2425D01*
G01X06863Y-2425D02*
G01X06863Y-2433D01*
G01X06863Y-2433D02*
G01X06864Y-2441D01*
G01X06864Y-2441D02*
G01X06866Y-2449D01*
G01X06866Y-2449D02*
G01X06869Y-2457D01*
G01X06869Y-2457D02*
G01X06872Y-2465D01*
G01X06872Y-2465D02*
G01X06876Y-2472D01*
G01X06876Y-2472D02*
G01X06880Y-2479D01*
G01X06880Y-2479D02*
G01X06885Y-2486D01*
G01X06885Y-2486D02*
G01X06891Y-2492D01*
G01X06891Y-2492D02*
G01X06897Y-2497D01*
G01X06897Y-2497D02*
G01X06903Y-2502D01*
G01X06903Y-2502D02*
G01X06910Y-2507D01*
G01X06910Y-2507D02*
G01X06918Y-2511D01*
G01X06918Y-2511D02*
G01X06925Y-2514D01*
G01X06925Y-2514D02*
G01X06933Y-2516D01*
G01X06933Y-2516D02*
G01X06941Y-2518D01*
G01X06941Y-2518D02*
G01X06949Y-2519D01*
G01X06949Y-2519D02*
G01X06958Y-2520D01*
G01X06958Y-2520D02*
G01X06966Y-2519D01*
G01X06966Y-2519D02*
G01X06974Y-2518D01*
G01X06974Y-2518D02*
G01X06982Y-2516D01*
G01X06982Y-2516D02*
G01X06990Y-2514D01*
G01X06990Y-2514D02*
G01X06997Y-2511D01*
G01X06997Y-2511D02*
G01X07005Y-2507D01*
G01X07005Y-2507D02*
G01X07012Y-2502D01*
G01X07012Y-2502D02*
G01X07018Y-2497D01*
G01X07018Y-2497D02*
G01X07024Y-2492D01*
G54D11*
G01X06543Y-3180D02*
G01X06588Y-3180D01*
G01X06458Y-3180D02*
G01X06503Y-3180D01*
G01X06588Y-3250D02*
G01X06543Y-3250D01*
G01X06458Y-3250D02*
G01X06503Y-3250D01*
G01X06588Y-3250D02*
G01X06588Y-3180D01*
G01X06458Y-3180D02*
G01X06458Y-3250D01*
G54D13*
G01X04836Y-2396D02*
G01X04836Y-2419D01*
G01X04836Y-2419D02*
G01X04838Y-2423D01*
G01X04838Y-2423D02*
G01X04841Y-2426D01*
G01X04841Y-2426D02*
G01X04845Y-2428D01*
G01X04845Y-2428D02*
G01X04848Y-2428D01*
G01X04807Y-2407D02*
G01X04807Y-2428D01*
G01X04815Y-2394D02*
G01X04822Y-2417D01*
G01X04822Y-2417D02*
G01X04803Y-2417D01*
G01X04792Y-2399D02*
G01X04790Y-2397D01*
G01X04790Y-2397D02*
G01X04787Y-2396D01*
G01X04787Y-2396D02*
G01X04780Y-2396D01*
G01X04780Y-2396D02*
G01X04777Y-2397D01*
G01X04777Y-2397D02*
G01X04775Y-2399D01*
G01X04775Y-2399D02*
G01X04774Y-2402D01*
G01X04774Y-2402D02*
G01X04774Y-2405D01*
G01X04774Y-2405D02*
G01X04775Y-2410D01*
G01X04775Y-2410D02*
G01X04793Y-2428D01*
G01X04793Y-2428D02*
G01X04774Y-2428D01*
G01X04743Y-2428D02*
G01X04761Y-2428D01*
G01X04752Y-2428D02*
G01X04752Y-2396D01*
G01X04752Y-2396D02*
G01X04755Y-2400D01*
G01X04755Y-2400D02*
G01X04758Y-2404D01*
G01X04758Y-2404D02*
G01X04761Y-2405D01*
G01X04226Y-4041D02*
G01X04221Y-4043D01*
G01X04221Y-4043D02*
G01X04220Y-4044D01*
G01X04220Y-4044D02*
G01X04218Y-4047D01*
G01X04218Y-4047D02*
G01X04218Y-4052D01*
G01X04218Y-4052D02*
G01X04220Y-4055D01*
G01X04220Y-4055D02*
G01X04221Y-4056D01*
G01X04221Y-4056D02*
G01X04224Y-4058D01*
G01X04224Y-4058D02*
G01X04236Y-4058D01*
G01X04236Y-4058D02*
G01X04236Y-4026D01*
G01X04236Y-4026D02*
G01X04226Y-4026D01*
G01X04226Y-4026D02*
G01X04223Y-4027D01*
G01X04223Y-4027D02*
G01X04221Y-4029D01*
G01X04221Y-4029D02*
G01X04220Y-4032D01*
G01X04220Y-4032D02*
G01X04220Y-4035D01*
G01X04220Y-4035D02*
G01X04221Y-4038D01*
G01X04221Y-4038D02*
G01X04223Y-4040D01*
G01X04223Y-4040D02*
G01X04226Y-4041D01*
G01X04226Y-4041D02*
G01X04236Y-4041D01*
G01X04209Y-4026D02*
G01X04191Y-4026D01*
G01X04200Y-4058D02*
G01X04200Y-4026D01*
G01X04183Y-4026D02*
G01X04163Y-4026D01*
G01X04163Y-4026D02*
G01X04174Y-4038D01*
G01X04174Y-4038D02*
G01X04169Y-4038D01*
G01X04169Y-4038D02*
G01X04166Y-4040D01*
G01X04166Y-4040D02*
G01X04165Y-4041D01*
G01X04165Y-4041D02*
G01X04163Y-4044D01*
G01X04163Y-4044D02*
G01X04163Y-4052D01*
G01X04163Y-4052D02*
G01X04165Y-4055D01*
G01X04165Y-4055D02*
G01X04166Y-4056D01*
G01X04166Y-4056D02*
G01X04169Y-4058D01*
G01X04169Y-4058D02*
G01X04178Y-4058D01*
G01X04178Y-4058D02*
G01X04181Y-4056D01*
G01X04181Y-4056D02*
G01X04183Y-4055D01*
G01X04134Y-4026D02*
G01X04149Y-4026D01*
G01X04149Y-4026D02*
G01X04151Y-4041D01*
G01X04151Y-4041D02*
G01X04149Y-4040D01*
G01X04149Y-4040D02*
G01X04146Y-4038D01*
G01X04146Y-4038D02*
G01X04139Y-4038D01*
G01X04139Y-4038D02*
G01X04136Y-4040D01*
G01X04136Y-4040D02*
G01X04134Y-4041D01*
G01X04134Y-4041D02*
G01X04133Y-4044D01*
G01X04133Y-4044D02*
G01X04133Y-4052D01*
G01X04133Y-4052D02*
G01X04134Y-4055D01*
G01X04134Y-4055D02*
G01X04136Y-4056D01*
G01X04136Y-4056D02*
G01X04139Y-4058D01*
G01X04139Y-4058D02*
G01X04146Y-4058D01*
G01X04146Y-4058D02*
G01X04149Y-4056D01*
G01X04149Y-4056D02*
G01X04151Y-4055D01*
G01X04102Y-4058D02*
G01X04120Y-4058D01*
G01X04111Y-4058D02*
G01X04111Y-4026D01*
G01X04111Y-4026D02*
G01X04114Y-4030D01*
G01X04114Y-4030D02*
G01X04117Y-4034D01*
G01X04117Y-4034D02*
G01X04120Y-4035D01*
G01X05823Y-3437D02*
G01X05825Y-3439D01*
G01X05825Y-3439D02*
G01X05829Y-3440D01*
G01X05829Y-3440D02*
G01X05832Y-3440D01*
G01X05832Y-3440D02*
G01X05837Y-3439D01*
G01X05837Y-3439D02*
G01X05840Y-3436D01*
G01X05840Y-3436D02*
G01X05842Y-3433D01*
G01X05842Y-3433D02*
G01X05843Y-3427D01*
G01X05843Y-3427D02*
G01X05843Y-3422D01*
G01X05843Y-3422D02*
G01X05842Y-3416D01*
G01X05842Y-3416D02*
G01X05840Y-3413D01*
G01X05840Y-3413D02*
G01X05837Y-3410D01*
G01X05837Y-3410D02*
G01X05832Y-3408D01*
G01X05832Y-3408D02*
G01X05829Y-3408D01*
G01X05829Y-3408D02*
G01X05825Y-3410D01*
G01X05825Y-3410D02*
G01X05823Y-3411D01*
G01X05796Y-3419D02*
G01X05796Y-3440D01*
G01X05804Y-3407D02*
G01X05811Y-3430D01*
G01X05811Y-3430D02*
G01X05791Y-3430D01*
G01X05762Y-3440D02*
G01X05781Y-3440D01*
G01X05772Y-3440D02*
G01X05772Y-3408D01*
G01X05772Y-3408D02*
G01X05775Y-3413D01*
G01X05775Y-3413D02*
G01X05778Y-3416D01*
G01X05778Y-3416D02*
G01X05781Y-3418D01*
G01X05750Y-3411D02*
G01X05749Y-3410D01*
G01X05749Y-3410D02*
G01X05746Y-3408D01*
G01X05746Y-3408D02*
G01X05738Y-3408D01*
G01X05738Y-3408D02*
G01X05735Y-3410D01*
G01X05735Y-3410D02*
G01X05733Y-3411D01*
G01X05733Y-3411D02*
G01X05732Y-3414D01*
G01X05732Y-3414D02*
G01X05732Y-3418D01*
G01X05732Y-3418D02*
G01X05733Y-3422D01*
G01X05733Y-3422D02*
G01X05752Y-3440D01*
G01X05752Y-3440D02*
G01X05732Y-3440D01*
G01X05253Y-2615D02*
G01X05264Y-2600D01*
G01X05272Y-2615D02*
G01X05272Y-2583D01*
G01X05272Y-2583D02*
G01X05259Y-2583D01*
G01X05259Y-2583D02*
G01X05256Y-2585D01*
G01X05256Y-2585D02*
G01X05255Y-2586D01*
G01X05255Y-2586D02*
G01X05253Y-2589D01*
G01X05253Y-2589D02*
G01X05253Y-2594D01*
G01X05253Y-2594D02*
G01X05255Y-2597D01*
G01X05255Y-2597D02*
G01X05256Y-2599D01*
G01X05256Y-2599D02*
G01X05259Y-2600D01*
G01X05259Y-2600D02*
G01X05272Y-2600D01*
G01X05226Y-2594D02*
G01X05226Y-2615D01*
G01X05234Y-2582D02*
G01X05241Y-2605D01*
G01X05241Y-2605D02*
G01X05221Y-2605D01*
G01X05211Y-2586D02*
G01X05209Y-2585D01*
G01X05209Y-2585D02*
G01X05206Y-2583D01*
G01X05206Y-2583D02*
G01X05198Y-2583D01*
G01X05198Y-2583D02*
G01X05195Y-2585D01*
G01X05195Y-2585D02*
G01X05194Y-2586D01*
G01X05194Y-2586D02*
G01X05192Y-2589D01*
G01X05192Y-2589D02*
G01X05192Y-2593D01*
G01X05192Y-2593D02*
G01X05194Y-2597D01*
G01X05194Y-2597D02*
G01X05212Y-2615D01*
G01X05212Y-2615D02*
G01X05192Y-2615D01*
G01X05182Y-2583D02*
G01X05162Y-2583D01*
G01X05162Y-2583D02*
G01X05173Y-2596D01*
G01X05173Y-2596D02*
G01X05168Y-2596D01*
G01X05168Y-2596D02*
G01X05165Y-2597D01*
G01X05165Y-2597D02*
G01X05163Y-2599D01*
G01X05163Y-2599D02*
G01X05162Y-2602D01*
G01X05162Y-2602D02*
G01X05162Y-2609D01*
G01X05162Y-2609D02*
G01X05163Y-2612D01*
G01X05163Y-2612D02*
G01X05165Y-2614D01*
G01X05165Y-2614D02*
G01X05168Y-2615D01*
G01X05168Y-2615D02*
G01X05177Y-2615D01*
G01X05177Y-2615D02*
G01X05180Y-2614D01*
G01X05180Y-2614D02*
G01X05182Y-2612D01*
G01X07121Y-3392D02*
G01X07122Y-3394D01*
G01X07122Y-3394D02*
G01X07127Y-3395D01*
G01X07127Y-3395D02*
G01X07130Y-3395D01*
G01X07130Y-3395D02*
G01X07135Y-3394D01*
G01X07135Y-3394D02*
G01X07138Y-3391D01*
G01X07138Y-3391D02*
G01X07139Y-3388D01*
G01X07139Y-3388D02*
G01X07141Y-3382D01*
G01X07141Y-3382D02*
G01X07141Y-3377D01*
G01X07141Y-3377D02*
G01X07139Y-3371D01*
G01X07139Y-3371D02*
G01X07138Y-3368D01*
G01X07138Y-3368D02*
G01X07135Y-3365D01*
G01X07135Y-3365D02*
G01X07130Y-3363D01*
G01X07130Y-3363D02*
G01X07127Y-3363D01*
G01X07127Y-3363D02*
G01X07122Y-3365D01*
G01X07122Y-3365D02*
G01X07121Y-3366D01*
G01X07092Y-3363D02*
G01X07107Y-3363D01*
G01X07107Y-3363D02*
G01X07109Y-3379D01*
G01X07109Y-3379D02*
G01X07107Y-3377D01*
G01X07107Y-3377D02*
G01X07104Y-3376D01*
G01X07104Y-3376D02*
G01X07096Y-3376D01*
G01X07096Y-3376D02*
G01X07093Y-3377D01*
G01X07093Y-3377D02*
G01X07092Y-3379D01*
G01X07092Y-3379D02*
G01X07090Y-3382D01*
G01X07090Y-3382D02*
G01X07090Y-3389D01*
G01X07090Y-3389D02*
G01X07092Y-3392D01*
G01X07092Y-3392D02*
G01X07093Y-3394D01*
G01X07093Y-3394D02*
G01X07096Y-3395D01*
G01X07096Y-3395D02*
G01X07104Y-3395D01*
G01X07104Y-3395D02*
G01X07107Y-3394D01*
G01X07107Y-3394D02*
G01X07109Y-3392D01*
G01X07071Y-3363D02*
G01X07067Y-3363D01*
G01X07067Y-3363D02*
G01X07064Y-3365D01*
G01X07064Y-3365D02*
G01X07063Y-3366D01*
G01X07063Y-3366D02*
G01X07061Y-3369D01*
G01X07061Y-3369D02*
G01X07060Y-3376D01*
G01X07060Y-3376D02*
G01X07060Y-3383D01*
G01X07060Y-3383D02*
G01X07061Y-3389D01*
G01X07061Y-3389D02*
G01X07063Y-3392D01*
G01X07063Y-3392D02*
G01X07064Y-3394D01*
G01X07064Y-3394D02*
G01X07067Y-3395D01*
G01X07067Y-3395D02*
G01X07071Y-3395D01*
G01X07071Y-3395D02*
G01X07074Y-3394D01*
G01X07074Y-3394D02*
G01X07075Y-3392D01*
G01X07075Y-3392D02*
G01X07077Y-3389D01*
G01X07077Y-3389D02*
G01X07078Y-3383D01*
G01X07078Y-3383D02*
G01X07078Y-3376D01*
G01X07078Y-3376D02*
G01X07077Y-3369D01*
G01X07077Y-3369D02*
G01X07075Y-3366D01*
G01X07075Y-3366D02*
G01X07074Y-3365D01*
G01X07074Y-3365D02*
G01X07071Y-3363D01*
G01X07048Y-3366D02*
G01X07046Y-3365D01*
G01X07046Y-3365D02*
G01X07043Y-3363D01*
G01X07043Y-3363D02*
G01X07035Y-3363D01*
G01X07035Y-3363D02*
G01X07032Y-3365D01*
G01X07032Y-3365D02*
G01X07031Y-3366D01*
G01X07031Y-3366D02*
G01X07029Y-3369D01*
G01X07029Y-3369D02*
G01X07029Y-3373D01*
G01X07029Y-3373D02*
G01X07031Y-3377D01*
G01X07031Y-3377D02*
G01X07049Y-3395D01*
G01X07049Y-3395D02*
G01X07029Y-3395D01*
G01X07108Y-2957D02*
G01X07110Y-2959D01*
G01X07110Y-2959D02*
G01X07114Y-2960D01*
G01X07114Y-2960D02*
G01X07117Y-2960D01*
G01X07117Y-2960D02*
G01X07122Y-2959D01*
G01X07122Y-2959D02*
G01X07125Y-2956D01*
G01X07125Y-2956D02*
G01X07127Y-2953D01*
G01X07127Y-2953D02*
G01X07128Y-2947D01*
G01X07128Y-2947D02*
G01X07128Y-2942D01*
G01X07128Y-2942D02*
G01X07127Y-2936D01*
G01X07127Y-2936D02*
G01X07125Y-2933D01*
G01X07125Y-2933D02*
G01X07122Y-2930D01*
G01X07122Y-2930D02*
G01X07117Y-2928D01*
G01X07117Y-2928D02*
G01X07114Y-2928D01*
G01X07114Y-2928D02*
G01X07110Y-2930D01*
G01X07110Y-2930D02*
G01X07108Y-2931D01*
G01X07079Y-2928D02*
G01X07095Y-2928D01*
G01X07095Y-2928D02*
G01X07096Y-2944D01*
G01X07096Y-2944D02*
G01X07095Y-2942D01*
G01X07095Y-2942D02*
G01X07092Y-2941D01*
G01X07092Y-2941D02*
G01X07084Y-2941D01*
G01X07084Y-2941D02*
G01X07081Y-2942D01*
G01X07081Y-2942D02*
G01X07079Y-2944D01*
G01X07079Y-2944D02*
G01X07078Y-2947D01*
G01X07078Y-2947D02*
G01X07078Y-2954D01*
G01X07078Y-2954D02*
G01X07079Y-2957D01*
G01X07079Y-2957D02*
G01X07081Y-2959D01*
G01X07081Y-2959D02*
G01X07084Y-2960D01*
G01X07084Y-2960D02*
G01X07092Y-2960D01*
G01X07092Y-2960D02*
G01X07095Y-2959D01*
G01X07095Y-2959D02*
G01X07096Y-2957D01*
G01X07058Y-2928D02*
G01X07055Y-2928D01*
G01X07055Y-2928D02*
G01X07052Y-2930D01*
G01X07052Y-2930D02*
G01X07050Y-2931D01*
G01X07050Y-2931D02*
G01X07049Y-2934D01*
G01X07049Y-2934D02*
G01X07047Y-2941D01*
G01X07047Y-2941D02*
G01X07047Y-2948D01*
G01X07047Y-2948D02*
G01X07049Y-2954D01*
G01X07049Y-2954D02*
G01X07050Y-2957D01*
G01X07050Y-2957D02*
G01X07052Y-2959D01*
G01X07052Y-2959D02*
G01X07055Y-2960D01*
G01X07055Y-2960D02*
G01X07058Y-2960D01*
G01X07058Y-2960D02*
G01X07061Y-2959D01*
G01X07061Y-2959D02*
G01X07063Y-2957D01*
G01X07063Y-2957D02*
G01X07064Y-2954D01*
G01X07064Y-2954D02*
G01X07066Y-2948D01*
G01X07066Y-2948D02*
G01X07066Y-2941D01*
G01X07066Y-2941D02*
G01X07064Y-2934D01*
G01X07064Y-2934D02*
G01X07063Y-2931D01*
G01X07063Y-2931D02*
G01X07061Y-2930D01*
G01X07061Y-2930D02*
G01X07058Y-2928D01*
G01X07017Y-2960D02*
G01X07035Y-2960D01*
G01X07026Y-2960D02*
G01X07026Y-2928D01*
G01X07026Y-2928D02*
G01X07029Y-2933D01*
G01X07029Y-2933D02*
G01X07032Y-2936D01*
G01X07032Y-2936D02*
G01X07035Y-2938D01*
G01X06457Y-4674D02*
G01X06459Y-4673D01*
G01X06459Y-4673D02*
G01X06461Y-4668D01*
G01X06461Y-4668D02*
G01X06461Y-4665D01*
G01X06461Y-4665D02*
G01X06459Y-4660D01*
G01X06459Y-4660D02*
G01X06456Y-4657D01*
G01X06456Y-4657D02*
G01X06453Y-4656D01*
G01X06453Y-4656D02*
G01X06447Y-4654D01*
G01X06447Y-4654D02*
G01X06442Y-4654D01*
G01X06442Y-4654D02*
G01X06436Y-4656D01*
G01X06436Y-4656D02*
G01X06433Y-4657D01*
G01X06433Y-4657D02*
G01X06430Y-4660D01*
G01X06430Y-4660D02*
G01X06429Y-4665D01*
G01X06429Y-4665D02*
G01X06429Y-4668D01*
G01X06429Y-4668D02*
G01X06430Y-4673D01*
G01X06430Y-4673D02*
G01X06432Y-4674D01*
G01X06461Y-4705D02*
G01X06461Y-4686D01*
G01X06461Y-4695D02*
G01X06429Y-4695D01*
G01X06429Y-4695D02*
G01X06433Y-4692D01*
G01X06433Y-4692D02*
G01X06436Y-4689D01*
G01X06436Y-4689D02*
G01X06438Y-4686D01*
G01X06461Y-4735D02*
G01X06461Y-4717D01*
G01X06461Y-4726D02*
G01X06429Y-4726D01*
G01X06429Y-4726D02*
G01X06433Y-4723D01*
G01X06433Y-4723D02*
G01X06436Y-4720D01*
G01X06436Y-4720D02*
G01X06438Y-4717D01*
G01X06429Y-4763D02*
G01X06429Y-4756D01*
G01X06429Y-4756D02*
G01X06430Y-4753D01*
G01X06430Y-4753D02*
G01X06432Y-4752D01*
G01X06432Y-4752D02*
G01X06436Y-4749D01*
G01X06436Y-4749D02*
G01X06442Y-4747D01*
G01X06442Y-4747D02*
G01X06454Y-4747D01*
G01X06454Y-4747D02*
G01X06457Y-4749D01*
G01X06457Y-4749D02*
G01X06459Y-4750D01*
G01X06459Y-4750D02*
G01X06461Y-4753D01*
G01X06461Y-4753D02*
G01X06461Y-4760D01*
G01X06461Y-4760D02*
G01X06459Y-4763D01*
G01X06459Y-4763D02*
G01X06457Y-4764D01*
G01X06457Y-4764D02*
G01X06454Y-4766D01*
G01X06454Y-4766D02*
G01X06447Y-4766D01*
G01X06447Y-4766D02*
G01X06444Y-4764D01*
G01X06444Y-4764D02*
G01X06442Y-4763D01*
G01X06442Y-4763D02*
G01X06441Y-4760D01*
G01X06441Y-4760D02*
G01X06441Y-4753D01*
G01X06441Y-4753D02*
G01X06442Y-4750D01*
G01X06442Y-4750D02*
G01X06444Y-4749D01*
G01X06444Y-4749D02*
G01X06447Y-4747D01*
G01X05955Y-4667D02*
G01X05956Y-4665D01*
G01X05956Y-4665D02*
G01X05958Y-4661D01*
G01X05958Y-4661D02*
G01X05958Y-4658D01*
G01X05958Y-4658D02*
G01X05956Y-4653D01*
G01X05956Y-4653D02*
G01X05953Y-4650D01*
G01X05953Y-4650D02*
G01X05950Y-4648D01*
G01X05950Y-4648D02*
G01X05944Y-4647D01*
G01X05944Y-4647D02*
G01X05940Y-4647D01*
G01X05940Y-4647D02*
G01X05934Y-4648D01*
G01X05934Y-4648D02*
G01X05931Y-4650D01*
G01X05931Y-4650D02*
G01X05928Y-4653D01*
G01X05928Y-4653D02*
G01X05926Y-4658D01*
G01X05926Y-4658D02*
G01X05926Y-4661D01*
G01X05926Y-4661D02*
G01X05928Y-4665D01*
G01X05928Y-4665D02*
G01X05929Y-4667D01*
G01X05958Y-4697D02*
G01X05958Y-4679D01*
G01X05958Y-4688D02*
G01X05926Y-4688D01*
G01X05926Y-4688D02*
G01X05931Y-4685D01*
G01X05931Y-4685D02*
G01X05934Y-4682D01*
G01X05934Y-4682D02*
G01X05935Y-4679D01*
G01X05958Y-4728D02*
G01X05958Y-4709D01*
G01X05958Y-4718D02*
G01X05926Y-4718D01*
G01X05926Y-4718D02*
G01X05931Y-4715D01*
G01X05931Y-4715D02*
G01X05934Y-4712D01*
G01X05934Y-4712D02*
G01X05935Y-4709D01*
G01X05926Y-4757D02*
G01X05926Y-4741D01*
G01X05926Y-4741D02*
G01X05941Y-4740D01*
G01X05941Y-4740D02*
G01X05940Y-4741D01*
G01X05940Y-4741D02*
G01X05938Y-4744D01*
G01X05938Y-4744D02*
G01X05938Y-4752D01*
G01X05938Y-4752D02*
G01X05940Y-4755D01*
G01X05940Y-4755D02*
G01X05941Y-4757D01*
G01X05941Y-4757D02*
G01X05944Y-4758D01*
G01X05944Y-4758D02*
G01X05952Y-4758D01*
G01X05952Y-4758D02*
G01X05955Y-4757D01*
G01X05955Y-4757D02*
G01X05956Y-4755D01*
G01X05956Y-4755D02*
G01X05958Y-4752D01*
G01X05958Y-4752D02*
G01X05958Y-4744D01*
G01X05958Y-4744D02*
G01X05956Y-4741D01*
G01X05956Y-4741D02*
G01X05955Y-4740D01*
G01X05307Y-4802D02*
G01X05309Y-4800D01*
G01X05309Y-4800D02*
G01X05311Y-4796D01*
G01X05311Y-4796D02*
G01X05311Y-4793D01*
G01X05311Y-4793D02*
G01X05309Y-4788D01*
G01X05309Y-4788D02*
G01X05306Y-4785D01*
G01X05306Y-4785D02*
G01X05303Y-4783D01*
G01X05303Y-4783D02*
G01X05297Y-4782D01*
G01X05297Y-4782D02*
G01X05292Y-4782D01*
G01X05292Y-4782D02*
G01X05286Y-4783D01*
G01X05286Y-4783D02*
G01X05283Y-4785D01*
G01X05283Y-4785D02*
G01X05280Y-4788D01*
G01X05280Y-4788D02*
G01X05279Y-4793D01*
G01X05279Y-4793D02*
G01X05279Y-4796D01*
G01X05279Y-4796D02*
G01X05280Y-4800D01*
G01X05280Y-4800D02*
G01X05282Y-4802D01*
G01X05311Y-4832D02*
G01X05311Y-4814D01*
G01X05311Y-4823D02*
G01X05279Y-4823D01*
G01X05279Y-4823D02*
G01X05283Y-4820D01*
G01X05283Y-4820D02*
G01X05286Y-4817D01*
G01X05286Y-4817D02*
G01X05288Y-4814D01*
G01X05311Y-4863D02*
G01X05311Y-4844D01*
G01X05311Y-4853D02*
G01X05279Y-4853D01*
G01X05279Y-4853D02*
G01X05283Y-4850D01*
G01X05283Y-4850D02*
G01X05286Y-4847D01*
G01X05286Y-4847D02*
G01X05288Y-4844D01*
G01X05289Y-4890D02*
G01X05311Y-4890D01*
G01X05277Y-4882D02*
G01X05300Y-4875D01*
G01X05300Y-4875D02*
G01X05300Y-4895D01*
G01X06457Y-4224D02*
G01X06459Y-4223D01*
G01X06459Y-4223D02*
G01X06461Y-4218D01*
G01X06461Y-4218D02*
G01X06461Y-4215D01*
G01X06461Y-4215D02*
G01X06459Y-4210D01*
G01X06459Y-4210D02*
G01X06456Y-4207D01*
G01X06456Y-4207D02*
G01X06453Y-4206D01*
G01X06453Y-4206D02*
G01X06447Y-4204D01*
G01X06447Y-4204D02*
G01X06442Y-4204D01*
G01X06442Y-4204D02*
G01X06436Y-4206D01*
G01X06436Y-4206D02*
G01X06433Y-4207D01*
G01X06433Y-4207D02*
G01X06430Y-4210D01*
G01X06430Y-4210D02*
G01X06429Y-4215D01*
G01X06429Y-4215D02*
G01X06429Y-4218D01*
G01X06429Y-4218D02*
G01X06430Y-4223D01*
G01X06430Y-4223D02*
G01X06432Y-4224D01*
G01X06461Y-4255D02*
G01X06461Y-4236D01*
G01X06461Y-4245D02*
G01X06429Y-4245D01*
G01X06429Y-4245D02*
G01X06433Y-4242D01*
G01X06433Y-4242D02*
G01X06436Y-4239D01*
G01X06436Y-4239D02*
G01X06438Y-4236D01*
G01X06429Y-4274D02*
G01X06429Y-4278D01*
G01X06429Y-4278D02*
G01X06430Y-4281D01*
G01X06430Y-4281D02*
G01X06432Y-4282D01*
G01X06432Y-4282D02*
G01X06435Y-4284D01*
G01X06435Y-4284D02*
G01X06441Y-4285D01*
G01X06441Y-4285D02*
G01X06448Y-4285D01*
G01X06448Y-4285D02*
G01X06454Y-4284D01*
G01X06454Y-4284D02*
G01X06457Y-4282D01*
G01X06457Y-4282D02*
G01X06459Y-4281D01*
G01X06459Y-4281D02*
G01X06461Y-4278D01*
G01X06461Y-4278D02*
G01X06461Y-4274D01*
G01X06461Y-4274D02*
G01X06459Y-4271D01*
G01X06459Y-4271D02*
G01X06457Y-4270D01*
G01X06457Y-4270D02*
G01X06454Y-4268D01*
G01X06454Y-4268D02*
G01X06448Y-4267D01*
G01X06448Y-4267D02*
G01X06441Y-4267D01*
G01X06441Y-4267D02*
G01X06435Y-4268D01*
G01X06435Y-4268D02*
G01X06432Y-4270D01*
G01X06432Y-4270D02*
G01X06430Y-4271D01*
G01X06430Y-4271D02*
G01X06429Y-4274D01*
G01X06429Y-4296D02*
G01X06429Y-4316D01*
G01X06429Y-4316D02*
G01X06441Y-4305D01*
G01X06441Y-4305D02*
G01X06441Y-4310D01*
G01X06441Y-4310D02*
G01X06442Y-4313D01*
G01X06442Y-4313D02*
G01X06444Y-4314D01*
G01X06444Y-4314D02*
G01X06447Y-4316D01*
G01X06447Y-4316D02*
G01X06454Y-4316D01*
G01X06454Y-4316D02*
G01X06457Y-4314D01*
G01X06457Y-4314D02*
G01X06459Y-4313D01*
G01X06459Y-4313D02*
G01X06461Y-4310D01*
G01X06461Y-4310D02*
G01X06461Y-4300D01*
G01X06461Y-4300D02*
G01X06459Y-4297D01*
G01X06459Y-4297D02*
G01X06457Y-4296D01*
G01X05887Y-4349D02*
G01X05889Y-4348D01*
G01X05889Y-4348D02*
G01X05891Y-4343D01*
G01X05891Y-4343D02*
G01X05891Y-4340D01*
G01X05891Y-4340D02*
G01X05889Y-4335D01*
G01X05889Y-4335D02*
G01X05886Y-4332D01*
G01X05886Y-4332D02*
G01X05883Y-4331D01*
G01X05883Y-4331D02*
G01X05877Y-4329D01*
G01X05877Y-4329D02*
G01X05872Y-4329D01*
G01X05872Y-4329D02*
G01X05866Y-4331D01*
G01X05866Y-4331D02*
G01X05863Y-4332D01*
G01X05863Y-4332D02*
G01X05860Y-4335D01*
G01X05860Y-4335D02*
G01X05859Y-4340D01*
G01X05859Y-4340D02*
G01X05859Y-4343D01*
G01X05859Y-4343D02*
G01X05860Y-4348D01*
G01X05860Y-4348D02*
G01X05862Y-4349D01*
G01X05891Y-4380D02*
G01X05891Y-4361D01*
G01X05891Y-4370D02*
G01X05859Y-4370D01*
G01X05859Y-4370D02*
G01X05863Y-4367D01*
G01X05863Y-4367D02*
G01X05866Y-4364D01*
G01X05866Y-4364D02*
G01X05868Y-4361D01*
G01X05859Y-4399D02*
G01X05859Y-4403D01*
G01X05859Y-4403D02*
G01X05860Y-4406D01*
G01X05860Y-4406D02*
G01X05862Y-4407D01*
G01X05862Y-4407D02*
G01X05865Y-4409D01*
G01X05865Y-4409D02*
G01X05871Y-4410D01*
G01X05871Y-4410D02*
G01X05878Y-4410D01*
G01X05878Y-4410D02*
G01X05884Y-4409D01*
G01X05884Y-4409D02*
G01X05887Y-4407D01*
G01X05887Y-4407D02*
G01X05889Y-4406D01*
G01X05889Y-4406D02*
G01X05891Y-4403D01*
G01X05891Y-4403D02*
G01X05891Y-4399D01*
G01X05891Y-4399D02*
G01X05889Y-4396D01*
G01X05889Y-4396D02*
G01X05887Y-4395D01*
G01X05887Y-4395D02*
G01X05884Y-4393D01*
G01X05884Y-4393D02*
G01X05878Y-4392D01*
G01X05878Y-4392D02*
G01X05871Y-4392D01*
G01X05871Y-4392D02*
G01X05865Y-4393D01*
G01X05865Y-4393D02*
G01X05862Y-4395D01*
G01X05862Y-4395D02*
G01X05860Y-4396D01*
G01X05860Y-4396D02*
G01X05859Y-4399D01*
G01X05862Y-4422D02*
G01X05860Y-4424D01*
G01X05860Y-4424D02*
G01X05859Y-4427D01*
G01X05859Y-4427D02*
G01X05859Y-4435D01*
G01X05859Y-4435D02*
G01X05860Y-4438D01*
G01X05860Y-4438D02*
G01X05862Y-4439D01*
G01X05862Y-4439D02*
G01X05865Y-4441D01*
G01X05865Y-4441D02*
G01X05868Y-4441D01*
G01X05868Y-4441D02*
G01X05872Y-4439D01*
G01X05872Y-4439D02*
G01X05891Y-4421D01*
G01X05891Y-4421D02*
G01X05891Y-4441D01*
G01X05310Y-4349D02*
G01X05311Y-4348D01*
G01X05311Y-4348D02*
G01X05313Y-4343D01*
G01X05313Y-4343D02*
G01X05313Y-4340D01*
G01X05313Y-4340D02*
G01X05311Y-4335D01*
G01X05311Y-4335D02*
G01X05308Y-4332D01*
G01X05308Y-4332D02*
G01X05305Y-4331D01*
G01X05305Y-4331D02*
G01X05299Y-4329D01*
G01X05299Y-4329D02*
G01X05295Y-4329D01*
G01X05295Y-4329D02*
G01X05289Y-4331D01*
G01X05289Y-4331D02*
G01X05286Y-4332D01*
G01X05286Y-4332D02*
G01X05283Y-4335D01*
G01X05283Y-4335D02*
G01X05281Y-4340D01*
G01X05281Y-4340D02*
G01X05281Y-4343D01*
G01X05281Y-4343D02*
G01X05283Y-4348D01*
G01X05283Y-4348D02*
G01X05284Y-4349D01*
G01X05313Y-4380D02*
G01X05313Y-4361D01*
G01X05313Y-4370D02*
G01X05281Y-4370D01*
G01X05281Y-4370D02*
G01X05286Y-4367D01*
G01X05286Y-4367D02*
G01X05289Y-4364D01*
G01X05289Y-4364D02*
G01X05290Y-4361D01*
G01X05281Y-4399D02*
G01X05281Y-4403D01*
G01X05281Y-4403D02*
G01X05283Y-4406D01*
G01X05283Y-4406D02*
G01X05284Y-4407D01*
G01X05284Y-4407D02*
G01X05287Y-4409D01*
G01X05287Y-4409D02*
G01X05293Y-4410D01*
G01X05293Y-4410D02*
G01X05301Y-4410D01*
G01X05301Y-4410D02*
G01X05307Y-4409D01*
G01X05307Y-4409D02*
G01X05310Y-4407D01*
G01X05310Y-4407D02*
G01X05311Y-4406D01*
G01X05311Y-4406D02*
G01X05313Y-4403D01*
G01X05313Y-4403D02*
G01X05313Y-4399D01*
G01X05313Y-4399D02*
G01X05311Y-4396D01*
G01X05311Y-4396D02*
G01X05310Y-4395D01*
G01X05310Y-4395D02*
G01X05307Y-4393D01*
G01X05307Y-4393D02*
G01X05301Y-4392D01*
G01X05301Y-4392D02*
G01X05293Y-4392D01*
G01X05293Y-4392D02*
G01X05287Y-4393D01*
G01X05287Y-4393D02*
G01X05284Y-4395D01*
G01X05284Y-4395D02*
G01X05283Y-4396D01*
G01X05283Y-4396D02*
G01X05281Y-4399D01*
G01X05313Y-4441D02*
G01X05313Y-4422D01*
G01X05313Y-4431D02*
G01X05281Y-4431D01*
G01X05281Y-4431D02*
G01X05286Y-4428D01*
G01X05286Y-4428D02*
G01X05289Y-4425D01*
G01X05289Y-4425D02*
G01X05290Y-4422D01*
G01X05130Y-4527D02*
G01X05131Y-4525D01*
G01X05131Y-4525D02*
G01X05133Y-4521D01*
G01X05133Y-4521D02*
G01X05133Y-4518D01*
G01X05133Y-4518D02*
G01X05131Y-4513D01*
G01X05131Y-4513D02*
G01X05128Y-4510D01*
G01X05128Y-4510D02*
G01X05125Y-4508D01*
G01X05125Y-4508D02*
G01X05119Y-4507D01*
G01X05119Y-4507D02*
G01X05115Y-4507D01*
G01X05115Y-4507D02*
G01X05109Y-4508D01*
G01X05109Y-4508D02*
G01X05106Y-4510D01*
G01X05106Y-4510D02*
G01X05103Y-4513D01*
G01X05103Y-4513D02*
G01X05101Y-4518D01*
G01X05101Y-4518D02*
G01X05101Y-4521D01*
G01X05101Y-4521D02*
G01X05103Y-4525D01*
G01X05103Y-4525D02*
G01X05104Y-4527D01*
G01X05101Y-4537D02*
G01X05101Y-4557D01*
G01X05101Y-4557D02*
G01X05113Y-4546D01*
G01X05113Y-4546D02*
G01X05113Y-4551D01*
G01X05113Y-4551D02*
G01X05115Y-4554D01*
G01X05115Y-4554D02*
G01X05116Y-4556D01*
G01X05116Y-4556D02*
G01X05119Y-4557D01*
G01X05119Y-4557D02*
G01X05127Y-4557D01*
G01X05127Y-4557D02*
G01X05130Y-4556D01*
G01X05130Y-4556D02*
G01X05131Y-4554D01*
G01X05131Y-4554D02*
G01X05133Y-4551D01*
G01X05133Y-4551D02*
G01X05133Y-4542D01*
G01X05133Y-4542D02*
G01X05131Y-4539D01*
G01X05131Y-4539D02*
G01X05130Y-4537D01*
G01X05101Y-4568D02*
G01X05101Y-4588D01*
G01X05101Y-4588D02*
G01X05113Y-4577D01*
G01X05113Y-4577D02*
G01X05113Y-4582D01*
G01X05113Y-4582D02*
G01X05115Y-4585D01*
G01X05115Y-4585D02*
G01X05116Y-4586D01*
G01X05116Y-4586D02*
G01X05119Y-4588D01*
G01X05119Y-4588D02*
G01X05127Y-4588D01*
G01X05127Y-4588D02*
G01X05130Y-4586D01*
G01X05130Y-4586D02*
G01X05131Y-4585D01*
G01X05131Y-4585D02*
G01X05133Y-4582D01*
G01X05133Y-4582D02*
G01X05133Y-4572D01*
G01X05133Y-4572D02*
G01X05131Y-4569D01*
G01X05131Y-4569D02*
G01X05130Y-4568D01*
G01X05133Y-4618D02*
G01X05133Y-4600D01*
G01X05133Y-4609D02*
G01X05101Y-4609D01*
G01X05101Y-4609D02*
G01X05106Y-4606D01*
G01X05106Y-4606D02*
G01X05109Y-4603D01*
G01X05109Y-4603D02*
G01X05110Y-4600D01*
G01X06896Y-3320D02*
G01X06897Y-3321D01*
G01X06897Y-3321D02*
G01X06902Y-3323D01*
G01X06902Y-3323D02*
G01X06905Y-3323D01*
G01X06905Y-3323D02*
G01X06910Y-3321D01*
G01X06910Y-3321D02*
G01X06913Y-3318D01*
G01X06913Y-3318D02*
G01X06914Y-3315D01*
G01X06914Y-3315D02*
G01X06916Y-3309D01*
G01X06916Y-3309D02*
G01X06916Y-3305D01*
G01X06916Y-3305D02*
G01X06914Y-3299D01*
G01X06914Y-3299D02*
G01X06913Y-3295D01*
G01X06913Y-3295D02*
G01X06910Y-3292D01*
G01X06910Y-3292D02*
G01X06905Y-3291D01*
G01X06905Y-3291D02*
G01X06902Y-3291D01*
G01X06902Y-3291D02*
G01X06897Y-3292D01*
G01X06897Y-3292D02*
G01X06896Y-3294D01*
G01X06884Y-3294D02*
G01X06882Y-3292D01*
G01X06882Y-3292D02*
G01X06879Y-3291D01*
G01X06879Y-3291D02*
G01X06871Y-3291D01*
G01X06871Y-3291D02*
G01X06868Y-3292D01*
G01X06868Y-3292D02*
G01X06867Y-3294D01*
G01X06867Y-3294D02*
G01X06865Y-3297D01*
G01X06865Y-3297D02*
G01X06865Y-3300D01*
G01X06865Y-3300D02*
G01X06867Y-3305D01*
G01X06867Y-3305D02*
G01X06885Y-3323D01*
G01X06885Y-3323D02*
G01X06865Y-3323D01*
G01X06853Y-3294D02*
G01X06852Y-3292D01*
G01X06852Y-3292D02*
G01X06849Y-3291D01*
G01X06849Y-3291D02*
G01X06841Y-3291D01*
G01X06841Y-3291D02*
G01X06838Y-3292D01*
G01X06838Y-3292D02*
G01X06836Y-3294D01*
G01X06836Y-3294D02*
G01X06835Y-3297D01*
G01X06835Y-3297D02*
G01X06835Y-3300D01*
G01X06835Y-3300D02*
G01X06836Y-3305D01*
G01X06836Y-3305D02*
G01X06855Y-3323D01*
G01X06855Y-3323D02*
G01X06835Y-3323D01*
G01X06823Y-3294D02*
G01X06821Y-3292D01*
G01X06821Y-3292D02*
G01X06818Y-3291D01*
G01X06818Y-3291D02*
G01X06810Y-3291D01*
G01X06810Y-3291D02*
G01X06807Y-3292D01*
G01X06807Y-3292D02*
G01X06806Y-3294D01*
G01X06806Y-3294D02*
G01X06804Y-3297D01*
G01X06804Y-3297D02*
G01X06804Y-3300D01*
G01X06804Y-3300D02*
G01X06806Y-3305D01*
G01X06806Y-3305D02*
G01X06824Y-3323D01*
G01X06824Y-3323D02*
G01X06804Y-3323D01*
G01X06593Y-3490D02*
G01X06595Y-3491D01*
G01X06595Y-3491D02*
G01X06599Y-3493D01*
G01X06599Y-3493D02*
G01X06602Y-3493D01*
G01X06602Y-3493D02*
G01X06607Y-3491D01*
G01X06607Y-3491D02*
G01X06610Y-3488D01*
G01X06610Y-3488D02*
G01X06612Y-3485D01*
G01X06612Y-3485D02*
G01X06613Y-3479D01*
G01X06613Y-3479D02*
G01X06613Y-3475D01*
G01X06613Y-3475D02*
G01X06612Y-3469D01*
G01X06612Y-3469D02*
G01X06610Y-3465D01*
G01X06610Y-3465D02*
G01X06607Y-3462D01*
G01X06607Y-3462D02*
G01X06602Y-3461D01*
G01X06602Y-3461D02*
G01X06599Y-3461D01*
G01X06599Y-3461D02*
G01X06595Y-3462D01*
G01X06595Y-3462D02*
G01X06593Y-3464D01*
G01X06581Y-3464D02*
G01X06580Y-3462D01*
G01X06580Y-3462D02*
G01X06577Y-3461D01*
G01X06577Y-3461D02*
G01X06569Y-3461D01*
G01X06569Y-3461D02*
G01X06566Y-3462D01*
G01X06566Y-3462D02*
G01X06564Y-3464D01*
G01X06564Y-3464D02*
G01X06563Y-3467D01*
G01X06563Y-3467D02*
G01X06563Y-3470D01*
G01X06563Y-3470D02*
G01X06564Y-3475D01*
G01X06564Y-3475D02*
G01X06583Y-3493D01*
G01X06583Y-3493D02*
G01X06563Y-3493D01*
G01X06532Y-3493D02*
G01X06551Y-3493D01*
G01X06542Y-3493D02*
G01X06542Y-3461D01*
G01X06542Y-3461D02*
G01X06545Y-3465D01*
G01X06545Y-3465D02*
G01X06548Y-3469D01*
G01X06548Y-3469D02*
G01X06551Y-3470D01*
G01X06520Y-3464D02*
G01X06519Y-3462D01*
G01X06519Y-3462D02*
G01X06516Y-3461D01*
G01X06516Y-3461D02*
G01X06508Y-3461D01*
G01X06508Y-3461D02*
G01X06505Y-3462D01*
G01X06505Y-3462D02*
G01X06503Y-3464D01*
G01X06503Y-3464D02*
G01X06502Y-3467D01*
G01X06502Y-3467D02*
G01X06502Y-3470D01*
G01X06502Y-3470D02*
G01X06503Y-3475D01*
G01X06503Y-3475D02*
G01X06522Y-3493D01*
G01X06522Y-3493D02*
G01X06502Y-3493D01*
G01X06282Y-4047D02*
G01X06284Y-4045D01*
G01X06284Y-4045D02*
G01X06286Y-4041D01*
G01X06286Y-4041D02*
G01X06286Y-4038D01*
G01X06286Y-4038D02*
G01X06284Y-4033D01*
G01X06284Y-4033D02*
G01X06281Y-4030D01*
G01X06281Y-4030D02*
G01X06278Y-4028D01*
G01X06278Y-4028D02*
G01X06272Y-4027D01*
G01X06272Y-4027D02*
G01X06267Y-4027D01*
G01X06267Y-4027D02*
G01X06261Y-4028D01*
G01X06261Y-4028D02*
G01X06258Y-4030D01*
G01X06258Y-4030D02*
G01X06255Y-4033D01*
G01X06255Y-4033D02*
G01X06254Y-4038D01*
G01X06254Y-4038D02*
G01X06254Y-4041D01*
G01X06254Y-4041D02*
G01X06255Y-4045D01*
G01X06255Y-4045D02*
G01X06257Y-4047D01*
G01X06257Y-4059D02*
G01X06255Y-4060D01*
G01X06255Y-4060D02*
G01X06254Y-4064D01*
G01X06254Y-4064D02*
G01X06254Y-4071D01*
G01X06254Y-4071D02*
G01X06255Y-4074D01*
G01X06255Y-4074D02*
G01X06257Y-4076D01*
G01X06257Y-4076D02*
G01X06260Y-4077D01*
G01X06260Y-4077D02*
G01X06263Y-4077D01*
G01X06263Y-4077D02*
G01X06267Y-4076D01*
G01X06267Y-4076D02*
G01X06286Y-4057D01*
G01X06286Y-4057D02*
G01X06286Y-4077D01*
G01X06286Y-4108D02*
G01X06286Y-4089D01*
G01X06286Y-4098D02*
G01X06254Y-4098D01*
G01X06254Y-4098D02*
G01X06258Y-4096D01*
G01X06258Y-4096D02*
G01X06261Y-4092D01*
G01X06261Y-4092D02*
G01X06263Y-4089D01*
G01X06286Y-4138D02*
G01X06286Y-4120D01*
G01X06286Y-4129D02*
G01X06254Y-4129D01*
G01X06254Y-4129D02*
G01X06258Y-4126D01*
G01X06258Y-4126D02*
G01X06261Y-4123D01*
G01X06261Y-4123D02*
G01X06263Y-4120D01*
G01X05686Y-3537D02*
G01X05687Y-3539D01*
G01X05687Y-3539D02*
G01X05692Y-3540D01*
G01X05692Y-3540D02*
G01X05695Y-3540D01*
G01X05695Y-3540D02*
G01X05700Y-3539D01*
G01X05700Y-3539D02*
G01X05703Y-3536D01*
G01X05703Y-3536D02*
G01X05704Y-3533D01*
G01X05704Y-3533D02*
G01X05706Y-3527D01*
G01X05706Y-3527D02*
G01X05706Y-3522D01*
G01X05706Y-3522D02*
G01X05704Y-3516D01*
G01X05704Y-3516D02*
G01X05703Y-3513D01*
G01X05703Y-3513D02*
G01X05700Y-3510D01*
G01X05700Y-3510D02*
G01X05695Y-3508D01*
G01X05695Y-3508D02*
G01X05692Y-3508D01*
G01X05692Y-3508D02*
G01X05687Y-3510D01*
G01X05687Y-3510D02*
G01X05686Y-3511D01*
G01X05674Y-3511D02*
G01X05672Y-3510D01*
G01X05672Y-3510D02*
G01X05669Y-3508D01*
G01X05669Y-3508D02*
G01X05661Y-3508D01*
G01X05661Y-3508D02*
G01X05658Y-3510D01*
G01X05658Y-3510D02*
G01X05657Y-3511D01*
G01X05657Y-3511D02*
G01X05655Y-3514D01*
G01X05655Y-3514D02*
G01X05655Y-3518D01*
G01X05655Y-3518D02*
G01X05657Y-3522D01*
G01X05657Y-3522D02*
G01X05675Y-3540D01*
G01X05675Y-3540D02*
G01X05655Y-3540D01*
G01X05625Y-3540D02*
G01X05643Y-3540D01*
G01X05634Y-3540D02*
G01X05634Y-3508D01*
G01X05634Y-3508D02*
G01X05637Y-3513D01*
G01X05637Y-3513D02*
G01X05640Y-3516D01*
G01X05640Y-3516D02*
G01X05643Y-3518D01*
G01X05605Y-3508D02*
G01X05602Y-3508D01*
G01X05602Y-3508D02*
G01X05599Y-3510D01*
G01X05599Y-3510D02*
G01X05597Y-3511D01*
G01X05597Y-3511D02*
G01X05596Y-3514D01*
G01X05596Y-3514D02*
G01X05594Y-3521D01*
G01X05594Y-3521D02*
G01X05594Y-3528D01*
G01X05594Y-3528D02*
G01X05596Y-3534D01*
G01X05596Y-3534D02*
G01X05597Y-3537D01*
G01X05597Y-3537D02*
G01X05599Y-3539D01*
G01X05599Y-3539D02*
G01X05602Y-3540D01*
G01X05602Y-3540D02*
G01X05605Y-3540D01*
G01X05605Y-3540D02*
G01X05608Y-3539D01*
G01X05608Y-3539D02*
G01X05610Y-3537D01*
G01X05610Y-3537D02*
G01X05611Y-3534D01*
G01X05611Y-3534D02*
G01X05613Y-3528D01*
G01X05613Y-3528D02*
G01X05613Y-3521D01*
G01X05613Y-3521D02*
G01X05611Y-3514D01*
G01X05611Y-3514D02*
G01X05610Y-3511D01*
G01X05610Y-3511D02*
G01X05608Y-3510D01*
G01X05608Y-3510D02*
G01X05605Y-3508D01*
G01X06010Y-4047D02*
G01X06011Y-4045D01*
G01X06011Y-4045D02*
G01X06013Y-4041D01*
G01X06013Y-4041D02*
G01X06013Y-4038D01*
G01X06013Y-4038D02*
G01X06011Y-4033D01*
G01X06011Y-4033D02*
G01X06008Y-4030D01*
G01X06008Y-4030D02*
G01X06005Y-4028D01*
G01X06005Y-4028D02*
G01X05999Y-4027D01*
G01X05999Y-4027D02*
G01X05995Y-4027D01*
G01X05995Y-4027D02*
G01X05989Y-4028D01*
G01X05989Y-4028D02*
G01X05986Y-4030D01*
G01X05986Y-4030D02*
G01X05983Y-4033D01*
G01X05983Y-4033D02*
G01X05981Y-4038D01*
G01X05981Y-4038D02*
G01X05981Y-4041D01*
G01X05981Y-4041D02*
G01X05983Y-4045D01*
G01X05983Y-4045D02*
G01X05984Y-4047D01*
G01X05984Y-4059D02*
G01X05983Y-4060D01*
G01X05983Y-4060D02*
G01X05981Y-4064D01*
G01X05981Y-4064D02*
G01X05981Y-4071D01*
G01X05981Y-4071D02*
G01X05983Y-4074D01*
G01X05983Y-4074D02*
G01X05984Y-4076D01*
G01X05984Y-4076D02*
G01X05987Y-4077D01*
G01X05987Y-4077D02*
G01X05990Y-4077D01*
G01X05990Y-4077D02*
G01X05995Y-4076D01*
G01X05995Y-4076D02*
G01X06013Y-4057D01*
G01X06013Y-4057D02*
G01X06013Y-4077D01*
G01X05981Y-4097D02*
G01X05981Y-4100D01*
G01X05981Y-4100D02*
G01X05983Y-4103D01*
G01X05983Y-4103D02*
G01X05984Y-4105D01*
G01X05984Y-4105D02*
G01X05987Y-4106D01*
G01X05987Y-4106D02*
G01X05993Y-4108D01*
G01X05993Y-4108D02*
G01X06001Y-4108D01*
G01X06001Y-4108D02*
G01X06007Y-4106D01*
G01X06007Y-4106D02*
G01X06010Y-4105D01*
G01X06010Y-4105D02*
G01X06011Y-4103D01*
G01X06011Y-4103D02*
G01X06013Y-4100D01*
G01X06013Y-4100D02*
G01X06013Y-4097D01*
G01X06013Y-4097D02*
G01X06011Y-4094D01*
G01X06011Y-4094D02*
G01X06010Y-4092D01*
G01X06010Y-4092D02*
G01X06007Y-4091D01*
G01X06007Y-4091D02*
G01X06001Y-4089D01*
G01X06001Y-4089D02*
G01X05993Y-4089D01*
G01X05993Y-4089D02*
G01X05987Y-4091D01*
G01X05987Y-4091D02*
G01X05984Y-4092D01*
G01X05984Y-4092D02*
G01X05983Y-4094D01*
G01X05983Y-4094D02*
G01X05981Y-4097D01*
G01X05995Y-4126D02*
G01X05993Y-4123D01*
G01X05993Y-4123D02*
G01X05992Y-4121D01*
G01X05992Y-4121D02*
G01X05989Y-4120D01*
G01X05989Y-4120D02*
G01X05987Y-4120D01*
G01X05987Y-4120D02*
G01X05984Y-4121D01*
G01X05984Y-4121D02*
G01X05983Y-4123D01*
G01X05983Y-4123D02*
G01X05981Y-4126D01*
G01X05981Y-4126D02*
G01X05981Y-4132D01*
G01X05981Y-4132D02*
G01X05983Y-4135D01*
G01X05983Y-4135D02*
G01X05984Y-4137D01*
G01X05984Y-4137D02*
G01X05987Y-4138D01*
G01X05987Y-4138D02*
G01X05989Y-4138D01*
G01X05989Y-4138D02*
G01X05992Y-4137D01*
G01X05992Y-4137D02*
G01X05993Y-4135D01*
G01X05993Y-4135D02*
G01X05995Y-4132D01*
G01X05995Y-4132D02*
G01X05995Y-4126D01*
G01X05995Y-4126D02*
G01X05996Y-4123D01*
G01X05996Y-4123D02*
G01X05998Y-4121D01*
G01X05998Y-4121D02*
G01X06001Y-4120D01*
G01X06001Y-4120D02*
G01X06007Y-4120D01*
G01X06007Y-4120D02*
G01X06010Y-4121D01*
G01X06010Y-4121D02*
G01X06011Y-4123D01*
G01X06011Y-4123D02*
G01X06013Y-4126D01*
G01X06013Y-4126D02*
G01X06013Y-4132D01*
G01X06013Y-4132D02*
G01X06011Y-4135D01*
G01X06011Y-4135D02*
G01X06010Y-4137D01*
G01X06010Y-4137D02*
G01X06007Y-4138D01*
G01X06007Y-4138D02*
G01X06001Y-4138D01*
G01X06001Y-4138D02*
G01X05998Y-4137D01*
G01X05998Y-4137D02*
G01X05996Y-4135D01*
G01X05996Y-4135D02*
G01X05995Y-4132D01*
G01X06535Y-4047D02*
G01X06536Y-4045D01*
G01X06536Y-4045D02*
G01X06538Y-4041D01*
G01X06538Y-4041D02*
G01X06538Y-4038D01*
G01X06538Y-4038D02*
G01X06536Y-4033D01*
G01X06536Y-4033D02*
G01X06533Y-4030D01*
G01X06533Y-4030D02*
G01X06530Y-4028D01*
G01X06530Y-4028D02*
G01X06524Y-4027D01*
G01X06524Y-4027D02*
G01X06520Y-4027D01*
G01X06520Y-4027D02*
G01X06514Y-4028D01*
G01X06514Y-4028D02*
G01X06511Y-4030D01*
G01X06511Y-4030D02*
G01X06508Y-4033D01*
G01X06508Y-4033D02*
G01X06506Y-4038D01*
G01X06506Y-4038D02*
G01X06506Y-4041D01*
G01X06506Y-4041D02*
G01X06508Y-4045D01*
G01X06508Y-4045D02*
G01X06509Y-4047D01*
G01X06509Y-4059D02*
G01X06508Y-4060D01*
G01X06508Y-4060D02*
G01X06506Y-4064D01*
G01X06506Y-4064D02*
G01X06506Y-4071D01*
G01X06506Y-4071D02*
G01X06508Y-4074D01*
G01X06508Y-4074D02*
G01X06509Y-4076D01*
G01X06509Y-4076D02*
G01X06512Y-4077D01*
G01X06512Y-4077D02*
G01X06515Y-4077D01*
G01X06515Y-4077D02*
G01X06520Y-4076D01*
G01X06520Y-4076D02*
G01X06538Y-4057D01*
G01X06538Y-4057D02*
G01X06538Y-4077D01*
G01X06506Y-4097D02*
G01X06506Y-4100D01*
G01X06506Y-4100D02*
G01X06508Y-4103D01*
G01X06508Y-4103D02*
G01X06509Y-4105D01*
G01X06509Y-4105D02*
G01X06512Y-4106D01*
G01X06512Y-4106D02*
G01X06518Y-4108D01*
G01X06518Y-4108D02*
G01X06526Y-4108D01*
G01X06526Y-4108D02*
G01X06532Y-4106D01*
G01X06532Y-4106D02*
G01X06535Y-4105D01*
G01X06535Y-4105D02*
G01X06536Y-4103D01*
G01X06536Y-4103D02*
G01X06538Y-4100D01*
G01X06538Y-4100D02*
G01X06538Y-4097D01*
G01X06538Y-4097D02*
G01X06536Y-4094D01*
G01X06536Y-4094D02*
G01X06535Y-4092D01*
G01X06535Y-4092D02*
G01X06532Y-4091D01*
G01X06532Y-4091D02*
G01X06526Y-4089D01*
G01X06526Y-4089D02*
G01X06518Y-4089D01*
G01X06518Y-4089D02*
G01X06512Y-4091D01*
G01X06512Y-4091D02*
G01X06509Y-4092D01*
G01X06509Y-4092D02*
G01X06508Y-4094D01*
G01X06508Y-4094D02*
G01X06506Y-4097D01*
G01X06506Y-4118D02*
G01X06506Y-4140D01*
G01X06506Y-4140D02*
G01X06538Y-4126D01*
G01X06593Y-3765D02*
G01X06595Y-3766D01*
G01X06595Y-3766D02*
G01X06599Y-3768D01*
G01X06599Y-3768D02*
G01X06602Y-3768D01*
G01X06602Y-3768D02*
G01X06607Y-3766D01*
G01X06607Y-3766D02*
G01X06610Y-3763D01*
G01X06610Y-3763D02*
G01X06612Y-3760D01*
G01X06612Y-3760D02*
G01X06613Y-3754D01*
G01X06613Y-3754D02*
G01X06613Y-3750D01*
G01X06613Y-3750D02*
G01X06612Y-3744D01*
G01X06612Y-3744D02*
G01X06610Y-3740D01*
G01X06610Y-3740D02*
G01X06607Y-3737D01*
G01X06607Y-3737D02*
G01X06602Y-3736D01*
G01X06602Y-3736D02*
G01X06599Y-3736D01*
G01X06599Y-3736D02*
G01X06595Y-3737D01*
G01X06595Y-3737D02*
G01X06593Y-3739D01*
G01X06581Y-3739D02*
G01X06580Y-3737D01*
G01X06580Y-3737D02*
G01X06577Y-3736D01*
G01X06577Y-3736D02*
G01X06569Y-3736D01*
G01X06569Y-3736D02*
G01X06566Y-3737D01*
G01X06566Y-3737D02*
G01X06564Y-3739D01*
G01X06564Y-3739D02*
G01X06563Y-3742D01*
G01X06563Y-3742D02*
G01X06563Y-3745D01*
G01X06563Y-3745D02*
G01X06564Y-3750D01*
G01X06564Y-3750D02*
G01X06583Y-3768D01*
G01X06583Y-3768D02*
G01X06563Y-3768D01*
G01X06543Y-3736D02*
G01X06540Y-3736D01*
G01X06540Y-3736D02*
G01X06537Y-3737D01*
G01X06537Y-3737D02*
G01X06535Y-3739D01*
G01X06535Y-3739D02*
G01X06534Y-3742D01*
G01X06534Y-3742D02*
G01X06532Y-3748D01*
G01X06532Y-3748D02*
G01X06532Y-3756D01*
G01X06532Y-3756D02*
G01X06534Y-3762D01*
G01X06534Y-3762D02*
G01X06535Y-3765D01*
G01X06535Y-3765D02*
G01X06537Y-3766D01*
G01X06537Y-3766D02*
G01X06540Y-3768D01*
G01X06540Y-3768D02*
G01X06543Y-3768D01*
G01X06543Y-3768D02*
G01X06546Y-3766D01*
G01X06546Y-3766D02*
G01X06548Y-3765D01*
G01X06548Y-3765D02*
G01X06549Y-3762D01*
G01X06549Y-3762D02*
G01X06551Y-3756D01*
G01X06551Y-3756D02*
G01X06551Y-3748D01*
G01X06551Y-3748D02*
G01X06549Y-3742D01*
G01X06549Y-3742D02*
G01X06548Y-3739D01*
G01X06548Y-3739D02*
G01X06546Y-3737D01*
G01X06546Y-3737D02*
G01X06543Y-3736D01*
G01X06505Y-3736D02*
G01X06511Y-3736D01*
G01X06511Y-3736D02*
G01X06514Y-3737D01*
G01X06514Y-3737D02*
G01X06516Y-3739D01*
G01X06516Y-3739D02*
G01X06519Y-3744D01*
G01X06519Y-3744D02*
G01X06520Y-3750D01*
G01X06520Y-3750D02*
G01X06520Y-3762D01*
G01X06520Y-3762D02*
G01X06519Y-3765D01*
G01X06519Y-3765D02*
G01X06517Y-3766D01*
G01X06517Y-3766D02*
G01X06514Y-3768D01*
G01X06514Y-3768D02*
G01X06508Y-3768D01*
G01X06508Y-3768D02*
G01X06505Y-3766D01*
G01X06505Y-3766D02*
G01X06503Y-3765D01*
G01X06503Y-3765D02*
G01X06502Y-3762D01*
G01X06502Y-3762D02*
G01X06502Y-3754D01*
G01X06502Y-3754D02*
G01X06503Y-3751D01*
G01X06503Y-3751D02*
G01X06505Y-3750D01*
G01X06505Y-3750D02*
G01X06508Y-3748D01*
G01X06508Y-3748D02*
G01X06514Y-3748D01*
G01X06514Y-3748D02*
G01X06517Y-3750D01*
G01X06517Y-3750D02*
G01X06519Y-3751D01*
G01X06519Y-3751D02*
G01X06520Y-3754D01*
G01X06681Y-3327D02*
G01X06682Y-3329D01*
G01X06682Y-3329D02*
G01X06687Y-3330D01*
G01X06687Y-3330D02*
G01X06690Y-3330D01*
G01X06690Y-3330D02*
G01X06695Y-3329D01*
G01X06695Y-3329D02*
G01X06698Y-3326D01*
G01X06698Y-3326D02*
G01X06699Y-3323D01*
G01X06699Y-3323D02*
G01X06701Y-3317D01*
G01X06701Y-3317D02*
G01X06701Y-3312D01*
G01X06701Y-3312D02*
G01X06699Y-3306D01*
G01X06699Y-3306D02*
G01X06698Y-3303D01*
G01X06698Y-3303D02*
G01X06695Y-3300D01*
G01X06695Y-3300D02*
G01X06690Y-3298D01*
G01X06690Y-3298D02*
G01X06687Y-3298D01*
G01X06687Y-3298D02*
G01X06682Y-3300D01*
G01X06682Y-3300D02*
G01X06681Y-3301D01*
G01X06669Y-3301D02*
G01X06667Y-3300D01*
G01X06667Y-3300D02*
G01X06664Y-3298D01*
G01X06664Y-3298D02*
G01X06656Y-3298D01*
G01X06656Y-3298D02*
G01X06653Y-3300D01*
G01X06653Y-3300D02*
G01X06652Y-3301D01*
G01X06652Y-3301D02*
G01X06650Y-3304D01*
G01X06650Y-3304D02*
G01X06650Y-3308D01*
G01X06650Y-3308D02*
G01X06652Y-3312D01*
G01X06652Y-3312D02*
G01X06670Y-3330D01*
G01X06670Y-3330D02*
G01X06650Y-3330D01*
G01X06631Y-3298D02*
G01X06627Y-3298D01*
G01X06627Y-3298D02*
G01X06624Y-3300D01*
G01X06624Y-3300D02*
G01X06623Y-3301D01*
G01X06623Y-3301D02*
G01X06621Y-3304D01*
G01X06621Y-3304D02*
G01X06620Y-3311D01*
G01X06620Y-3311D02*
G01X06620Y-3318D01*
G01X06620Y-3318D02*
G01X06621Y-3324D01*
G01X06621Y-3324D02*
G01X06623Y-3327D01*
G01X06623Y-3327D02*
G01X06624Y-3329D01*
G01X06624Y-3329D02*
G01X06627Y-3330D01*
G01X06627Y-3330D02*
G01X06631Y-3330D01*
G01X06631Y-3330D02*
G01X06634Y-3329D01*
G01X06634Y-3329D02*
G01X06635Y-3327D01*
G01X06635Y-3327D02*
G01X06637Y-3324D01*
G01X06637Y-3324D02*
G01X06638Y-3318D01*
G01X06638Y-3318D02*
G01X06638Y-3311D01*
G01X06638Y-3311D02*
G01X06637Y-3304D01*
G01X06637Y-3304D02*
G01X06635Y-3301D01*
G01X06635Y-3301D02*
G01X06634Y-3300D01*
G01X06634Y-3300D02*
G01X06631Y-3298D01*
G01X06591Y-3298D02*
G01X06606Y-3298D01*
G01X06606Y-3298D02*
G01X06608Y-3314D01*
G01X06608Y-3314D02*
G01X06606Y-3312D01*
G01X06606Y-3312D02*
G01X06603Y-3311D01*
G01X06603Y-3311D02*
G01X06595Y-3311D01*
G01X06595Y-3311D02*
G01X06592Y-3312D01*
G01X06592Y-3312D02*
G01X06591Y-3314D01*
G01X06591Y-3314D02*
G01X06589Y-3317D01*
G01X06589Y-3317D02*
G01X06589Y-3324D01*
G01X06589Y-3324D02*
G01X06591Y-3327D01*
G01X06591Y-3327D02*
G01X06592Y-3329D01*
G01X06592Y-3329D02*
G01X06595Y-3330D01*
G01X06595Y-3330D02*
G01X06603Y-3330D01*
G01X06603Y-3330D02*
G01X06606Y-3329D01*
G01X06606Y-3329D02*
G01X06608Y-3327D01*
G01X06565Y-2877D02*
G01X06566Y-2875D01*
G01X06566Y-2875D02*
G01X06568Y-2871D01*
G01X06568Y-2871D02*
G01X06568Y-2868D01*
G01X06568Y-2868D02*
G01X06566Y-2863D01*
G01X06566Y-2863D02*
G01X06563Y-2860D01*
G01X06563Y-2860D02*
G01X06560Y-2858D01*
G01X06560Y-2858D02*
G01X06554Y-2857D01*
G01X06554Y-2857D02*
G01X06550Y-2857D01*
G01X06550Y-2857D02*
G01X06544Y-2858D01*
G01X06544Y-2858D02*
G01X06541Y-2860D01*
G01X06541Y-2860D02*
G01X06538Y-2863D01*
G01X06538Y-2863D02*
G01X06536Y-2868D01*
G01X06536Y-2868D02*
G01X06536Y-2871D01*
G01X06536Y-2871D02*
G01X06538Y-2875D01*
G01X06538Y-2875D02*
G01X06539Y-2877D01*
G01X06539Y-2889D02*
G01X06538Y-2890D01*
G01X06538Y-2890D02*
G01X06536Y-2893D01*
G01X06536Y-2893D02*
G01X06536Y-2901D01*
G01X06536Y-2901D02*
G01X06538Y-2904D01*
G01X06538Y-2904D02*
G01X06539Y-2906D01*
G01X06539Y-2906D02*
G01X06542Y-2907D01*
G01X06542Y-2907D02*
G01X06545Y-2907D01*
G01X06545Y-2907D02*
G01X06550Y-2906D01*
G01X06550Y-2906D02*
G01X06568Y-2887D01*
G01X06568Y-2887D02*
G01X06568Y-2907D01*
G01X06536Y-2927D02*
G01X06536Y-2930D01*
G01X06536Y-2930D02*
G01X06538Y-2933D01*
G01X06538Y-2933D02*
G01X06539Y-2935D01*
G01X06539Y-2935D02*
G01X06542Y-2936D01*
G01X06542Y-2936D02*
G01X06548Y-2938D01*
G01X06548Y-2938D02*
G01X06556Y-2938D01*
G01X06556Y-2938D02*
G01X06562Y-2936D01*
G01X06562Y-2936D02*
G01X06565Y-2935D01*
G01X06565Y-2935D02*
G01X06566Y-2933D01*
G01X06566Y-2933D02*
G01X06568Y-2930D01*
G01X06568Y-2930D02*
G01X06568Y-2927D01*
G01X06568Y-2927D02*
G01X06566Y-2924D01*
G01X06566Y-2924D02*
G01X06565Y-2922D01*
G01X06565Y-2922D02*
G01X06562Y-2921D01*
G01X06562Y-2921D02*
G01X06556Y-2919D01*
G01X06556Y-2919D02*
G01X06548Y-2919D01*
G01X06548Y-2919D02*
G01X06542Y-2921D01*
G01X06542Y-2921D02*
G01X06539Y-2922D01*
G01X06539Y-2922D02*
G01X06538Y-2924D01*
G01X06538Y-2924D02*
G01X06536Y-2927D01*
G01X06547Y-2965D02*
G01X06568Y-2965D01*
G01X06534Y-2957D02*
G01X06557Y-2950D01*
G01X06557Y-2950D02*
G01X06557Y-2970D01*
G01X05691Y-3752D02*
G01X05692Y-3754D01*
G01X05692Y-3754D02*
G01X05697Y-3755D01*
G01X05697Y-3755D02*
G01X05700Y-3755D01*
G01X05700Y-3755D02*
G01X05705Y-3754D01*
G01X05705Y-3754D02*
G01X05708Y-3751D01*
G01X05708Y-3751D02*
G01X05709Y-3748D01*
G01X05709Y-3748D02*
G01X05711Y-3742D01*
G01X05711Y-3742D02*
G01X05711Y-3737D01*
G01X05711Y-3737D02*
G01X05709Y-3731D01*
G01X05709Y-3731D02*
G01X05708Y-3728D01*
G01X05708Y-3728D02*
G01X05705Y-3725D01*
G01X05705Y-3725D02*
G01X05700Y-3723D01*
G01X05700Y-3723D02*
G01X05697Y-3723D01*
G01X05697Y-3723D02*
G01X05692Y-3725D01*
G01X05692Y-3725D02*
G01X05691Y-3726D01*
G01X05679Y-3726D02*
G01X05677Y-3725D01*
G01X05677Y-3725D02*
G01X05674Y-3723D01*
G01X05674Y-3723D02*
G01X05666Y-3723D01*
G01X05666Y-3723D02*
G01X05663Y-3725D01*
G01X05663Y-3725D02*
G01X05662Y-3726D01*
G01X05662Y-3726D02*
G01X05660Y-3729D01*
G01X05660Y-3729D02*
G01X05660Y-3733D01*
G01X05660Y-3733D02*
G01X05662Y-3737D01*
G01X05662Y-3737D02*
G01X05680Y-3755D01*
G01X05680Y-3755D02*
G01X05660Y-3755D01*
G01X05641Y-3723D02*
G01X05637Y-3723D01*
G01X05637Y-3723D02*
G01X05634Y-3725D01*
G01X05634Y-3725D02*
G01X05633Y-3726D01*
G01X05633Y-3726D02*
G01X05631Y-3729D01*
G01X05631Y-3729D02*
G01X05630Y-3736D01*
G01X05630Y-3736D02*
G01X05630Y-3743D01*
G01X05630Y-3743D02*
G01X05631Y-3749D01*
G01X05631Y-3749D02*
G01X05633Y-3752D01*
G01X05633Y-3752D02*
G01X05634Y-3754D01*
G01X05634Y-3754D02*
G01X05637Y-3755D01*
G01X05637Y-3755D02*
G01X05641Y-3755D01*
G01X05641Y-3755D02*
G01X05644Y-3754D01*
G01X05644Y-3754D02*
G01X05645Y-3752D01*
G01X05645Y-3752D02*
G01X05647Y-3749D01*
G01X05647Y-3749D02*
G01X05648Y-3743D01*
G01X05648Y-3743D02*
G01X05648Y-3736D01*
G01X05648Y-3736D02*
G01X05647Y-3729D01*
G01X05647Y-3729D02*
G01X05645Y-3726D01*
G01X05645Y-3726D02*
G01X05644Y-3725D01*
G01X05644Y-3725D02*
G01X05641Y-3723D01*
G01X05599Y-3755D02*
G01X05618Y-3755D01*
G01X05609Y-3755D02*
G01X05609Y-3723D01*
G01X05609Y-3723D02*
G01X05612Y-3728D01*
G01X05612Y-3728D02*
G01X05615Y-3731D01*
G01X05615Y-3731D02*
G01X05618Y-3733D01*
G01X07398Y-4724D02*
G01X07383Y-4713D01*
G01X07398Y-4706D02*
G01X07366Y-4706D01*
G01X07366Y-4706D02*
G01X07366Y-4718D01*
G01X07366Y-4718D02*
G01X07368Y-4721D01*
G01X07368Y-4721D02*
G01X07369Y-4723D01*
G01X07369Y-4723D02*
G01X07372Y-4724D01*
G01X07372Y-4724D02*
G01X07377Y-4724D01*
G01X07377Y-4724D02*
G01X07380Y-4723D01*
G01X07380Y-4723D02*
G01X07381Y-4721D01*
G01X07381Y-4721D02*
G01X07383Y-4718D01*
G01X07383Y-4718D02*
G01X07383Y-4706D01*
G01X07398Y-4755D02*
G01X07398Y-4736D01*
G01X07398Y-4745D02*
G01X07366Y-4745D01*
G01X07366Y-4745D02*
G01X07371Y-4742D01*
G01X07371Y-4742D02*
G01X07374Y-4739D01*
G01X07374Y-4739D02*
G01X07375Y-4736D01*
G01X07366Y-4774D02*
G01X07366Y-4778D01*
G01X07366Y-4778D02*
G01X07368Y-4781D01*
G01X07368Y-4781D02*
G01X07369Y-4782D01*
G01X07369Y-4782D02*
G01X07372Y-4784D01*
G01X07372Y-4784D02*
G01X07378Y-4785D01*
G01X07378Y-4785D02*
G01X07386Y-4785D01*
G01X07386Y-4785D02*
G01X07392Y-4784D01*
G01X07392Y-4784D02*
G01X07395Y-4782D01*
G01X07395Y-4782D02*
G01X07396Y-4781D01*
G01X07396Y-4781D02*
G01X07398Y-4778D01*
G01X07398Y-4778D02*
G01X07398Y-4774D01*
G01X07398Y-4774D02*
G01X07396Y-4771D01*
G01X07396Y-4771D02*
G01X07395Y-4770D01*
G01X07395Y-4770D02*
G01X07392Y-4768D01*
G01X07392Y-4768D02*
G01X07386Y-4767D01*
G01X07386Y-4767D02*
G01X07378Y-4767D01*
G01X07378Y-4767D02*
G01X07372Y-4768D01*
G01X07372Y-4768D02*
G01X07369Y-4770D01*
G01X07369Y-4770D02*
G01X07368Y-4771D01*
G01X07368Y-4771D02*
G01X07366Y-4774D01*
G01X07398Y-4816D02*
G01X07398Y-4797D01*
G01X07398Y-4806D02*
G01X07366Y-4806D01*
G01X07366Y-4806D02*
G01X07371Y-4803D01*
G01X07371Y-4803D02*
G01X07374Y-4800D01*
G01X07374Y-4800D02*
G01X07375Y-4797D01*
G01X05473Y-3762D02*
G01X05475Y-3764D01*
G01X05475Y-3764D02*
G01X05479Y-3765D01*
G01X05479Y-3765D02*
G01X05482Y-3765D01*
G01X05482Y-3765D02*
G01X05487Y-3764D01*
G01X05487Y-3764D02*
G01X05490Y-3761D01*
G01X05490Y-3761D02*
G01X05492Y-3758D01*
G01X05492Y-3758D02*
G01X05493Y-3752D01*
G01X05493Y-3752D02*
G01X05493Y-3747D01*
G01X05493Y-3747D02*
G01X05492Y-3741D01*
G01X05492Y-3741D02*
G01X05490Y-3738D01*
G01X05490Y-3738D02*
G01X05487Y-3735D01*
G01X05487Y-3735D02*
G01X05482Y-3733D01*
G01X05482Y-3733D02*
G01X05479Y-3733D01*
G01X05479Y-3733D02*
G01X05475Y-3735D01*
G01X05475Y-3735D02*
G01X05473Y-3736D01*
G01X05461Y-3736D02*
G01X05460Y-3735D01*
G01X05460Y-3735D02*
G01X05457Y-3733D01*
G01X05457Y-3733D02*
G01X05449Y-3733D01*
G01X05449Y-3733D02*
G01X05446Y-3735D01*
G01X05446Y-3735D02*
G01X05444Y-3736D01*
G01X05444Y-3736D02*
G01X05443Y-3739D01*
G01X05443Y-3739D02*
G01X05443Y-3743D01*
G01X05443Y-3743D02*
G01X05444Y-3747D01*
G01X05444Y-3747D02*
G01X05463Y-3765D01*
G01X05463Y-3765D02*
G01X05443Y-3765D01*
G01X05431Y-3736D02*
G01X05429Y-3735D01*
G01X05429Y-3735D02*
G01X05426Y-3733D01*
G01X05426Y-3733D02*
G01X05418Y-3733D01*
G01X05418Y-3733D02*
G01X05415Y-3735D01*
G01X05415Y-3735D02*
G01X05414Y-3736D01*
G01X05414Y-3736D02*
G01X05412Y-3739D01*
G01X05412Y-3739D02*
G01X05412Y-3743D01*
G01X05412Y-3743D02*
G01X05414Y-3747D01*
G01X05414Y-3747D02*
G01X05432Y-3765D01*
G01X05432Y-3765D02*
G01X05412Y-3765D01*
G01X05402Y-3733D02*
G01X05382Y-3733D01*
G01X05382Y-3733D02*
G01X05393Y-3746D01*
G01X05393Y-3746D02*
G01X05388Y-3746D01*
G01X05388Y-3746D02*
G01X05385Y-3747D01*
G01X05385Y-3747D02*
G01X05383Y-3749D01*
G01X05383Y-3749D02*
G01X05382Y-3752D01*
G01X05382Y-3752D02*
G01X05382Y-3759D01*
G01X05382Y-3759D02*
G01X05383Y-3762D01*
G01X05383Y-3762D02*
G01X05385Y-3764D01*
G01X05385Y-3764D02*
G01X05388Y-3765D01*
G01X05388Y-3765D02*
G01X05397Y-3765D01*
G01X05397Y-3765D02*
G01X05400Y-3764D01*
G01X05400Y-3764D02*
G01X05402Y-3762D01*
G01X06893Y-3675D02*
G01X06895Y-3676D01*
G01X06895Y-3676D02*
G01X06899Y-3678D01*
G01X06899Y-3678D02*
G01X06902Y-3678D01*
G01X06902Y-3678D02*
G01X06907Y-3676D01*
G01X06907Y-3676D02*
G01X06910Y-3673D01*
G01X06910Y-3673D02*
G01X06912Y-3670D01*
G01X06912Y-3670D02*
G01X06913Y-3664D01*
G01X06913Y-3664D02*
G01X06913Y-3660D01*
G01X06913Y-3660D02*
G01X06912Y-3654D01*
G01X06912Y-3654D02*
G01X06910Y-3650D01*
G01X06910Y-3650D02*
G01X06907Y-3647D01*
G01X06907Y-3647D02*
G01X06902Y-3646D01*
G01X06902Y-3646D02*
G01X06899Y-3646D01*
G01X06899Y-3646D02*
G01X06895Y-3647D01*
G01X06895Y-3647D02*
G01X06893Y-3649D01*
G01X06881Y-3649D02*
G01X06880Y-3647D01*
G01X06880Y-3647D02*
G01X06877Y-3646D01*
G01X06877Y-3646D02*
G01X06869Y-3646D01*
G01X06869Y-3646D02*
G01X06866Y-3647D01*
G01X06866Y-3647D02*
G01X06864Y-3649D01*
G01X06864Y-3649D02*
G01X06863Y-3652D01*
G01X06863Y-3652D02*
G01X06863Y-3655D01*
G01X06863Y-3655D02*
G01X06864Y-3660D01*
G01X06864Y-3660D02*
G01X06883Y-3678D01*
G01X06883Y-3678D02*
G01X06863Y-3678D01*
G01X06851Y-3649D02*
G01X06849Y-3647D01*
G01X06849Y-3647D02*
G01X06846Y-3646D01*
G01X06846Y-3646D02*
G01X06838Y-3646D01*
G01X06838Y-3646D02*
G01X06835Y-3647D01*
G01X06835Y-3647D02*
G01X06834Y-3649D01*
G01X06834Y-3649D02*
G01X06832Y-3652D01*
G01X06832Y-3652D02*
G01X06832Y-3655D01*
G01X06832Y-3655D02*
G01X06834Y-3660D01*
G01X06834Y-3660D02*
G01X06852Y-3678D01*
G01X06852Y-3678D02*
G01X06832Y-3678D01*
G01X06805Y-3657D02*
G01X06805Y-3678D01*
G01X06813Y-3644D02*
G01X06820Y-3667D01*
G01X06820Y-3667D02*
G01X06800Y-3667D01*
G01X06088Y-3525D02*
G01X06090Y-3526D01*
G01X06090Y-3526D02*
G01X06094Y-3528D01*
G01X06094Y-3528D02*
G01X06097Y-3528D01*
G01X06097Y-3528D02*
G01X06102Y-3526D01*
G01X06102Y-3526D02*
G01X06105Y-3523D01*
G01X06105Y-3523D02*
G01X06107Y-3520D01*
G01X06107Y-3520D02*
G01X06108Y-3514D01*
G01X06108Y-3514D02*
G01X06108Y-3510D01*
G01X06108Y-3510D02*
G01X06107Y-3504D01*
G01X06107Y-3504D02*
G01X06105Y-3500D01*
G01X06105Y-3500D02*
G01X06102Y-3497D01*
G01X06102Y-3497D02*
G01X06097Y-3496D01*
G01X06097Y-3496D02*
G01X06094Y-3496D01*
G01X06094Y-3496D02*
G01X06090Y-3497D01*
G01X06090Y-3497D02*
G01X06088Y-3499D01*
G01X06061Y-3507D02*
G01X06061Y-3528D01*
G01X06069Y-3494D02*
G01X06076Y-3517D01*
G01X06076Y-3517D02*
G01X06056Y-3517D01*
G01X06027Y-3528D02*
G01X06046Y-3528D01*
G01X06037Y-3528D02*
G01X06037Y-3496D01*
G01X06037Y-3496D02*
G01X06040Y-3500D01*
G01X06040Y-3500D02*
G01X06043Y-3504D01*
G01X06043Y-3504D02*
G01X06046Y-3505D01*
G01X05997Y-3528D02*
G01X06015Y-3528D01*
G01X06006Y-3528D02*
G01X06006Y-3496D01*
G01X06006Y-3496D02*
G01X06009Y-3500D01*
G01X06009Y-3500D02*
G01X06012Y-3504D01*
G01X06012Y-3504D02*
G01X06015Y-3505D01*
G01X04836Y-3295D02*
G01X04837Y-3296D01*
G01X04837Y-3296D02*
G01X04842Y-3298D01*
G01X04842Y-3298D02*
G01X04845Y-3298D01*
G01X04845Y-3298D02*
G01X04850Y-3296D01*
G01X04850Y-3296D02*
G01X04853Y-3293D01*
G01X04853Y-3293D02*
G01X04854Y-3290D01*
G01X04854Y-3290D02*
G01X04856Y-3284D01*
G01X04856Y-3284D02*
G01X04856Y-3280D01*
G01X04856Y-3280D02*
G01X04854Y-3274D01*
G01X04854Y-3274D02*
G01X04853Y-3270D01*
G01X04853Y-3270D02*
G01X04850Y-3267D01*
G01X04850Y-3267D02*
G01X04845Y-3266D01*
G01X04845Y-3266D02*
G01X04842Y-3266D01*
G01X04842Y-3266D02*
G01X04837Y-3267D01*
G01X04837Y-3267D02*
G01X04836Y-3269D01*
G01X04808Y-3277D02*
G01X04808Y-3298D01*
G01X04816Y-3264D02*
G01X04824Y-3287D01*
G01X04824Y-3287D02*
G01X04804Y-3287D01*
G01X04786Y-3266D02*
G01X04782Y-3266D01*
G01X04782Y-3266D02*
G01X04779Y-3267D01*
G01X04779Y-3267D02*
G01X04778Y-3269D01*
G01X04778Y-3269D02*
G01X04776Y-3272D01*
G01X04776Y-3272D02*
G01X04775Y-3278D01*
G01X04775Y-3278D02*
G01X04775Y-3286D01*
G01X04775Y-3286D02*
G01X04776Y-3292D01*
G01X04776Y-3292D02*
G01X04778Y-3295D01*
G01X04778Y-3295D02*
G01X04779Y-3296D01*
G01X04779Y-3296D02*
G01X04782Y-3298D01*
G01X04782Y-3298D02*
G01X04786Y-3298D01*
G01X04786Y-3298D02*
G01X04789Y-3296D01*
G01X04789Y-3296D02*
G01X04790Y-3295D01*
G01X04790Y-3295D02*
G01X04792Y-3292D01*
G01X04792Y-3292D02*
G01X04793Y-3286D01*
G01X04793Y-3286D02*
G01X04793Y-3278D01*
G01X04793Y-3278D02*
G01X04792Y-3272D01*
G01X04792Y-3272D02*
G01X04790Y-3269D01*
G01X04790Y-3269D02*
G01X04789Y-3267D01*
G01X04789Y-3267D02*
G01X04786Y-3266D01*
G01X04744Y-3298D02*
G01X04763Y-3298D01*
G01X04754Y-3298D02*
G01X04754Y-3266D01*
G01X04754Y-3266D02*
G01X04757Y-3270D01*
G01X04757Y-3270D02*
G01X04760Y-3274D01*
G01X04760Y-3274D02*
G01X04763Y-3275D01*
G01X04790Y-3012D02*
G01X04791Y-3010D01*
G01X04791Y-3010D02*
G01X04793Y-3006D01*
G01X04793Y-3006D02*
G01X04793Y-3003D01*
G01X04793Y-3003D02*
G01X04791Y-2998D01*
G01X04791Y-2998D02*
G01X04788Y-2995D01*
G01X04788Y-2995D02*
G01X04785Y-2993D01*
G01X04785Y-2993D02*
G01X04779Y-2992D01*
G01X04779Y-2992D02*
G01X04775Y-2992D01*
G01X04775Y-2992D02*
G01X04769Y-2993D01*
G01X04769Y-2993D02*
G01X04766Y-2995D01*
G01X04766Y-2995D02*
G01X04763Y-2998D01*
G01X04763Y-2998D02*
G01X04761Y-3003D01*
G01X04761Y-3003D02*
G01X04761Y-3006D01*
G01X04761Y-3006D02*
G01X04763Y-3010D01*
G01X04763Y-3010D02*
G01X04764Y-3012D01*
G01X04772Y-3039D02*
G01X04793Y-3039D01*
G01X04759Y-3031D02*
G01X04782Y-3024D01*
G01X04782Y-3024D02*
G01X04782Y-3044D01*
G01X04761Y-3062D02*
G01X04761Y-3065D01*
G01X04761Y-3065D02*
G01X04763Y-3068D01*
G01X04763Y-3068D02*
G01X04764Y-3070D01*
G01X04764Y-3070D02*
G01X04767Y-3071D01*
G01X04767Y-3071D02*
G01X04773Y-3073D01*
G01X04773Y-3073D02*
G01X04781Y-3073D01*
G01X04781Y-3073D02*
G01X04787Y-3071D01*
G01X04787Y-3071D02*
G01X04790Y-3070D01*
G01X04790Y-3070D02*
G01X04791Y-3068D01*
G01X04791Y-3068D02*
G01X04793Y-3065D01*
G01X04793Y-3065D02*
G01X04793Y-3062D01*
G01X04793Y-3062D02*
G01X04791Y-3059D01*
G01X04791Y-3059D02*
G01X04790Y-3057D01*
G01X04790Y-3057D02*
G01X04787Y-3056D01*
G01X04787Y-3056D02*
G01X04781Y-3054D01*
G01X04781Y-3054D02*
G01X04773Y-3054D01*
G01X04773Y-3054D02*
G01X04767Y-3056D01*
G01X04767Y-3056D02*
G01X04764Y-3057D01*
G01X04764Y-3057D02*
G01X04763Y-3059D01*
G01X04763Y-3059D02*
G01X04761Y-3062D01*
G01X04764Y-3085D02*
G01X04763Y-3086D01*
G01X04763Y-3086D02*
G01X04761Y-3089D01*
G01X04761Y-3089D02*
G01X04761Y-3097D01*
G01X04761Y-3097D02*
G01X04763Y-3100D01*
G01X04763Y-3100D02*
G01X04764Y-3102D01*
G01X04764Y-3102D02*
G01X04767Y-3103D01*
G01X04767Y-3103D02*
G01X04770Y-3103D01*
G01X04770Y-3103D02*
G01X04775Y-3102D01*
G01X04775Y-3102D02*
G01X04793Y-3083D01*
G01X04793Y-3083D02*
G01X04793Y-3103D01*
G01X04996Y-3422D02*
G01X04997Y-3424D01*
G01X04997Y-3424D02*
G01X05002Y-3425D01*
G01X05002Y-3425D02*
G01X05005Y-3425D01*
G01X05005Y-3425D02*
G01X05010Y-3424D01*
G01X05010Y-3424D02*
G01X05013Y-3421D01*
G01X05013Y-3421D02*
G01X05014Y-3418D01*
G01X05014Y-3418D02*
G01X05016Y-3412D01*
G01X05016Y-3412D02*
G01X05016Y-3407D01*
G01X05016Y-3407D02*
G01X05014Y-3401D01*
G01X05014Y-3401D02*
G01X05013Y-3398D01*
G01X05013Y-3398D02*
G01X05010Y-3395D01*
G01X05010Y-3395D02*
G01X05005Y-3393D01*
G01X05005Y-3393D02*
G01X05002Y-3393D01*
G01X05002Y-3393D02*
G01X04997Y-3395D01*
G01X04997Y-3395D02*
G01X04996Y-3396D01*
G01X04968Y-3404D02*
G01X04968Y-3425D01*
G01X04976Y-3392D02*
G01X04984Y-3415D01*
G01X04984Y-3415D02*
G01X04964Y-3415D01*
G01X04946Y-3393D02*
G01X04942Y-3393D01*
G01X04942Y-3393D02*
G01X04939Y-3395D01*
G01X04939Y-3395D02*
G01X04938Y-3396D01*
G01X04938Y-3396D02*
G01X04936Y-3399D01*
G01X04936Y-3399D02*
G01X04935Y-3406D01*
G01X04935Y-3406D02*
G01X04935Y-3413D01*
G01X04935Y-3413D02*
G01X04936Y-3419D01*
G01X04936Y-3419D02*
G01X04938Y-3422D01*
G01X04938Y-3422D02*
G01X04939Y-3424D01*
G01X04939Y-3424D02*
G01X04942Y-3425D01*
G01X04942Y-3425D02*
G01X04946Y-3425D01*
G01X04946Y-3425D02*
G01X04949Y-3424D01*
G01X04949Y-3424D02*
G01X04950Y-3422D01*
G01X04950Y-3422D02*
G01X04952Y-3419D01*
G01X04952Y-3419D02*
G01X04953Y-3413D01*
G01X04953Y-3413D02*
G01X04953Y-3406D01*
G01X04953Y-3406D02*
G01X04952Y-3399D01*
G01X04952Y-3399D02*
G01X04950Y-3396D01*
G01X04950Y-3396D02*
G01X04949Y-3395D01*
G01X04949Y-3395D02*
G01X04946Y-3393D01*
G01X04924Y-3393D02*
G01X04904Y-3393D01*
G01X04904Y-3393D02*
G01X04915Y-3406D01*
G01X04915Y-3406D02*
G01X04910Y-3406D01*
G01X04910Y-3406D02*
G01X04907Y-3407D01*
G01X04907Y-3407D02*
G01X04906Y-3409D01*
G01X04906Y-3409D02*
G01X04904Y-3412D01*
G01X04904Y-3412D02*
G01X04904Y-3419D01*
G01X04904Y-3419D02*
G01X04906Y-3422D01*
G01X04906Y-3422D02*
G01X04907Y-3424D01*
G01X04907Y-3424D02*
G01X04910Y-3425D01*
G01X04910Y-3425D02*
G01X04920Y-3425D01*
G01X04920Y-3425D02*
G01X04923Y-3424D01*
G01X04923Y-3424D02*
G01X04924Y-3422D01*
G01X04842Y-3577D02*
G01X04844Y-3575D01*
G01X04844Y-3575D02*
G01X04846Y-3571D01*
G01X04846Y-3571D02*
G01X04846Y-3568D01*
G01X04846Y-3568D02*
G01X04844Y-3563D01*
G01X04844Y-3563D02*
G01X04841Y-3560D01*
G01X04841Y-3560D02*
G01X04838Y-3558D01*
G01X04838Y-3558D02*
G01X04832Y-3557D01*
G01X04832Y-3557D02*
G01X04827Y-3557D01*
G01X04827Y-3557D02*
G01X04821Y-3558D01*
G01X04821Y-3558D02*
G01X04818Y-3560D01*
G01X04818Y-3560D02*
G01X04815Y-3563D01*
G01X04815Y-3563D02*
G01X04814Y-3568D01*
G01X04814Y-3568D02*
G01X04814Y-3571D01*
G01X04814Y-3571D02*
G01X04815Y-3575D01*
G01X04815Y-3575D02*
G01X04817Y-3577D01*
G01X04824Y-3604D02*
G01X04846Y-3604D01*
G01X04812Y-3596D02*
G01X04835Y-3589D01*
G01X04835Y-3589D02*
G01X04835Y-3609D01*
G01X04814Y-3627D02*
G01X04814Y-3630D01*
G01X04814Y-3630D02*
G01X04815Y-3633D01*
G01X04815Y-3633D02*
G01X04817Y-3635D01*
G01X04817Y-3635D02*
G01X04820Y-3636D01*
G01X04820Y-3636D02*
G01X04826Y-3638D01*
G01X04826Y-3638D02*
G01X04833Y-3638D01*
G01X04833Y-3638D02*
G01X04839Y-3636D01*
G01X04839Y-3636D02*
G01X04842Y-3635D01*
G01X04842Y-3635D02*
G01X04844Y-3633D01*
G01X04844Y-3633D02*
G01X04846Y-3630D01*
G01X04846Y-3630D02*
G01X04846Y-3627D01*
G01X04846Y-3627D02*
G01X04844Y-3624D01*
G01X04844Y-3624D02*
G01X04842Y-3622D01*
G01X04842Y-3622D02*
G01X04839Y-3621D01*
G01X04839Y-3621D02*
G01X04833Y-3619D01*
G01X04833Y-3619D02*
G01X04826Y-3619D01*
G01X04826Y-3619D02*
G01X04820Y-3621D01*
G01X04820Y-3621D02*
G01X04817Y-3622D01*
G01X04817Y-3622D02*
G01X04815Y-3624D01*
G01X04815Y-3624D02*
G01X04814Y-3627D01*
G01X04824Y-3665D02*
G01X04846Y-3665D01*
G01X04812Y-3657D02*
G01X04835Y-3650D01*
G01X04835Y-3650D02*
G01X04835Y-3670D01*
G01X05525Y-4349D02*
G01X05526Y-4348D01*
G01X05526Y-4348D02*
G01X05528Y-4343D01*
G01X05528Y-4343D02*
G01X05528Y-4340D01*
G01X05528Y-4340D02*
G01X05526Y-4335D01*
G01X05526Y-4335D02*
G01X05523Y-4332D01*
G01X05523Y-4332D02*
G01X05520Y-4331D01*
G01X05520Y-4331D02*
G01X05514Y-4329D01*
G01X05514Y-4329D02*
G01X05510Y-4329D01*
G01X05510Y-4329D02*
G01X05504Y-4331D01*
G01X05504Y-4331D02*
G01X05501Y-4332D01*
G01X05501Y-4332D02*
G01X05498Y-4335D01*
G01X05498Y-4335D02*
G01X05496Y-4340D01*
G01X05496Y-4340D02*
G01X05496Y-4343D01*
G01X05496Y-4343D02*
G01X05498Y-4348D01*
G01X05498Y-4348D02*
G01X05499Y-4349D01*
G01X05528Y-4380D02*
G01X05528Y-4361D01*
G01X05528Y-4370D02*
G01X05496Y-4370D01*
G01X05496Y-4370D02*
G01X05501Y-4367D01*
G01X05501Y-4367D02*
G01X05504Y-4364D01*
G01X05504Y-4364D02*
G01X05505Y-4361D01*
G01X05496Y-4399D02*
G01X05496Y-4403D01*
G01X05496Y-4403D02*
G01X05498Y-4406D01*
G01X05498Y-4406D02*
G01X05499Y-4407D01*
G01X05499Y-4407D02*
G01X05502Y-4409D01*
G01X05502Y-4409D02*
G01X05508Y-4410D01*
G01X05508Y-4410D02*
G01X05516Y-4410D01*
G01X05516Y-4410D02*
G01X05522Y-4409D01*
G01X05522Y-4409D02*
G01X05525Y-4407D01*
G01X05525Y-4407D02*
G01X05526Y-4406D01*
G01X05526Y-4406D02*
G01X05528Y-4403D01*
G01X05528Y-4403D02*
G01X05528Y-4399D01*
G01X05528Y-4399D02*
G01X05526Y-4396D01*
G01X05526Y-4396D02*
G01X05525Y-4395D01*
G01X05525Y-4395D02*
G01X05522Y-4393D01*
G01X05522Y-4393D02*
G01X05516Y-4392D01*
G01X05516Y-4392D02*
G01X05508Y-4392D01*
G01X05508Y-4392D02*
G01X05502Y-4393D01*
G01X05502Y-4393D02*
G01X05499Y-4395D01*
G01X05499Y-4395D02*
G01X05498Y-4396D01*
G01X05498Y-4396D02*
G01X05496Y-4399D01*
G01X05507Y-4438D02*
G01X05528Y-4438D01*
G01X05494Y-4430D02*
G01X05517Y-4422D01*
G01X05517Y-4422D02*
G01X05517Y-4442D01*
G01X06102Y-4349D02*
G01X06104Y-4348D01*
G01X06104Y-4348D02*
G01X06106Y-4343D01*
G01X06106Y-4343D02*
G01X06106Y-4340D01*
G01X06106Y-4340D02*
G01X06104Y-4335D01*
G01X06104Y-4335D02*
G01X06101Y-4332D01*
G01X06101Y-4332D02*
G01X06098Y-4331D01*
G01X06098Y-4331D02*
G01X06092Y-4329D01*
G01X06092Y-4329D02*
G01X06087Y-4329D01*
G01X06087Y-4329D02*
G01X06081Y-4331D01*
G01X06081Y-4331D02*
G01X06078Y-4332D01*
G01X06078Y-4332D02*
G01X06075Y-4335D01*
G01X06075Y-4335D02*
G01X06074Y-4340D01*
G01X06074Y-4340D02*
G01X06074Y-4343D01*
G01X06074Y-4343D02*
G01X06075Y-4348D01*
G01X06075Y-4348D02*
G01X06077Y-4349D01*
G01X06106Y-4380D02*
G01X06106Y-4361D01*
G01X06106Y-4370D02*
G01X06074Y-4370D01*
G01X06074Y-4370D02*
G01X06078Y-4367D01*
G01X06078Y-4367D02*
G01X06081Y-4364D01*
G01X06081Y-4364D02*
G01X06083Y-4361D01*
G01X06074Y-4399D02*
G01X06074Y-4403D01*
G01X06074Y-4403D02*
G01X06075Y-4406D01*
G01X06075Y-4406D02*
G01X06077Y-4407D01*
G01X06077Y-4407D02*
G01X06080Y-4409D01*
G01X06080Y-4409D02*
G01X06086Y-4410D01*
G01X06086Y-4410D02*
G01X06093Y-4410D01*
G01X06093Y-4410D02*
G01X06099Y-4409D01*
G01X06099Y-4409D02*
G01X06102Y-4407D01*
G01X06102Y-4407D02*
G01X06104Y-4406D01*
G01X06104Y-4406D02*
G01X06106Y-4403D01*
G01X06106Y-4403D02*
G01X06106Y-4399D01*
G01X06106Y-4399D02*
G01X06104Y-4396D01*
G01X06104Y-4396D02*
G01X06102Y-4395D01*
G01X06102Y-4395D02*
G01X06099Y-4393D01*
G01X06099Y-4393D02*
G01X06093Y-4392D01*
G01X06093Y-4392D02*
G01X06086Y-4392D01*
G01X06086Y-4392D02*
G01X06080Y-4393D01*
G01X06080Y-4393D02*
G01X06077Y-4395D01*
G01X06077Y-4395D02*
G01X06075Y-4396D01*
G01X06075Y-4396D02*
G01X06074Y-4399D01*
G01X06074Y-4439D02*
G01X06074Y-4424D01*
G01X06074Y-4424D02*
G01X06089Y-4422D01*
G01X06089Y-4422D02*
G01X06087Y-4424D01*
G01X06087Y-4424D02*
G01X06086Y-4427D01*
G01X06086Y-4427D02*
G01X06086Y-4435D01*
G01X06086Y-4435D02*
G01X06087Y-4438D01*
G01X06087Y-4438D02*
G01X06089Y-4439D01*
G01X06089Y-4439D02*
G01X06092Y-4441D01*
G01X06092Y-4441D02*
G01X06099Y-4441D01*
G01X06099Y-4441D02*
G01X06102Y-4439D01*
G01X06102Y-4439D02*
G01X06104Y-4438D01*
G01X06104Y-4438D02*
G01X06106Y-4435D01*
G01X06106Y-4435D02*
G01X06106Y-4427D01*
G01X06106Y-4427D02*
G01X06104Y-4424D01*
G01X06104Y-4424D02*
G01X06102Y-4422D01*
G01X06672Y-4224D02*
G01X06674Y-4223D01*
G01X06674Y-4223D02*
G01X06676Y-4218D01*
G01X06676Y-4218D02*
G01X06676Y-4215D01*
G01X06676Y-4215D02*
G01X06674Y-4210D01*
G01X06674Y-4210D02*
G01X06671Y-4207D01*
G01X06671Y-4207D02*
G01X06668Y-4206D01*
G01X06668Y-4206D02*
G01X06662Y-4204D01*
G01X06662Y-4204D02*
G01X06657Y-4204D01*
G01X06657Y-4204D02*
G01X06651Y-4206D01*
G01X06651Y-4206D02*
G01X06648Y-4207D01*
G01X06648Y-4207D02*
G01X06645Y-4210D01*
G01X06645Y-4210D02*
G01X06644Y-4215D01*
G01X06644Y-4215D02*
G01X06644Y-4218D01*
G01X06644Y-4218D02*
G01X06645Y-4223D01*
G01X06645Y-4223D02*
G01X06647Y-4224D01*
G01X06676Y-4255D02*
G01X06676Y-4236D01*
G01X06676Y-4245D02*
G01X06644Y-4245D01*
G01X06644Y-4245D02*
G01X06648Y-4242D01*
G01X06648Y-4242D02*
G01X06651Y-4239D01*
G01X06651Y-4239D02*
G01X06653Y-4236D01*
G01X06644Y-4274D02*
G01X06644Y-4278D01*
G01X06644Y-4278D02*
G01X06645Y-4281D01*
G01X06645Y-4281D02*
G01X06647Y-4282D01*
G01X06647Y-4282D02*
G01X06650Y-4284D01*
G01X06650Y-4284D02*
G01X06656Y-4285D01*
G01X06656Y-4285D02*
G01X06663Y-4285D01*
G01X06663Y-4285D02*
G01X06669Y-4284D01*
G01X06669Y-4284D02*
G01X06672Y-4282D01*
G01X06672Y-4282D02*
G01X06674Y-4281D01*
G01X06674Y-4281D02*
G01X06676Y-4278D01*
G01X06676Y-4278D02*
G01X06676Y-4274D01*
G01X06676Y-4274D02*
G01X06674Y-4271D01*
G01X06674Y-4271D02*
G01X06672Y-4270D01*
G01X06672Y-4270D02*
G01X06669Y-4268D01*
G01X06669Y-4268D02*
G01X06663Y-4267D01*
G01X06663Y-4267D02*
G01X06656Y-4267D01*
G01X06656Y-4267D02*
G01X06650Y-4268D01*
G01X06650Y-4268D02*
G01X06647Y-4270D01*
G01X06647Y-4270D02*
G01X06645Y-4271D01*
G01X06645Y-4271D02*
G01X06644Y-4274D01*
G01X06644Y-4313D02*
G01X06644Y-4306D01*
G01X06644Y-4306D02*
G01X06645Y-4303D01*
G01X06645Y-4303D02*
G01X06647Y-4302D01*
G01X06647Y-4302D02*
G01X06651Y-4299D01*
G01X06651Y-4299D02*
G01X06657Y-4297D01*
G01X06657Y-4297D02*
G01X06669Y-4297D01*
G01X06669Y-4297D02*
G01X06672Y-4299D01*
G01X06672Y-4299D02*
G01X06674Y-4300D01*
G01X06674Y-4300D02*
G01X06676Y-4303D01*
G01X06676Y-4303D02*
G01X06676Y-4310D01*
G01X06676Y-4310D02*
G01X06674Y-4313D01*
G01X06674Y-4313D02*
G01X06672Y-4314D01*
G01X06672Y-4314D02*
G01X06669Y-4316D01*
G01X06669Y-4316D02*
G01X06662Y-4316D01*
G01X06662Y-4316D02*
G01X06659Y-4314D01*
G01X06659Y-4314D02*
G01X06657Y-4313D01*
G01X06657Y-4313D02*
G01X06656Y-4310D01*
G01X06656Y-4310D02*
G01X06656Y-4303D01*
G01X06656Y-4303D02*
G01X06657Y-4300D01*
G01X06657Y-4300D02*
G01X06659Y-4299D01*
G01X06659Y-4299D02*
G01X06662Y-4297D01*
G01X06740Y-4542D02*
G01X06741Y-4540D01*
G01X06741Y-4540D02*
G01X06743Y-4536D01*
G01X06743Y-4536D02*
G01X06743Y-4533D01*
G01X06743Y-4533D02*
G01X06741Y-4528D01*
G01X06741Y-4528D02*
G01X06738Y-4525D01*
G01X06738Y-4525D02*
G01X06735Y-4523D01*
G01X06735Y-4523D02*
G01X06729Y-4522D01*
G01X06729Y-4522D02*
G01X06725Y-4522D01*
G01X06725Y-4522D02*
G01X06719Y-4523D01*
G01X06719Y-4523D02*
G01X06716Y-4525D01*
G01X06716Y-4525D02*
G01X06713Y-4528D01*
G01X06713Y-4528D02*
G01X06711Y-4533D01*
G01X06711Y-4533D02*
G01X06711Y-4536D01*
G01X06711Y-4536D02*
G01X06713Y-4540D01*
G01X06713Y-4540D02*
G01X06714Y-4542D01*
G01X06743Y-4572D02*
G01X06743Y-4554D01*
G01X06743Y-4563D02*
G01X06711Y-4563D01*
G01X06711Y-4563D02*
G01X06716Y-4560D01*
G01X06716Y-4560D02*
G01X06719Y-4557D01*
G01X06719Y-4557D02*
G01X06720Y-4554D01*
G01X06743Y-4603D02*
G01X06743Y-4584D01*
G01X06743Y-4593D02*
G01X06711Y-4593D01*
G01X06711Y-4593D02*
G01X06716Y-4590D01*
G01X06716Y-4590D02*
G01X06719Y-4587D01*
G01X06719Y-4587D02*
G01X06720Y-4584D01*
G01X06711Y-4613D02*
G01X06711Y-4633D01*
G01X06711Y-4633D02*
G01X06723Y-4622D01*
G01X06723Y-4622D02*
G01X06723Y-4627D01*
G01X06723Y-4627D02*
G01X06725Y-4630D01*
G01X06725Y-4630D02*
G01X06726Y-4632D01*
G01X06726Y-4632D02*
G01X06729Y-4633D01*
G01X06729Y-4633D02*
G01X06737Y-4633D01*
G01X06737Y-4633D02*
G01X06740Y-4632D01*
G01X06740Y-4632D02*
G01X06741Y-4630D01*
G01X06741Y-4630D02*
G01X06743Y-4627D01*
G01X06743Y-4627D02*
G01X06743Y-4618D01*
G01X06743Y-4618D02*
G01X06741Y-4615D01*
G01X06741Y-4615D02*
G01X06740Y-4613D01*
G01X06102Y-4799D02*
G01X06104Y-4798D01*
G01X06104Y-4798D02*
G01X06106Y-4793D01*
G01X06106Y-4793D02*
G01X06106Y-4790D01*
G01X06106Y-4790D02*
G01X06104Y-4785D01*
G01X06104Y-4785D02*
G01X06101Y-4782D01*
G01X06101Y-4782D02*
G01X06098Y-4781D01*
G01X06098Y-4781D02*
G01X06092Y-4779D01*
G01X06092Y-4779D02*
G01X06087Y-4779D01*
G01X06087Y-4779D02*
G01X06081Y-4781D01*
G01X06081Y-4781D02*
G01X06078Y-4782D01*
G01X06078Y-4782D02*
G01X06075Y-4785D01*
G01X06075Y-4785D02*
G01X06074Y-4790D01*
G01X06074Y-4790D02*
G01X06074Y-4793D01*
G01X06074Y-4793D02*
G01X06075Y-4798D01*
G01X06075Y-4798D02*
G01X06077Y-4799D01*
G01X06106Y-4830D02*
G01X06106Y-4811D01*
G01X06106Y-4820D02*
G01X06074Y-4820D01*
G01X06074Y-4820D02*
G01X06078Y-4817D01*
G01X06078Y-4817D02*
G01X06081Y-4814D01*
G01X06081Y-4814D02*
G01X06083Y-4811D01*
G01X06106Y-4860D02*
G01X06106Y-4842D01*
G01X06106Y-4851D02*
G01X06074Y-4851D01*
G01X06074Y-4851D02*
G01X06078Y-4848D01*
G01X06078Y-4848D02*
G01X06081Y-4845D01*
G01X06081Y-4845D02*
G01X06083Y-4842D01*
G01X06077Y-4872D02*
G01X06075Y-4874D01*
G01X06075Y-4874D02*
G01X06074Y-4877D01*
G01X06074Y-4877D02*
G01X06074Y-4885D01*
G01X06074Y-4885D02*
G01X06075Y-4888D01*
G01X06075Y-4888D02*
G01X06077Y-4889D01*
G01X06077Y-4889D02*
G01X06080Y-4891D01*
G01X06080Y-4891D02*
G01X06083Y-4891D01*
G01X06083Y-4891D02*
G01X06087Y-4889D01*
G01X06087Y-4889D02*
G01X06106Y-4871D01*
G01X06106Y-4871D02*
G01X06106Y-4891D01*
G01X05522Y-4802D02*
G01X05524Y-4800D01*
G01X05524Y-4800D02*
G01X05526Y-4796D01*
G01X05526Y-4796D02*
G01X05526Y-4793D01*
G01X05526Y-4793D02*
G01X05524Y-4788D01*
G01X05524Y-4788D02*
G01X05521Y-4785D01*
G01X05521Y-4785D02*
G01X05518Y-4783D01*
G01X05518Y-4783D02*
G01X05512Y-4782D01*
G01X05512Y-4782D02*
G01X05507Y-4782D01*
G01X05507Y-4782D02*
G01X05501Y-4783D01*
G01X05501Y-4783D02*
G01X05498Y-4785D01*
G01X05498Y-4785D02*
G01X05495Y-4788D01*
G01X05495Y-4788D02*
G01X05494Y-4793D01*
G01X05494Y-4793D02*
G01X05494Y-4796D01*
G01X05494Y-4796D02*
G01X05495Y-4800D01*
G01X05495Y-4800D02*
G01X05497Y-4802D01*
G01X05526Y-4832D02*
G01X05526Y-4814D01*
G01X05526Y-4823D02*
G01X05494Y-4823D01*
G01X05494Y-4823D02*
G01X05498Y-4820D01*
G01X05498Y-4820D02*
G01X05501Y-4817D01*
G01X05501Y-4817D02*
G01X05503Y-4814D01*
G01X05526Y-4863D02*
G01X05526Y-4844D01*
G01X05526Y-4853D02*
G01X05494Y-4853D01*
G01X05494Y-4853D02*
G01X05498Y-4850D01*
G01X05498Y-4850D02*
G01X05501Y-4847D01*
G01X05501Y-4847D02*
G01X05503Y-4844D01*
G01X05526Y-4893D02*
G01X05526Y-4875D01*
G01X05526Y-4884D02*
G01X05494Y-4884D01*
G01X05494Y-4884D02*
G01X05498Y-4881D01*
G01X05498Y-4881D02*
G01X05501Y-4878D01*
G01X05501Y-4878D02*
G01X05503Y-4875D01*
G01X05431Y-3326D02*
G01X05431Y-3349D01*
G01X05431Y-3349D02*
G01X05433Y-3353D01*
G01X05433Y-3353D02*
G01X05436Y-3356D01*
G01X05436Y-3356D02*
G01X05440Y-3358D01*
G01X05440Y-3358D02*
G01X05443Y-3358D01*
G01X05402Y-3337D02*
G01X05402Y-3358D01*
G01X05410Y-3324D02*
G01X05417Y-3347D01*
G01X05417Y-3347D02*
G01X05398Y-3347D01*
G01X05369Y-3358D02*
G01X05387Y-3358D01*
G01X05378Y-3358D02*
G01X05378Y-3326D01*
G01X05378Y-3326D02*
G01X05381Y-3330D01*
G01X05381Y-3330D02*
G01X05384Y-3334D01*
G01X05384Y-3334D02*
G01X05387Y-3335D01*
G01X05338Y-3358D02*
G01X05356Y-3358D01*
G01X05347Y-3358D02*
G01X05347Y-3326D01*
G01X05347Y-3326D02*
G01X05350Y-3330D01*
G01X05350Y-3330D02*
G01X05353Y-3334D01*
G01X05353Y-3334D02*
G01X05356Y-3335D01*
G01X05073Y-2797D02*
G01X05058Y-2786D01*
G01X05073Y-2778D02*
G01X05041Y-2778D01*
G01X05041Y-2778D02*
G01X05041Y-2791D01*
G01X05041Y-2791D02*
G01X05043Y-2794D01*
G01X05043Y-2794D02*
G01X05044Y-2795D01*
G01X05044Y-2795D02*
G01X05047Y-2797D01*
G01X05047Y-2797D02*
G01X05052Y-2797D01*
G01X05052Y-2797D02*
G01X05055Y-2795D01*
G01X05055Y-2795D02*
G01X05056Y-2794D01*
G01X05056Y-2794D02*
G01X05058Y-2791D01*
G01X05058Y-2791D02*
G01X05058Y-2778D01*
G01X05052Y-2824D02*
G01X05073Y-2824D01*
G01X05039Y-2816D02*
G01X05062Y-2809D01*
G01X05062Y-2809D02*
G01X05062Y-2829D01*
G01X05044Y-2839D02*
G01X05043Y-2841D01*
G01X05043Y-2841D02*
G01X05041Y-2844D01*
G01X05041Y-2844D02*
G01X05041Y-2852D01*
G01X05041Y-2852D02*
G01X05043Y-2855D01*
G01X05043Y-2855D02*
G01X05044Y-2856D01*
G01X05044Y-2856D02*
G01X05047Y-2858D01*
G01X05047Y-2858D02*
G01X05050Y-2858D01*
G01X05050Y-2858D02*
G01X05055Y-2856D01*
G01X05055Y-2856D02*
G01X05073Y-2838D01*
G01X05073Y-2838D02*
G01X05073Y-2858D01*
G01X05073Y-2888D02*
G01X05073Y-2870D01*
G01X05073Y-2879D02*
G01X05041Y-2879D01*
G01X05041Y-2879D02*
G01X05046Y-2876D01*
G01X05046Y-2876D02*
G01X05049Y-2873D01*
G01X05049Y-2873D02*
G01X05050Y-2870D01*
G01X04998Y-2647D02*
G01X04983Y-2636D01*
G01X04998Y-2628D02*
G01X04966Y-2628D01*
G01X04966Y-2628D02*
G01X04966Y-2641D01*
G01X04966Y-2641D02*
G01X04968Y-2644D01*
G01X04968Y-2644D02*
G01X04969Y-2645D01*
G01X04969Y-2645D02*
G01X04972Y-2647D01*
G01X04972Y-2647D02*
G01X04977Y-2647D01*
G01X04977Y-2647D02*
G01X04980Y-2645D01*
G01X04980Y-2645D02*
G01X04981Y-2644D01*
G01X04981Y-2644D02*
G01X04983Y-2641D01*
G01X04983Y-2641D02*
G01X04983Y-2628D01*
G01X04977Y-2674D02*
G01X04998Y-2674D01*
G01X04964Y-2666D02*
G01X04987Y-2659D01*
G01X04987Y-2659D02*
G01X04987Y-2679D01*
G01X04969Y-2689D02*
G01X04968Y-2691D01*
G01X04968Y-2691D02*
G01X04966Y-2694D01*
G01X04966Y-2694D02*
G01X04966Y-2702D01*
G01X04966Y-2702D02*
G01X04968Y-2705D01*
G01X04968Y-2705D02*
G01X04969Y-2706D01*
G01X04969Y-2706D02*
G01X04972Y-2708D01*
G01X04972Y-2708D02*
G01X04975Y-2708D01*
G01X04975Y-2708D02*
G01X04980Y-2706D01*
G01X04980Y-2706D02*
G01X04998Y-2688D01*
G01X04998Y-2688D02*
G01X04998Y-2708D01*
G01X04969Y-2720D02*
G01X04968Y-2721D01*
G01X04968Y-2721D02*
G01X04966Y-2724D01*
G01X04966Y-2724D02*
G01X04966Y-2732D01*
G01X04966Y-2732D02*
G01X04968Y-2735D01*
G01X04968Y-2735D02*
G01X04969Y-2737D01*
G01X04969Y-2737D02*
G01X04972Y-2738D01*
G01X04972Y-2738D02*
G01X04975Y-2738D01*
G01X04975Y-2738D02*
G01X04980Y-2737D01*
G01X04980Y-2737D02*
G01X04998Y-2718D01*
G01X04998Y-2718D02*
G01X04998Y-2738D01*
G01X05616Y-4809D02*
G01X05615Y-4806D01*
G01X05615Y-4806D02*
G01X05611Y-4803D01*
G01X05611Y-4803D02*
G01X05607Y-4798D01*
G01X05607Y-4798D02*
G01X05605Y-4795D01*
G01X05605Y-4795D02*
G01X05605Y-4792D01*
G01X05613Y-4794D02*
G01X05611Y-4791D01*
G01X05611Y-4791D02*
G01X05608Y-4788D01*
G01X05608Y-4788D02*
G01X05602Y-4786D01*
G01X05602Y-4786D02*
G01X05592Y-4786D01*
G01X05592Y-4786D02*
G01X05586Y-4788D01*
G01X05586Y-4788D02*
G01X05583Y-4791D01*
G01X05583Y-4791D02*
G01X05581Y-4794D01*
G01X05581Y-4794D02*
G01X05581Y-4800D01*
G01X05581Y-4800D02*
G01X05583Y-4803D01*
G01X05583Y-4803D02*
G01X05586Y-4806D01*
G01X05586Y-4806D02*
G01X05592Y-4807D01*
G01X05592Y-4807D02*
G01X05602Y-4807D01*
G01X05602Y-4807D02*
G01X05608Y-4806D01*
G01X05608Y-4806D02*
G01X05611Y-4803D01*
G01X05611Y-4803D02*
G01X05613Y-4800D01*
G01X05613Y-4800D02*
G01X05613Y-4794D01*
G01X05613Y-4838D02*
G01X05613Y-4820D01*
G01X05613Y-4829D02*
G01X05581Y-4829D01*
G01X05581Y-4829D02*
G01X05586Y-4826D01*
G01X05586Y-4826D02*
G01X05589Y-4823D01*
G01X05589Y-4823D02*
G01X05590Y-4820D01*
G01X05581Y-4858D02*
G01X05581Y-4861D01*
G01X05581Y-4861D02*
G01X05583Y-4864D01*
G01X05583Y-4864D02*
G01X05584Y-4865D01*
G01X05584Y-4865D02*
G01X05587Y-4867D01*
G01X05587Y-4867D02*
G01X05593Y-4868D01*
G01X05593Y-4868D02*
G01X05601Y-4868D01*
G01X05601Y-4868D02*
G01X05607Y-4867D01*
G01X05607Y-4867D02*
G01X05610Y-4865D01*
G01X05610Y-4865D02*
G01X05611Y-4864D01*
G01X05611Y-4864D02*
G01X05613Y-4861D01*
G01X05613Y-4861D02*
G01X05613Y-4858D01*
G01X05613Y-4858D02*
G01X05611Y-4855D01*
G01X05611Y-4855D02*
G01X05610Y-4853D01*
G01X05610Y-4853D02*
G01X05607Y-4852D01*
G01X05607Y-4852D02*
G01X05601Y-4850D01*
G01X05601Y-4850D02*
G01X05593Y-4850D01*
G01X05593Y-4850D02*
G01X05587Y-4852D01*
G01X05587Y-4852D02*
G01X05584Y-4853D01*
G01X05584Y-4853D02*
G01X05583Y-4855D01*
G01X05583Y-4855D02*
G01X05581Y-4858D01*
G01X05613Y-4899D02*
G01X05613Y-4881D01*
G01X05613Y-4890D02*
G01X05581Y-4890D01*
G01X05581Y-4890D02*
G01X05586Y-4887D01*
G01X05586Y-4887D02*
G01X05589Y-4884D01*
G01X05589Y-4884D02*
G01X05590Y-4881D01*
G01X04903Y-3557D02*
G01X04888Y-3546D01*
G01X04903Y-3538D02*
G01X04871Y-3538D01*
G01X04871Y-3538D02*
G01X04871Y-3551D01*
G01X04871Y-3551D02*
G01X04873Y-3554D01*
G01X04873Y-3554D02*
G01X04874Y-3555D01*
G01X04874Y-3555D02*
G01X04877Y-3557D01*
G01X04877Y-3557D02*
G01X04882Y-3557D01*
G01X04882Y-3557D02*
G01X04885Y-3555D01*
G01X04885Y-3555D02*
G01X04886Y-3554D01*
G01X04886Y-3554D02*
G01X04888Y-3551D01*
G01X04888Y-3551D02*
G01X04888Y-3538D01*
G01X04882Y-3584D02*
G01X04903Y-3584D01*
G01X04869Y-3576D02*
G01X04892Y-3569D01*
G01X04892Y-3569D02*
G01X04892Y-3589D01*
G01X04871Y-3607D02*
G01X04871Y-3610D01*
G01X04871Y-3610D02*
G01X04873Y-3613D01*
G01X04873Y-3613D02*
G01X04874Y-3615D01*
G01X04874Y-3615D02*
G01X04877Y-3616D01*
G01X04877Y-3616D02*
G01X04883Y-3618D01*
G01X04883Y-3618D02*
G01X04891Y-3618D01*
G01X04891Y-3618D02*
G01X04897Y-3616D01*
G01X04897Y-3616D02*
G01X04900Y-3615D01*
G01X04900Y-3615D02*
G01X04901Y-3613D01*
G01X04901Y-3613D02*
G01X04903Y-3610D01*
G01X04903Y-3610D02*
G01X04903Y-3607D01*
G01X04903Y-3607D02*
G01X04901Y-3604D01*
G01X04901Y-3604D02*
G01X04900Y-3602D01*
G01X04900Y-3602D02*
G01X04897Y-3601D01*
G01X04897Y-3601D02*
G01X04891Y-3599D01*
G01X04891Y-3599D02*
G01X04883Y-3599D01*
G01X04883Y-3599D02*
G01X04877Y-3601D01*
G01X04877Y-3601D02*
G01X04874Y-3602D01*
G01X04874Y-3602D02*
G01X04873Y-3604D01*
G01X04873Y-3604D02*
G01X04871Y-3607D01*
G01X04871Y-3628D02*
G01X04871Y-3650D01*
G01X04871Y-3650D02*
G01X04903Y-3636D01*
G01X04737Y-4619D02*
G01X04739Y-4618D01*
G01X04739Y-4618D02*
G01X04741Y-4613D01*
G01X04741Y-4613D02*
G01X04741Y-4610D01*
G01X04741Y-4610D02*
G01X04739Y-4605D01*
G01X04739Y-4605D02*
G01X04736Y-4602D01*
G01X04736Y-4602D02*
G01X04733Y-4601D01*
G01X04733Y-4601D02*
G01X04727Y-4599D01*
G01X04727Y-4599D02*
G01X04722Y-4599D01*
G01X04722Y-4599D02*
G01X04716Y-4601D01*
G01X04716Y-4601D02*
G01X04713Y-4602D01*
G01X04713Y-4602D02*
G01X04710Y-4605D01*
G01X04710Y-4605D02*
G01X04709Y-4610D01*
G01X04709Y-4610D02*
G01X04709Y-4613D01*
G01X04709Y-4613D02*
G01X04710Y-4618D01*
G01X04710Y-4618D02*
G01X04712Y-4619D01*
G01X04709Y-4630D02*
G01X04709Y-4650D01*
G01X04709Y-4650D02*
G01X04721Y-4639D01*
G01X04721Y-4639D02*
G01X04721Y-4644D01*
G01X04721Y-4644D02*
G01X04722Y-4647D01*
G01X04722Y-4647D02*
G01X04724Y-4648D01*
G01X04724Y-4648D02*
G01X04727Y-4650D01*
G01X04727Y-4650D02*
G01X04734Y-4650D01*
G01X04734Y-4650D02*
G01X04737Y-4648D01*
G01X04737Y-4648D02*
G01X04739Y-4647D01*
G01X04739Y-4647D02*
G01X04741Y-4644D01*
G01X04741Y-4644D02*
G01X04741Y-4634D01*
G01X04741Y-4634D02*
G01X04739Y-4631D01*
G01X04739Y-4631D02*
G01X04737Y-4630D01*
G01X04709Y-4660D02*
G01X04709Y-4680D01*
G01X04709Y-4680D02*
G01X04721Y-4669D01*
G01X04721Y-4669D02*
G01X04721Y-4674D01*
G01X04721Y-4674D02*
G01X04722Y-4677D01*
G01X04722Y-4677D02*
G01X04724Y-4679D01*
G01X04724Y-4679D02*
G01X04727Y-4680D01*
G01X04727Y-4680D02*
G01X04734Y-4680D01*
G01X04734Y-4680D02*
G01X04737Y-4679D01*
G01X04737Y-4679D02*
G01X04739Y-4677D01*
G01X04739Y-4677D02*
G01X04741Y-4674D01*
G01X04741Y-4674D02*
G01X04741Y-4665D01*
G01X04741Y-4665D02*
G01X04739Y-4662D01*
G01X04739Y-4662D02*
G01X04737Y-4660D01*
G01X04709Y-4691D02*
G01X04709Y-4711D01*
G01X04709Y-4711D02*
G01X04721Y-4700D01*
G01X04721Y-4700D02*
G01X04721Y-4705D01*
G01X04721Y-4705D02*
G01X04722Y-4708D01*
G01X04722Y-4708D02*
G01X04724Y-4709D01*
G01X04724Y-4709D02*
G01X04727Y-4711D01*
G01X04727Y-4711D02*
G01X04734Y-4711D01*
G01X04734Y-4711D02*
G01X04737Y-4709D01*
G01X04737Y-4709D02*
G01X04739Y-4708D01*
G01X04739Y-4708D02*
G01X04741Y-4705D01*
G01X04741Y-4705D02*
G01X04741Y-4695D01*
G01X04741Y-4695D02*
G01X04739Y-4692D01*
G01X04739Y-4692D02*
G01X04737Y-4691D01*
G01X04797Y-4619D02*
G01X04799Y-4618D01*
G01X04799Y-4618D02*
G01X04801Y-4613D01*
G01X04801Y-4613D02*
G01X04801Y-4610D01*
G01X04801Y-4610D02*
G01X04799Y-4605D01*
G01X04799Y-4605D02*
G01X04796Y-4602D01*
G01X04796Y-4602D02*
G01X04793Y-4601D01*
G01X04793Y-4601D02*
G01X04787Y-4599D01*
G01X04787Y-4599D02*
G01X04782Y-4599D01*
G01X04782Y-4599D02*
G01X04776Y-4601D01*
G01X04776Y-4601D02*
G01X04773Y-4602D01*
G01X04773Y-4602D02*
G01X04770Y-4605D01*
G01X04770Y-4605D02*
G01X04769Y-4610D01*
G01X04769Y-4610D02*
G01X04769Y-4613D01*
G01X04769Y-4613D02*
G01X04770Y-4618D01*
G01X04770Y-4618D02*
G01X04772Y-4619D01*
G01X04769Y-4630D02*
G01X04769Y-4650D01*
G01X04769Y-4650D02*
G01X04781Y-4639D01*
G01X04781Y-4639D02*
G01X04781Y-4644D01*
G01X04781Y-4644D02*
G01X04782Y-4647D01*
G01X04782Y-4647D02*
G01X04784Y-4648D01*
G01X04784Y-4648D02*
G01X04787Y-4650D01*
G01X04787Y-4650D02*
G01X04794Y-4650D01*
G01X04794Y-4650D02*
G01X04797Y-4648D01*
G01X04797Y-4648D02*
G01X04799Y-4647D01*
G01X04799Y-4647D02*
G01X04801Y-4644D01*
G01X04801Y-4644D02*
G01X04801Y-4634D01*
G01X04801Y-4634D02*
G01X04799Y-4631D01*
G01X04799Y-4631D02*
G01X04797Y-4630D01*
G01X04769Y-4660D02*
G01X04769Y-4680D01*
G01X04769Y-4680D02*
G01X04781Y-4669D01*
G01X04781Y-4669D02*
G01X04781Y-4674D01*
G01X04781Y-4674D02*
G01X04782Y-4677D01*
G01X04782Y-4677D02*
G01X04784Y-4679D01*
G01X04784Y-4679D02*
G01X04787Y-4680D01*
G01X04787Y-4680D02*
G01X04794Y-4680D01*
G01X04794Y-4680D02*
G01X04797Y-4679D01*
G01X04797Y-4679D02*
G01X04799Y-4677D01*
G01X04799Y-4677D02*
G01X04801Y-4674D01*
G01X04801Y-4674D02*
G01X04801Y-4665D01*
G01X04801Y-4665D02*
G01X04799Y-4662D01*
G01X04799Y-4662D02*
G01X04797Y-4660D01*
G01X04772Y-4692D02*
G01X04770Y-4694D01*
G01X04770Y-4694D02*
G01X04769Y-4697D01*
G01X04769Y-4697D02*
G01X04769Y-4705D01*
G01X04769Y-4705D02*
G01X04770Y-4708D01*
G01X04770Y-4708D02*
G01X04772Y-4709D01*
G01X04772Y-4709D02*
G01X04775Y-4711D01*
G01X04775Y-4711D02*
G01X04778Y-4711D01*
G01X04778Y-4711D02*
G01X04782Y-4709D01*
G01X04782Y-4709D02*
G01X04801Y-4691D01*
G01X04801Y-4691D02*
G01X04801Y-4711D01*
G01X06771Y-4867D02*
G01X06755Y-4856D01*
G01X06771Y-4848D02*
G01X06739Y-4848D01*
G01X06739Y-4848D02*
G01X06739Y-4861D01*
G01X06739Y-4861D02*
G01X06740Y-4864D01*
G01X06740Y-4864D02*
G01X06742Y-4865D01*
G01X06742Y-4865D02*
G01X06745Y-4867D01*
G01X06745Y-4867D02*
G01X06749Y-4867D01*
G01X06749Y-4867D02*
G01X06752Y-4865D01*
G01X06752Y-4865D02*
G01X06754Y-4864D01*
G01X06754Y-4864D02*
G01X06755Y-4861D01*
G01X06755Y-4861D02*
G01X06755Y-4848D01*
G01X06771Y-4897D02*
G01X06771Y-4879D01*
G01X06771Y-4888D02*
G01X06739Y-4888D01*
G01X06739Y-4888D02*
G01X06743Y-4885D01*
G01X06743Y-4885D02*
G01X06746Y-4882D01*
G01X06746Y-4882D02*
G01X06748Y-4879D01*
G01X06742Y-4909D02*
G01X06740Y-4911D01*
G01X06740Y-4911D02*
G01X06739Y-4914D01*
G01X06739Y-4914D02*
G01X06739Y-4922D01*
G01X06739Y-4922D02*
G01X06740Y-4925D01*
G01X06740Y-4925D02*
G01X06742Y-4926D01*
G01X06742Y-4926D02*
G01X06745Y-4928D01*
G01X06745Y-4928D02*
G01X06748Y-4928D01*
G01X06748Y-4928D02*
G01X06752Y-4926D01*
G01X06752Y-4926D02*
G01X06771Y-4908D01*
G01X06771Y-4908D02*
G01X06771Y-4928D01*
G01X06752Y-4946D02*
G01X06751Y-4943D01*
G01X06751Y-4943D02*
G01X06749Y-4941D01*
G01X06749Y-4941D02*
G01X06746Y-4940D01*
G01X06746Y-4940D02*
G01X06745Y-4940D01*
G01X06745Y-4940D02*
G01X06742Y-4941D01*
G01X06742Y-4941D02*
G01X06740Y-4943D01*
G01X06740Y-4943D02*
G01X06739Y-4946D01*
G01X06739Y-4946D02*
G01X06739Y-4952D01*
G01X06739Y-4952D02*
G01X06740Y-4955D01*
G01X06740Y-4955D02*
G01X06742Y-4957D01*
G01X06742Y-4957D02*
G01X06745Y-4958D01*
G01X06745Y-4958D02*
G01X06746Y-4958D01*
G01X06746Y-4958D02*
G01X06749Y-4957D01*
G01X06749Y-4957D02*
G01X06751Y-4955D01*
G01X06751Y-4955D02*
G01X06752Y-4952D01*
G01X06752Y-4952D02*
G01X06752Y-4946D01*
G01X06752Y-4946D02*
G01X06754Y-4943D01*
G01X06754Y-4943D02*
G01X06755Y-4941D01*
G01X06755Y-4941D02*
G01X06758Y-4940D01*
G01X06758Y-4940D02*
G01X06764Y-4940D01*
G01X06764Y-4940D02*
G01X06767Y-4941D01*
G01X06767Y-4941D02*
G01X06769Y-4943D01*
G01X06769Y-4943D02*
G01X06771Y-4946D01*
G01X06771Y-4946D02*
G01X06771Y-4952D01*
G01X06771Y-4952D02*
G01X06769Y-4955D01*
G01X06769Y-4955D02*
G01X06767Y-4957D01*
G01X06767Y-4957D02*
G01X06764Y-4958D01*
G01X06764Y-4958D02*
G01X06758Y-4958D01*
G01X06758Y-4958D02*
G01X06755Y-4957D01*
G01X06755Y-4957D02*
G01X06754Y-4955D01*
G01X06754Y-4955D02*
G01X06752Y-4952D01*
G01X06553Y-4737D02*
G01X06538Y-4726D01*
G01X06553Y-4718D02*
G01X06521Y-4718D01*
G01X06521Y-4718D02*
G01X06521Y-4731D01*
G01X06521Y-4731D02*
G01X06523Y-4734D01*
G01X06523Y-4734D02*
G01X06524Y-4735D01*
G01X06524Y-4735D02*
G01X06527Y-4737D01*
G01X06527Y-4737D02*
G01X06532Y-4737D01*
G01X06532Y-4737D02*
G01X06535Y-4735D01*
G01X06535Y-4735D02*
G01X06536Y-4734D01*
G01X06536Y-4734D02*
G01X06538Y-4731D01*
G01X06538Y-4731D02*
G01X06538Y-4718D01*
G01X06553Y-4767D02*
G01X06553Y-4749D01*
G01X06553Y-4758D02*
G01X06521Y-4758D01*
G01X06521Y-4758D02*
G01X06526Y-4755D01*
G01X06526Y-4755D02*
G01X06529Y-4752D01*
G01X06529Y-4752D02*
G01X06530Y-4749D01*
G01X06524Y-4779D02*
G01X06523Y-4781D01*
G01X06523Y-4781D02*
G01X06521Y-4784D01*
G01X06521Y-4784D02*
G01X06521Y-4792D01*
G01X06521Y-4792D02*
G01X06523Y-4795D01*
G01X06523Y-4795D02*
G01X06524Y-4796D01*
G01X06524Y-4796D02*
G01X06527Y-4798D01*
G01X06527Y-4798D02*
G01X06530Y-4798D01*
G01X06530Y-4798D02*
G01X06535Y-4796D01*
G01X06535Y-4796D02*
G01X06553Y-4778D01*
G01X06553Y-4778D02*
G01X06553Y-4798D01*
G01X06521Y-4808D02*
G01X06521Y-4830D01*
G01X06521Y-4830D02*
G01X06553Y-4816D01*
G01X05323Y-4965D02*
G01X05334Y-4950D01*
G01X05342Y-4965D02*
G01X05342Y-4933D01*
G01X05342Y-4933D02*
G01X05329Y-4933D01*
G01X05329Y-4933D02*
G01X05326Y-4935D01*
G01X05326Y-4935D02*
G01X05325Y-4936D01*
G01X05325Y-4936D02*
G01X05323Y-4939D01*
G01X05323Y-4939D02*
G01X05323Y-4944D01*
G01X05323Y-4944D02*
G01X05325Y-4947D01*
G01X05325Y-4947D02*
G01X05326Y-4949D01*
G01X05326Y-4949D02*
G01X05329Y-4950D01*
G01X05329Y-4950D02*
G01X05342Y-4950D01*
G01X05293Y-4965D02*
G01X05311Y-4965D01*
G01X05302Y-4965D02*
G01X05302Y-4933D01*
G01X05302Y-4933D02*
G01X05305Y-4938D01*
G01X05305Y-4938D02*
G01X05308Y-4941D01*
G01X05308Y-4941D02*
G01X05311Y-4943D01*
G01X05281Y-4936D02*
G01X05279Y-4935D01*
G01X05279Y-4935D02*
G01X05276Y-4933D01*
G01X05276Y-4933D02*
G01X05268Y-4933D01*
G01X05268Y-4933D02*
G01X05265Y-4935D01*
G01X05265Y-4935D02*
G01X05264Y-4936D01*
G01X05264Y-4936D02*
G01X05262Y-4939D01*
G01X05262Y-4939D02*
G01X05262Y-4943D01*
G01X05262Y-4943D02*
G01X05264Y-4947D01*
G01X05264Y-4947D02*
G01X05282Y-4965D01*
G01X05282Y-4965D02*
G01X05262Y-4965D01*
G01X05233Y-4933D02*
G01X05249Y-4933D01*
G01X05249Y-4933D02*
G01X05250Y-4949D01*
G01X05250Y-4949D02*
G01X05249Y-4947D01*
G01X05249Y-4947D02*
G01X05246Y-4946D01*
G01X05246Y-4946D02*
G01X05238Y-4946D01*
G01X05238Y-4946D02*
G01X05235Y-4947D01*
G01X05235Y-4947D02*
G01X05233Y-4949D01*
G01X05233Y-4949D02*
G01X05232Y-4952D01*
G01X05232Y-4952D02*
G01X05232Y-4959D01*
G01X05232Y-4959D02*
G01X05233Y-4962D01*
G01X05233Y-4962D02*
G01X05235Y-4964D01*
G01X05235Y-4964D02*
G01X05238Y-4965D01*
G01X05238Y-4965D02*
G01X05246Y-4965D01*
G01X05246Y-4965D02*
G01X05249Y-4964D01*
G01X05249Y-4964D02*
G01X05250Y-4962D01*
G01X05461Y-4965D02*
G01X05472Y-4950D01*
G01X05479Y-4965D02*
G01X05479Y-4933D01*
G01X05479Y-4933D02*
G01X05467Y-4933D01*
G01X05467Y-4933D02*
G01X05464Y-4935D01*
G01X05464Y-4935D02*
G01X05462Y-4936D01*
G01X05462Y-4936D02*
G01X05461Y-4939D01*
G01X05461Y-4939D02*
G01X05461Y-4944D01*
G01X05461Y-4944D02*
G01X05462Y-4947D01*
G01X05462Y-4947D02*
G01X05464Y-4949D01*
G01X05464Y-4949D02*
G01X05467Y-4950D01*
G01X05467Y-4950D02*
G01X05479Y-4950D01*
G01X05430Y-4965D02*
G01X05449Y-4965D01*
G01X05440Y-4965D02*
G01X05440Y-4933D01*
G01X05440Y-4933D02*
G01X05443Y-4938D01*
G01X05443Y-4938D02*
G01X05446Y-4941D01*
G01X05446Y-4941D02*
G01X05449Y-4943D01*
G01X05418Y-4936D02*
G01X05417Y-4935D01*
G01X05417Y-4935D02*
G01X05414Y-4933D01*
G01X05414Y-4933D02*
G01X05406Y-4933D01*
G01X05406Y-4933D02*
G01X05403Y-4935D01*
G01X05403Y-4935D02*
G01X05401Y-4936D01*
G01X05401Y-4936D02*
G01X05400Y-4939D01*
G01X05400Y-4939D02*
G01X05400Y-4943D01*
G01X05400Y-4943D02*
G01X05401Y-4947D01*
G01X05401Y-4947D02*
G01X05420Y-4965D01*
G01X05420Y-4965D02*
G01X05400Y-4965D01*
G01X05389Y-4933D02*
G01X05369Y-4933D01*
G01X05369Y-4933D02*
G01X05380Y-4946D01*
G01X05380Y-4946D02*
G01X05375Y-4946D01*
G01X05375Y-4946D02*
G01X05372Y-4947D01*
G01X05372Y-4947D02*
G01X05371Y-4949D01*
G01X05371Y-4949D02*
G01X05369Y-4952D01*
G01X05369Y-4952D02*
G01X05369Y-4959D01*
G01X05369Y-4959D02*
G01X05371Y-4962D01*
G01X05371Y-4962D02*
G01X05372Y-4964D01*
G01X05372Y-4964D02*
G01X05375Y-4965D01*
G01X05375Y-4965D02*
G01X05385Y-4965D01*
G01X05385Y-4965D02*
G01X05388Y-4964D01*
G01X05388Y-4964D02*
G01X05389Y-4962D01*
G01X05886Y-4882D02*
G01X05870Y-4871D01*
G01X05886Y-4863D02*
G01X05854Y-4863D01*
G01X05854Y-4863D02*
G01X05854Y-4876D01*
G01X05854Y-4876D02*
G01X05855Y-4879D01*
G01X05855Y-4879D02*
G01X05857Y-4880D01*
G01X05857Y-4880D02*
G01X05860Y-4882D01*
G01X05860Y-4882D02*
G01X05864Y-4882D01*
G01X05864Y-4882D02*
G01X05867Y-4880D01*
G01X05867Y-4880D02*
G01X05869Y-4879D01*
G01X05869Y-4879D02*
G01X05870Y-4876D01*
G01X05870Y-4876D02*
G01X05870Y-4863D01*
G01X05886Y-4912D02*
G01X05886Y-4894D01*
G01X05886Y-4903D02*
G01X05854Y-4903D01*
G01X05854Y-4903D02*
G01X05858Y-4900D01*
G01X05858Y-4900D02*
G01X05861Y-4897D01*
G01X05861Y-4897D02*
G01X05863Y-4894D01*
G01X05857Y-4924D02*
G01X05855Y-4926D01*
G01X05855Y-4926D02*
G01X05854Y-4929D01*
G01X05854Y-4929D02*
G01X05854Y-4937D01*
G01X05854Y-4937D02*
G01X05855Y-4940D01*
G01X05855Y-4940D02*
G01X05857Y-4941D01*
G01X05857Y-4941D02*
G01X05860Y-4943D01*
G01X05860Y-4943D02*
G01X05863Y-4943D01*
G01X05863Y-4943D02*
G01X05867Y-4941D01*
G01X05867Y-4941D02*
G01X05886Y-4923D01*
G01X05886Y-4923D02*
G01X05886Y-4943D01*
G01X05857Y-4955D02*
G01X05855Y-4956D01*
G01X05855Y-4956D02*
G01X05854Y-4959D01*
G01X05854Y-4959D02*
G01X05854Y-4967D01*
G01X05854Y-4967D02*
G01X05855Y-4970D01*
G01X05855Y-4970D02*
G01X05857Y-4972D01*
G01X05857Y-4972D02*
G01X05860Y-4973D01*
G01X05860Y-4973D02*
G01X05863Y-4973D01*
G01X05863Y-4973D02*
G01X05867Y-4972D01*
G01X05867Y-4972D02*
G01X05886Y-4953D01*
G01X05886Y-4953D02*
G01X05886Y-4973D01*
G01X06550Y-4867D02*
G01X06551Y-4865D01*
G01X06551Y-4865D02*
G01X06553Y-4861D01*
G01X06553Y-4861D02*
G01X06553Y-4858D01*
G01X06553Y-4858D02*
G01X06551Y-4853D01*
G01X06551Y-4853D02*
G01X06548Y-4850D01*
G01X06548Y-4850D02*
G01X06545Y-4848D01*
G01X06545Y-4848D02*
G01X06539Y-4847D01*
G01X06539Y-4847D02*
G01X06535Y-4847D01*
G01X06535Y-4847D02*
G01X06529Y-4848D01*
G01X06529Y-4848D02*
G01X06526Y-4850D01*
G01X06526Y-4850D02*
G01X06523Y-4853D01*
G01X06523Y-4853D02*
G01X06521Y-4858D01*
G01X06521Y-4858D02*
G01X06521Y-4861D01*
G01X06521Y-4861D02*
G01X06523Y-4865D01*
G01X06523Y-4865D02*
G01X06524Y-4867D01*
G01X06553Y-4897D02*
G01X06553Y-4879D01*
G01X06553Y-4888D02*
G01X06521Y-4888D01*
G01X06521Y-4888D02*
G01X06526Y-4885D01*
G01X06526Y-4885D02*
G01X06529Y-4882D01*
G01X06529Y-4882D02*
G01X06530Y-4879D01*
G01X06524Y-4909D02*
G01X06523Y-4911D01*
G01X06523Y-4911D02*
G01X06521Y-4914D01*
G01X06521Y-4914D02*
G01X06521Y-4922D01*
G01X06521Y-4922D02*
G01X06523Y-4925D01*
G01X06523Y-4925D02*
G01X06524Y-4926D01*
G01X06524Y-4926D02*
G01X06527Y-4928D01*
G01X06527Y-4928D02*
G01X06530Y-4928D01*
G01X06530Y-4928D02*
G01X06535Y-4926D01*
G01X06535Y-4926D02*
G01X06553Y-4908D01*
G01X06553Y-4908D02*
G01X06553Y-4928D01*
G01X06535Y-4946D02*
G01X06533Y-4943D01*
G01X06533Y-4943D02*
G01X06532Y-4941D01*
G01X06532Y-4941D02*
G01X06529Y-4940D01*
G01X06529Y-4940D02*
G01X06527Y-4940D01*
G01X06527Y-4940D02*
G01X06524Y-4941D01*
G01X06524Y-4941D02*
G01X06523Y-4943D01*
G01X06523Y-4943D02*
G01X06521Y-4946D01*
G01X06521Y-4946D02*
G01X06521Y-4952D01*
G01X06521Y-4952D02*
G01X06523Y-4955D01*
G01X06523Y-4955D02*
G01X06524Y-4957D01*
G01X06524Y-4957D02*
G01X06527Y-4958D01*
G01X06527Y-4958D02*
G01X06529Y-4958D01*
G01X06529Y-4958D02*
G01X06532Y-4957D01*
G01X06532Y-4957D02*
G01X06533Y-4955D01*
G01X06533Y-4955D02*
G01X06535Y-4952D01*
G01X06535Y-4952D02*
G01X06535Y-4946D01*
G01X06535Y-4946D02*
G01X06536Y-4943D01*
G01X06536Y-4943D02*
G01X06538Y-4941D01*
G01X06538Y-4941D02*
G01X06541Y-4940D01*
G01X06541Y-4940D02*
G01X06547Y-4940D01*
G01X06547Y-4940D02*
G01X06550Y-4941D01*
G01X06550Y-4941D02*
G01X06551Y-4943D01*
G01X06551Y-4943D02*
G01X06553Y-4946D01*
G01X06553Y-4946D02*
G01X06553Y-4952D01*
G01X06553Y-4952D02*
G01X06551Y-4955D01*
G01X06551Y-4955D02*
G01X06550Y-4957D01*
G01X06550Y-4957D02*
G01X06547Y-4958D01*
G01X06547Y-4958D02*
G01X06541Y-4958D01*
G01X06541Y-4958D02*
G01X06538Y-4957D01*
G01X06538Y-4957D02*
G01X06536Y-4955D01*
G01X06536Y-4955D02*
G01X06535Y-4952D01*
G01X05735Y-4539D02*
G01X05736Y-4538D01*
G01X05736Y-4538D02*
G01X05738Y-4533D01*
G01X05738Y-4533D02*
G01X05738Y-4530D01*
G01X05738Y-4530D02*
G01X05736Y-4525D01*
G01X05736Y-4525D02*
G01X05733Y-4522D01*
G01X05733Y-4522D02*
G01X05730Y-4521D01*
G01X05730Y-4521D02*
G01X05724Y-4519D01*
G01X05724Y-4519D02*
G01X05720Y-4519D01*
G01X05720Y-4519D02*
G01X05714Y-4521D01*
G01X05714Y-4521D02*
G01X05711Y-4522D01*
G01X05711Y-4522D02*
G01X05708Y-4525D01*
G01X05708Y-4525D02*
G01X05706Y-4530D01*
G01X05706Y-4530D02*
G01X05706Y-4533D01*
G01X05706Y-4533D02*
G01X05708Y-4538D01*
G01X05708Y-4538D02*
G01X05709Y-4539D01*
G01X05738Y-4570D02*
G01X05738Y-4551D01*
G01X05738Y-4560D02*
G01X05706Y-4560D01*
G01X05706Y-4560D02*
G01X05711Y-4557D01*
G01X05711Y-4557D02*
G01X05714Y-4554D01*
G01X05714Y-4554D02*
G01X05715Y-4551D01*
G01X05709Y-4582D02*
G01X05708Y-4583D01*
G01X05708Y-4583D02*
G01X05706Y-4586D01*
G01X05706Y-4586D02*
G01X05706Y-4594D01*
G01X05706Y-4594D02*
G01X05708Y-4597D01*
G01X05708Y-4597D02*
G01X05709Y-4599D01*
G01X05709Y-4599D02*
G01X05712Y-4600D01*
G01X05712Y-4600D02*
G01X05715Y-4600D01*
G01X05715Y-4600D02*
G01X05720Y-4599D01*
G01X05720Y-4599D02*
G01X05738Y-4580D01*
G01X05738Y-4580D02*
G01X05738Y-4600D01*
G01X05706Y-4629D02*
G01X05706Y-4614D01*
G01X05706Y-4614D02*
G01X05721Y-4612D01*
G01X05721Y-4612D02*
G01X05720Y-4614D01*
G01X05720Y-4614D02*
G01X05718Y-4617D01*
G01X05718Y-4617D02*
G01X05718Y-4625D01*
G01X05718Y-4625D02*
G01X05720Y-4628D01*
G01X05720Y-4628D02*
G01X05721Y-4629D01*
G01X05721Y-4629D02*
G01X05724Y-4631D01*
G01X05724Y-4631D02*
G01X05732Y-4631D01*
G01X05732Y-4631D02*
G01X05735Y-4629D01*
G01X05735Y-4629D02*
G01X05736Y-4628D01*
G01X05736Y-4628D02*
G01X05738Y-4625D01*
G01X05738Y-4625D02*
G01X05738Y-4617D01*
G01X05738Y-4617D02*
G01X05736Y-4614D01*
G01X05736Y-4614D02*
G01X05735Y-4612D01*
G01X05380Y-4802D02*
G01X05381Y-4800D01*
G01X05381Y-4800D02*
G01X05383Y-4796D01*
G01X05383Y-4796D02*
G01X05383Y-4793D01*
G01X05383Y-4793D02*
G01X05381Y-4788D01*
G01X05381Y-4788D02*
G01X05378Y-4785D01*
G01X05378Y-4785D02*
G01X05375Y-4783D01*
G01X05375Y-4783D02*
G01X05369Y-4782D01*
G01X05369Y-4782D02*
G01X05365Y-4782D01*
G01X05365Y-4782D02*
G01X05359Y-4783D01*
G01X05359Y-4783D02*
G01X05356Y-4785D01*
G01X05356Y-4785D02*
G01X05353Y-4788D01*
G01X05353Y-4788D02*
G01X05351Y-4793D01*
G01X05351Y-4793D02*
G01X05351Y-4796D01*
G01X05351Y-4796D02*
G01X05353Y-4800D01*
G01X05353Y-4800D02*
G01X05354Y-4802D01*
G01X05383Y-4832D02*
G01X05383Y-4814D01*
G01X05383Y-4823D02*
G01X05351Y-4823D01*
G01X05351Y-4823D02*
G01X05356Y-4820D01*
G01X05356Y-4820D02*
G01X05359Y-4817D01*
G01X05359Y-4817D02*
G01X05360Y-4814D01*
G01X05354Y-4844D02*
G01X05353Y-4846D01*
G01X05353Y-4846D02*
G01X05351Y-4849D01*
G01X05351Y-4849D02*
G01X05351Y-4857D01*
G01X05351Y-4857D02*
G01X05353Y-4860D01*
G01X05353Y-4860D02*
G01X05354Y-4861D01*
G01X05354Y-4861D02*
G01X05357Y-4863D01*
G01X05357Y-4863D02*
G01X05360Y-4863D01*
G01X05360Y-4863D02*
G01X05365Y-4861D01*
G01X05365Y-4861D02*
G01X05383Y-4843D01*
G01X05383Y-4843D02*
G01X05383Y-4863D01*
G01X05362Y-4890D02*
G01X05383Y-4890D01*
G01X05349Y-4882D02*
G01X05372Y-4875D01*
G01X05372Y-4875D02*
G01X05372Y-4895D01*
G01X05731Y-4827D02*
G01X05732Y-4829D01*
G01X05732Y-4829D02*
G01X05737Y-4830D01*
G01X05737Y-4830D02*
G01X05740Y-4830D01*
G01X05740Y-4830D02*
G01X05745Y-4829D01*
G01X05745Y-4829D02*
G01X05748Y-4826D01*
G01X05748Y-4826D02*
G01X05749Y-4823D01*
G01X05749Y-4823D02*
G01X05751Y-4817D01*
G01X05751Y-4817D02*
G01X05751Y-4812D01*
G01X05751Y-4812D02*
G01X05749Y-4806D01*
G01X05749Y-4806D02*
G01X05748Y-4803D01*
G01X05748Y-4803D02*
G01X05745Y-4800D01*
G01X05745Y-4800D02*
G01X05740Y-4798D01*
G01X05740Y-4798D02*
G01X05737Y-4798D01*
G01X05737Y-4798D02*
G01X05732Y-4800D01*
G01X05732Y-4800D02*
G01X05731Y-4801D01*
G01X05700Y-4830D02*
G01X05719Y-4830D01*
G01X05710Y-4830D02*
G01X05710Y-4798D01*
G01X05710Y-4798D02*
G01X05713Y-4803D01*
G01X05713Y-4803D02*
G01X05716Y-4806D01*
G01X05716Y-4806D02*
G01X05719Y-4808D01*
G01X05688Y-4801D02*
G01X05687Y-4800D01*
G01X05687Y-4800D02*
G01X05684Y-4798D01*
G01X05684Y-4798D02*
G01X05676Y-4798D01*
G01X05676Y-4798D02*
G01X05673Y-4800D01*
G01X05673Y-4800D02*
G01X05671Y-4801D01*
G01X05671Y-4801D02*
G01X05670Y-4804D01*
G01X05670Y-4804D02*
G01X05670Y-4808D01*
G01X05670Y-4808D02*
G01X05671Y-4812D01*
G01X05671Y-4812D02*
G01X05690Y-4830D01*
G01X05690Y-4830D02*
G01X05670Y-4830D01*
G01X05659Y-4798D02*
G01X05639Y-4798D01*
G01X05639Y-4798D02*
G01X05650Y-4811D01*
G01X05650Y-4811D02*
G01X05645Y-4811D01*
G01X05645Y-4811D02*
G01X05642Y-4812D01*
G01X05642Y-4812D02*
G01X05641Y-4814D01*
G01X05641Y-4814D02*
G01X05639Y-4817D01*
G01X05639Y-4817D02*
G01X05639Y-4824D01*
G01X05639Y-4824D02*
G01X05641Y-4827D01*
G01X05641Y-4827D02*
G01X05642Y-4829D01*
G01X05642Y-4829D02*
G01X05645Y-4830D01*
G01X05645Y-4830D02*
G01X05655Y-4830D01*
G01X05655Y-4830D02*
G01X05658Y-4829D01*
G01X05658Y-4829D02*
G01X05659Y-4827D01*
G01X05830Y-4539D02*
G01X05831Y-4538D01*
G01X05831Y-4538D02*
G01X05833Y-4533D01*
G01X05833Y-4533D02*
G01X05833Y-4530D01*
G01X05833Y-4530D02*
G01X05831Y-4525D01*
G01X05831Y-4525D02*
G01X05828Y-4522D01*
G01X05828Y-4522D02*
G01X05825Y-4521D01*
G01X05825Y-4521D02*
G01X05819Y-4519D01*
G01X05819Y-4519D02*
G01X05815Y-4519D01*
G01X05815Y-4519D02*
G01X05809Y-4521D01*
G01X05809Y-4521D02*
G01X05806Y-4522D01*
G01X05806Y-4522D02*
G01X05803Y-4525D01*
G01X05803Y-4525D02*
G01X05801Y-4530D01*
G01X05801Y-4530D02*
G01X05801Y-4533D01*
G01X05801Y-4533D02*
G01X05803Y-4538D01*
G01X05803Y-4538D02*
G01X05804Y-4539D01*
G01X05833Y-4570D02*
G01X05833Y-4551D01*
G01X05833Y-4560D02*
G01X05801Y-4560D01*
G01X05801Y-4560D02*
G01X05806Y-4557D01*
G01X05806Y-4557D02*
G01X05809Y-4554D01*
G01X05809Y-4554D02*
G01X05810Y-4551D01*
G01X05804Y-4582D02*
G01X05803Y-4583D01*
G01X05803Y-4583D02*
G01X05801Y-4586D01*
G01X05801Y-4586D02*
G01X05801Y-4594D01*
G01X05801Y-4594D02*
G01X05803Y-4597D01*
G01X05803Y-4597D02*
G01X05804Y-4599D01*
G01X05804Y-4599D02*
G01X05807Y-4600D01*
G01X05807Y-4600D02*
G01X05810Y-4600D01*
G01X05810Y-4600D02*
G01X05815Y-4599D01*
G01X05815Y-4599D02*
G01X05833Y-4580D01*
G01X05833Y-4580D02*
G01X05833Y-4600D01*
G01X05804Y-4612D02*
G01X05803Y-4614D01*
G01X05803Y-4614D02*
G01X05801Y-4617D01*
G01X05801Y-4617D02*
G01X05801Y-4625D01*
G01X05801Y-4625D02*
G01X05803Y-4628D01*
G01X05803Y-4628D02*
G01X05804Y-4629D01*
G01X05804Y-4629D02*
G01X05807Y-4631D01*
G01X05807Y-4631D02*
G01X05810Y-4631D01*
G01X05810Y-4631D02*
G01X05815Y-4629D01*
G01X05815Y-4629D02*
G01X05833Y-4611D01*
G01X05833Y-4611D02*
G01X05833Y-4631D01*
G01X05452Y-4802D02*
G01X05454Y-4800D01*
G01X05454Y-4800D02*
G01X05456Y-4796D01*
G01X05456Y-4796D02*
G01X05456Y-4793D01*
G01X05456Y-4793D02*
G01X05454Y-4788D01*
G01X05454Y-4788D02*
G01X05451Y-4785D01*
G01X05451Y-4785D02*
G01X05448Y-4783D01*
G01X05448Y-4783D02*
G01X05442Y-4782D01*
G01X05442Y-4782D02*
G01X05437Y-4782D01*
G01X05437Y-4782D02*
G01X05431Y-4783D01*
G01X05431Y-4783D02*
G01X05428Y-4785D01*
G01X05428Y-4785D02*
G01X05425Y-4788D01*
G01X05425Y-4788D02*
G01X05424Y-4793D01*
G01X05424Y-4793D02*
G01X05424Y-4796D01*
G01X05424Y-4796D02*
G01X05425Y-4800D01*
G01X05425Y-4800D02*
G01X05427Y-4802D01*
G01X05456Y-4832D02*
G01X05456Y-4814D01*
G01X05456Y-4823D02*
G01X05424Y-4823D01*
G01X05424Y-4823D02*
G01X05428Y-4820D01*
G01X05428Y-4820D02*
G01X05431Y-4817D01*
G01X05431Y-4817D02*
G01X05433Y-4814D01*
G01X05427Y-4844D02*
G01X05425Y-4846D01*
G01X05425Y-4846D02*
G01X05424Y-4849D01*
G01X05424Y-4849D02*
G01X05424Y-4857D01*
G01X05424Y-4857D02*
G01X05425Y-4860D01*
G01X05425Y-4860D02*
G01X05427Y-4861D01*
G01X05427Y-4861D02*
G01X05430Y-4863D01*
G01X05430Y-4863D02*
G01X05433Y-4863D01*
G01X05433Y-4863D02*
G01X05437Y-4861D01*
G01X05437Y-4861D02*
G01X05456Y-4843D01*
G01X05456Y-4843D02*
G01X05456Y-4863D01*
G01X05456Y-4893D02*
G01X05456Y-4875D01*
G01X05456Y-4884D02*
G01X05424Y-4884D01*
G01X05424Y-4884D02*
G01X05428Y-4881D01*
G01X05428Y-4881D02*
G01X05431Y-4878D01*
G01X05431Y-4878D02*
G01X05433Y-4875D01*
G01X07259Y-2650D02*
G01X07259Y-2618D01*
G01X07259Y-2618D02*
G01X07252Y-2618D01*
G01X07252Y-2618D02*
G01X07247Y-2620D01*
G01X07247Y-2620D02*
G01X07244Y-2623D01*
G01X07244Y-2623D02*
G01X07242Y-2626D01*
G01X07242Y-2626D02*
G01X07241Y-2632D01*
G01X07241Y-2632D02*
G01X07241Y-2637D01*
G01X07241Y-2637D02*
G01X07242Y-2643D01*
G01X07242Y-2643D02*
G01X07244Y-2646D01*
G01X07244Y-2646D02*
G01X07247Y-2649D01*
G01X07247Y-2649D02*
G01X07252Y-2650D01*
G01X07252Y-2650D02*
G01X07259Y-2650D01*
G01X07213Y-2629D02*
G01X07213Y-2650D01*
G01X07221Y-2617D02*
G01X07229Y-2640D01*
G01X07229Y-2640D02*
G01X07209Y-2640D01*
G01X07191Y-2618D02*
G01X07187Y-2618D01*
G01X07187Y-2618D02*
G01X07184Y-2620D01*
G01X07184Y-2620D02*
G01X07183Y-2621D01*
G01X07183Y-2621D02*
G01X07181Y-2624D01*
G01X07181Y-2624D02*
G01X07180Y-2631D01*
G01X07180Y-2631D02*
G01X07180Y-2638D01*
G01X07180Y-2638D02*
G01X07181Y-2644D01*
G01X07181Y-2644D02*
G01X07183Y-2647D01*
G01X07183Y-2647D02*
G01X07184Y-2649D01*
G01X07184Y-2649D02*
G01X07187Y-2650D01*
G01X07187Y-2650D02*
G01X07191Y-2650D01*
G01X07191Y-2650D02*
G01X07194Y-2649D01*
G01X07194Y-2649D02*
G01X07195Y-2647D01*
G01X07195Y-2647D02*
G01X07197Y-2644D01*
G01X07197Y-2644D02*
G01X07198Y-2638D01*
G01X07198Y-2638D02*
G01X07198Y-2631D01*
G01X07198Y-2631D02*
G01X07197Y-2624D01*
G01X07197Y-2624D02*
G01X07195Y-2621D01*
G01X07195Y-2621D02*
G01X07194Y-2620D01*
G01X07194Y-2620D02*
G01X07191Y-2618D01*
G01X07168Y-2621D02*
G01X07166Y-2620D01*
G01X07166Y-2620D02*
G01X07163Y-2618D01*
G01X07163Y-2618D02*
G01X07155Y-2618D01*
G01X07155Y-2618D02*
G01X07152Y-2620D01*
G01X07152Y-2620D02*
G01X07151Y-2621D01*
G01X07151Y-2621D02*
G01X07149Y-2624D01*
G01X07149Y-2624D02*
G01X07149Y-2628D01*
G01X07149Y-2628D02*
G01X07151Y-2632D01*
G01X07151Y-2632D02*
G01X07169Y-2650D01*
G01X07169Y-2650D02*
G01X07149Y-2650D01*
G01X07502Y-2650D02*
G01X07502Y-2618D01*
G01X07502Y-2618D02*
G01X07494Y-2618D01*
G01X07494Y-2618D02*
G01X07489Y-2620D01*
G01X07489Y-2620D02*
G01X07486Y-2623D01*
G01X07486Y-2623D02*
G01X07485Y-2626D01*
G01X07485Y-2626D02*
G01X07483Y-2632D01*
G01X07483Y-2632D02*
G01X07483Y-2637D01*
G01X07483Y-2637D02*
G01X07485Y-2643D01*
G01X07485Y-2643D02*
G01X07486Y-2646D01*
G01X07486Y-2646D02*
G01X07489Y-2649D01*
G01X07489Y-2649D02*
G01X07494Y-2650D01*
G01X07494Y-2650D02*
G01X07502Y-2650D01*
G01X07456Y-2629D02*
G01X07456Y-2650D01*
G01X07464Y-2617D02*
G01X07471Y-2640D01*
G01X07471Y-2640D02*
G01X07451Y-2640D01*
G01X07433Y-2618D02*
G01X07430Y-2618D01*
G01X07430Y-2618D02*
G01X07427Y-2620D01*
G01X07427Y-2620D02*
G01X07425Y-2621D01*
G01X07425Y-2621D02*
G01X07424Y-2624D01*
G01X07424Y-2624D02*
G01X07422Y-2631D01*
G01X07422Y-2631D02*
G01X07422Y-2638D01*
G01X07422Y-2638D02*
G01X07424Y-2644D01*
G01X07424Y-2644D02*
G01X07425Y-2647D01*
G01X07425Y-2647D02*
G01X07427Y-2649D01*
G01X07427Y-2649D02*
G01X07430Y-2650D01*
G01X07430Y-2650D02*
G01X07433Y-2650D01*
G01X07433Y-2650D02*
G01X07436Y-2649D01*
G01X07436Y-2649D02*
G01X07438Y-2647D01*
G01X07438Y-2647D02*
G01X07439Y-2644D01*
G01X07439Y-2644D02*
G01X07441Y-2638D01*
G01X07441Y-2638D02*
G01X07441Y-2631D01*
G01X07441Y-2631D02*
G01X07439Y-2624D01*
G01X07439Y-2624D02*
G01X07438Y-2621D01*
G01X07438Y-2621D02*
G01X07436Y-2620D01*
G01X07436Y-2620D02*
G01X07433Y-2618D01*
G01X07392Y-2650D02*
G01X07410Y-2650D01*
G01X07401Y-2650D02*
G01X07401Y-2618D01*
G01X07401Y-2618D02*
G01X07404Y-2623D01*
G01X07404Y-2623D02*
G01X07407Y-2626D01*
G01X07407Y-2626D02*
G01X07410Y-2628D01*
G01X06977Y-2650D02*
G01X06977Y-2618D01*
G01X06977Y-2618D02*
G01X06969Y-2618D01*
G01X06969Y-2618D02*
G01X06964Y-2620D01*
G01X06964Y-2620D02*
G01X06961Y-2623D01*
G01X06961Y-2623D02*
G01X06960Y-2626D01*
G01X06960Y-2626D02*
G01X06958Y-2632D01*
G01X06958Y-2632D02*
G01X06958Y-2637D01*
G01X06958Y-2637D02*
G01X06960Y-2643D01*
G01X06960Y-2643D02*
G01X06961Y-2646D01*
G01X06961Y-2646D02*
G01X06964Y-2649D01*
G01X06964Y-2649D02*
G01X06969Y-2650D01*
G01X06969Y-2650D02*
G01X06977Y-2650D01*
G01X06931Y-2629D02*
G01X06931Y-2650D01*
G01X06939Y-2617D02*
G01X06946Y-2640D01*
G01X06946Y-2640D02*
G01X06926Y-2640D01*
G01X06908Y-2618D02*
G01X06905Y-2618D01*
G01X06905Y-2618D02*
G01X06902Y-2620D01*
G01X06902Y-2620D02*
G01X06900Y-2621D01*
G01X06900Y-2621D02*
G01X06899Y-2624D01*
G01X06899Y-2624D02*
G01X06897Y-2631D01*
G01X06897Y-2631D02*
G01X06897Y-2638D01*
G01X06897Y-2638D02*
G01X06899Y-2644D01*
G01X06899Y-2644D02*
G01X06900Y-2647D01*
G01X06900Y-2647D02*
G01X06902Y-2649D01*
G01X06902Y-2649D02*
G01X06905Y-2650D01*
G01X06905Y-2650D02*
G01X06908Y-2650D01*
G01X06908Y-2650D02*
G01X06911Y-2649D01*
G01X06911Y-2649D02*
G01X06913Y-2647D01*
G01X06913Y-2647D02*
G01X06914Y-2644D01*
G01X06914Y-2644D02*
G01X06916Y-2638D01*
G01X06916Y-2638D02*
G01X06916Y-2631D01*
G01X06916Y-2631D02*
G01X06914Y-2624D01*
G01X06914Y-2624D02*
G01X06913Y-2621D01*
G01X06913Y-2621D02*
G01X06911Y-2620D01*
G01X06911Y-2620D02*
G01X06908Y-2618D01*
G01X06887Y-2618D02*
G01X06867Y-2618D01*
G01X06867Y-2618D02*
G01X06878Y-2631D01*
G01X06878Y-2631D02*
G01X06873Y-2631D01*
G01X06873Y-2631D02*
G01X06870Y-2632D01*
G01X06870Y-2632D02*
G01X06868Y-2634D01*
G01X06868Y-2634D02*
G01X06867Y-2637D01*
G01X06867Y-2637D02*
G01X06867Y-2644D01*
G01X06867Y-2644D02*
G01X06868Y-2647D01*
G01X06868Y-2647D02*
G01X06870Y-2649D01*
G01X06870Y-2649D02*
G01X06873Y-2650D01*
G01X06873Y-2650D02*
G01X06882Y-2650D01*
G01X06882Y-2650D02*
G01X06885Y-2649D01*
G01X06885Y-2649D02*
G01X06887Y-2647D01*
G01X06558Y-3292D02*
G01X06560Y-3294D01*
G01X06560Y-3294D02*
G01X06564Y-3295D01*
G01X06564Y-3295D02*
G01X06567Y-3295D01*
G01X06567Y-3295D02*
G01X06572Y-3294D01*
G01X06572Y-3294D02*
G01X06575Y-3291D01*
G01X06575Y-3291D02*
G01X06577Y-3288D01*
G01X06577Y-3288D02*
G01X06578Y-3282D01*
G01X06578Y-3282D02*
G01X06578Y-3277D01*
G01X06578Y-3277D02*
G01X06577Y-3271D01*
G01X06577Y-3271D02*
G01X06575Y-3268D01*
G01X06575Y-3268D02*
G01X06572Y-3265D01*
G01X06572Y-3265D02*
G01X06567Y-3263D01*
G01X06567Y-3263D02*
G01X06564Y-3263D01*
G01X06564Y-3263D02*
G01X06560Y-3265D01*
G01X06560Y-3265D02*
G01X06558Y-3266D01*
G01X06546Y-3266D02*
G01X06545Y-3265D01*
G01X06545Y-3265D02*
G01X06542Y-3263D01*
G01X06542Y-3263D02*
G01X06534Y-3263D01*
G01X06534Y-3263D02*
G01X06531Y-3265D01*
G01X06531Y-3265D02*
G01X06529Y-3266D01*
G01X06529Y-3266D02*
G01X06528Y-3269D01*
G01X06528Y-3269D02*
G01X06528Y-3273D01*
G01X06528Y-3273D02*
G01X06529Y-3277D01*
G01X06529Y-3277D02*
G01X06548Y-3295D01*
G01X06548Y-3295D02*
G01X06528Y-3295D01*
G01X06497Y-3295D02*
G01X06516Y-3295D01*
G01X06507Y-3295D02*
G01X06507Y-3263D01*
G01X06507Y-3263D02*
G01X06510Y-3268D01*
G01X06510Y-3268D02*
G01X06513Y-3271D01*
G01X06513Y-3271D02*
G01X06516Y-3273D01*
G01X06470Y-3274D02*
G01X06470Y-3295D01*
G01X06478Y-3262D02*
G01X06485Y-3285D01*
G01X06485Y-3285D02*
G01X06465Y-3285D01*
%LPC*%
G54D14*
G01X03850Y-3850D03*
G54D15*
G01X03850Y-3750D03*
G54D16*
G01X05014Y-2386D03*
G01X05045Y-2434D03*
G01X05077Y-2386D03*
G01X05108Y-2434D03*
G01X04982Y-2434D03*
G54D17*
G01X04901Y-2233D03*
G01X05189Y-2233D03*
G54D14*
G01X03850Y-3950D03*
G54D15*
G01X03850Y-4050D03*
G01X04400Y-4080D03*
G01X04450Y-3020D03*
G01X04350Y-3020D03*
G54D14*
G01X03952Y-3599D03*
G54D15*
G01X03852Y-3599D03*
G01X03952Y-3499D03*
G01X03852Y-3499D03*
G01X03952Y-3399D03*
G01X03852Y-3399D03*
G01X03952Y-3299D03*
G01X03852Y-3299D03*
G01X03952Y-3199D03*
G01X03852Y-3199D03*
G01X03952Y-3099D03*
G01X03852Y-3099D03*
G01X03952Y-2999D03*
G01X03852Y-2999D03*
G54D18*
G01X05884Y-3437D03*
G01X05959Y-3437D03*
G01X05050Y-2602D03*
G01X05125Y-2602D03*
G01X07258Y-3360D03*
G01X07183Y-3360D03*
G01X07168Y-2947D03*
G01X07243Y-2947D03*
G54D19*
G01X06448Y-4615D03*
G01X06448Y-4540D03*
G01X05878Y-4740D03*
G01X05878Y-4665D03*
G01X05298Y-4740D03*
G01X05298Y-4665D03*
G01X06448Y-4355D03*
G01X06448Y-4430D03*
G01X05878Y-4480D03*
G01X05878Y-4555D03*
G01X05298Y-4480D03*
G01X05298Y-4555D03*
G01X05055Y-4522D03*
G01X05055Y-4597D03*
G54D18*
G01X06973Y-3310D03*
G01X07048Y-3310D03*
G01X06728Y-3480D03*
G01X06653Y-3480D03*
G54D19*
G01X06270Y-3987D03*
G01X06270Y-3912D03*
G54D18*
G01X05746Y-3512D03*
G01X05821Y-3512D03*
G54D19*
G01X06000Y-3987D03*
G01X06000Y-3912D03*
G01X06520Y-3987D03*
G01X06520Y-3912D03*
G54D18*
G01X06728Y-3740D03*
G01X06653Y-3740D03*
G01X06728Y-3250D03*
G01X06653Y-3250D03*
G54D19*
G01X06555Y-3005D03*
G01X06555Y-3080D03*
G54D18*
G01X05753Y-3740D03*
G01X05828Y-3740D03*
G54D19*
G01X07383Y-4862D03*
G01X07383Y-4937D03*
G54D18*
G01X05475Y-3682D03*
G01X05400Y-3682D03*
G01X06973Y-3660D03*
G01X07048Y-3660D03*
G01X05884Y-3512D03*
G01X05959Y-3512D03*
G01X04763Y-3345D03*
G01X04838Y-3345D03*
G54D19*
G01X04780Y-3142D03*
G01X04780Y-3217D03*
G54D18*
G01X04998Y-3345D03*
G01X04923Y-3345D03*
G54D19*
G01X04798Y-3512D03*
G01X04798Y-3437D03*
G01X05513Y-4480D03*
G01X05513Y-4555D03*
G01X06093Y-4480D03*
G01X06093Y-4555D03*
G01X06663Y-4355D03*
G01X06663Y-4430D03*
G01X06663Y-4615D03*
G01X06663Y-4540D03*
G01X06093Y-4740D03*
G01X06093Y-4665D03*
G01X05513Y-4740D03*
G01X05513Y-4665D03*
G54D20*
G01X05431Y-3205D03*
G01X06313Y-3205D03*
G54D21*
G01X06139Y-3291D03*
G01X06041Y-3291D03*
G01X05942Y-3291D03*
G01X05844Y-3291D03*
G01X05745Y-3291D03*
G01X05647Y-3291D03*
G01X05552Y-3291D03*
G01X05485Y-3291D03*
G01X06238Y-3291D03*
G54D22*
G01X06471Y-3026D03*
G01X06471Y-2291D03*
G01X05329Y-3026D03*
G01X05329Y-2291D03*
G54D23*
G01X05345Y-2843D03*
G01X05345Y-2490D03*
G01X05345Y-2388D03*
G54D19*
G01X05058Y-2665D03*
G01X05058Y-2740D03*
G01X04988Y-2517D03*
G01X04988Y-2592D03*
G54D24*
G01X05643Y-4672D03*
G01X05573Y-4672D03*
G01X05608Y-4752D03*
G54D19*
G01X04953Y-3630D03*
G01X04953Y-3555D03*
G54D25*
G01X05055Y-4457D03*
G54D26*
G01X04955Y-4457D03*
G01X04855Y-4457D03*
G01X04755Y-4457D03*
G01X04755Y-4757D03*
G01X04855Y-4757D03*
G01X04955Y-4757D03*
G01X05055Y-4757D03*
G54D19*
G01X04855Y-4692D03*
G01X04855Y-4617D03*
G01X04955Y-4692D03*
G01X04955Y-4617D03*
G01X06693Y-4865D03*
G01X06693Y-4940D03*
G01X06623Y-4810D03*
G01X06623Y-4735D03*
G54D18*
G01X05603Y-4952D03*
G01X05528Y-4952D03*
G01X05658Y-4952D03*
G01X05733Y-4952D03*
G54D19*
G01X05795Y-4880D03*
G01X05795Y-4955D03*
G01X06623Y-4940D03*
G01X06623Y-4865D03*
G01X05738Y-4740D03*
G01X05738Y-4665D03*
G01X05370Y-4740D03*
G01X05370Y-4665D03*
G54D18*
G01X05658Y-4882D03*
G01X05733Y-4882D03*
G54D19*
G01X05808Y-4740D03*
G01X05808Y-4665D03*
G01X05443Y-4740D03*
G01X05443Y-4665D03*
G54D27*
G01X07236Y-5279D03*
G01X04184Y-5279D03*
G54D28*
G01X05710Y-5279D03*
G54D29*
G01X07130Y-2425D03*
G01X07230Y-2425D03*
G01X07353Y-2425D03*
G01X07453Y-2425D03*
G01X06908Y-2425D03*
G01X07008Y-2425D03*
G54D18*
G01X06485Y-3215D03*
G01X06560Y-3215D03*
M02*
