G04 (created by PCBNEW-RS274X (2010-12-16 BZR 2663)-testing) date Tue 15 Feb 2011 12:53:02 PM CET*
G01*
G70*
G90*
%MOIN*%
G04 Gerber Fmt 3.4, Leading zero omitted, Abs format*
%FSLAX34Y34*%
G04 APERTURE LIST*
%ADD10C,0.008000*%
%ADD11C,0.007500*%
G04 APERTURE END LIST*
G54D10*
G54D11*
X74541Y-54369D02*
X74565Y-54367D01*
X74588Y-54364D01*
X74612Y-54359D01*
X74635Y-54352D01*
X74657Y-54343D01*
X74679Y-54332D01*
X74699Y-54319D01*
X74718Y-54304D01*
X74736Y-54288D01*
X74752Y-54270D01*
X74767Y-54251D01*
X74780Y-54230D01*
X74791Y-54209D01*
X74800Y-54187D01*
X74807Y-54164D01*
X74812Y-54140D01*
X74815Y-54117D01*
X74817Y-54093D01*
X69895Y-54093D02*
X69897Y-54117D01*
X69900Y-54140D01*
X69905Y-54164D01*
X69912Y-54187D01*
X69921Y-54209D01*
X69932Y-54230D01*
X69945Y-54251D01*
X69960Y-54270D01*
X69976Y-54288D01*
X69994Y-54304D01*
X70013Y-54319D01*
X70034Y-54332D01*
X70055Y-54343D01*
X70077Y-54352D01*
X70100Y-54359D01*
X70124Y-54364D01*
X70147Y-54367D01*
X70171Y-54369D01*
X68635Y-54369D02*
X68659Y-54367D01*
X68682Y-54364D01*
X68706Y-54359D01*
X68729Y-54352D01*
X68751Y-54343D01*
X68773Y-54332D01*
X68793Y-54319D01*
X68812Y-54304D01*
X68830Y-54288D01*
X68846Y-54270D01*
X68861Y-54251D01*
X68874Y-54230D01*
X68885Y-54209D01*
X68894Y-54187D01*
X68901Y-54164D01*
X68906Y-54140D01*
X68909Y-54117D01*
X68911Y-54093D01*
X45289Y-54093D02*
X45291Y-54117D01*
X45294Y-54140D01*
X45299Y-54164D01*
X45306Y-54187D01*
X45315Y-54209D01*
X45326Y-54230D01*
X45339Y-54251D01*
X45354Y-54270D01*
X45370Y-54288D01*
X45388Y-54304D01*
X45407Y-54319D01*
X45428Y-54332D01*
X45449Y-54343D01*
X45471Y-54352D01*
X45494Y-54359D01*
X45518Y-54364D01*
X45541Y-54367D01*
X45565Y-54369D01*
X44029Y-54369D02*
X44053Y-54367D01*
X44076Y-54364D01*
X44100Y-54359D01*
X44123Y-54352D01*
X44145Y-54343D01*
X44167Y-54332D01*
X44187Y-54319D01*
X44206Y-54304D01*
X44224Y-54288D01*
X44240Y-54270D01*
X44255Y-54251D01*
X44268Y-54230D01*
X44279Y-54209D01*
X44288Y-54187D01*
X44295Y-54164D01*
X44300Y-54140D01*
X44303Y-54117D01*
X44305Y-54093D01*
X39383Y-54093D02*
X39385Y-54117D01*
X39388Y-54140D01*
X39393Y-54164D01*
X39400Y-54187D01*
X39409Y-54209D01*
X39420Y-54230D01*
X39433Y-54251D01*
X39448Y-54270D01*
X39464Y-54288D01*
X39482Y-54304D01*
X39501Y-54319D01*
X39522Y-54332D01*
X39543Y-54343D01*
X39565Y-54352D01*
X39588Y-54359D01*
X39612Y-54364D01*
X39635Y-54367D01*
X39659Y-54369D01*
X48478Y-23069D02*
X37809Y-23069D01*
X65624Y-21691D02*
X48478Y-21691D01*
X76588Y-23069D02*
X65624Y-23069D01*
X48478Y-23069D02*
X48478Y-21691D01*
X65624Y-21691D02*
X65624Y-23069D01*
X76588Y-23069D02*
X76588Y-24644D01*
X76588Y-24644D02*
X75604Y-24644D01*
X75604Y-24644D02*
X75604Y-25313D01*
X75604Y-25313D02*
X76588Y-25313D01*
X76588Y-25313D02*
X76588Y-27282D01*
X76588Y-27282D02*
X77139Y-27282D01*
X77139Y-27282D02*
X77139Y-47597D01*
X77139Y-47597D02*
X75565Y-47597D01*
X75565Y-47597D02*
X75565Y-48384D01*
X75565Y-48384D02*
X76549Y-48384D01*
X76549Y-48384D02*
X76549Y-50195D01*
X76549Y-50195D02*
X74817Y-50195D01*
X74817Y-50195D02*
X74817Y-50235D01*
X37179Y-27321D02*
X37809Y-27321D01*
X37809Y-27321D02*
X37809Y-25313D01*
X37809Y-25313D02*
X38793Y-25313D01*
X38793Y-25313D02*
X38793Y-24644D01*
X38793Y-24644D02*
X37809Y-24644D01*
X37809Y-24644D02*
X37809Y-23069D01*
X37179Y-45510D02*
X37179Y-27321D01*
X39383Y-54093D02*
X39383Y-50235D01*
X39383Y-50235D02*
X39383Y-50195D01*
X39383Y-50195D02*
X37179Y-50195D01*
X37179Y-50195D02*
X37179Y-48306D01*
X37179Y-48306D02*
X37809Y-48306D01*
X37809Y-48306D02*
X37809Y-46298D01*
X37809Y-46298D02*
X38793Y-46298D01*
X38793Y-46298D02*
X38793Y-45510D01*
X38793Y-45510D02*
X37179Y-45510D01*
X44029Y-54369D02*
X39659Y-54369D01*
X45289Y-54093D02*
X45289Y-49920D01*
X45289Y-49920D02*
X44305Y-49920D01*
X44305Y-49920D02*
X44305Y-54093D01*
X74817Y-54093D02*
X74817Y-50235D01*
X70171Y-54369D02*
X74541Y-54369D01*
X68911Y-54093D02*
X68911Y-49920D01*
X68911Y-49920D02*
X69895Y-49920D01*
X69895Y-49920D02*
X69895Y-54093D01*
X68635Y-54369D02*
X45565Y-54369D01*
M02*
