G04 (created by PCBNEW-RS274X (2010-12-16 BZR 2663)-testing) date Tue 15 Feb 2011 12:52:38 PM CET*
G01*
G70*
G90*
%MOIN*%
G04 Gerber Fmt 3.4, Leading zero omitted, Abs format*
%FSLAX34Y34*%
G04 APERTURE LIST*
%ADD10C,0.008000*%
%ADD11R,0.068000X0.068000*%
%ADD12C,0.068000*%
%ADD13C,0.047400*%
%ADD14O,0.047400X0.094600*%
%ADD15R,0.043000X0.063000*%
%ADD16R,0.063000X0.043000*%
%ADD17C,0.059200*%
%ADD18R,0.051300X0.086700*%
%ADD19R,0.086700X0.086700*%
%ADD20R,0.086700X0.047400*%
%ADD21R,0.044000X0.044000*%
%ADD22R,0.063000X0.063000*%
%ADD23C,0.063000*%
%ADD24R,0.492900X0.315800*%
%ADD25R,2.363000X0.315800*%
%ADD26C,0.074000*%
G04 APERTURE END LIST*
G54D10*
G54D11*
X38500Y-38500D03*
G54D12*
X38500Y-37500D03*
G54D13*
X50135Y-23864D03*
X50450Y-24336D03*
X50765Y-23864D03*
X51080Y-24336D03*
X49820Y-24336D03*
G54D14*
X49013Y-22328D03*
X51887Y-22328D03*
G54D11*
X38500Y-39500D03*
G54D12*
X38500Y-40500D03*
X44000Y-40800D03*
X44500Y-30200D03*
X43500Y-30200D03*
G54D11*
X39516Y-35992D03*
G54D12*
X38516Y-35992D03*
X39516Y-34992D03*
X38516Y-34992D03*
X39516Y-33992D03*
X38516Y-33992D03*
X39516Y-32992D03*
X38516Y-32992D03*
X39516Y-31992D03*
X38516Y-31992D03*
X39516Y-30992D03*
X38516Y-30992D03*
X39516Y-29992D03*
X38516Y-29992D03*
G54D15*
X58838Y-34370D03*
X59588Y-34370D03*
X50500Y-26025D03*
X51250Y-26025D03*
X72575Y-33600D03*
X71825Y-33600D03*
X71675Y-29475D03*
X72425Y-29475D03*
G54D16*
X64475Y-46150D03*
X64475Y-45400D03*
X58775Y-47400D03*
X58775Y-46650D03*
X52975Y-47400D03*
X52975Y-46650D03*
X64475Y-43550D03*
X64475Y-44300D03*
X58775Y-44800D03*
X58775Y-45550D03*
X52975Y-44800D03*
X52975Y-45550D03*
X50550Y-45225D03*
X50550Y-45975D03*
G54D15*
X69725Y-33100D03*
X70475Y-33100D03*
X67275Y-34800D03*
X66525Y-34800D03*
G54D16*
X62700Y-39875D03*
X62700Y-39125D03*
G54D15*
X57460Y-35118D03*
X58210Y-35118D03*
G54D16*
X59275Y-39875D03*
X59275Y-39125D03*
X66825Y-39900D03*
X66825Y-40650D03*
G54D15*
X67850Y-38600D03*
X67100Y-38600D03*
X67850Y-33850D03*
X67100Y-33850D03*
G54D16*
X66425Y-29550D03*
X66425Y-30300D03*
G54D15*
X56675Y-33875D03*
X55925Y-33875D03*
X56675Y-36025D03*
X55925Y-36025D03*
G54D16*
X73825Y-48625D03*
X73825Y-49375D03*
G54D15*
X54750Y-36825D03*
X54000Y-36825D03*
X69725Y-36600D03*
X70475Y-36600D03*
X58838Y-35118D03*
X59588Y-35118D03*
X47625Y-33450D03*
X48375Y-33450D03*
G54D16*
X47800Y-31425D03*
X47800Y-32175D03*
G54D15*
X49975Y-33450D03*
X49225Y-33450D03*
G54D16*
X47975Y-35125D03*
X47975Y-34375D03*
X55125Y-44800D03*
X55125Y-45550D03*
X60925Y-44800D03*
X60925Y-45550D03*
X66625Y-43550D03*
X66625Y-44300D03*
X66625Y-46150D03*
X66625Y-45400D03*
X60925Y-47400D03*
X60925Y-46650D03*
X55125Y-47400D03*
X55125Y-46650D03*
G54D17*
X54314Y-32049D03*
X63133Y-32049D03*
G54D18*
X61391Y-32915D03*
X60407Y-32915D03*
X59422Y-32915D03*
X58438Y-32915D03*
X57454Y-32915D03*
X56470Y-32915D03*
X55515Y-32915D03*
X54845Y-32915D03*
X62375Y-32915D03*
G54D19*
X64708Y-30258D03*
X64708Y-22915D03*
X53290Y-30258D03*
X53290Y-22915D03*
G54D20*
X53448Y-28427D03*
X53448Y-24903D03*
X53448Y-23880D03*
G54D16*
X50575Y-26650D03*
X50575Y-27400D03*
X49875Y-25175D03*
X49875Y-25925D03*
G54D21*
X56425Y-46725D03*
X55725Y-46725D03*
X56075Y-47525D03*
G54D16*
X49525Y-36300D03*
X49525Y-35550D03*
G54D22*
X50550Y-44575D03*
G54D23*
X49550Y-44575D03*
X48550Y-44575D03*
X47550Y-44575D03*
X47550Y-47575D03*
X48550Y-47575D03*
X49550Y-47575D03*
X50550Y-47575D03*
G54D16*
X48550Y-46925D03*
X48550Y-46175D03*
X49550Y-46925D03*
X49550Y-46175D03*
X66925Y-48650D03*
X66925Y-49400D03*
X66225Y-48100D03*
X66225Y-47350D03*
G54D15*
X56025Y-49525D03*
X55275Y-49525D03*
X56575Y-49525D03*
X57325Y-49525D03*
G54D16*
X57950Y-48800D03*
X57950Y-49550D03*
X66225Y-49400D03*
X66225Y-48650D03*
X57375Y-47400D03*
X57375Y-46650D03*
X53700Y-47400D03*
X53700Y-46650D03*
G54D15*
X56575Y-48825D03*
X57325Y-48825D03*
G54D16*
X58075Y-47400D03*
X58075Y-46650D03*
X54425Y-47400D03*
X54425Y-46650D03*
G54D24*
X72356Y-52794D03*
X41844Y-52794D03*
G54D25*
X57100Y-52794D03*
G54D26*
X71300Y-24250D03*
X72300Y-24250D03*
X73525Y-24250D03*
X74525Y-24250D03*
X69075Y-24250D03*
X70075Y-24250D03*
G54D15*
X64850Y-32150D03*
X65600Y-32150D03*
G54D16*
X61725Y-39875D03*
X61725Y-39125D03*
G54D15*
X57525Y-38550D03*
X56775Y-38550D03*
G54D16*
X59000Y-36500D03*
X59000Y-37250D03*
G54D15*
X63475Y-40750D03*
X62725Y-40750D03*
X67850Y-36025D03*
X67100Y-36025D03*
X67850Y-31300D03*
X67100Y-31300D03*
G54D21*
X54675Y-48725D03*
X53975Y-48725D03*
X54325Y-49525D03*
G54D15*
X52675Y-48725D03*
X53425Y-48725D03*
M02*
